%TF.GenerationSoftware,KiCad,Pcbnew,5.1.10*%
%TF.CreationDate,2021-06-17T09:11:18+01:00*%
%TF.ProjectId,controller,636f6e74-726f-46c6-9c65-722e6b696361,V0.2*%
%TF.SameCoordinates,Original*%
%TF.FileFunction,Paste,Top*%
%TF.FilePolarity,Positive*%
%FSLAX46Y46*%
G04 Gerber Fmt 4.6, Leading zero omitted, Abs format (unit mm)*
G04 Created by KiCad (PCBNEW 5.1.10) date 2021-06-17 09:11:18*
%MOMM*%
%LPD*%
G01*
G04 APERTURE LIST*
%ADD10R,0.800000X0.900000*%
G04 APERTURE END LIST*
G36*
G01*
X168605000Y-109940000D02*
X167655000Y-109940000D01*
G75*
G02*
X167405000Y-109690000I0J250000D01*
G01*
X167405000Y-109190000D01*
G75*
G02*
X167655000Y-108940000I250000J0D01*
G01*
X168605000Y-108940000D01*
G75*
G02*
X168855000Y-109190000I0J-250000D01*
G01*
X168855000Y-109690000D01*
G75*
G02*
X168605000Y-109940000I-250000J0D01*
G01*
G37*
G36*
G01*
X168605000Y-108040000D02*
X167655000Y-108040000D01*
G75*
G02*
X167405000Y-107790000I0J250000D01*
G01*
X167405000Y-107290000D01*
G75*
G02*
X167655000Y-107040000I250000J0D01*
G01*
X168605000Y-107040000D01*
G75*
G02*
X168855000Y-107290000I0J-250000D01*
G01*
X168855000Y-107790000D01*
G75*
G02*
X168605000Y-108040000I-250000J0D01*
G01*
G37*
G36*
G01*
X174212600Y-108040000D02*
X173262600Y-108040000D01*
G75*
G02*
X173012600Y-107790000I0J250000D01*
G01*
X173012600Y-107290000D01*
G75*
G02*
X173262600Y-107040000I250000J0D01*
G01*
X174212600Y-107040000D01*
G75*
G02*
X174462600Y-107290000I0J-250000D01*
G01*
X174462600Y-107790000D01*
G75*
G02*
X174212600Y-108040000I-250000J0D01*
G01*
G37*
G36*
G01*
X174212600Y-109940000D02*
X173262600Y-109940000D01*
G75*
G02*
X173012600Y-109690000I0J250000D01*
G01*
X173012600Y-109190000D01*
G75*
G02*
X173262600Y-108940000I250000J0D01*
G01*
X174212600Y-108940000D01*
G75*
G02*
X174462600Y-109190000I0J-250000D01*
G01*
X174462600Y-109690000D01*
G75*
G02*
X174212600Y-109940000I-250000J0D01*
G01*
G37*
G36*
G01*
X179820200Y-108040000D02*
X178870200Y-108040000D01*
G75*
G02*
X178620200Y-107790000I0J250000D01*
G01*
X178620200Y-107290000D01*
G75*
G02*
X178870200Y-107040000I250000J0D01*
G01*
X179820200Y-107040000D01*
G75*
G02*
X180070200Y-107290000I0J-250000D01*
G01*
X180070200Y-107790000D01*
G75*
G02*
X179820200Y-108040000I-250000J0D01*
G01*
G37*
G36*
G01*
X179820200Y-109940000D02*
X178870200Y-109940000D01*
G75*
G02*
X178620200Y-109690000I0J250000D01*
G01*
X178620200Y-109190000D01*
G75*
G02*
X178870200Y-108940000I250000J0D01*
G01*
X179820200Y-108940000D01*
G75*
G02*
X180070200Y-109190000I0J-250000D01*
G01*
X180070200Y-109690000D01*
G75*
G02*
X179820200Y-109940000I-250000J0D01*
G01*
G37*
G36*
G01*
X164500699Y-108870000D02*
X165400701Y-108870000D01*
G75*
G02*
X165650700Y-109119999I0J-249999D01*
G01*
X165650700Y-109645001D01*
G75*
G02*
X165400701Y-109895000I-249999J0D01*
G01*
X164500699Y-109895000D01*
G75*
G02*
X164250700Y-109645001I0J249999D01*
G01*
X164250700Y-109119999D01*
G75*
G02*
X164500699Y-108870000I249999J0D01*
G01*
G37*
G36*
G01*
X164500699Y-107045000D02*
X165400701Y-107045000D01*
G75*
G02*
X165650700Y-107294999I0J-249999D01*
G01*
X165650700Y-107820001D01*
G75*
G02*
X165400701Y-108070000I-249999J0D01*
G01*
X164500699Y-108070000D01*
G75*
G02*
X164250700Y-107820001I0J249999D01*
G01*
X164250700Y-107294999D01*
G75*
G02*
X164500699Y-107045000I249999J0D01*
G01*
G37*
G36*
G01*
X162544899Y-107045000D02*
X163444901Y-107045000D01*
G75*
G02*
X163694900Y-107294999I0J-249999D01*
G01*
X163694900Y-107820001D01*
G75*
G02*
X163444901Y-108070000I-249999J0D01*
G01*
X162544899Y-108070000D01*
G75*
G02*
X162294900Y-107820001I0J249999D01*
G01*
X162294900Y-107294999D01*
G75*
G02*
X162544899Y-107045000I249999J0D01*
G01*
G37*
G36*
G01*
X162544899Y-108870000D02*
X163444901Y-108870000D01*
G75*
G02*
X163694900Y-109119999I0J-249999D01*
G01*
X163694900Y-109645001D01*
G75*
G02*
X163444901Y-109895000I-249999J0D01*
G01*
X162544899Y-109895000D01*
G75*
G02*
X162294900Y-109645001I0J249999D01*
G01*
X162294900Y-109119999D01*
G75*
G02*
X162544899Y-108870000I249999J0D01*
G01*
G37*
G36*
G01*
X186472500Y-88129999D02*
X186472500Y-89030001D01*
G75*
G02*
X186222501Y-89280000I-249999J0D01*
G01*
X185697499Y-89280000D01*
G75*
G02*
X185447500Y-89030001I0J249999D01*
G01*
X185447500Y-88129999D01*
G75*
G02*
X185697499Y-87880000I249999J0D01*
G01*
X186222501Y-87880000D01*
G75*
G02*
X186472500Y-88129999I0J-249999D01*
G01*
G37*
G36*
G01*
X184647500Y-88129999D02*
X184647500Y-89030001D01*
G75*
G02*
X184397501Y-89280000I-249999J0D01*
G01*
X183872499Y-89280000D01*
G75*
G02*
X183622500Y-89030001I0J249999D01*
G01*
X183622500Y-88129999D01*
G75*
G02*
X183872499Y-87880000I249999J0D01*
G01*
X184397501Y-87880000D01*
G75*
G02*
X184647500Y-88129999I0J-249999D01*
G01*
G37*
G36*
G01*
X167051300Y-95573001D02*
X167051300Y-94672999D01*
G75*
G02*
X167301299Y-94423000I249999J0D01*
G01*
X167826301Y-94423000D01*
G75*
G02*
X168076300Y-94672999I0J-249999D01*
G01*
X168076300Y-95573001D01*
G75*
G02*
X167826301Y-95823000I-249999J0D01*
G01*
X167301299Y-95823000D01*
G75*
G02*
X167051300Y-95573001I0J249999D01*
G01*
G37*
G36*
G01*
X165226300Y-95573001D02*
X165226300Y-94672999D01*
G75*
G02*
X165476299Y-94423000I249999J0D01*
G01*
X166001301Y-94423000D01*
G75*
G02*
X166251300Y-94672999I0J-249999D01*
G01*
X166251300Y-95573001D01*
G75*
G02*
X166001301Y-95823000I-249999J0D01*
G01*
X165476299Y-95823000D01*
G75*
G02*
X165226300Y-95573001I0J249999D01*
G01*
G37*
G36*
G01*
X160589099Y-107045000D02*
X161489101Y-107045000D01*
G75*
G02*
X161739100Y-107294999I0J-249999D01*
G01*
X161739100Y-107820001D01*
G75*
G02*
X161489101Y-108070000I-249999J0D01*
G01*
X160589099Y-108070000D01*
G75*
G02*
X160339100Y-107820001I0J249999D01*
G01*
X160339100Y-107294999D01*
G75*
G02*
X160589099Y-107045000I249999J0D01*
G01*
G37*
G36*
G01*
X160589099Y-108870000D02*
X161489101Y-108870000D01*
G75*
G02*
X161739100Y-109119999I0J-249999D01*
G01*
X161739100Y-109645001D01*
G75*
G02*
X161489101Y-109895000I-249999J0D01*
G01*
X160589099Y-109895000D01*
G75*
G02*
X160339100Y-109645001I0J249999D01*
G01*
X160339100Y-109119999D01*
G75*
G02*
X160589099Y-108870000I249999J0D01*
G01*
G37*
G36*
G01*
X185447500Y-82000001D02*
X185447500Y-81099999D01*
G75*
G02*
X185697499Y-80850000I249999J0D01*
G01*
X186222501Y-80850000D01*
G75*
G02*
X186472500Y-81099999I0J-249999D01*
G01*
X186472500Y-82000001D01*
G75*
G02*
X186222501Y-82250000I-249999J0D01*
G01*
X185697499Y-82250000D01*
G75*
G02*
X185447500Y-82000001I0J249999D01*
G01*
G37*
G36*
G01*
X183622500Y-82000001D02*
X183622500Y-81099999D01*
G75*
G02*
X183872499Y-80850000I249999J0D01*
G01*
X184397501Y-80850000D01*
G75*
G02*
X184647500Y-81099999I0J-249999D01*
G01*
X184647500Y-82000001D01*
G75*
G02*
X184397501Y-82250000I-249999J0D01*
G01*
X183872499Y-82250000D01*
G75*
G02*
X183622500Y-82000001I0J249999D01*
G01*
G37*
D10*
X214120000Y-96330000D03*
X212220000Y-96330000D03*
X213170000Y-98330000D03*
G36*
G01*
X186472500Y-84614999D02*
X186472500Y-85515001D01*
G75*
G02*
X186222501Y-85765000I-249999J0D01*
G01*
X185697499Y-85765000D01*
G75*
G02*
X185447500Y-85515001I0J249999D01*
G01*
X185447500Y-84614999D01*
G75*
G02*
X185697499Y-84365000I249999J0D01*
G01*
X186222501Y-84365000D01*
G75*
G02*
X186472500Y-84614999I0J-249999D01*
G01*
G37*
G36*
G01*
X184647500Y-84614999D02*
X184647500Y-85515001D01*
G75*
G02*
X184397501Y-85765000I-249999J0D01*
G01*
X183872499Y-85765000D01*
G75*
G02*
X183622500Y-85515001I0J249999D01*
G01*
X183622500Y-84614999D01*
G75*
G02*
X183872499Y-84365000I249999J0D01*
G01*
X184397501Y-84365000D01*
G75*
G02*
X184647500Y-84614999I0J-249999D01*
G01*
G37*
M02*
