M48
; DRILL file {KiCad 5.1.10} date Thu Jun 17 09:11:25 2021
; FORMAT={-:-/ absolute / metric / decimal}
; #@! TF.CreationDate,2021-06-17T09:11:25+01:00
; #@! TF.GenerationSoftware,Kicad,Pcbnew,5.1.10
; #@! TF.FileFunction,Plated,1,2,PTH
FMAT,2
METRIC
T1C0.200
T2C0.300
T3C0.500
T4C0.750
T5C0.762
T6C0.800
T7C0.900
T8C1.000
T9C1.100
T10C1.300
T11C1.520
T12C3.500
%
G90
G05
T1
X176.6Y-82.4
X176.6Y-89.8
X179.6Y-74.05
X180.3Y-77.7
X183.0Y-85.0
X183.015Y-81.215
X195.262Y-87.138
X203.0Y-103.2
X205.4Y-104.0
X207.8Y-74.0
X209.19Y-89.99
X209.2Y-104.0
X210.6Y-103.2
X211.8Y-103.2
X214.11Y-87.16
X214.11Y-95.19
X215.6Y-90.0
X220.8Y-104.0
X234.65Y-87.16
T2
X158.6Y-100.4
X161.0Y-103.8
X161.0Y-106.4
X163.0Y-105.2
X164.0Y-73.4
X166.6Y-105.2
X166.617Y-109.382
X169.2Y-74.8
X170.94Y-100.26
X171.0Y-73.4
X172.0Y-109.4
X176.26Y-107.54
X181.8Y-74.8
X184.709Y-74.75
X190.2Y-76.0
X190.8Y-109.4
X190.94Y-102.54
X199.0Y-73.4
X199.2Y-102.6
X200.35Y-76.03
X200.41Y-74.75
X201.635Y-98.39
X205.84Y-75.98
X209.26Y-76.0
X211.27Y-98.33
X211.795Y-74.77
X211.81Y-111.98
X213.0Y-100.2
X214.34Y-111.23
X214.67Y-98.33
X216.01Y-74.75
X217.07Y-98.33
X226.6Y-76.0
X232.0Y-98.4
X232.11Y-111.24
X234.65Y-112.01
X236.75Y-74.75
X238.53Y-76.06
T3
X174.2Y-75.85
X181.845Y-83.755
X188.75Y-81.55
X188.779Y-88.579
X188.8Y-75.8
X204.175Y-88.66
X219.41Y-88.68
T4
X179.033Y-81.215
X179.033Y-83.755
X180.303Y-82.485
T5
X199.095Y-81.185
X199.095Y-109.125
X201.635Y-81.185
X201.635Y-109.125
X204.175Y-81.185
X204.175Y-109.125
X206.715Y-81.185
X206.715Y-109.125
X209.255Y-81.185
X209.255Y-109.125
X211.795Y-81.185
X211.795Y-109.125
X214.335Y-81.185
X214.335Y-109.125
X216.875Y-81.185
X216.875Y-109.125
X219.415Y-81.185
X219.415Y-109.125
X221.955Y-81.185
X221.955Y-109.125
X224.495Y-81.185
X224.495Y-109.125
X227.035Y-81.185
X227.035Y-109.125
X229.575Y-81.185
X229.575Y-109.125
X232.115Y-81.185
X232.115Y-109.125
X234.655Y-81.185
X234.655Y-109.125
T6
X156.71Y-103.72
X156.71Y-105.72
X177.711Y-95.174
X179.711Y-95.174
T7
X170.904Y-95.047
X173.444Y-95.047
X178.16Y-87.604
X180.701Y-87.604
T8
X199.095Y-83.725
X199.095Y-106.585
X201.635Y-83.725
X201.635Y-106.585
X204.175Y-83.725
X204.175Y-106.585
X206.715Y-83.725
X206.715Y-106.585
X209.255Y-83.725
X209.255Y-106.585
X211.795Y-83.725
X211.795Y-106.585
X214.335Y-83.725
X214.335Y-106.585
X216.875Y-83.725
X216.875Y-106.585
T9
X149.38Y-95.83
X157.0Y-95.83
X162.966Y-102.54
X165.506Y-102.54
X168.046Y-102.54
X173.66Y-102.54
X176.2Y-102.54
X178.373Y-77.964
X178.74Y-102.54
X185.992Y-77.964
T10
X158.686Y-89.946
X158.736Y-77.896
X170.936Y-77.896
X170.936Y-89.896
X172.886Y-83.946
T11
X149.36Y-78.75
X149.36Y-83.83
X149.36Y-88.91
X149.36Y-100.673
X149.36Y-105.753
X163.982Y-70.739
X169.062Y-70.739
X174.142Y-70.739
X179.629Y-70.739
X184.709Y-70.739
X190.183Y-70.739
X195.262Y-70.739
X200.343Y-70.739
X205.842Y-70.739
X210.922Y-70.739
X216.002Y-70.739
X221.082Y-70.739
X226.606Y-70.739
X231.686Y-70.739
X236.766Y-70.739
X241.846Y-70.739
T12
X148.8Y-70.2
X148.81Y-111.68
X241.3Y-80.02
X241.3Y-111.69
T0
M30
