%FSLAX45Y45*%
G04 Gerber Fmt 4.5, Leading zero omitted, Abs format (unit mm)*
G04 Created by KiCad (PCBNEW 5.1.10) date 2021-06-17 09:11:28*
%MOMM*%
%LPD*%
G01*
G04 APERTURE LIST*
%TA.AperFunction,Profile*%
%ADD10C,0.050000*%
%TD*%
%ADD11C,0.200000*%
%ADD12C,0.300000*%
G04 APERTURE END LIST*
D10*
X14590000Y-11520000D02*
G75*
G02*
X14530000Y-11460000I0J60000D01*
G01*
X14530000Y-6730000D02*
G75*
G02*
X14590000Y-6670000I60000J0D01*
G01*
X24420000Y-6670000D02*
G75*
G02*
X24480000Y-6730000I0J-60000D01*
G01*
X24480000Y-11460000D02*
G75*
G02*
X24420000Y-11520000I-60000J0D01*
G01*
X14530000Y-6730000D02*
X14530000Y-11460000D01*
X24420000Y-6670000D02*
X14590000Y-6670000D01*
X24480000Y-11460000D02*
X24480000Y-6730000D01*
X14590000Y-11520000D02*
X24420000Y-11520000D01*
D11*
X17650000Y-8230000D02*
X17670000Y-8250000D01*
X17670000Y-8230000D02*
X17650000Y-8250000D01*
X17650000Y-8970000D02*
X17670000Y-8990000D01*
X17670000Y-8970000D02*
X17650000Y-8990000D01*
X17950000Y-7395000D02*
X17970000Y-7415000D01*
X17970000Y-7395000D02*
X17950000Y-7415000D01*
X18020000Y-7760000D02*
X18040000Y-7780000D01*
X18040000Y-7760000D02*
X18020000Y-7780000D01*
X18290000Y-8490000D02*
X18310000Y-8510000D01*
X18310000Y-8490000D02*
X18290000Y-8510000D01*
X18291540Y-8111540D02*
X18311540Y-8131540D01*
X18311540Y-8111540D02*
X18291540Y-8131540D01*
X19516250Y-8703750D02*
X19536250Y-8723750D01*
X19536250Y-8703750D02*
X19516250Y-8723750D01*
X20290000Y-10310000D02*
X20310000Y-10330000D01*
X20310000Y-10310000D02*
X20290000Y-10330000D01*
X20530000Y-10390000D02*
X20550000Y-10410000D01*
X20550000Y-10390000D02*
X20530000Y-10410000D01*
X20770000Y-7390000D02*
X20790000Y-7410000D01*
X20790000Y-7390000D02*
X20770000Y-7410000D01*
X20909000Y-8989000D02*
X20929000Y-9009000D01*
X20929000Y-8989000D02*
X20909000Y-9009000D01*
X20910000Y-10390000D02*
X20930000Y-10410000D01*
X20930000Y-10390000D02*
X20910000Y-10410000D01*
X21050000Y-10310000D02*
X21070000Y-10330000D01*
X21070000Y-10310000D02*
X21050000Y-10330000D01*
X21170000Y-10310000D02*
X21190000Y-10330000D01*
X21190000Y-10310000D02*
X21170000Y-10330000D01*
X21401000Y-8706000D02*
X21421000Y-8726000D01*
X21421000Y-8706000D02*
X21401000Y-8726000D01*
X21401000Y-9509000D02*
X21421000Y-9529000D01*
X21421000Y-9509000D02*
X21401000Y-9529000D01*
X21550000Y-8990000D02*
X21570000Y-9010000D01*
X21570000Y-8990000D02*
X21550000Y-9010000D01*
X22070000Y-10390000D02*
X22090000Y-10410000D01*
X22090000Y-10390000D02*
X22070000Y-10410000D01*
X23455000Y-8706000D02*
X23475000Y-8726000D01*
X23475000Y-8706000D02*
X23455000Y-8726000D01*
X15875000Y-10040000D02*
G75*
G03*
X15875000Y-10040000I-15000J0D01*
G01*
X16115000Y-10380000D02*
G75*
G03*
X16115000Y-10380000I-15000J0D01*
G01*
X16115000Y-10640000D02*
G75*
G03*
X16115000Y-10640000I-15000J0D01*
G01*
X16315000Y-10520000D02*
G75*
G03*
X16315000Y-10520000I-15000J0D01*
G01*
X16415000Y-7340000D02*
G75*
G03*
X16415000Y-7340000I-15000J0D01*
G01*
X16675000Y-10520000D02*
G75*
G03*
X16675000Y-10520000I-15000J0D01*
G01*
X16676750Y-10938250D02*
G75*
G03*
X16676750Y-10938250I-15000J0D01*
G01*
X16935000Y-7480000D02*
G75*
G03*
X16935000Y-7480000I-15000J0D01*
G01*
X17109000Y-10026000D02*
G75*
G03*
X17109000Y-10026000I-15000J0D01*
G01*
X17115000Y-7340000D02*
G75*
G03*
X17115000Y-7340000I-15000J0D01*
G01*
X17215000Y-10940000D02*
G75*
G03*
X17215000Y-10940000I-15000J0D01*
G01*
X17641000Y-10754000D02*
G75*
G03*
X17641000Y-10754000I-15000J0D01*
G01*
X18195000Y-7480000D02*
G75*
G03*
X18195000Y-7480000I-15000J0D01*
G01*
X18485880Y-7475000D02*
G75*
G03*
X18485880Y-7475000I-15000J0D01*
G01*
X19035000Y-7600000D02*
G75*
G03*
X19035000Y-7600000I-15000J0D01*
G01*
X19095000Y-10940000D02*
G75*
G03*
X19095000Y-10940000I-15000J0D01*
G01*
X19108980Y-10253980D02*
G75*
G03*
X19108980Y-10253980I-15000J0D01*
G01*
X19915000Y-7340000D02*
G75*
G03*
X19915000Y-7340000I-15000J0D01*
G01*
X19935000Y-10260000D02*
G75*
G03*
X19935000Y-10260000I-15000J0D01*
G01*
X20050000Y-7603000D02*
G75*
G03*
X20050000Y-7603000I-15000J0D01*
G01*
X20056000Y-7475000D02*
G75*
G03*
X20056000Y-7475000I-15000J0D01*
G01*
X20178500Y-9839000D02*
G75*
G03*
X20178500Y-9839000I-15000J0D01*
G01*
X20599000Y-7598000D02*
G75*
G03*
X20599000Y-7598000I-15000J0D01*
G01*
X20941000Y-7600000D02*
G75*
G03*
X20941000Y-7600000I-15000J0D01*
G01*
X21142000Y-9833000D02*
G75*
G03*
X21142000Y-9833000I-15000J0D01*
G01*
X21194500Y-7477000D02*
G75*
G03*
X21194500Y-7477000I-15000J0D01*
G01*
X21196000Y-11198000D02*
G75*
G03*
X21196000Y-11198000I-15000J0D01*
G01*
X21315000Y-10020000D02*
G75*
G03*
X21315000Y-10020000I-15000J0D01*
G01*
X21449000Y-11123001D02*
G75*
G03*
X21449000Y-11123001I-15000J0D01*
G01*
X21482000Y-9833000D02*
G75*
G03*
X21482000Y-9833000I-15000J0D01*
G01*
X21616000Y-7475000D02*
G75*
G03*
X21616000Y-7475000I-15000J0D01*
G01*
X21722000Y-9833000D02*
G75*
G03*
X21722000Y-9833000I-15000J0D01*
G01*
X22675000Y-7600000D02*
G75*
G03*
X22675000Y-7600000I-15000J0D01*
G01*
X23215000Y-9840000D02*
G75*
G03*
X23215000Y-9840000I-15000J0D01*
G01*
X23226000Y-11124000D02*
G75*
G03*
X23226000Y-11124000I-15000J0D01*
G01*
X23480000Y-11201000D02*
G75*
G03*
X23480000Y-11201000I-15000J0D01*
G01*
X23690000Y-7475000D02*
G75*
G03*
X23690000Y-7475000I-15000J0D01*
G01*
X23868000Y-7606000D02*
G75*
G03*
X23868000Y-7606000I-15000J0D01*
G01*
X17420000Y-7560000D02*
X17420000Y-7610000D01*
X17395000Y-7585000D02*
X17445000Y-7585000D01*
X18184460Y-8350540D02*
X18184460Y-8400540D01*
X18159460Y-8375540D02*
X18209460Y-8375540D01*
X18875000Y-8130000D02*
X18875000Y-8180000D01*
X18850000Y-8155000D02*
X18900000Y-8155000D01*
X18877881Y-8832881D02*
X18877881Y-8882881D01*
X18852881Y-8857881D02*
X18902881Y-8857881D01*
X18880000Y-7555000D02*
X18880000Y-7605000D01*
X18855000Y-7580000D02*
X18905000Y-7580000D01*
X20417500Y-8841000D02*
X20417500Y-8891000D01*
X20392500Y-8866000D02*
X20442500Y-8866000D01*
X21941000Y-8843000D02*
X21941000Y-8893000D01*
X21916000Y-8868000D02*
X21966000Y-8868000D01*
X17929807Y-8148057D02*
X17929807Y-8095023D01*
X17876773Y-8095023D01*
X17876773Y-8148057D01*
X17929807Y-8148057D01*
X17929807Y-8402057D02*
X17929807Y-8349023D01*
X17876773Y-8349023D01*
X17876773Y-8402057D01*
X17929807Y-8402057D01*
X18056807Y-8275057D02*
X18056807Y-8222023D01*
X18003773Y-8222023D01*
X18003773Y-8275057D01*
X18056807Y-8275057D01*
X19909500Y-8156600D02*
X19947600Y-8118500D01*
X19909500Y-8080400D01*
X19871400Y-8118500D01*
X19909500Y-8156600D01*
X19909500Y-10950600D02*
X19947600Y-10912500D01*
X19909500Y-10874400D01*
X19871400Y-10912500D01*
X19909500Y-10950600D01*
X20163500Y-8156600D02*
X20201600Y-8118500D01*
X20163500Y-8080400D01*
X20125400Y-8118500D01*
X20163500Y-8156600D01*
X20163500Y-10950600D02*
X20201600Y-10912500D01*
X20163500Y-10874400D01*
X20125400Y-10912500D01*
X20163500Y-10950600D01*
X20417500Y-8156600D02*
X20455600Y-8118500D01*
X20417500Y-8080400D01*
X20379400Y-8118500D01*
X20417500Y-8156600D01*
X20417500Y-10950600D02*
X20455600Y-10912500D01*
X20417500Y-10874400D01*
X20379400Y-10912500D01*
X20417500Y-10950600D01*
X20671500Y-8156600D02*
X20709600Y-8118500D01*
X20671500Y-8080400D01*
X20633400Y-8118500D01*
X20671500Y-8156600D01*
X20671500Y-10950600D02*
X20709600Y-10912500D01*
X20671500Y-10874400D01*
X20633400Y-10912500D01*
X20671500Y-10950600D01*
X20925500Y-8156600D02*
X20963600Y-8118500D01*
X20925500Y-8080400D01*
X20887400Y-8118500D01*
X20925500Y-8156600D01*
X20925500Y-10950600D02*
X20963600Y-10912500D01*
X20925500Y-10874400D01*
X20887400Y-10912500D01*
X20925500Y-10950600D01*
X21179500Y-8156600D02*
X21217600Y-8118500D01*
X21179500Y-8080400D01*
X21141400Y-8118500D01*
X21179500Y-8156600D01*
X21179500Y-10950600D02*
X21217600Y-10912500D01*
X21179500Y-10874400D01*
X21141400Y-10912500D01*
X21179500Y-10950600D01*
X21433500Y-8156600D02*
X21471600Y-8118500D01*
X21433500Y-8080400D01*
X21395400Y-8118500D01*
X21433500Y-8156600D01*
X21433500Y-10950600D02*
X21471600Y-10912500D01*
X21433500Y-10874400D01*
X21395400Y-10912500D01*
X21433500Y-10950600D01*
X21687500Y-8156600D02*
X21725600Y-8118500D01*
X21687500Y-8080400D01*
X21649400Y-8118500D01*
X21687500Y-8156600D01*
X21687500Y-10950600D02*
X21725600Y-10912500D01*
X21687500Y-10874400D01*
X21649400Y-10912500D01*
X21687500Y-10950600D01*
X21941500Y-8156600D02*
X21979600Y-8118500D01*
X21941500Y-8080400D01*
X21903400Y-8118500D01*
X21941500Y-8156600D01*
X21941500Y-10950600D02*
X21979600Y-10912500D01*
X21941500Y-10874400D01*
X21903400Y-10912500D01*
X21941500Y-10950600D01*
X22195500Y-8156600D02*
X22233600Y-8118500D01*
X22195500Y-8080400D01*
X22157400Y-8118500D01*
X22195500Y-8156600D01*
X22195500Y-10950600D02*
X22233600Y-10912500D01*
X22195500Y-10874400D01*
X22157400Y-10912500D01*
X22195500Y-10950600D01*
X22449500Y-8156600D02*
X22487600Y-8118500D01*
X22449500Y-8080400D01*
X22411400Y-8118500D01*
X22449500Y-8156600D01*
X22449500Y-10950600D02*
X22487600Y-10912500D01*
X22449500Y-10874400D01*
X22411400Y-10912500D01*
X22449500Y-10950600D01*
X22703500Y-8156600D02*
X22741600Y-8118500D01*
X22703500Y-8080400D01*
X22665400Y-8118500D01*
X22703500Y-8156600D01*
X22703500Y-10950600D02*
X22741600Y-10912500D01*
X22703500Y-10874400D01*
X22665400Y-10912500D01*
X22703500Y-10950600D01*
X22957500Y-8156600D02*
X22995600Y-8118500D01*
X22957500Y-8080400D01*
X22919400Y-8118500D01*
X22957500Y-8156600D01*
X22957500Y-10950600D02*
X22995600Y-10912500D01*
X22957500Y-10874400D01*
X22919400Y-10912500D01*
X22957500Y-10950600D01*
X23211500Y-8156600D02*
X23249600Y-8118500D01*
X23211500Y-8080400D01*
X23173400Y-8118500D01*
X23211500Y-8156600D01*
X23211500Y-10950600D02*
X23249600Y-10912500D01*
X23211500Y-10874400D01*
X23173400Y-10912500D01*
X23211500Y-10950600D01*
X23465500Y-8156600D02*
X23503600Y-8118500D01*
X23465500Y-8080400D01*
X23427400Y-8118500D01*
X23465500Y-8156600D01*
X23465500Y-10950600D02*
X23503600Y-10912500D01*
X23465500Y-10874400D01*
X23427400Y-10912500D01*
X23465500Y-10950600D01*
X15631000Y-10332000D02*
X15711000Y-10412000D01*
X15711000Y-10332000D02*
X15631000Y-10412000D01*
X15711000Y-10372000D02*
G75*
G03*
X15711000Y-10372000I-40000J0D01*
G01*
X15631000Y-10532000D02*
X15711000Y-10612000D01*
X15711000Y-10532000D02*
X15631000Y-10612000D01*
X15711000Y-10572000D02*
G75*
G03*
X15711000Y-10572000I-40000J0D01*
G01*
X17731110Y-9477380D02*
X17811110Y-9557380D01*
X17811110Y-9477380D02*
X17731110Y-9557380D01*
X17811110Y-9517380D02*
G75*
G03*
X17811110Y-9517380I-40000J0D01*
G01*
X17931110Y-9477380D02*
X18011110Y-9557380D01*
X18011110Y-9477380D02*
X17931110Y-9557380D01*
X18011110Y-9517380D02*
G75*
G03*
X18011110Y-9517380I-40000J0D01*
G01*
X17045390Y-9459680D02*
X17135390Y-9549680D01*
X17135390Y-9459680D02*
X17045390Y-9549680D01*
X17090390Y-9459680D02*
X17090390Y-9549680D01*
X17045390Y-9504680D02*
X17135390Y-9504680D01*
X17299390Y-9459680D02*
X17389390Y-9549680D01*
X17389390Y-9459680D02*
X17299390Y-9549680D01*
X17344390Y-9459680D02*
X17344390Y-9549680D01*
X17299390Y-9504680D02*
X17389390Y-9504680D01*
X17771050Y-8715400D02*
X17861050Y-8805400D01*
X17861050Y-8715400D02*
X17771050Y-8805400D01*
X17816050Y-8715400D02*
X17816050Y-8805400D01*
X17771050Y-8760400D02*
X17861050Y-8760400D01*
X18025050Y-8715400D02*
X18115050Y-8805400D01*
X18115050Y-8715400D02*
X18025050Y-8805400D01*
X18070050Y-8715400D02*
X18070050Y-8805400D01*
X18025050Y-8760400D02*
X18115050Y-8760400D01*
X19859500Y-8322500D02*
X19959500Y-8422500D01*
X19959500Y-8322500D02*
X19859500Y-8422500D01*
X19944856Y-8407856D02*
X19944856Y-8337144D01*
X19874144Y-8337144D01*
X19874144Y-8407856D01*
X19944856Y-8407856D01*
X19859500Y-10608500D02*
X19959500Y-10708500D01*
X19959500Y-10608500D02*
X19859500Y-10708500D01*
X19944856Y-10693856D02*
X19944856Y-10623144D01*
X19874144Y-10623144D01*
X19874144Y-10693856D01*
X19944856Y-10693856D01*
X20113500Y-8322500D02*
X20213500Y-8422500D01*
X20213500Y-8322500D02*
X20113500Y-8422500D01*
X20198856Y-8407856D02*
X20198856Y-8337144D01*
X20128144Y-8337144D01*
X20128144Y-8407856D01*
X20198856Y-8407856D01*
X20113500Y-10608500D02*
X20213500Y-10708500D01*
X20213500Y-10608500D02*
X20113500Y-10708500D01*
X20198856Y-10693856D02*
X20198856Y-10623144D01*
X20128144Y-10623144D01*
X20128144Y-10693856D01*
X20198856Y-10693856D01*
X20367500Y-8322500D02*
X20467500Y-8422500D01*
X20467500Y-8322500D02*
X20367500Y-8422500D01*
X20452856Y-8407856D02*
X20452856Y-8337144D01*
X20382144Y-8337144D01*
X20382144Y-8407856D01*
X20452856Y-8407856D01*
X20367500Y-10608500D02*
X20467500Y-10708500D01*
X20467500Y-10608500D02*
X20367500Y-10708500D01*
X20452856Y-10693856D02*
X20452856Y-10623144D01*
X20382144Y-10623144D01*
X20382144Y-10693856D01*
X20452856Y-10693856D01*
X20621500Y-8322500D02*
X20721500Y-8422500D01*
X20721500Y-8322500D02*
X20621500Y-8422500D01*
X20706856Y-8407856D02*
X20706856Y-8337144D01*
X20636144Y-8337144D01*
X20636144Y-8407856D01*
X20706856Y-8407856D01*
X20621500Y-10608500D02*
X20721500Y-10708500D01*
X20721500Y-10608500D02*
X20621500Y-10708500D01*
X20706856Y-10693856D02*
X20706856Y-10623144D01*
X20636144Y-10623144D01*
X20636144Y-10693856D01*
X20706856Y-10693856D01*
X20875500Y-8322500D02*
X20975500Y-8422500D01*
X20975500Y-8322500D02*
X20875500Y-8422500D01*
X20960856Y-8407856D02*
X20960856Y-8337144D01*
X20890144Y-8337144D01*
X20890144Y-8407856D01*
X20960856Y-8407856D01*
X20875500Y-10608500D02*
X20975500Y-10708500D01*
X20975500Y-10608500D02*
X20875500Y-10708500D01*
X20960856Y-10693856D02*
X20960856Y-10623144D01*
X20890144Y-10623144D01*
X20890144Y-10693856D01*
X20960856Y-10693856D01*
X21129500Y-8322500D02*
X21229500Y-8422500D01*
X21229500Y-8322500D02*
X21129500Y-8422500D01*
X21214856Y-8407856D02*
X21214856Y-8337144D01*
X21144144Y-8337144D01*
X21144144Y-8407856D01*
X21214856Y-8407856D01*
X21129500Y-10608500D02*
X21229500Y-10708500D01*
X21229500Y-10608500D02*
X21129500Y-10708500D01*
X21214856Y-10693856D02*
X21214856Y-10623144D01*
X21144144Y-10623144D01*
X21144144Y-10693856D01*
X21214856Y-10693856D01*
X21383500Y-8322500D02*
X21483500Y-8422500D01*
X21483500Y-8322500D02*
X21383500Y-8422500D01*
X21468856Y-8407856D02*
X21468856Y-8337144D01*
X21398144Y-8337144D01*
X21398144Y-8407856D01*
X21468856Y-8407856D01*
X21383500Y-10608500D02*
X21483500Y-10708500D01*
X21483500Y-10608500D02*
X21383500Y-10708500D01*
X21468856Y-10693856D02*
X21468856Y-10623144D01*
X21398144Y-10623144D01*
X21398144Y-10693856D01*
X21468856Y-10693856D01*
X21637500Y-8322500D02*
X21737500Y-8422500D01*
X21737500Y-8322500D02*
X21637500Y-8422500D01*
X21722856Y-8407856D02*
X21722856Y-8337144D01*
X21652144Y-8337144D01*
X21652144Y-8407856D01*
X21722856Y-8407856D01*
X21637500Y-10608500D02*
X21737500Y-10708500D01*
X21737500Y-10608500D02*
X21637500Y-10708500D01*
X21722856Y-10693856D02*
X21722856Y-10623144D01*
X21652144Y-10623144D01*
X21652144Y-10693856D01*
X21722856Y-10693856D01*
X14883000Y-9528000D02*
X14993000Y-9638000D01*
X14993000Y-9528000D02*
X14883000Y-9638000D01*
X14938000Y-9638000D02*
X14993000Y-9583000D01*
X14938000Y-9528000D01*
X14883000Y-9583000D01*
X14938000Y-9638000D01*
X15645000Y-9528000D02*
X15755000Y-9638000D01*
X15755000Y-9528000D02*
X15645000Y-9638000D01*
X15700000Y-9638000D02*
X15755000Y-9583000D01*
X15700000Y-9528000D01*
X15645000Y-9583000D01*
X15700000Y-9638000D01*
X16241640Y-10198980D02*
X16351640Y-10308980D01*
X16351640Y-10198980D02*
X16241640Y-10308980D01*
X16296640Y-10308980D02*
X16351640Y-10253980D01*
X16296640Y-10198980D01*
X16241640Y-10253980D01*
X16296640Y-10308980D01*
X16495640Y-10198980D02*
X16605640Y-10308980D01*
X16605640Y-10198980D02*
X16495640Y-10308980D01*
X16550640Y-10308980D02*
X16605640Y-10253980D01*
X16550640Y-10198980D01*
X16495640Y-10253980D01*
X16550640Y-10308980D01*
X16749640Y-10198980D02*
X16859640Y-10308980D01*
X16859640Y-10198980D02*
X16749640Y-10308980D01*
X16804640Y-10308980D02*
X16859640Y-10253980D01*
X16804640Y-10198980D01*
X16749640Y-10253980D01*
X16804640Y-10308980D01*
X17311000Y-10198980D02*
X17421000Y-10308980D01*
X17421000Y-10198980D02*
X17311000Y-10308980D01*
X17366000Y-10308980D02*
X17421000Y-10253980D01*
X17366000Y-10198980D01*
X17311000Y-10253980D01*
X17366000Y-10308980D01*
X17565000Y-10198980D02*
X17675000Y-10308980D01*
X17675000Y-10198980D02*
X17565000Y-10308980D01*
X17620000Y-10308980D02*
X17675000Y-10253980D01*
X17620000Y-10198980D01*
X17565000Y-10253980D01*
X17620000Y-10308980D01*
X17782250Y-7741420D02*
X17892250Y-7851420D01*
X17892250Y-7741420D02*
X17782250Y-7851420D01*
X17837250Y-7851420D02*
X17892250Y-7796420D01*
X17837250Y-7741420D01*
X17782250Y-7796420D01*
X17837250Y-7851420D01*
X17819000Y-10198980D02*
X17929000Y-10308980D01*
X17929000Y-10198980D02*
X17819000Y-10308980D01*
X17874000Y-10308980D02*
X17929000Y-10253980D01*
X17874000Y-10198980D01*
X17819000Y-10253980D01*
X17874000Y-10308980D01*
X18544250Y-7741420D02*
X18654250Y-7851420D01*
X18654250Y-7741420D02*
X18544250Y-7851420D01*
X18599250Y-7851420D02*
X18654250Y-7796420D01*
X18599250Y-7741420D01*
X18544250Y-7796420D01*
X18599250Y-7851420D01*
X15868610Y-8929590D02*
X15868610Y-9059590D01*
X15803610Y-8994590D02*
X15933610Y-8994590D01*
X15933610Y-8994590D02*
G75*
G03*
X15933610Y-8994590I-65000J0D01*
G01*
X15873610Y-7724590D02*
X15873610Y-7854590D01*
X15808610Y-7789590D02*
X15938610Y-7789590D01*
X15938610Y-7789590D02*
G75*
G03*
X15938610Y-7789590I-65000J0D01*
G01*
X17093610Y-7724590D02*
X17093610Y-7854590D01*
X17028610Y-7789590D02*
X17158610Y-7789590D01*
X17158610Y-7789590D02*
G75*
G03*
X17158610Y-7789590I-65000J0D01*
G01*
X17093610Y-8924590D02*
X17093610Y-9054590D01*
X17028610Y-8989590D02*
X17158610Y-8989590D01*
X17158610Y-8989590D02*
G75*
G03*
X17158610Y-8989590I-65000J0D01*
G01*
X17288610Y-8329590D02*
X17288610Y-8459590D01*
X17223610Y-8394590D02*
X17353610Y-8394590D01*
X17353610Y-8394590D02*
G75*
G03*
X17353610Y-8394590I-65000J0D01*
G01*
X14989741Y-7928741D02*
X14989741Y-7821259D01*
X14882259Y-7821259D01*
X14882259Y-7928741D01*
X14989741Y-7928741D01*
X15012000Y-7875000D02*
G75*
G03*
X15012000Y-7875000I-76000J0D01*
G01*
X14989741Y-8436741D02*
X14989741Y-8329259D01*
X14882259Y-8329259D01*
X14882259Y-8436741D01*
X14989741Y-8436741D01*
X15012000Y-8383000D02*
G75*
G03*
X15012000Y-8383000I-76000J0D01*
G01*
X14989741Y-8944741D02*
X14989741Y-8837259D01*
X14882259Y-8837259D01*
X14882259Y-8944741D01*
X14989741Y-8944741D01*
X15012000Y-8891000D02*
G75*
G03*
X15012000Y-8891000I-76000J0D01*
G01*
X14989741Y-10121031D02*
X14989741Y-10013549D01*
X14882259Y-10013549D01*
X14882259Y-10121031D01*
X14989741Y-10121031D01*
X15012000Y-10067290D02*
G75*
G03*
X15012000Y-10067290I-76000J0D01*
G01*
X14989741Y-10629031D02*
X14989741Y-10521549D01*
X14882259Y-10521549D01*
X14882259Y-10629031D01*
X14989741Y-10629031D01*
X15012000Y-10575290D02*
G75*
G03*
X15012000Y-10575290I-76000J0D01*
G01*
X16451981Y-7127641D02*
X16451981Y-7020159D01*
X16344499Y-7020159D01*
X16344499Y-7127641D01*
X16451981Y-7127641D01*
X16474240Y-7073900D02*
G75*
G03*
X16474240Y-7073900I-76000J0D01*
G01*
X16959981Y-7127641D02*
X16959981Y-7020159D01*
X16852499Y-7020159D01*
X16852499Y-7127641D01*
X16959981Y-7127641D01*
X16982240Y-7073900D02*
G75*
G03*
X16982240Y-7073900I-76000J0D01*
G01*
X17467981Y-7127641D02*
X17467981Y-7020159D01*
X17360499Y-7020159D01*
X17360499Y-7127641D01*
X17467981Y-7127641D01*
X17490240Y-7073900D02*
G75*
G03*
X17490240Y-7073900I-76000J0D01*
G01*
X18016621Y-7127641D02*
X18016621Y-7020159D01*
X17909139Y-7020159D01*
X17909139Y-7127641D01*
X18016621Y-7127641D01*
X18038880Y-7073900D02*
G75*
G03*
X18038880Y-7073900I-76000J0D01*
G01*
X18524621Y-7127641D02*
X18524621Y-7020159D01*
X18417139Y-7020159D01*
X18417139Y-7127641D01*
X18524621Y-7127641D01*
X18546880Y-7073900D02*
G75*
G03*
X18546880Y-7073900I-76000J0D01*
G01*
X19071991Y-7127641D02*
X19071991Y-7020159D01*
X18964509Y-7020159D01*
X18964509Y-7127641D01*
X19071991Y-7127641D01*
X19094250Y-7073900D02*
G75*
G03*
X19094250Y-7073900I-76000J0D01*
G01*
X19579991Y-7127641D02*
X19579991Y-7020159D01*
X19472509Y-7020159D01*
X19472509Y-7127641D01*
X19579991Y-7127641D01*
X19602250Y-7073900D02*
G75*
G03*
X19602250Y-7073900I-76000J0D01*
G01*
X20087991Y-7127641D02*
X20087991Y-7020159D01*
X19980509Y-7020159D01*
X19980509Y-7127641D01*
X20087991Y-7127641D01*
X20110250Y-7073900D02*
G75*
G03*
X20110250Y-7073900I-76000J0D01*
G01*
X20637901Y-7127641D02*
X20637901Y-7020159D01*
X20530419Y-7020159D01*
X20530419Y-7127641D01*
X20637901Y-7127641D01*
X20660160Y-7073900D02*
G75*
G03*
X20660160Y-7073900I-76000J0D01*
G01*
X21145901Y-7127641D02*
X21145901Y-7020159D01*
X21038419Y-7020159D01*
X21038419Y-7127641D01*
X21145901Y-7127641D01*
X21168160Y-7073900D02*
G75*
G03*
X21168160Y-7073900I-76000J0D01*
G01*
X21653901Y-7127641D02*
X21653901Y-7020159D01*
X21546419Y-7020159D01*
X21546419Y-7127641D01*
X21653901Y-7127641D01*
X21676160Y-7073900D02*
G75*
G03*
X21676160Y-7073900I-76000J0D01*
G01*
X22161901Y-7127641D02*
X22161901Y-7020159D01*
X22054419Y-7020159D01*
X22054419Y-7127641D01*
X22161901Y-7127641D01*
X22184160Y-7073900D02*
G75*
G03*
X22184160Y-7073900I-76000J0D01*
G01*
X22714351Y-7127641D02*
X22714351Y-7020159D01*
X22606869Y-7020159D01*
X22606869Y-7127641D01*
X22714351Y-7127641D01*
X22736610Y-7073900D02*
G75*
G03*
X22736610Y-7073900I-76000J0D01*
G01*
X23222351Y-7127641D02*
X23222351Y-7020159D01*
X23114869Y-7020159D01*
X23114869Y-7127641D01*
X23222351Y-7127641D01*
X23244610Y-7073900D02*
G75*
G03*
X23244610Y-7073900I-76000J0D01*
G01*
X23730351Y-7127641D02*
X23730351Y-7020159D01*
X23622869Y-7020159D01*
X23622869Y-7127641D01*
X23730351Y-7127641D01*
X23752610Y-7073900D02*
G75*
G03*
X23752610Y-7073900I-76000J0D01*
G01*
X24238351Y-7127641D02*
X24238351Y-7020159D01*
X24130869Y-7020159D01*
X24130869Y-7127641D01*
X24238351Y-7127641D01*
X24260610Y-7073900D02*
G75*
G03*
X24260610Y-7073900I-76000J0D01*
G01*
X14880000Y-7195000D02*
X15055000Y-7020000D01*
X14880000Y-6845000D01*
X14705000Y-7020000D01*
X14880000Y-7195000D01*
X15055000Y-7020000D02*
G75*
G03*
X15055000Y-7020000I-175000J0D01*
G01*
X14881000Y-11343000D02*
X15056000Y-11168000D01*
X14881000Y-10993000D01*
X14706000Y-11168000D01*
X14881000Y-11343000D01*
X15056000Y-11168000D02*
G75*
G03*
X15056000Y-11168000I-175000J0D01*
G01*
X24130000Y-8177000D02*
X24305000Y-8002000D01*
X24130000Y-7827000D01*
X23955000Y-8002000D01*
X24130000Y-8177000D01*
X24305000Y-8002000D02*
G75*
G03*
X24305000Y-8002000I-175000J0D01*
G01*
X24130000Y-11344000D02*
X24305000Y-11169000D01*
X24130000Y-10994000D01*
X23955000Y-11169000D01*
X24130000Y-11344000D01*
X24305000Y-11169000D02*
G75*
G03*
X24305000Y-11169000I-175000J0D01*
G01*
D12*
X14813928Y-11988214D02*
X14813928Y-11688214D01*
X14885357Y-11688214D01*
X14928214Y-11702500D01*
X14956786Y-11731071D01*
X14971071Y-11759643D01*
X14985357Y-11816786D01*
X14985357Y-11859643D01*
X14971071Y-11916786D01*
X14956786Y-11945357D01*
X14928214Y-11973929D01*
X14885357Y-11988214D01*
X14813928Y-11988214D01*
X15113928Y-11988214D02*
X15113928Y-11788214D01*
X15113928Y-11845357D02*
X15128214Y-11816786D01*
X15142500Y-11802500D01*
X15171071Y-11788214D01*
X15199643Y-11788214D01*
X15299643Y-11988214D02*
X15299643Y-11788214D01*
X15299643Y-11688214D02*
X15285357Y-11702500D01*
X15299643Y-11716786D01*
X15313928Y-11702500D01*
X15299643Y-11688214D01*
X15299643Y-11716786D01*
X15485357Y-11988214D02*
X15456786Y-11973929D01*
X15442500Y-11945357D01*
X15442500Y-11688214D01*
X15642500Y-11988214D02*
X15613928Y-11973929D01*
X15599643Y-11945357D01*
X15599643Y-11688214D01*
X15985357Y-11988214D02*
X15985357Y-11688214D01*
X16085357Y-11902500D01*
X16185357Y-11688214D01*
X16185357Y-11988214D01*
X16456786Y-11988214D02*
X16456786Y-11831071D01*
X16442500Y-11802500D01*
X16413928Y-11788214D01*
X16356786Y-11788214D01*
X16328214Y-11802500D01*
X16456786Y-11973929D02*
X16428214Y-11988214D01*
X16356786Y-11988214D01*
X16328214Y-11973929D01*
X16313928Y-11945357D01*
X16313928Y-11916786D01*
X16328214Y-11888214D01*
X16356786Y-11873929D01*
X16428214Y-11873929D01*
X16456786Y-11859643D01*
X16599643Y-11788214D02*
X16599643Y-12088214D01*
X16599643Y-11802500D02*
X16628214Y-11788214D01*
X16685357Y-11788214D01*
X16713928Y-11802500D01*
X16728214Y-11816786D01*
X16742500Y-11845357D01*
X16742500Y-11931071D01*
X16728214Y-11959643D01*
X16713928Y-11973929D01*
X16685357Y-11988214D01*
X16628214Y-11988214D01*
X16599643Y-11973929D01*
X16871071Y-11959643D02*
X16885357Y-11973929D01*
X16871071Y-11988214D01*
X16856786Y-11973929D01*
X16871071Y-11959643D01*
X16871071Y-11988214D01*
X16871071Y-11802500D02*
X16885357Y-11816786D01*
X16871071Y-11831071D01*
X16856786Y-11816786D01*
X16871071Y-11802500D01*
X16871071Y-11831071D01*
X14507500Y-12472500D02*
X14527500Y-12492500D01*
X14527500Y-12472500D02*
X14507500Y-12492500D01*
X14871071Y-12318214D02*
X14899643Y-12318214D01*
X14928214Y-12332500D01*
X14942500Y-12346786D01*
X14956786Y-12375357D01*
X14971071Y-12432500D01*
X14971071Y-12503929D01*
X14956786Y-12561071D01*
X14942500Y-12589643D01*
X14928214Y-12603929D01*
X14899643Y-12618214D01*
X14871071Y-12618214D01*
X14842500Y-12603929D01*
X14828214Y-12589643D01*
X14813928Y-12561071D01*
X14799643Y-12503929D01*
X14799643Y-12432500D01*
X14813928Y-12375357D01*
X14828214Y-12346786D01*
X14842500Y-12332500D01*
X14871071Y-12318214D01*
X15099643Y-12589643D02*
X15113928Y-12603929D01*
X15099643Y-12618214D01*
X15085357Y-12603929D01*
X15099643Y-12589643D01*
X15099643Y-12618214D01*
X15228214Y-12346786D02*
X15242500Y-12332500D01*
X15271071Y-12318214D01*
X15342500Y-12318214D01*
X15371071Y-12332500D01*
X15385357Y-12346786D01*
X15399643Y-12375357D01*
X15399643Y-12403929D01*
X15385357Y-12446786D01*
X15213928Y-12618214D01*
X15399643Y-12618214D01*
X15585357Y-12318214D02*
X15613928Y-12318214D01*
X15642500Y-12332500D01*
X15656786Y-12346786D01*
X15671071Y-12375357D01*
X15685357Y-12432500D01*
X15685357Y-12503929D01*
X15671071Y-12561071D01*
X15656786Y-12589643D01*
X15642500Y-12603929D01*
X15613928Y-12618214D01*
X15585357Y-12618214D01*
X15556786Y-12603929D01*
X15542500Y-12589643D01*
X15528214Y-12561071D01*
X15513928Y-12503929D01*
X15513928Y-12432500D01*
X15528214Y-12375357D01*
X15542500Y-12346786D01*
X15556786Y-12332500D01*
X15585357Y-12318214D01*
X15871071Y-12318214D02*
X15899643Y-12318214D01*
X15928214Y-12332500D01*
X15942500Y-12346786D01*
X15956786Y-12375357D01*
X15971071Y-12432500D01*
X15971071Y-12503929D01*
X15956786Y-12561071D01*
X15942500Y-12589643D01*
X15928214Y-12603929D01*
X15899643Y-12618214D01*
X15871071Y-12618214D01*
X15842500Y-12603929D01*
X15828214Y-12589643D01*
X15813928Y-12561071D01*
X15799643Y-12503929D01*
X15799643Y-12432500D01*
X15813928Y-12375357D01*
X15828214Y-12346786D01*
X15842500Y-12332500D01*
X15871071Y-12318214D01*
X16099643Y-12618214D02*
X16099643Y-12418214D01*
X16099643Y-12446786D02*
X16113928Y-12432500D01*
X16142500Y-12418214D01*
X16185357Y-12418214D01*
X16213928Y-12432500D01*
X16228214Y-12461071D01*
X16228214Y-12618214D01*
X16228214Y-12461071D02*
X16242500Y-12432500D01*
X16271071Y-12418214D01*
X16313928Y-12418214D01*
X16342500Y-12432500D01*
X16356786Y-12461071D01*
X16356786Y-12618214D01*
X16499643Y-12618214D02*
X16499643Y-12418214D01*
X16499643Y-12446786D02*
X16513928Y-12432500D01*
X16542500Y-12418214D01*
X16585357Y-12418214D01*
X16613928Y-12432500D01*
X16628214Y-12461071D01*
X16628214Y-12618214D01*
X16628214Y-12461071D02*
X16642500Y-12432500D01*
X16671071Y-12418214D01*
X16713928Y-12418214D01*
X16742500Y-12432500D01*
X16756786Y-12461071D01*
X16756786Y-12618214D01*
X17342500Y-12303929D02*
X17085357Y-12689643D01*
X17728214Y-12318214D02*
X17756786Y-12318214D01*
X17785357Y-12332500D01*
X17799643Y-12346786D01*
X17813928Y-12375357D01*
X17828214Y-12432500D01*
X17828214Y-12503929D01*
X17813928Y-12561071D01*
X17799643Y-12589643D01*
X17785357Y-12603929D01*
X17756786Y-12618214D01*
X17728214Y-12618214D01*
X17699643Y-12603929D01*
X17685357Y-12589643D01*
X17671071Y-12561071D01*
X17656786Y-12503929D01*
X17656786Y-12432500D01*
X17671071Y-12375357D01*
X17685357Y-12346786D01*
X17699643Y-12332500D01*
X17728214Y-12318214D01*
X17956786Y-12589643D02*
X17971071Y-12603929D01*
X17956786Y-12618214D01*
X17942500Y-12603929D01*
X17956786Y-12589643D01*
X17956786Y-12618214D01*
X18156786Y-12318214D02*
X18185357Y-12318214D01*
X18213928Y-12332500D01*
X18228214Y-12346786D01*
X18242500Y-12375357D01*
X18256786Y-12432500D01*
X18256786Y-12503929D01*
X18242500Y-12561071D01*
X18228214Y-12589643D01*
X18213928Y-12603929D01*
X18185357Y-12618214D01*
X18156786Y-12618214D01*
X18128214Y-12603929D01*
X18113928Y-12589643D01*
X18099643Y-12561071D01*
X18085357Y-12503929D01*
X18085357Y-12432500D01*
X18099643Y-12375357D01*
X18113928Y-12346786D01*
X18128214Y-12332500D01*
X18156786Y-12318214D01*
X18442500Y-12318214D02*
X18471071Y-12318214D01*
X18499643Y-12332500D01*
X18513928Y-12346786D01*
X18528214Y-12375357D01*
X18542500Y-12432500D01*
X18542500Y-12503929D01*
X18528214Y-12561071D01*
X18513928Y-12589643D01*
X18499643Y-12603929D01*
X18471071Y-12618214D01*
X18442500Y-12618214D01*
X18413928Y-12603929D01*
X18399643Y-12589643D01*
X18385357Y-12561071D01*
X18371071Y-12503929D01*
X18371071Y-12432500D01*
X18385357Y-12375357D01*
X18399643Y-12346786D01*
X18413928Y-12332500D01*
X18442500Y-12318214D01*
X18642500Y-12318214D02*
X18842500Y-12318214D01*
X18713928Y-12618214D01*
X18971071Y-12618214D02*
X19028214Y-12618214D01*
X19056786Y-12603929D01*
X19071071Y-12589643D01*
X19099643Y-12546786D01*
X19113928Y-12489643D01*
X19113928Y-12375357D01*
X19099643Y-12346786D01*
X19085357Y-12332500D01*
X19056786Y-12318214D01*
X18999643Y-12318214D01*
X18971071Y-12332500D01*
X18956786Y-12346786D01*
X18942500Y-12375357D01*
X18942500Y-12446786D01*
X18956786Y-12475357D01*
X18971071Y-12489643D01*
X18999643Y-12503929D01*
X19056786Y-12503929D01*
X19085357Y-12489643D01*
X19099643Y-12475357D01*
X19113928Y-12446786D01*
X19228214Y-12318214D02*
X19228214Y-12375357D01*
X19342500Y-12318214D02*
X19342500Y-12375357D01*
X19785357Y-12732500D02*
X19771071Y-12718214D01*
X19742500Y-12675357D01*
X19728214Y-12646786D01*
X19713928Y-12603929D01*
X19699643Y-12532500D01*
X19699643Y-12475357D01*
X19713928Y-12403929D01*
X19728214Y-12361071D01*
X19742500Y-12332500D01*
X19771071Y-12289643D01*
X19785357Y-12275357D01*
X20056786Y-12618214D02*
X19885357Y-12618214D01*
X19971071Y-12618214D02*
X19971071Y-12318214D01*
X19942500Y-12361071D01*
X19913928Y-12389643D01*
X19885357Y-12403929D01*
X20199643Y-12618214D02*
X20256786Y-12618214D01*
X20285357Y-12603929D01*
X20299643Y-12589643D01*
X20328214Y-12546786D01*
X20342500Y-12489643D01*
X20342500Y-12375357D01*
X20328214Y-12346786D01*
X20313928Y-12332500D01*
X20285357Y-12318214D01*
X20228214Y-12318214D01*
X20199643Y-12332500D01*
X20185357Y-12346786D01*
X20171071Y-12375357D01*
X20171071Y-12446786D01*
X20185357Y-12475357D01*
X20199643Y-12489643D01*
X20228214Y-12503929D01*
X20285357Y-12503929D01*
X20313928Y-12489643D01*
X20328214Y-12475357D01*
X20342500Y-12446786D01*
X20699643Y-12618214D02*
X20699643Y-12318214D01*
X20828214Y-12618214D02*
X20828214Y-12461071D01*
X20813928Y-12432500D01*
X20785357Y-12418214D01*
X20742500Y-12418214D01*
X20713928Y-12432500D01*
X20699643Y-12446786D01*
X21013928Y-12618214D02*
X20985357Y-12603929D01*
X20971071Y-12589643D01*
X20956786Y-12561071D01*
X20956786Y-12475357D01*
X20971071Y-12446786D01*
X20985357Y-12432500D01*
X21013928Y-12418214D01*
X21056786Y-12418214D01*
X21085357Y-12432500D01*
X21099643Y-12446786D01*
X21113928Y-12475357D01*
X21113928Y-12561071D01*
X21099643Y-12589643D01*
X21085357Y-12603929D01*
X21056786Y-12618214D01*
X21013928Y-12618214D01*
X21285357Y-12618214D02*
X21256786Y-12603929D01*
X21242500Y-12575357D01*
X21242500Y-12318214D01*
X21513928Y-12603929D02*
X21485357Y-12618214D01*
X21428214Y-12618214D01*
X21399643Y-12603929D01*
X21385357Y-12575357D01*
X21385357Y-12461071D01*
X21399643Y-12432500D01*
X21428214Y-12418214D01*
X21485357Y-12418214D01*
X21513928Y-12432500D01*
X21528214Y-12461071D01*
X21528214Y-12489643D01*
X21385357Y-12518214D01*
X21642500Y-12603929D02*
X21671071Y-12618214D01*
X21728214Y-12618214D01*
X21756786Y-12603929D01*
X21771071Y-12575357D01*
X21771071Y-12561071D01*
X21756786Y-12532500D01*
X21728214Y-12518214D01*
X21685357Y-12518214D01*
X21656786Y-12503929D01*
X21642500Y-12475357D01*
X21642500Y-12461071D01*
X21656786Y-12432500D01*
X21685357Y-12418214D01*
X21728214Y-12418214D01*
X21756786Y-12432500D01*
X21871071Y-12732500D02*
X21885357Y-12718214D01*
X21913928Y-12675357D01*
X21928214Y-12646786D01*
X21942500Y-12603929D01*
X21956786Y-12532500D01*
X21956786Y-12475357D01*
X21942500Y-12403929D01*
X21928214Y-12361071D01*
X21913928Y-12332500D01*
X21885357Y-12289643D01*
X21871071Y-12275357D01*
X14527500Y-12878500D02*
G75*
G03*
X14527500Y-12878500I-15000J0D01*
G01*
X14871071Y-12714214D02*
X14899643Y-12714214D01*
X14928214Y-12728500D01*
X14942500Y-12742786D01*
X14956786Y-12771357D01*
X14971071Y-12828500D01*
X14971071Y-12899929D01*
X14956786Y-12957071D01*
X14942500Y-12985643D01*
X14928214Y-12999929D01*
X14899643Y-13014214D01*
X14871071Y-13014214D01*
X14842500Y-12999929D01*
X14828214Y-12985643D01*
X14813928Y-12957071D01*
X14799643Y-12899929D01*
X14799643Y-12828500D01*
X14813928Y-12771357D01*
X14828214Y-12742786D01*
X14842500Y-12728500D01*
X14871071Y-12714214D01*
X15099643Y-12985643D02*
X15113928Y-12999929D01*
X15099643Y-13014214D01*
X15085357Y-12999929D01*
X15099643Y-12985643D01*
X15099643Y-13014214D01*
X15213928Y-12714214D02*
X15399643Y-12714214D01*
X15299643Y-12828500D01*
X15342500Y-12828500D01*
X15371071Y-12842786D01*
X15385357Y-12857071D01*
X15399643Y-12885643D01*
X15399643Y-12957071D01*
X15385357Y-12985643D01*
X15371071Y-12999929D01*
X15342500Y-13014214D01*
X15256786Y-13014214D01*
X15228214Y-12999929D01*
X15213928Y-12985643D01*
X15585357Y-12714214D02*
X15613928Y-12714214D01*
X15642500Y-12728500D01*
X15656786Y-12742786D01*
X15671071Y-12771357D01*
X15685357Y-12828500D01*
X15685357Y-12899929D01*
X15671071Y-12957071D01*
X15656786Y-12985643D01*
X15642500Y-12999929D01*
X15613928Y-13014214D01*
X15585357Y-13014214D01*
X15556786Y-12999929D01*
X15542500Y-12985643D01*
X15528214Y-12957071D01*
X15513928Y-12899929D01*
X15513928Y-12828500D01*
X15528214Y-12771357D01*
X15542500Y-12742786D01*
X15556786Y-12728500D01*
X15585357Y-12714214D01*
X15871071Y-12714214D02*
X15899643Y-12714214D01*
X15928214Y-12728500D01*
X15942500Y-12742786D01*
X15956786Y-12771357D01*
X15971071Y-12828500D01*
X15971071Y-12899929D01*
X15956786Y-12957071D01*
X15942500Y-12985643D01*
X15928214Y-12999929D01*
X15899643Y-13014214D01*
X15871071Y-13014214D01*
X15842500Y-12999929D01*
X15828214Y-12985643D01*
X15813928Y-12957071D01*
X15799643Y-12899929D01*
X15799643Y-12828500D01*
X15813928Y-12771357D01*
X15828214Y-12742786D01*
X15842500Y-12728500D01*
X15871071Y-12714214D01*
X16099643Y-13014214D02*
X16099643Y-12814214D01*
X16099643Y-12842786D02*
X16113928Y-12828500D01*
X16142500Y-12814214D01*
X16185357Y-12814214D01*
X16213928Y-12828500D01*
X16228214Y-12857071D01*
X16228214Y-13014214D01*
X16228214Y-12857071D02*
X16242500Y-12828500D01*
X16271071Y-12814214D01*
X16313928Y-12814214D01*
X16342500Y-12828500D01*
X16356786Y-12857071D01*
X16356786Y-13014214D01*
X16499643Y-13014214D02*
X16499643Y-12814214D01*
X16499643Y-12842786D02*
X16513928Y-12828500D01*
X16542500Y-12814214D01*
X16585357Y-12814214D01*
X16613928Y-12828500D01*
X16628214Y-12857071D01*
X16628214Y-13014214D01*
X16628214Y-12857071D02*
X16642500Y-12828500D01*
X16671071Y-12814214D01*
X16713928Y-12814214D01*
X16742500Y-12828500D01*
X16756786Y-12857071D01*
X16756786Y-13014214D01*
X17342500Y-12699929D02*
X17085357Y-13085643D01*
X17728214Y-12714214D02*
X17756786Y-12714214D01*
X17785357Y-12728500D01*
X17799643Y-12742786D01*
X17813928Y-12771357D01*
X17828214Y-12828500D01*
X17828214Y-12899929D01*
X17813928Y-12957071D01*
X17799643Y-12985643D01*
X17785357Y-12999929D01*
X17756786Y-13014214D01*
X17728214Y-13014214D01*
X17699643Y-12999929D01*
X17685357Y-12985643D01*
X17671071Y-12957071D01*
X17656786Y-12899929D01*
X17656786Y-12828500D01*
X17671071Y-12771357D01*
X17685357Y-12742786D01*
X17699643Y-12728500D01*
X17728214Y-12714214D01*
X17956786Y-12985643D02*
X17971071Y-12999929D01*
X17956786Y-13014214D01*
X17942500Y-12999929D01*
X17956786Y-12985643D01*
X17956786Y-13014214D01*
X18156786Y-12714214D02*
X18185357Y-12714214D01*
X18213928Y-12728500D01*
X18228214Y-12742786D01*
X18242500Y-12771357D01*
X18256786Y-12828500D01*
X18256786Y-12899929D01*
X18242500Y-12957071D01*
X18228214Y-12985643D01*
X18213928Y-12999929D01*
X18185357Y-13014214D01*
X18156786Y-13014214D01*
X18128214Y-12999929D01*
X18113928Y-12985643D01*
X18099643Y-12957071D01*
X18085357Y-12899929D01*
X18085357Y-12828500D01*
X18099643Y-12771357D01*
X18113928Y-12742786D01*
X18128214Y-12728500D01*
X18156786Y-12714214D01*
X18542500Y-13014214D02*
X18371071Y-13014214D01*
X18456786Y-13014214D02*
X18456786Y-12714214D01*
X18428214Y-12757071D01*
X18399643Y-12785643D01*
X18371071Y-12799929D01*
X18828214Y-13014214D02*
X18656786Y-13014214D01*
X18742500Y-13014214D02*
X18742500Y-12714214D01*
X18713928Y-12757071D01*
X18685357Y-12785643D01*
X18656786Y-12799929D01*
X18999643Y-12842786D02*
X18971071Y-12828500D01*
X18956786Y-12814214D01*
X18942500Y-12785643D01*
X18942500Y-12771357D01*
X18956786Y-12742786D01*
X18971071Y-12728500D01*
X18999643Y-12714214D01*
X19056786Y-12714214D01*
X19085357Y-12728500D01*
X19099643Y-12742786D01*
X19113928Y-12771357D01*
X19113928Y-12785643D01*
X19099643Y-12814214D01*
X19085357Y-12828500D01*
X19056786Y-12842786D01*
X18999643Y-12842786D01*
X18971071Y-12857071D01*
X18956786Y-12871357D01*
X18942500Y-12899929D01*
X18942500Y-12957071D01*
X18956786Y-12985643D01*
X18971071Y-12999929D01*
X18999643Y-13014214D01*
X19056786Y-13014214D01*
X19085357Y-12999929D01*
X19099643Y-12985643D01*
X19113928Y-12957071D01*
X19113928Y-12899929D01*
X19099643Y-12871357D01*
X19085357Y-12857071D01*
X19056786Y-12842786D01*
X19228214Y-12714214D02*
X19228214Y-12771357D01*
X19342500Y-12714214D02*
X19342500Y-12771357D01*
X19785357Y-13128500D02*
X19771071Y-13114214D01*
X19742500Y-13071357D01*
X19728214Y-13042786D01*
X19713928Y-12999929D01*
X19699643Y-12928500D01*
X19699643Y-12871357D01*
X19713928Y-12799929D01*
X19728214Y-12757071D01*
X19742500Y-12728500D01*
X19771071Y-12685643D01*
X19785357Y-12671357D01*
X19871071Y-12714214D02*
X20056786Y-12714214D01*
X19956786Y-12828500D01*
X19999643Y-12828500D01*
X20028214Y-12842786D01*
X20042500Y-12857071D01*
X20056786Y-12885643D01*
X20056786Y-12957071D01*
X20042500Y-12985643D01*
X20028214Y-12999929D01*
X19999643Y-13014214D01*
X19913928Y-13014214D01*
X19885357Y-12999929D01*
X19871071Y-12985643D01*
X20228214Y-12842786D02*
X20199643Y-12828500D01*
X20185357Y-12814214D01*
X20171071Y-12785643D01*
X20171071Y-12771357D01*
X20185357Y-12742786D01*
X20199643Y-12728500D01*
X20228214Y-12714214D01*
X20285357Y-12714214D01*
X20313928Y-12728500D01*
X20328214Y-12742786D01*
X20342500Y-12771357D01*
X20342500Y-12785643D01*
X20328214Y-12814214D01*
X20313928Y-12828500D01*
X20285357Y-12842786D01*
X20228214Y-12842786D01*
X20199643Y-12857071D01*
X20185357Y-12871357D01*
X20171071Y-12899929D01*
X20171071Y-12957071D01*
X20185357Y-12985643D01*
X20199643Y-12999929D01*
X20228214Y-13014214D01*
X20285357Y-13014214D01*
X20313928Y-12999929D01*
X20328214Y-12985643D01*
X20342500Y-12957071D01*
X20342500Y-12899929D01*
X20328214Y-12871357D01*
X20313928Y-12857071D01*
X20285357Y-12842786D01*
X20699643Y-13014214D02*
X20699643Y-12714214D01*
X20828214Y-13014214D02*
X20828214Y-12857071D01*
X20813928Y-12828500D01*
X20785357Y-12814214D01*
X20742500Y-12814214D01*
X20713928Y-12828500D01*
X20699643Y-12842786D01*
X21013928Y-13014214D02*
X20985357Y-12999929D01*
X20971071Y-12985643D01*
X20956786Y-12957071D01*
X20956786Y-12871357D01*
X20971071Y-12842786D01*
X20985357Y-12828500D01*
X21013928Y-12814214D01*
X21056786Y-12814214D01*
X21085357Y-12828500D01*
X21099643Y-12842786D01*
X21113928Y-12871357D01*
X21113928Y-12957071D01*
X21099643Y-12985643D01*
X21085357Y-12999929D01*
X21056786Y-13014214D01*
X21013928Y-13014214D01*
X21285357Y-13014214D02*
X21256786Y-12999929D01*
X21242500Y-12971357D01*
X21242500Y-12714214D01*
X21513928Y-12999929D02*
X21485357Y-13014214D01*
X21428214Y-13014214D01*
X21399643Y-12999929D01*
X21385357Y-12971357D01*
X21385357Y-12857071D01*
X21399643Y-12828500D01*
X21428214Y-12814214D01*
X21485357Y-12814214D01*
X21513928Y-12828500D01*
X21528214Y-12857071D01*
X21528214Y-12885643D01*
X21385357Y-12914214D01*
X21642500Y-12999929D02*
X21671071Y-13014214D01*
X21728214Y-13014214D01*
X21756786Y-12999929D01*
X21771071Y-12971357D01*
X21771071Y-12957071D01*
X21756786Y-12928500D01*
X21728214Y-12914214D01*
X21685357Y-12914214D01*
X21656786Y-12899929D01*
X21642500Y-12871357D01*
X21642500Y-12857071D01*
X21656786Y-12828500D01*
X21685357Y-12814214D01*
X21728214Y-12814214D01*
X21756786Y-12828500D01*
X21871071Y-13128500D02*
X21885357Y-13114214D01*
X21913928Y-13071357D01*
X21928214Y-13042786D01*
X21942500Y-12999929D01*
X21956786Y-12928500D01*
X21956786Y-12871357D01*
X21942500Y-12799929D01*
X21928214Y-12757071D01*
X21913928Y-12728500D01*
X21885357Y-12685643D01*
X21871071Y-12671357D01*
X14502500Y-13249500D02*
X14502500Y-13299500D01*
X14477500Y-13274500D02*
X14527500Y-13274500D01*
X14871071Y-13110214D02*
X14899643Y-13110214D01*
X14928214Y-13124500D01*
X14942500Y-13138786D01*
X14956786Y-13167357D01*
X14971071Y-13224500D01*
X14971071Y-13295929D01*
X14956786Y-13353071D01*
X14942500Y-13381643D01*
X14928214Y-13395929D01*
X14899643Y-13410214D01*
X14871071Y-13410214D01*
X14842500Y-13395929D01*
X14828214Y-13381643D01*
X14813928Y-13353071D01*
X14799643Y-13295929D01*
X14799643Y-13224500D01*
X14813928Y-13167357D01*
X14828214Y-13138786D01*
X14842500Y-13124500D01*
X14871071Y-13110214D01*
X15099643Y-13381643D02*
X15113928Y-13395929D01*
X15099643Y-13410214D01*
X15085357Y-13395929D01*
X15099643Y-13381643D01*
X15099643Y-13410214D01*
X15385357Y-13110214D02*
X15242500Y-13110214D01*
X15228214Y-13253071D01*
X15242500Y-13238786D01*
X15271071Y-13224500D01*
X15342500Y-13224500D01*
X15371071Y-13238786D01*
X15385357Y-13253071D01*
X15399643Y-13281643D01*
X15399643Y-13353071D01*
X15385357Y-13381643D01*
X15371071Y-13395929D01*
X15342500Y-13410214D01*
X15271071Y-13410214D01*
X15242500Y-13395929D01*
X15228214Y-13381643D01*
X15585357Y-13110214D02*
X15613928Y-13110214D01*
X15642500Y-13124500D01*
X15656786Y-13138786D01*
X15671071Y-13167357D01*
X15685357Y-13224500D01*
X15685357Y-13295929D01*
X15671071Y-13353071D01*
X15656786Y-13381643D01*
X15642500Y-13395929D01*
X15613928Y-13410214D01*
X15585357Y-13410214D01*
X15556786Y-13395929D01*
X15542500Y-13381643D01*
X15528214Y-13353071D01*
X15513928Y-13295929D01*
X15513928Y-13224500D01*
X15528214Y-13167357D01*
X15542500Y-13138786D01*
X15556786Y-13124500D01*
X15585357Y-13110214D01*
X15871071Y-13110214D02*
X15899643Y-13110214D01*
X15928214Y-13124500D01*
X15942500Y-13138786D01*
X15956786Y-13167357D01*
X15971071Y-13224500D01*
X15971071Y-13295929D01*
X15956786Y-13353071D01*
X15942500Y-13381643D01*
X15928214Y-13395929D01*
X15899643Y-13410214D01*
X15871071Y-13410214D01*
X15842500Y-13395929D01*
X15828214Y-13381643D01*
X15813928Y-13353071D01*
X15799643Y-13295929D01*
X15799643Y-13224500D01*
X15813928Y-13167357D01*
X15828214Y-13138786D01*
X15842500Y-13124500D01*
X15871071Y-13110214D01*
X16099643Y-13410214D02*
X16099643Y-13210214D01*
X16099643Y-13238786D02*
X16113928Y-13224500D01*
X16142500Y-13210214D01*
X16185357Y-13210214D01*
X16213928Y-13224500D01*
X16228214Y-13253071D01*
X16228214Y-13410214D01*
X16228214Y-13253071D02*
X16242500Y-13224500D01*
X16271071Y-13210214D01*
X16313928Y-13210214D01*
X16342500Y-13224500D01*
X16356786Y-13253071D01*
X16356786Y-13410214D01*
X16499643Y-13410214D02*
X16499643Y-13210214D01*
X16499643Y-13238786D02*
X16513928Y-13224500D01*
X16542500Y-13210214D01*
X16585357Y-13210214D01*
X16613928Y-13224500D01*
X16628214Y-13253071D01*
X16628214Y-13410214D01*
X16628214Y-13253071D02*
X16642500Y-13224500D01*
X16671071Y-13210214D01*
X16713928Y-13210214D01*
X16742500Y-13224500D01*
X16756786Y-13253071D01*
X16756786Y-13410214D01*
X17342500Y-13095929D02*
X17085357Y-13481643D01*
X17728214Y-13110214D02*
X17756786Y-13110214D01*
X17785357Y-13124500D01*
X17799643Y-13138786D01*
X17813928Y-13167357D01*
X17828214Y-13224500D01*
X17828214Y-13295929D01*
X17813928Y-13353071D01*
X17799643Y-13381643D01*
X17785357Y-13395929D01*
X17756786Y-13410214D01*
X17728214Y-13410214D01*
X17699643Y-13395929D01*
X17685357Y-13381643D01*
X17671071Y-13353071D01*
X17656786Y-13295929D01*
X17656786Y-13224500D01*
X17671071Y-13167357D01*
X17685357Y-13138786D01*
X17699643Y-13124500D01*
X17728214Y-13110214D01*
X17956786Y-13381643D02*
X17971071Y-13395929D01*
X17956786Y-13410214D01*
X17942500Y-13395929D01*
X17956786Y-13381643D01*
X17956786Y-13410214D01*
X18156786Y-13110214D02*
X18185357Y-13110214D01*
X18213928Y-13124500D01*
X18228214Y-13138786D01*
X18242500Y-13167357D01*
X18256786Y-13224500D01*
X18256786Y-13295929D01*
X18242500Y-13353071D01*
X18228214Y-13381643D01*
X18213928Y-13395929D01*
X18185357Y-13410214D01*
X18156786Y-13410214D01*
X18128214Y-13395929D01*
X18113928Y-13381643D01*
X18099643Y-13353071D01*
X18085357Y-13295929D01*
X18085357Y-13224500D01*
X18099643Y-13167357D01*
X18113928Y-13138786D01*
X18128214Y-13124500D01*
X18156786Y-13110214D01*
X18542500Y-13410214D02*
X18371071Y-13410214D01*
X18456786Y-13410214D02*
X18456786Y-13110214D01*
X18428214Y-13153071D01*
X18399643Y-13181643D01*
X18371071Y-13195929D01*
X18685357Y-13410214D02*
X18742500Y-13410214D01*
X18771071Y-13395929D01*
X18785357Y-13381643D01*
X18813928Y-13338786D01*
X18828214Y-13281643D01*
X18828214Y-13167357D01*
X18813928Y-13138786D01*
X18799643Y-13124500D01*
X18771071Y-13110214D01*
X18713928Y-13110214D01*
X18685357Y-13124500D01*
X18671071Y-13138786D01*
X18656786Y-13167357D01*
X18656786Y-13238786D01*
X18671071Y-13267357D01*
X18685357Y-13281643D01*
X18713928Y-13295929D01*
X18771071Y-13295929D01*
X18799643Y-13281643D01*
X18813928Y-13267357D01*
X18828214Y-13238786D01*
X18928214Y-13110214D02*
X19128214Y-13110214D01*
X18999643Y-13410214D01*
X19228214Y-13110214D02*
X19228214Y-13167357D01*
X19342500Y-13110214D02*
X19342500Y-13167357D01*
X19785357Y-13524500D02*
X19771071Y-13510214D01*
X19742500Y-13467357D01*
X19728214Y-13438786D01*
X19713928Y-13395929D01*
X19699643Y-13324500D01*
X19699643Y-13267357D01*
X19713928Y-13195929D01*
X19728214Y-13153071D01*
X19742500Y-13124500D01*
X19771071Y-13081643D01*
X19785357Y-13067357D01*
X19871071Y-13110214D02*
X20071071Y-13110214D01*
X19942500Y-13410214D01*
X20413928Y-13410214D02*
X20413928Y-13110214D01*
X20542500Y-13410214D02*
X20542500Y-13253071D01*
X20528214Y-13224500D01*
X20499643Y-13210214D01*
X20456786Y-13210214D01*
X20428214Y-13224500D01*
X20413928Y-13238786D01*
X20728214Y-13410214D02*
X20699643Y-13395929D01*
X20685357Y-13381643D01*
X20671071Y-13353071D01*
X20671071Y-13267357D01*
X20685357Y-13238786D01*
X20699643Y-13224500D01*
X20728214Y-13210214D01*
X20771071Y-13210214D01*
X20799643Y-13224500D01*
X20813928Y-13238786D01*
X20828214Y-13267357D01*
X20828214Y-13353071D01*
X20813928Y-13381643D01*
X20799643Y-13395929D01*
X20771071Y-13410214D01*
X20728214Y-13410214D01*
X20999643Y-13410214D02*
X20971071Y-13395929D01*
X20956786Y-13367357D01*
X20956786Y-13110214D01*
X21228214Y-13395929D02*
X21199643Y-13410214D01*
X21142500Y-13410214D01*
X21113928Y-13395929D01*
X21099643Y-13367357D01*
X21099643Y-13253071D01*
X21113928Y-13224500D01*
X21142500Y-13210214D01*
X21199643Y-13210214D01*
X21228214Y-13224500D01*
X21242500Y-13253071D01*
X21242500Y-13281643D01*
X21099643Y-13310214D01*
X21356786Y-13395929D02*
X21385357Y-13410214D01*
X21442500Y-13410214D01*
X21471071Y-13395929D01*
X21485357Y-13367357D01*
X21485357Y-13353071D01*
X21471071Y-13324500D01*
X21442500Y-13310214D01*
X21399643Y-13310214D01*
X21371071Y-13295929D01*
X21356786Y-13267357D01*
X21356786Y-13253071D01*
X21371071Y-13224500D01*
X21399643Y-13210214D01*
X21442500Y-13210214D01*
X21471071Y-13224500D01*
X21585357Y-13524500D02*
X21599643Y-13510214D01*
X21628214Y-13467357D01*
X21642500Y-13438786D01*
X21656786Y-13395929D01*
X21671071Y-13324500D01*
X21671071Y-13267357D01*
X21656786Y-13195929D01*
X21642500Y-13153071D01*
X21628214Y-13124500D01*
X21599643Y-13081643D01*
X21585357Y-13067357D01*
X14516517Y-13697017D02*
X14516517Y-13643983D01*
X14463483Y-13643983D01*
X14463483Y-13697017D01*
X14516517Y-13697017D01*
X14871071Y-13506214D02*
X14899643Y-13506214D01*
X14928214Y-13520500D01*
X14942500Y-13534786D01*
X14956786Y-13563357D01*
X14971071Y-13620500D01*
X14971071Y-13691929D01*
X14956786Y-13749071D01*
X14942500Y-13777643D01*
X14928214Y-13791929D01*
X14899643Y-13806214D01*
X14871071Y-13806214D01*
X14842500Y-13791929D01*
X14828214Y-13777643D01*
X14813928Y-13749071D01*
X14799643Y-13691929D01*
X14799643Y-13620500D01*
X14813928Y-13563357D01*
X14828214Y-13534786D01*
X14842500Y-13520500D01*
X14871071Y-13506214D01*
X15099643Y-13777643D02*
X15113928Y-13791929D01*
X15099643Y-13806214D01*
X15085357Y-13791929D01*
X15099643Y-13777643D01*
X15099643Y-13806214D01*
X15213928Y-13506214D02*
X15413928Y-13506214D01*
X15285357Y-13806214D01*
X15671071Y-13506214D02*
X15528214Y-13506214D01*
X15513928Y-13649071D01*
X15528214Y-13634786D01*
X15556786Y-13620500D01*
X15628214Y-13620500D01*
X15656786Y-13634786D01*
X15671071Y-13649071D01*
X15685357Y-13677643D01*
X15685357Y-13749071D01*
X15671071Y-13777643D01*
X15656786Y-13791929D01*
X15628214Y-13806214D01*
X15556786Y-13806214D01*
X15528214Y-13791929D01*
X15513928Y-13777643D01*
X15871071Y-13506214D02*
X15899643Y-13506214D01*
X15928214Y-13520500D01*
X15942500Y-13534786D01*
X15956786Y-13563357D01*
X15971071Y-13620500D01*
X15971071Y-13691929D01*
X15956786Y-13749071D01*
X15942500Y-13777643D01*
X15928214Y-13791929D01*
X15899643Y-13806214D01*
X15871071Y-13806214D01*
X15842500Y-13791929D01*
X15828214Y-13777643D01*
X15813928Y-13749071D01*
X15799643Y-13691929D01*
X15799643Y-13620500D01*
X15813928Y-13563357D01*
X15828214Y-13534786D01*
X15842500Y-13520500D01*
X15871071Y-13506214D01*
X16099643Y-13806214D02*
X16099643Y-13606214D01*
X16099643Y-13634786D02*
X16113928Y-13620500D01*
X16142500Y-13606214D01*
X16185357Y-13606214D01*
X16213928Y-13620500D01*
X16228214Y-13649071D01*
X16228214Y-13806214D01*
X16228214Y-13649071D02*
X16242500Y-13620500D01*
X16271071Y-13606214D01*
X16313928Y-13606214D01*
X16342500Y-13620500D01*
X16356786Y-13649071D01*
X16356786Y-13806214D01*
X16499643Y-13806214D02*
X16499643Y-13606214D01*
X16499643Y-13634786D02*
X16513928Y-13620500D01*
X16542500Y-13606214D01*
X16585357Y-13606214D01*
X16613928Y-13620500D01*
X16628214Y-13649071D01*
X16628214Y-13806214D01*
X16628214Y-13649071D02*
X16642500Y-13620500D01*
X16671071Y-13606214D01*
X16713928Y-13606214D01*
X16742500Y-13620500D01*
X16756786Y-13649071D01*
X16756786Y-13806214D01*
X17342500Y-13491929D02*
X17085357Y-13877643D01*
X17728214Y-13506214D02*
X17756786Y-13506214D01*
X17785357Y-13520500D01*
X17799643Y-13534786D01*
X17813928Y-13563357D01*
X17828214Y-13620500D01*
X17828214Y-13691929D01*
X17813928Y-13749071D01*
X17799643Y-13777643D01*
X17785357Y-13791929D01*
X17756786Y-13806214D01*
X17728214Y-13806214D01*
X17699643Y-13791929D01*
X17685357Y-13777643D01*
X17671071Y-13749071D01*
X17656786Y-13691929D01*
X17656786Y-13620500D01*
X17671071Y-13563357D01*
X17685357Y-13534786D01*
X17699643Y-13520500D01*
X17728214Y-13506214D01*
X17956786Y-13777643D02*
X17971071Y-13791929D01*
X17956786Y-13806214D01*
X17942500Y-13791929D01*
X17956786Y-13777643D01*
X17956786Y-13806214D01*
X18156786Y-13506214D02*
X18185357Y-13506214D01*
X18213928Y-13520500D01*
X18228214Y-13534786D01*
X18242500Y-13563357D01*
X18256786Y-13620500D01*
X18256786Y-13691929D01*
X18242500Y-13749071D01*
X18228214Y-13777643D01*
X18213928Y-13791929D01*
X18185357Y-13806214D01*
X18156786Y-13806214D01*
X18128214Y-13791929D01*
X18113928Y-13777643D01*
X18099643Y-13749071D01*
X18085357Y-13691929D01*
X18085357Y-13620500D01*
X18099643Y-13563357D01*
X18113928Y-13534786D01*
X18128214Y-13520500D01*
X18156786Y-13506214D01*
X18371071Y-13534786D02*
X18385357Y-13520500D01*
X18413928Y-13506214D01*
X18485357Y-13506214D01*
X18513928Y-13520500D01*
X18528214Y-13534786D01*
X18542500Y-13563357D01*
X18542500Y-13591929D01*
X18528214Y-13634786D01*
X18356786Y-13806214D01*
X18542500Y-13806214D01*
X18685357Y-13806214D02*
X18742500Y-13806214D01*
X18771071Y-13791929D01*
X18785357Y-13777643D01*
X18813928Y-13734786D01*
X18828214Y-13677643D01*
X18828214Y-13563357D01*
X18813928Y-13534786D01*
X18799643Y-13520500D01*
X18771071Y-13506214D01*
X18713928Y-13506214D01*
X18685357Y-13520500D01*
X18671071Y-13534786D01*
X18656786Y-13563357D01*
X18656786Y-13634786D01*
X18671071Y-13663357D01*
X18685357Y-13677643D01*
X18713928Y-13691929D01*
X18771071Y-13691929D01*
X18799643Y-13677643D01*
X18813928Y-13663357D01*
X18828214Y-13634786D01*
X19099643Y-13506214D02*
X18956786Y-13506214D01*
X18942500Y-13649071D01*
X18956786Y-13634786D01*
X18985357Y-13620500D01*
X19056786Y-13620500D01*
X19085357Y-13634786D01*
X19099643Y-13649071D01*
X19113928Y-13677643D01*
X19113928Y-13749071D01*
X19099643Y-13777643D01*
X19085357Y-13791929D01*
X19056786Y-13806214D01*
X18985357Y-13806214D01*
X18956786Y-13791929D01*
X18942500Y-13777643D01*
X19228214Y-13506214D02*
X19228214Y-13563357D01*
X19342500Y-13506214D02*
X19342500Y-13563357D01*
X19785357Y-13920500D02*
X19771071Y-13906214D01*
X19742500Y-13863357D01*
X19728214Y-13834786D01*
X19713928Y-13791929D01*
X19699643Y-13720500D01*
X19699643Y-13663357D01*
X19713928Y-13591929D01*
X19728214Y-13549071D01*
X19742500Y-13520500D01*
X19771071Y-13477643D01*
X19785357Y-13463357D01*
X19871071Y-13506214D02*
X20056786Y-13506214D01*
X19956786Y-13620500D01*
X19999643Y-13620500D01*
X20028214Y-13634786D01*
X20042500Y-13649071D01*
X20056786Y-13677643D01*
X20056786Y-13749071D01*
X20042500Y-13777643D01*
X20028214Y-13791929D01*
X19999643Y-13806214D01*
X19913928Y-13806214D01*
X19885357Y-13791929D01*
X19871071Y-13777643D01*
X20413928Y-13806214D02*
X20413928Y-13506214D01*
X20542500Y-13806214D02*
X20542500Y-13649071D01*
X20528214Y-13620500D01*
X20499643Y-13606214D01*
X20456786Y-13606214D01*
X20428214Y-13620500D01*
X20413928Y-13634786D01*
X20728214Y-13806214D02*
X20699643Y-13791929D01*
X20685357Y-13777643D01*
X20671071Y-13749071D01*
X20671071Y-13663357D01*
X20685357Y-13634786D01*
X20699643Y-13620500D01*
X20728214Y-13606214D01*
X20771071Y-13606214D01*
X20799643Y-13620500D01*
X20813928Y-13634786D01*
X20828214Y-13663357D01*
X20828214Y-13749071D01*
X20813928Y-13777643D01*
X20799643Y-13791929D01*
X20771071Y-13806214D01*
X20728214Y-13806214D01*
X20999643Y-13806214D02*
X20971071Y-13791929D01*
X20956786Y-13763357D01*
X20956786Y-13506214D01*
X21228214Y-13791929D02*
X21199643Y-13806214D01*
X21142500Y-13806214D01*
X21113928Y-13791929D01*
X21099643Y-13763357D01*
X21099643Y-13649071D01*
X21113928Y-13620500D01*
X21142500Y-13606214D01*
X21199643Y-13606214D01*
X21228214Y-13620500D01*
X21242500Y-13649071D01*
X21242500Y-13677643D01*
X21099643Y-13706214D01*
X21356786Y-13791929D02*
X21385357Y-13806214D01*
X21442500Y-13806214D01*
X21471071Y-13791929D01*
X21485357Y-13763357D01*
X21485357Y-13749071D01*
X21471071Y-13720500D01*
X21442500Y-13706214D01*
X21399643Y-13706214D01*
X21371071Y-13691929D01*
X21356786Y-13663357D01*
X21356786Y-13649071D01*
X21371071Y-13620500D01*
X21399643Y-13606214D01*
X21442500Y-13606214D01*
X21471071Y-13620500D01*
X21585357Y-13920500D02*
X21599643Y-13906214D01*
X21628214Y-13863357D01*
X21642500Y-13834786D01*
X21656786Y-13791929D01*
X21671071Y-13720500D01*
X21671071Y-13663357D01*
X21656786Y-13591929D01*
X21642500Y-13549071D01*
X21628214Y-13520500D01*
X21599643Y-13477643D01*
X21585357Y-13463357D01*
X14489400Y-14104600D02*
X14527500Y-14066500D01*
X14489400Y-14028400D01*
X14451300Y-14066500D01*
X14489400Y-14104600D01*
X14871071Y-13902214D02*
X14899643Y-13902214D01*
X14928214Y-13916500D01*
X14942500Y-13930786D01*
X14956786Y-13959357D01*
X14971071Y-14016500D01*
X14971071Y-14087929D01*
X14956786Y-14145071D01*
X14942500Y-14173643D01*
X14928214Y-14187929D01*
X14899643Y-14202214D01*
X14871071Y-14202214D01*
X14842500Y-14187929D01*
X14828214Y-14173643D01*
X14813928Y-14145071D01*
X14799643Y-14087929D01*
X14799643Y-14016500D01*
X14813928Y-13959357D01*
X14828214Y-13930786D01*
X14842500Y-13916500D01*
X14871071Y-13902214D01*
X15099643Y-14173643D02*
X15113928Y-14187929D01*
X15099643Y-14202214D01*
X15085357Y-14187929D01*
X15099643Y-14173643D01*
X15099643Y-14202214D01*
X15213928Y-13902214D02*
X15413928Y-13902214D01*
X15285357Y-14202214D01*
X15656786Y-13902214D02*
X15599643Y-13902214D01*
X15571071Y-13916500D01*
X15556786Y-13930786D01*
X15528214Y-13973643D01*
X15513928Y-14030786D01*
X15513928Y-14145071D01*
X15528214Y-14173643D01*
X15542500Y-14187929D01*
X15571071Y-14202214D01*
X15628214Y-14202214D01*
X15656786Y-14187929D01*
X15671071Y-14173643D01*
X15685357Y-14145071D01*
X15685357Y-14073643D01*
X15671071Y-14045071D01*
X15656786Y-14030786D01*
X15628214Y-14016500D01*
X15571071Y-14016500D01*
X15542500Y-14030786D01*
X15528214Y-14045071D01*
X15513928Y-14073643D01*
X15799643Y-13930786D02*
X15813928Y-13916500D01*
X15842500Y-13902214D01*
X15913928Y-13902214D01*
X15942500Y-13916500D01*
X15956786Y-13930786D01*
X15971071Y-13959357D01*
X15971071Y-13987929D01*
X15956786Y-14030786D01*
X15785357Y-14202214D01*
X15971071Y-14202214D01*
X16099643Y-14202214D02*
X16099643Y-14002214D01*
X16099643Y-14030786D02*
X16113928Y-14016500D01*
X16142500Y-14002214D01*
X16185357Y-14002214D01*
X16213928Y-14016500D01*
X16228214Y-14045071D01*
X16228214Y-14202214D01*
X16228214Y-14045071D02*
X16242500Y-14016500D01*
X16271071Y-14002214D01*
X16313928Y-14002214D01*
X16342500Y-14016500D01*
X16356786Y-14045071D01*
X16356786Y-14202214D01*
X16499643Y-14202214D02*
X16499643Y-14002214D01*
X16499643Y-14030786D02*
X16513928Y-14016500D01*
X16542500Y-14002214D01*
X16585357Y-14002214D01*
X16613928Y-14016500D01*
X16628214Y-14045071D01*
X16628214Y-14202214D01*
X16628214Y-14045071D02*
X16642500Y-14016500D01*
X16671071Y-14002214D01*
X16713928Y-14002214D01*
X16742500Y-14016500D01*
X16756786Y-14045071D01*
X16756786Y-14202214D01*
X17342500Y-13887929D02*
X17085357Y-14273643D01*
X17728214Y-13902214D02*
X17756786Y-13902214D01*
X17785357Y-13916500D01*
X17799643Y-13930786D01*
X17813928Y-13959357D01*
X17828214Y-14016500D01*
X17828214Y-14087929D01*
X17813928Y-14145071D01*
X17799643Y-14173643D01*
X17785357Y-14187929D01*
X17756786Y-14202214D01*
X17728214Y-14202214D01*
X17699643Y-14187929D01*
X17685357Y-14173643D01*
X17671071Y-14145071D01*
X17656786Y-14087929D01*
X17656786Y-14016500D01*
X17671071Y-13959357D01*
X17685357Y-13930786D01*
X17699643Y-13916500D01*
X17728214Y-13902214D01*
X17956786Y-14173643D02*
X17971071Y-14187929D01*
X17956786Y-14202214D01*
X17942500Y-14187929D01*
X17956786Y-14173643D01*
X17956786Y-14202214D01*
X18156786Y-13902214D02*
X18185357Y-13902214D01*
X18213928Y-13916500D01*
X18228214Y-13930786D01*
X18242500Y-13959357D01*
X18256786Y-14016500D01*
X18256786Y-14087929D01*
X18242500Y-14145071D01*
X18228214Y-14173643D01*
X18213928Y-14187929D01*
X18185357Y-14202214D01*
X18156786Y-14202214D01*
X18128214Y-14187929D01*
X18113928Y-14173643D01*
X18099643Y-14145071D01*
X18085357Y-14087929D01*
X18085357Y-14016500D01*
X18099643Y-13959357D01*
X18113928Y-13930786D01*
X18128214Y-13916500D01*
X18156786Y-13902214D01*
X18356786Y-13902214D02*
X18542500Y-13902214D01*
X18442500Y-14016500D01*
X18485357Y-14016500D01*
X18513928Y-14030786D01*
X18528214Y-14045071D01*
X18542500Y-14073643D01*
X18542500Y-14145071D01*
X18528214Y-14173643D01*
X18513928Y-14187929D01*
X18485357Y-14202214D01*
X18399643Y-14202214D01*
X18371071Y-14187929D01*
X18356786Y-14173643D01*
X18728214Y-13902214D02*
X18756786Y-13902214D01*
X18785357Y-13916500D01*
X18799643Y-13930786D01*
X18813928Y-13959357D01*
X18828214Y-14016500D01*
X18828214Y-14087929D01*
X18813928Y-14145071D01*
X18799643Y-14173643D01*
X18785357Y-14187929D01*
X18756786Y-14202214D01*
X18728214Y-14202214D01*
X18699643Y-14187929D01*
X18685357Y-14173643D01*
X18671071Y-14145071D01*
X18656786Y-14087929D01*
X18656786Y-14016500D01*
X18671071Y-13959357D01*
X18685357Y-13930786D01*
X18699643Y-13916500D01*
X18728214Y-13902214D01*
X19013928Y-13902214D02*
X19042500Y-13902214D01*
X19071071Y-13916500D01*
X19085357Y-13930786D01*
X19099643Y-13959357D01*
X19113928Y-14016500D01*
X19113928Y-14087929D01*
X19099643Y-14145071D01*
X19085357Y-14173643D01*
X19071071Y-14187929D01*
X19042500Y-14202214D01*
X19013928Y-14202214D01*
X18985357Y-14187929D01*
X18971071Y-14173643D01*
X18956786Y-14145071D01*
X18942500Y-14087929D01*
X18942500Y-14016500D01*
X18956786Y-13959357D01*
X18971071Y-13930786D01*
X18985357Y-13916500D01*
X19013928Y-13902214D01*
X19228214Y-13902214D02*
X19228214Y-13959357D01*
X19342500Y-13902214D02*
X19342500Y-13959357D01*
X19785357Y-14316500D02*
X19771071Y-14302214D01*
X19742500Y-14259357D01*
X19728214Y-14230786D01*
X19713928Y-14187929D01*
X19699643Y-14116500D01*
X19699643Y-14059357D01*
X19713928Y-13987929D01*
X19728214Y-13945071D01*
X19742500Y-13916500D01*
X19771071Y-13873643D01*
X19785357Y-13859357D01*
X19871071Y-13902214D02*
X20056786Y-13902214D01*
X19956786Y-14016500D01*
X19999643Y-14016500D01*
X20028214Y-14030786D01*
X20042500Y-14045071D01*
X20056786Y-14073643D01*
X20056786Y-14145071D01*
X20042500Y-14173643D01*
X20028214Y-14187929D01*
X19999643Y-14202214D01*
X19913928Y-14202214D01*
X19885357Y-14187929D01*
X19871071Y-14173643D01*
X20242500Y-13902214D02*
X20271071Y-13902214D01*
X20299643Y-13916500D01*
X20313928Y-13930786D01*
X20328214Y-13959357D01*
X20342500Y-14016500D01*
X20342500Y-14087929D01*
X20328214Y-14145071D01*
X20313928Y-14173643D01*
X20299643Y-14187929D01*
X20271071Y-14202214D01*
X20242500Y-14202214D01*
X20213928Y-14187929D01*
X20199643Y-14173643D01*
X20185357Y-14145071D01*
X20171071Y-14087929D01*
X20171071Y-14016500D01*
X20185357Y-13959357D01*
X20199643Y-13930786D01*
X20213928Y-13916500D01*
X20242500Y-13902214D01*
X20699643Y-14202214D02*
X20699643Y-13902214D01*
X20828214Y-14202214D02*
X20828214Y-14045071D01*
X20813928Y-14016500D01*
X20785357Y-14002214D01*
X20742500Y-14002214D01*
X20713928Y-14016500D01*
X20699643Y-14030786D01*
X21013928Y-14202214D02*
X20985357Y-14187929D01*
X20971071Y-14173643D01*
X20956786Y-14145071D01*
X20956786Y-14059357D01*
X20971071Y-14030786D01*
X20985357Y-14016500D01*
X21013928Y-14002214D01*
X21056786Y-14002214D01*
X21085357Y-14016500D01*
X21099643Y-14030786D01*
X21113928Y-14059357D01*
X21113928Y-14145071D01*
X21099643Y-14173643D01*
X21085357Y-14187929D01*
X21056786Y-14202214D01*
X21013928Y-14202214D01*
X21285357Y-14202214D02*
X21256786Y-14187929D01*
X21242500Y-14159357D01*
X21242500Y-13902214D01*
X21513928Y-14187929D02*
X21485357Y-14202214D01*
X21428214Y-14202214D01*
X21399643Y-14187929D01*
X21385357Y-14159357D01*
X21385357Y-14045071D01*
X21399643Y-14016500D01*
X21428214Y-14002214D01*
X21485357Y-14002214D01*
X21513928Y-14016500D01*
X21528214Y-14045071D01*
X21528214Y-14073643D01*
X21385357Y-14102214D01*
X21642500Y-14187929D02*
X21671071Y-14202214D01*
X21728214Y-14202214D01*
X21756786Y-14187929D01*
X21771071Y-14159357D01*
X21771071Y-14145071D01*
X21756786Y-14116500D01*
X21728214Y-14102214D01*
X21685357Y-14102214D01*
X21656786Y-14087929D01*
X21642500Y-14059357D01*
X21642500Y-14045071D01*
X21656786Y-14016500D01*
X21685357Y-14002214D01*
X21728214Y-14002214D01*
X21756786Y-14016500D01*
X21871071Y-14316500D02*
X21885357Y-14302214D01*
X21913928Y-14259357D01*
X21928214Y-14230786D01*
X21942500Y-14187929D01*
X21956786Y-14116500D01*
X21956786Y-14059357D01*
X21942500Y-13987929D01*
X21928214Y-13945071D01*
X21913928Y-13916500D01*
X21885357Y-13873643D01*
X21871071Y-13859357D01*
X14447500Y-14422500D02*
X14527500Y-14502500D01*
X14527500Y-14422500D02*
X14447500Y-14502500D01*
X14527500Y-14462500D02*
G75*
G03*
X14527500Y-14462500I-40000J0D01*
G01*
X14871071Y-14298214D02*
X14899643Y-14298214D01*
X14928214Y-14312500D01*
X14942500Y-14326786D01*
X14956786Y-14355357D01*
X14971071Y-14412500D01*
X14971071Y-14483929D01*
X14956786Y-14541071D01*
X14942500Y-14569643D01*
X14928214Y-14583929D01*
X14899643Y-14598214D01*
X14871071Y-14598214D01*
X14842500Y-14583929D01*
X14828214Y-14569643D01*
X14813928Y-14541071D01*
X14799643Y-14483929D01*
X14799643Y-14412500D01*
X14813928Y-14355357D01*
X14828214Y-14326786D01*
X14842500Y-14312500D01*
X14871071Y-14298214D01*
X15099643Y-14569643D02*
X15113928Y-14583929D01*
X15099643Y-14598214D01*
X15085357Y-14583929D01*
X15099643Y-14569643D01*
X15099643Y-14598214D01*
X15285357Y-14426786D02*
X15256786Y-14412500D01*
X15242500Y-14398214D01*
X15228214Y-14369643D01*
X15228214Y-14355357D01*
X15242500Y-14326786D01*
X15256786Y-14312500D01*
X15285357Y-14298214D01*
X15342500Y-14298214D01*
X15371071Y-14312500D01*
X15385357Y-14326786D01*
X15399643Y-14355357D01*
X15399643Y-14369643D01*
X15385357Y-14398214D01*
X15371071Y-14412500D01*
X15342500Y-14426786D01*
X15285357Y-14426786D01*
X15256786Y-14441071D01*
X15242500Y-14455357D01*
X15228214Y-14483929D01*
X15228214Y-14541071D01*
X15242500Y-14569643D01*
X15256786Y-14583929D01*
X15285357Y-14598214D01*
X15342500Y-14598214D01*
X15371071Y-14583929D01*
X15385357Y-14569643D01*
X15399643Y-14541071D01*
X15399643Y-14483929D01*
X15385357Y-14455357D01*
X15371071Y-14441071D01*
X15342500Y-14426786D01*
X15585357Y-14298214D02*
X15613928Y-14298214D01*
X15642500Y-14312500D01*
X15656786Y-14326786D01*
X15671071Y-14355357D01*
X15685357Y-14412500D01*
X15685357Y-14483929D01*
X15671071Y-14541071D01*
X15656786Y-14569643D01*
X15642500Y-14583929D01*
X15613928Y-14598214D01*
X15585357Y-14598214D01*
X15556786Y-14583929D01*
X15542500Y-14569643D01*
X15528214Y-14541071D01*
X15513928Y-14483929D01*
X15513928Y-14412500D01*
X15528214Y-14355357D01*
X15542500Y-14326786D01*
X15556786Y-14312500D01*
X15585357Y-14298214D01*
X15871071Y-14298214D02*
X15899643Y-14298214D01*
X15928214Y-14312500D01*
X15942500Y-14326786D01*
X15956786Y-14355357D01*
X15971071Y-14412500D01*
X15971071Y-14483929D01*
X15956786Y-14541071D01*
X15942500Y-14569643D01*
X15928214Y-14583929D01*
X15899643Y-14598214D01*
X15871071Y-14598214D01*
X15842500Y-14583929D01*
X15828214Y-14569643D01*
X15813928Y-14541071D01*
X15799643Y-14483929D01*
X15799643Y-14412500D01*
X15813928Y-14355357D01*
X15828214Y-14326786D01*
X15842500Y-14312500D01*
X15871071Y-14298214D01*
X16099643Y-14598214D02*
X16099643Y-14398214D01*
X16099643Y-14426786D02*
X16113928Y-14412500D01*
X16142500Y-14398214D01*
X16185357Y-14398214D01*
X16213928Y-14412500D01*
X16228214Y-14441071D01*
X16228214Y-14598214D01*
X16228214Y-14441071D02*
X16242500Y-14412500D01*
X16271071Y-14398214D01*
X16313928Y-14398214D01*
X16342500Y-14412500D01*
X16356786Y-14441071D01*
X16356786Y-14598214D01*
X16499643Y-14598214D02*
X16499643Y-14398214D01*
X16499643Y-14426786D02*
X16513928Y-14412500D01*
X16542500Y-14398214D01*
X16585357Y-14398214D01*
X16613928Y-14412500D01*
X16628214Y-14441071D01*
X16628214Y-14598214D01*
X16628214Y-14441071D02*
X16642500Y-14412500D01*
X16671071Y-14398214D01*
X16713928Y-14398214D01*
X16742500Y-14412500D01*
X16756786Y-14441071D01*
X16756786Y-14598214D01*
X17342500Y-14283929D02*
X17085357Y-14669643D01*
X17728214Y-14298214D02*
X17756786Y-14298214D01*
X17785357Y-14312500D01*
X17799643Y-14326786D01*
X17813928Y-14355357D01*
X17828214Y-14412500D01*
X17828214Y-14483929D01*
X17813928Y-14541071D01*
X17799643Y-14569643D01*
X17785357Y-14583929D01*
X17756786Y-14598214D01*
X17728214Y-14598214D01*
X17699643Y-14583929D01*
X17685357Y-14569643D01*
X17671071Y-14541071D01*
X17656786Y-14483929D01*
X17656786Y-14412500D01*
X17671071Y-14355357D01*
X17685357Y-14326786D01*
X17699643Y-14312500D01*
X17728214Y-14298214D01*
X17956786Y-14569643D02*
X17971071Y-14583929D01*
X17956786Y-14598214D01*
X17942500Y-14583929D01*
X17956786Y-14569643D01*
X17956786Y-14598214D01*
X18156786Y-14298214D02*
X18185357Y-14298214D01*
X18213928Y-14312500D01*
X18228214Y-14326786D01*
X18242500Y-14355357D01*
X18256786Y-14412500D01*
X18256786Y-14483929D01*
X18242500Y-14541071D01*
X18228214Y-14569643D01*
X18213928Y-14583929D01*
X18185357Y-14598214D01*
X18156786Y-14598214D01*
X18128214Y-14583929D01*
X18113928Y-14569643D01*
X18099643Y-14541071D01*
X18085357Y-14483929D01*
X18085357Y-14412500D01*
X18099643Y-14355357D01*
X18113928Y-14326786D01*
X18128214Y-14312500D01*
X18156786Y-14298214D01*
X18356786Y-14298214D02*
X18542500Y-14298214D01*
X18442500Y-14412500D01*
X18485357Y-14412500D01*
X18513928Y-14426786D01*
X18528214Y-14441071D01*
X18542500Y-14469643D01*
X18542500Y-14541071D01*
X18528214Y-14569643D01*
X18513928Y-14583929D01*
X18485357Y-14598214D01*
X18399643Y-14598214D01*
X18371071Y-14583929D01*
X18356786Y-14569643D01*
X18828214Y-14598214D02*
X18656786Y-14598214D01*
X18742500Y-14598214D02*
X18742500Y-14298214D01*
X18713928Y-14341071D01*
X18685357Y-14369643D01*
X18656786Y-14383929D01*
X19099643Y-14298214D02*
X18956786Y-14298214D01*
X18942500Y-14441071D01*
X18956786Y-14426786D01*
X18985357Y-14412500D01*
X19056786Y-14412500D01*
X19085357Y-14426786D01*
X19099643Y-14441071D01*
X19113928Y-14469643D01*
X19113928Y-14541071D01*
X19099643Y-14569643D01*
X19085357Y-14583929D01*
X19056786Y-14598214D01*
X18985357Y-14598214D01*
X18956786Y-14583929D01*
X18942500Y-14569643D01*
X19228214Y-14298214D02*
X19228214Y-14355357D01*
X19342500Y-14298214D02*
X19342500Y-14355357D01*
X19785357Y-14712500D02*
X19771071Y-14698214D01*
X19742500Y-14655357D01*
X19728214Y-14626786D01*
X19713928Y-14583929D01*
X19699643Y-14512500D01*
X19699643Y-14455357D01*
X19713928Y-14383929D01*
X19728214Y-14341071D01*
X19742500Y-14312500D01*
X19771071Y-14269643D01*
X19785357Y-14255357D01*
X20028214Y-14398214D02*
X20028214Y-14598214D01*
X19956786Y-14283929D02*
X19885357Y-14498214D01*
X20071071Y-14498214D01*
X20413928Y-14598214D02*
X20413928Y-14298214D01*
X20542500Y-14598214D02*
X20542500Y-14441071D01*
X20528214Y-14412500D01*
X20499643Y-14398214D01*
X20456786Y-14398214D01*
X20428214Y-14412500D01*
X20413928Y-14426786D01*
X20728214Y-14598214D02*
X20699643Y-14583929D01*
X20685357Y-14569643D01*
X20671071Y-14541071D01*
X20671071Y-14455357D01*
X20685357Y-14426786D01*
X20699643Y-14412500D01*
X20728214Y-14398214D01*
X20771071Y-14398214D01*
X20799643Y-14412500D01*
X20813928Y-14426786D01*
X20828214Y-14455357D01*
X20828214Y-14541071D01*
X20813928Y-14569643D01*
X20799643Y-14583929D01*
X20771071Y-14598214D01*
X20728214Y-14598214D01*
X20999643Y-14598214D02*
X20971071Y-14583929D01*
X20956786Y-14555357D01*
X20956786Y-14298214D01*
X21228214Y-14583929D02*
X21199643Y-14598214D01*
X21142500Y-14598214D01*
X21113928Y-14583929D01*
X21099643Y-14555357D01*
X21099643Y-14441071D01*
X21113928Y-14412500D01*
X21142500Y-14398214D01*
X21199643Y-14398214D01*
X21228214Y-14412500D01*
X21242500Y-14441071D01*
X21242500Y-14469643D01*
X21099643Y-14498214D01*
X21356786Y-14583929D02*
X21385357Y-14598214D01*
X21442500Y-14598214D01*
X21471071Y-14583929D01*
X21485357Y-14555357D01*
X21485357Y-14541071D01*
X21471071Y-14512500D01*
X21442500Y-14498214D01*
X21399643Y-14498214D01*
X21371071Y-14483929D01*
X21356786Y-14455357D01*
X21356786Y-14441071D01*
X21371071Y-14412500D01*
X21399643Y-14398214D01*
X21442500Y-14398214D01*
X21471071Y-14412500D01*
X21585357Y-14712500D02*
X21599643Y-14698214D01*
X21628214Y-14655357D01*
X21642500Y-14626786D01*
X21656786Y-14583929D01*
X21671071Y-14512500D01*
X21671071Y-14455357D01*
X21656786Y-14383929D01*
X21642500Y-14341071D01*
X21628214Y-14312500D01*
X21599643Y-14269643D01*
X21585357Y-14255357D01*
X14437500Y-14813500D02*
X14527500Y-14903500D01*
X14527500Y-14813500D02*
X14437500Y-14903500D01*
X14482500Y-14813500D02*
X14482500Y-14903500D01*
X14437500Y-14858500D02*
X14527500Y-14858500D01*
X14871071Y-14694214D02*
X14899643Y-14694214D01*
X14928214Y-14708500D01*
X14942500Y-14722786D01*
X14956786Y-14751357D01*
X14971071Y-14808500D01*
X14971071Y-14879929D01*
X14956786Y-14937071D01*
X14942500Y-14965643D01*
X14928214Y-14979929D01*
X14899643Y-14994214D01*
X14871071Y-14994214D01*
X14842500Y-14979929D01*
X14828214Y-14965643D01*
X14813928Y-14937071D01*
X14799643Y-14879929D01*
X14799643Y-14808500D01*
X14813928Y-14751357D01*
X14828214Y-14722786D01*
X14842500Y-14708500D01*
X14871071Y-14694214D01*
X15099643Y-14965643D02*
X15113928Y-14979929D01*
X15099643Y-14994214D01*
X15085357Y-14979929D01*
X15099643Y-14965643D01*
X15099643Y-14994214D01*
X15256786Y-14994214D02*
X15313928Y-14994214D01*
X15342500Y-14979929D01*
X15356786Y-14965643D01*
X15385357Y-14922786D01*
X15399643Y-14865643D01*
X15399643Y-14751357D01*
X15385357Y-14722786D01*
X15371071Y-14708500D01*
X15342500Y-14694214D01*
X15285357Y-14694214D01*
X15256786Y-14708500D01*
X15242500Y-14722786D01*
X15228214Y-14751357D01*
X15228214Y-14822786D01*
X15242500Y-14851357D01*
X15256786Y-14865643D01*
X15285357Y-14879929D01*
X15342500Y-14879929D01*
X15371071Y-14865643D01*
X15385357Y-14851357D01*
X15399643Y-14822786D01*
X15585357Y-14694214D02*
X15613928Y-14694214D01*
X15642500Y-14708500D01*
X15656786Y-14722786D01*
X15671071Y-14751357D01*
X15685357Y-14808500D01*
X15685357Y-14879929D01*
X15671071Y-14937071D01*
X15656786Y-14965643D01*
X15642500Y-14979929D01*
X15613928Y-14994214D01*
X15585357Y-14994214D01*
X15556786Y-14979929D01*
X15542500Y-14965643D01*
X15528214Y-14937071D01*
X15513928Y-14879929D01*
X15513928Y-14808500D01*
X15528214Y-14751357D01*
X15542500Y-14722786D01*
X15556786Y-14708500D01*
X15585357Y-14694214D01*
X15871071Y-14694214D02*
X15899643Y-14694214D01*
X15928214Y-14708500D01*
X15942500Y-14722786D01*
X15956786Y-14751357D01*
X15971071Y-14808500D01*
X15971071Y-14879929D01*
X15956786Y-14937071D01*
X15942500Y-14965643D01*
X15928214Y-14979929D01*
X15899643Y-14994214D01*
X15871071Y-14994214D01*
X15842500Y-14979929D01*
X15828214Y-14965643D01*
X15813928Y-14937071D01*
X15799643Y-14879929D01*
X15799643Y-14808500D01*
X15813928Y-14751357D01*
X15828214Y-14722786D01*
X15842500Y-14708500D01*
X15871071Y-14694214D01*
X16099643Y-14994214D02*
X16099643Y-14794214D01*
X16099643Y-14822786D02*
X16113928Y-14808500D01*
X16142500Y-14794214D01*
X16185357Y-14794214D01*
X16213928Y-14808500D01*
X16228214Y-14837071D01*
X16228214Y-14994214D01*
X16228214Y-14837071D02*
X16242500Y-14808500D01*
X16271071Y-14794214D01*
X16313928Y-14794214D01*
X16342500Y-14808500D01*
X16356786Y-14837071D01*
X16356786Y-14994214D01*
X16499643Y-14994214D02*
X16499643Y-14794214D01*
X16499643Y-14822786D02*
X16513928Y-14808500D01*
X16542500Y-14794214D01*
X16585357Y-14794214D01*
X16613928Y-14808500D01*
X16628214Y-14837071D01*
X16628214Y-14994214D01*
X16628214Y-14837071D02*
X16642500Y-14808500D01*
X16671071Y-14794214D01*
X16713928Y-14794214D01*
X16742500Y-14808500D01*
X16756786Y-14837071D01*
X16756786Y-14994214D01*
X17342500Y-14679929D02*
X17085357Y-15065643D01*
X17728214Y-14694214D02*
X17756786Y-14694214D01*
X17785357Y-14708500D01*
X17799643Y-14722786D01*
X17813928Y-14751357D01*
X17828214Y-14808500D01*
X17828214Y-14879929D01*
X17813928Y-14937071D01*
X17799643Y-14965643D01*
X17785357Y-14979929D01*
X17756786Y-14994214D01*
X17728214Y-14994214D01*
X17699643Y-14979929D01*
X17685357Y-14965643D01*
X17671071Y-14937071D01*
X17656786Y-14879929D01*
X17656786Y-14808500D01*
X17671071Y-14751357D01*
X17685357Y-14722786D01*
X17699643Y-14708500D01*
X17728214Y-14694214D01*
X17956786Y-14965643D02*
X17971071Y-14979929D01*
X17956786Y-14994214D01*
X17942500Y-14979929D01*
X17956786Y-14965643D01*
X17956786Y-14994214D01*
X18156786Y-14694214D02*
X18185357Y-14694214D01*
X18213928Y-14708500D01*
X18228214Y-14722786D01*
X18242500Y-14751357D01*
X18256786Y-14808500D01*
X18256786Y-14879929D01*
X18242500Y-14937071D01*
X18228214Y-14965643D01*
X18213928Y-14979929D01*
X18185357Y-14994214D01*
X18156786Y-14994214D01*
X18128214Y-14979929D01*
X18113928Y-14965643D01*
X18099643Y-14937071D01*
X18085357Y-14879929D01*
X18085357Y-14808500D01*
X18099643Y-14751357D01*
X18113928Y-14722786D01*
X18128214Y-14708500D01*
X18156786Y-14694214D01*
X18356786Y-14694214D02*
X18542500Y-14694214D01*
X18442500Y-14808500D01*
X18485357Y-14808500D01*
X18513928Y-14822786D01*
X18528214Y-14837071D01*
X18542500Y-14865643D01*
X18542500Y-14937071D01*
X18528214Y-14965643D01*
X18513928Y-14979929D01*
X18485357Y-14994214D01*
X18399643Y-14994214D01*
X18371071Y-14979929D01*
X18356786Y-14965643D01*
X18813928Y-14694214D02*
X18671071Y-14694214D01*
X18656786Y-14837071D01*
X18671071Y-14822786D01*
X18699643Y-14808500D01*
X18771071Y-14808500D01*
X18799643Y-14822786D01*
X18813928Y-14837071D01*
X18828214Y-14865643D01*
X18828214Y-14937071D01*
X18813928Y-14965643D01*
X18799643Y-14979929D01*
X18771071Y-14994214D01*
X18699643Y-14994214D01*
X18671071Y-14979929D01*
X18656786Y-14965643D01*
X19085357Y-14794214D02*
X19085357Y-14994214D01*
X19013928Y-14679929D02*
X18942500Y-14894214D01*
X19128214Y-14894214D01*
X19228214Y-14694214D02*
X19228214Y-14751357D01*
X19342500Y-14694214D02*
X19342500Y-14751357D01*
X19785357Y-15108500D02*
X19771071Y-15094214D01*
X19742500Y-15051357D01*
X19728214Y-15022786D01*
X19713928Y-14979929D01*
X19699643Y-14908500D01*
X19699643Y-14851357D01*
X19713928Y-14779929D01*
X19728214Y-14737071D01*
X19742500Y-14708500D01*
X19771071Y-14665643D01*
X19785357Y-14651357D01*
X20028214Y-14794214D02*
X20028214Y-14994214D01*
X19956786Y-14679929D02*
X19885357Y-14894214D01*
X20071071Y-14894214D01*
X20413928Y-14994214D02*
X20413928Y-14694214D01*
X20542500Y-14994214D02*
X20542500Y-14837071D01*
X20528214Y-14808500D01*
X20499643Y-14794214D01*
X20456786Y-14794214D01*
X20428214Y-14808500D01*
X20413928Y-14822786D01*
X20728214Y-14994214D02*
X20699643Y-14979929D01*
X20685357Y-14965643D01*
X20671071Y-14937071D01*
X20671071Y-14851357D01*
X20685357Y-14822786D01*
X20699643Y-14808500D01*
X20728214Y-14794214D01*
X20771071Y-14794214D01*
X20799643Y-14808500D01*
X20813928Y-14822786D01*
X20828214Y-14851357D01*
X20828214Y-14937071D01*
X20813928Y-14965643D01*
X20799643Y-14979929D01*
X20771071Y-14994214D01*
X20728214Y-14994214D01*
X20999643Y-14994214D02*
X20971071Y-14979929D01*
X20956786Y-14951357D01*
X20956786Y-14694214D01*
X21228214Y-14979929D02*
X21199643Y-14994214D01*
X21142500Y-14994214D01*
X21113928Y-14979929D01*
X21099643Y-14951357D01*
X21099643Y-14837071D01*
X21113928Y-14808500D01*
X21142500Y-14794214D01*
X21199643Y-14794214D01*
X21228214Y-14808500D01*
X21242500Y-14837071D01*
X21242500Y-14865643D01*
X21099643Y-14894214D01*
X21356786Y-14979929D02*
X21385357Y-14994214D01*
X21442500Y-14994214D01*
X21471071Y-14979929D01*
X21485357Y-14951357D01*
X21485357Y-14937071D01*
X21471071Y-14908500D01*
X21442500Y-14894214D01*
X21399643Y-14894214D01*
X21371071Y-14879929D01*
X21356786Y-14851357D01*
X21356786Y-14837071D01*
X21371071Y-14808500D01*
X21399643Y-14794214D01*
X21442500Y-14794214D01*
X21471071Y-14808500D01*
X21585357Y-15108500D02*
X21599643Y-15094214D01*
X21628214Y-15051357D01*
X21642500Y-15022786D01*
X21656786Y-14979929D01*
X21671071Y-14908500D01*
X21671071Y-14851357D01*
X21656786Y-14779929D01*
X21642500Y-14737071D01*
X21628214Y-14708500D01*
X21599643Y-14665643D01*
X21585357Y-14651357D01*
X14427500Y-15204500D02*
X14527500Y-15304500D01*
X14527500Y-15204500D02*
X14427500Y-15304500D01*
X14512856Y-15289856D02*
X14512856Y-15219144D01*
X14442144Y-15219144D01*
X14442144Y-15289856D01*
X14512856Y-15289856D01*
X14971071Y-15390214D02*
X14799643Y-15390214D01*
X14885357Y-15390214D02*
X14885357Y-15090214D01*
X14856786Y-15133071D01*
X14828214Y-15161643D01*
X14799643Y-15175929D01*
X15099643Y-15361643D02*
X15113928Y-15375929D01*
X15099643Y-15390214D01*
X15085357Y-15375929D01*
X15099643Y-15361643D01*
X15099643Y-15390214D01*
X15299643Y-15090214D02*
X15328214Y-15090214D01*
X15356786Y-15104500D01*
X15371071Y-15118786D01*
X15385357Y-15147357D01*
X15399643Y-15204500D01*
X15399643Y-15275929D01*
X15385357Y-15333071D01*
X15371071Y-15361643D01*
X15356786Y-15375929D01*
X15328214Y-15390214D01*
X15299643Y-15390214D01*
X15271071Y-15375929D01*
X15256786Y-15361643D01*
X15242500Y-15333071D01*
X15228214Y-15275929D01*
X15228214Y-15204500D01*
X15242500Y-15147357D01*
X15256786Y-15118786D01*
X15271071Y-15104500D01*
X15299643Y-15090214D01*
X15585357Y-15090214D02*
X15613928Y-15090214D01*
X15642500Y-15104500D01*
X15656786Y-15118786D01*
X15671071Y-15147357D01*
X15685357Y-15204500D01*
X15685357Y-15275929D01*
X15671071Y-15333071D01*
X15656786Y-15361643D01*
X15642500Y-15375929D01*
X15613928Y-15390214D01*
X15585357Y-15390214D01*
X15556786Y-15375929D01*
X15542500Y-15361643D01*
X15528214Y-15333071D01*
X15513928Y-15275929D01*
X15513928Y-15204500D01*
X15528214Y-15147357D01*
X15542500Y-15118786D01*
X15556786Y-15104500D01*
X15585357Y-15090214D01*
X15871071Y-15090214D02*
X15899643Y-15090214D01*
X15928214Y-15104500D01*
X15942500Y-15118786D01*
X15956786Y-15147357D01*
X15971071Y-15204500D01*
X15971071Y-15275929D01*
X15956786Y-15333071D01*
X15942500Y-15361643D01*
X15928214Y-15375929D01*
X15899643Y-15390214D01*
X15871071Y-15390214D01*
X15842500Y-15375929D01*
X15828214Y-15361643D01*
X15813928Y-15333071D01*
X15799643Y-15275929D01*
X15799643Y-15204500D01*
X15813928Y-15147357D01*
X15828214Y-15118786D01*
X15842500Y-15104500D01*
X15871071Y-15090214D01*
X16099643Y-15390214D02*
X16099643Y-15190214D01*
X16099643Y-15218786D02*
X16113928Y-15204500D01*
X16142500Y-15190214D01*
X16185357Y-15190214D01*
X16213928Y-15204500D01*
X16228214Y-15233071D01*
X16228214Y-15390214D01*
X16228214Y-15233071D02*
X16242500Y-15204500D01*
X16271071Y-15190214D01*
X16313928Y-15190214D01*
X16342500Y-15204500D01*
X16356786Y-15233071D01*
X16356786Y-15390214D01*
X16499643Y-15390214D02*
X16499643Y-15190214D01*
X16499643Y-15218786D02*
X16513928Y-15204500D01*
X16542500Y-15190214D01*
X16585357Y-15190214D01*
X16613928Y-15204500D01*
X16628214Y-15233071D01*
X16628214Y-15390214D01*
X16628214Y-15233071D02*
X16642500Y-15204500D01*
X16671071Y-15190214D01*
X16713928Y-15190214D01*
X16742500Y-15204500D01*
X16756786Y-15233071D01*
X16756786Y-15390214D01*
X17342500Y-15075929D02*
X17085357Y-15461643D01*
X17728214Y-15090214D02*
X17756786Y-15090214D01*
X17785357Y-15104500D01*
X17799643Y-15118786D01*
X17813928Y-15147357D01*
X17828214Y-15204500D01*
X17828214Y-15275929D01*
X17813928Y-15333071D01*
X17799643Y-15361643D01*
X17785357Y-15375929D01*
X17756786Y-15390214D01*
X17728214Y-15390214D01*
X17699643Y-15375929D01*
X17685357Y-15361643D01*
X17671071Y-15333071D01*
X17656786Y-15275929D01*
X17656786Y-15204500D01*
X17671071Y-15147357D01*
X17685357Y-15118786D01*
X17699643Y-15104500D01*
X17728214Y-15090214D01*
X17956786Y-15361643D02*
X17971071Y-15375929D01*
X17956786Y-15390214D01*
X17942500Y-15375929D01*
X17956786Y-15361643D01*
X17956786Y-15390214D01*
X18156786Y-15090214D02*
X18185357Y-15090214D01*
X18213928Y-15104500D01*
X18228214Y-15118786D01*
X18242500Y-15147357D01*
X18256786Y-15204500D01*
X18256786Y-15275929D01*
X18242500Y-15333071D01*
X18228214Y-15361643D01*
X18213928Y-15375929D01*
X18185357Y-15390214D01*
X18156786Y-15390214D01*
X18128214Y-15375929D01*
X18113928Y-15361643D01*
X18099643Y-15333071D01*
X18085357Y-15275929D01*
X18085357Y-15204500D01*
X18099643Y-15147357D01*
X18113928Y-15118786D01*
X18128214Y-15104500D01*
X18156786Y-15090214D01*
X18356786Y-15090214D02*
X18542500Y-15090214D01*
X18442500Y-15204500D01*
X18485357Y-15204500D01*
X18513928Y-15218786D01*
X18528214Y-15233071D01*
X18542500Y-15261643D01*
X18542500Y-15333071D01*
X18528214Y-15361643D01*
X18513928Y-15375929D01*
X18485357Y-15390214D01*
X18399643Y-15390214D01*
X18371071Y-15375929D01*
X18356786Y-15361643D01*
X18685357Y-15390214D02*
X18742500Y-15390214D01*
X18771071Y-15375929D01*
X18785357Y-15361643D01*
X18813928Y-15318786D01*
X18828214Y-15261643D01*
X18828214Y-15147357D01*
X18813928Y-15118786D01*
X18799643Y-15104500D01*
X18771071Y-15090214D01*
X18713928Y-15090214D01*
X18685357Y-15104500D01*
X18671071Y-15118786D01*
X18656786Y-15147357D01*
X18656786Y-15218786D01*
X18671071Y-15247357D01*
X18685357Y-15261643D01*
X18713928Y-15275929D01*
X18771071Y-15275929D01*
X18799643Y-15261643D01*
X18813928Y-15247357D01*
X18828214Y-15218786D01*
X19085357Y-15190214D02*
X19085357Y-15390214D01*
X19013928Y-15075929D02*
X18942500Y-15290214D01*
X19128214Y-15290214D01*
X19228214Y-15090214D02*
X19228214Y-15147357D01*
X19342500Y-15090214D02*
X19342500Y-15147357D01*
X19785357Y-15504500D02*
X19771071Y-15490214D01*
X19742500Y-15447357D01*
X19728214Y-15418786D01*
X19713928Y-15375929D01*
X19699643Y-15304500D01*
X19699643Y-15247357D01*
X19713928Y-15175929D01*
X19728214Y-15133071D01*
X19742500Y-15104500D01*
X19771071Y-15061643D01*
X19785357Y-15047357D01*
X20056786Y-15390214D02*
X19885357Y-15390214D01*
X19971071Y-15390214D02*
X19971071Y-15090214D01*
X19942500Y-15133071D01*
X19913928Y-15161643D01*
X19885357Y-15175929D01*
X20313928Y-15090214D02*
X20256786Y-15090214D01*
X20228214Y-15104500D01*
X20213928Y-15118786D01*
X20185357Y-15161643D01*
X20171071Y-15218786D01*
X20171071Y-15333071D01*
X20185357Y-15361643D01*
X20199643Y-15375929D01*
X20228214Y-15390214D01*
X20285357Y-15390214D01*
X20313928Y-15375929D01*
X20328214Y-15361643D01*
X20342500Y-15333071D01*
X20342500Y-15261643D01*
X20328214Y-15233071D01*
X20313928Y-15218786D01*
X20285357Y-15204500D01*
X20228214Y-15204500D01*
X20199643Y-15218786D01*
X20185357Y-15233071D01*
X20171071Y-15261643D01*
X20699643Y-15390214D02*
X20699643Y-15090214D01*
X20828214Y-15390214D02*
X20828214Y-15233071D01*
X20813928Y-15204500D01*
X20785357Y-15190214D01*
X20742500Y-15190214D01*
X20713928Y-15204500D01*
X20699643Y-15218786D01*
X21013928Y-15390214D02*
X20985357Y-15375929D01*
X20971071Y-15361643D01*
X20956786Y-15333071D01*
X20956786Y-15247357D01*
X20971071Y-15218786D01*
X20985357Y-15204500D01*
X21013928Y-15190214D01*
X21056786Y-15190214D01*
X21085357Y-15204500D01*
X21099643Y-15218786D01*
X21113928Y-15247357D01*
X21113928Y-15333071D01*
X21099643Y-15361643D01*
X21085357Y-15375929D01*
X21056786Y-15390214D01*
X21013928Y-15390214D01*
X21285357Y-15390214D02*
X21256786Y-15375929D01*
X21242500Y-15347357D01*
X21242500Y-15090214D01*
X21513928Y-15375929D02*
X21485357Y-15390214D01*
X21428214Y-15390214D01*
X21399643Y-15375929D01*
X21385357Y-15347357D01*
X21385357Y-15233071D01*
X21399643Y-15204500D01*
X21428214Y-15190214D01*
X21485357Y-15190214D01*
X21513928Y-15204500D01*
X21528214Y-15233071D01*
X21528214Y-15261643D01*
X21385357Y-15290214D01*
X21642500Y-15375929D02*
X21671071Y-15390214D01*
X21728214Y-15390214D01*
X21756786Y-15375929D01*
X21771071Y-15347357D01*
X21771071Y-15333071D01*
X21756786Y-15304500D01*
X21728214Y-15290214D01*
X21685357Y-15290214D01*
X21656786Y-15275929D01*
X21642500Y-15247357D01*
X21642500Y-15233071D01*
X21656786Y-15204500D01*
X21685357Y-15190214D01*
X21728214Y-15190214D01*
X21756786Y-15204500D01*
X21871071Y-15504500D02*
X21885357Y-15490214D01*
X21913928Y-15447357D01*
X21928214Y-15418786D01*
X21942500Y-15375929D01*
X21956786Y-15304500D01*
X21956786Y-15247357D01*
X21942500Y-15175929D01*
X21928214Y-15133071D01*
X21913928Y-15104500D01*
X21885357Y-15061643D01*
X21871071Y-15047357D01*
X14417500Y-15595500D02*
X14527500Y-15705500D01*
X14527500Y-15595500D02*
X14417500Y-15705500D01*
X14472500Y-15705500D02*
X14527500Y-15650500D01*
X14472500Y-15595500D01*
X14417500Y-15650500D01*
X14472500Y-15705500D01*
X14971071Y-15786214D02*
X14799643Y-15786214D01*
X14885357Y-15786214D02*
X14885357Y-15486214D01*
X14856786Y-15529071D01*
X14828214Y-15557643D01*
X14799643Y-15571929D01*
X15099643Y-15757643D02*
X15113928Y-15771929D01*
X15099643Y-15786214D01*
X15085357Y-15771929D01*
X15099643Y-15757643D01*
X15099643Y-15786214D01*
X15399643Y-15786214D02*
X15228214Y-15786214D01*
X15313928Y-15786214D02*
X15313928Y-15486214D01*
X15285357Y-15529071D01*
X15256786Y-15557643D01*
X15228214Y-15571929D01*
X15585357Y-15486214D02*
X15613928Y-15486214D01*
X15642500Y-15500500D01*
X15656786Y-15514786D01*
X15671071Y-15543357D01*
X15685357Y-15600500D01*
X15685357Y-15671929D01*
X15671071Y-15729071D01*
X15656786Y-15757643D01*
X15642500Y-15771929D01*
X15613928Y-15786214D01*
X15585357Y-15786214D01*
X15556786Y-15771929D01*
X15542500Y-15757643D01*
X15528214Y-15729071D01*
X15513928Y-15671929D01*
X15513928Y-15600500D01*
X15528214Y-15543357D01*
X15542500Y-15514786D01*
X15556786Y-15500500D01*
X15585357Y-15486214D01*
X15871071Y-15486214D02*
X15899643Y-15486214D01*
X15928214Y-15500500D01*
X15942500Y-15514786D01*
X15956786Y-15543357D01*
X15971071Y-15600500D01*
X15971071Y-15671929D01*
X15956786Y-15729071D01*
X15942500Y-15757643D01*
X15928214Y-15771929D01*
X15899643Y-15786214D01*
X15871071Y-15786214D01*
X15842500Y-15771929D01*
X15828214Y-15757643D01*
X15813928Y-15729071D01*
X15799643Y-15671929D01*
X15799643Y-15600500D01*
X15813928Y-15543357D01*
X15828214Y-15514786D01*
X15842500Y-15500500D01*
X15871071Y-15486214D01*
X16099643Y-15786214D02*
X16099643Y-15586214D01*
X16099643Y-15614786D02*
X16113928Y-15600500D01*
X16142500Y-15586214D01*
X16185357Y-15586214D01*
X16213928Y-15600500D01*
X16228214Y-15629071D01*
X16228214Y-15786214D01*
X16228214Y-15629071D02*
X16242500Y-15600500D01*
X16271071Y-15586214D01*
X16313928Y-15586214D01*
X16342500Y-15600500D01*
X16356786Y-15629071D01*
X16356786Y-15786214D01*
X16499643Y-15786214D02*
X16499643Y-15586214D01*
X16499643Y-15614786D02*
X16513928Y-15600500D01*
X16542500Y-15586214D01*
X16585357Y-15586214D01*
X16613928Y-15600500D01*
X16628214Y-15629071D01*
X16628214Y-15786214D01*
X16628214Y-15629071D02*
X16642500Y-15600500D01*
X16671071Y-15586214D01*
X16713928Y-15586214D01*
X16742500Y-15600500D01*
X16756786Y-15629071D01*
X16756786Y-15786214D01*
X17342500Y-15471929D02*
X17085357Y-15857643D01*
X17728214Y-15486214D02*
X17756786Y-15486214D01*
X17785357Y-15500500D01*
X17799643Y-15514786D01*
X17813928Y-15543357D01*
X17828214Y-15600500D01*
X17828214Y-15671929D01*
X17813928Y-15729071D01*
X17799643Y-15757643D01*
X17785357Y-15771929D01*
X17756786Y-15786214D01*
X17728214Y-15786214D01*
X17699643Y-15771929D01*
X17685357Y-15757643D01*
X17671071Y-15729071D01*
X17656786Y-15671929D01*
X17656786Y-15600500D01*
X17671071Y-15543357D01*
X17685357Y-15514786D01*
X17699643Y-15500500D01*
X17728214Y-15486214D01*
X17956786Y-15757643D02*
X17971071Y-15771929D01*
X17956786Y-15786214D01*
X17942500Y-15771929D01*
X17956786Y-15757643D01*
X17956786Y-15786214D01*
X18156786Y-15486214D02*
X18185357Y-15486214D01*
X18213928Y-15500500D01*
X18228214Y-15514786D01*
X18242500Y-15543357D01*
X18256786Y-15600500D01*
X18256786Y-15671929D01*
X18242500Y-15729071D01*
X18228214Y-15757643D01*
X18213928Y-15771929D01*
X18185357Y-15786214D01*
X18156786Y-15786214D01*
X18128214Y-15771929D01*
X18113928Y-15757643D01*
X18099643Y-15729071D01*
X18085357Y-15671929D01*
X18085357Y-15600500D01*
X18099643Y-15543357D01*
X18113928Y-15514786D01*
X18128214Y-15500500D01*
X18156786Y-15486214D01*
X18513928Y-15586214D02*
X18513928Y-15786214D01*
X18442500Y-15471929D02*
X18371071Y-15686214D01*
X18556786Y-15686214D01*
X18642500Y-15486214D02*
X18828214Y-15486214D01*
X18728214Y-15600500D01*
X18771071Y-15600500D01*
X18799643Y-15614786D01*
X18813928Y-15629071D01*
X18828214Y-15657643D01*
X18828214Y-15729071D01*
X18813928Y-15757643D01*
X18799643Y-15771929D01*
X18771071Y-15786214D01*
X18685357Y-15786214D01*
X18656786Y-15771929D01*
X18642500Y-15757643D01*
X18928214Y-15486214D02*
X19113928Y-15486214D01*
X19013928Y-15600500D01*
X19056786Y-15600500D01*
X19085357Y-15614786D01*
X19099643Y-15629071D01*
X19113928Y-15657643D01*
X19113928Y-15729071D01*
X19099643Y-15757643D01*
X19085357Y-15771929D01*
X19056786Y-15786214D01*
X18971071Y-15786214D01*
X18942500Y-15771929D01*
X18928214Y-15757643D01*
X19228214Y-15486214D02*
X19228214Y-15543357D01*
X19342500Y-15486214D02*
X19342500Y-15543357D01*
X19785357Y-15900500D02*
X19771071Y-15886214D01*
X19742500Y-15843357D01*
X19728214Y-15814786D01*
X19713928Y-15771929D01*
X19699643Y-15700500D01*
X19699643Y-15643357D01*
X19713928Y-15571929D01*
X19728214Y-15529071D01*
X19742500Y-15500500D01*
X19771071Y-15457643D01*
X19785357Y-15443357D01*
X20056786Y-15786214D02*
X19885357Y-15786214D01*
X19971071Y-15786214D02*
X19971071Y-15486214D01*
X19942500Y-15529071D01*
X19913928Y-15557643D01*
X19885357Y-15571929D01*
X20242500Y-15486214D02*
X20271071Y-15486214D01*
X20299643Y-15500500D01*
X20313928Y-15514786D01*
X20328214Y-15543357D01*
X20342500Y-15600500D01*
X20342500Y-15671929D01*
X20328214Y-15729071D01*
X20313928Y-15757643D01*
X20299643Y-15771929D01*
X20271071Y-15786214D01*
X20242500Y-15786214D01*
X20213928Y-15771929D01*
X20199643Y-15757643D01*
X20185357Y-15729071D01*
X20171071Y-15671929D01*
X20171071Y-15600500D01*
X20185357Y-15543357D01*
X20199643Y-15514786D01*
X20213928Y-15500500D01*
X20242500Y-15486214D01*
X20699643Y-15786214D02*
X20699643Y-15486214D01*
X20828214Y-15786214D02*
X20828214Y-15629071D01*
X20813928Y-15600500D01*
X20785357Y-15586214D01*
X20742500Y-15586214D01*
X20713928Y-15600500D01*
X20699643Y-15614786D01*
X21013928Y-15786214D02*
X20985357Y-15771929D01*
X20971071Y-15757643D01*
X20956786Y-15729071D01*
X20956786Y-15643357D01*
X20971071Y-15614786D01*
X20985357Y-15600500D01*
X21013928Y-15586214D01*
X21056786Y-15586214D01*
X21085357Y-15600500D01*
X21099643Y-15614786D01*
X21113928Y-15643357D01*
X21113928Y-15729071D01*
X21099643Y-15757643D01*
X21085357Y-15771929D01*
X21056786Y-15786214D01*
X21013928Y-15786214D01*
X21285357Y-15786214D02*
X21256786Y-15771929D01*
X21242500Y-15743357D01*
X21242500Y-15486214D01*
X21513928Y-15771929D02*
X21485357Y-15786214D01*
X21428214Y-15786214D01*
X21399643Y-15771929D01*
X21385357Y-15743357D01*
X21385357Y-15629071D01*
X21399643Y-15600500D01*
X21428214Y-15586214D01*
X21485357Y-15586214D01*
X21513928Y-15600500D01*
X21528214Y-15629071D01*
X21528214Y-15657643D01*
X21385357Y-15686214D01*
X21642500Y-15771929D02*
X21671071Y-15786214D01*
X21728214Y-15786214D01*
X21756786Y-15771929D01*
X21771071Y-15743357D01*
X21771071Y-15729071D01*
X21756786Y-15700500D01*
X21728214Y-15686214D01*
X21685357Y-15686214D01*
X21656786Y-15671929D01*
X21642500Y-15643357D01*
X21642500Y-15629071D01*
X21656786Y-15600500D01*
X21685357Y-15586214D01*
X21728214Y-15586214D01*
X21756786Y-15600500D01*
X21871071Y-15900500D02*
X21885357Y-15886214D01*
X21913928Y-15843357D01*
X21928214Y-15814786D01*
X21942500Y-15771929D01*
X21956786Y-15700500D01*
X21956786Y-15643357D01*
X21942500Y-15571929D01*
X21928214Y-15529071D01*
X21913928Y-15500500D01*
X21885357Y-15457643D01*
X21871071Y-15443357D01*
X14462500Y-15981500D02*
X14462500Y-16111500D01*
X14397500Y-16046500D02*
X14527500Y-16046500D01*
X14527500Y-16046500D02*
G75*
G03*
X14527500Y-16046500I-65000J0D01*
G01*
X14971071Y-16182214D02*
X14799643Y-16182214D01*
X14885357Y-16182214D02*
X14885357Y-15882214D01*
X14856786Y-15925071D01*
X14828214Y-15953643D01*
X14799643Y-15967929D01*
X15099643Y-16153643D02*
X15113928Y-16167929D01*
X15099643Y-16182214D01*
X15085357Y-16167929D01*
X15099643Y-16153643D01*
X15099643Y-16182214D01*
X15213928Y-15882214D02*
X15399643Y-15882214D01*
X15299643Y-15996500D01*
X15342500Y-15996500D01*
X15371071Y-16010786D01*
X15385357Y-16025071D01*
X15399643Y-16053643D01*
X15399643Y-16125071D01*
X15385357Y-16153643D01*
X15371071Y-16167929D01*
X15342500Y-16182214D01*
X15256786Y-16182214D01*
X15228214Y-16167929D01*
X15213928Y-16153643D01*
X15585357Y-15882214D02*
X15613928Y-15882214D01*
X15642500Y-15896500D01*
X15656786Y-15910786D01*
X15671071Y-15939357D01*
X15685357Y-15996500D01*
X15685357Y-16067929D01*
X15671071Y-16125071D01*
X15656786Y-16153643D01*
X15642500Y-16167929D01*
X15613928Y-16182214D01*
X15585357Y-16182214D01*
X15556786Y-16167929D01*
X15542500Y-16153643D01*
X15528214Y-16125071D01*
X15513928Y-16067929D01*
X15513928Y-15996500D01*
X15528214Y-15939357D01*
X15542500Y-15910786D01*
X15556786Y-15896500D01*
X15585357Y-15882214D01*
X15871071Y-15882214D02*
X15899643Y-15882214D01*
X15928214Y-15896500D01*
X15942500Y-15910786D01*
X15956786Y-15939357D01*
X15971071Y-15996500D01*
X15971071Y-16067929D01*
X15956786Y-16125071D01*
X15942500Y-16153643D01*
X15928214Y-16167929D01*
X15899643Y-16182214D01*
X15871071Y-16182214D01*
X15842500Y-16167929D01*
X15828214Y-16153643D01*
X15813928Y-16125071D01*
X15799643Y-16067929D01*
X15799643Y-15996500D01*
X15813928Y-15939357D01*
X15828214Y-15910786D01*
X15842500Y-15896500D01*
X15871071Y-15882214D01*
X16099643Y-16182214D02*
X16099643Y-15982214D01*
X16099643Y-16010786D02*
X16113928Y-15996500D01*
X16142500Y-15982214D01*
X16185357Y-15982214D01*
X16213928Y-15996500D01*
X16228214Y-16025071D01*
X16228214Y-16182214D01*
X16228214Y-16025071D02*
X16242500Y-15996500D01*
X16271071Y-15982214D01*
X16313928Y-15982214D01*
X16342500Y-15996500D01*
X16356786Y-16025071D01*
X16356786Y-16182214D01*
X16499643Y-16182214D02*
X16499643Y-15982214D01*
X16499643Y-16010786D02*
X16513928Y-15996500D01*
X16542500Y-15982214D01*
X16585357Y-15982214D01*
X16613928Y-15996500D01*
X16628214Y-16025071D01*
X16628214Y-16182214D01*
X16628214Y-16025071D02*
X16642500Y-15996500D01*
X16671071Y-15982214D01*
X16713928Y-15982214D01*
X16742500Y-15996500D01*
X16756786Y-16025071D01*
X16756786Y-16182214D01*
X17342500Y-15867929D02*
X17085357Y-16253643D01*
X17728214Y-15882214D02*
X17756786Y-15882214D01*
X17785357Y-15896500D01*
X17799643Y-15910786D01*
X17813928Y-15939357D01*
X17828214Y-15996500D01*
X17828214Y-16067929D01*
X17813928Y-16125071D01*
X17799643Y-16153643D01*
X17785357Y-16167929D01*
X17756786Y-16182214D01*
X17728214Y-16182214D01*
X17699643Y-16167929D01*
X17685357Y-16153643D01*
X17671071Y-16125071D01*
X17656786Y-16067929D01*
X17656786Y-15996500D01*
X17671071Y-15939357D01*
X17685357Y-15910786D01*
X17699643Y-15896500D01*
X17728214Y-15882214D01*
X17956786Y-16153643D02*
X17971071Y-16167929D01*
X17956786Y-16182214D01*
X17942500Y-16167929D01*
X17956786Y-16153643D01*
X17956786Y-16182214D01*
X18156786Y-15882214D02*
X18185357Y-15882214D01*
X18213928Y-15896500D01*
X18228214Y-15910786D01*
X18242500Y-15939357D01*
X18256786Y-15996500D01*
X18256786Y-16067929D01*
X18242500Y-16125071D01*
X18228214Y-16153643D01*
X18213928Y-16167929D01*
X18185357Y-16182214D01*
X18156786Y-16182214D01*
X18128214Y-16167929D01*
X18113928Y-16153643D01*
X18099643Y-16125071D01*
X18085357Y-16067929D01*
X18085357Y-15996500D01*
X18099643Y-15939357D01*
X18113928Y-15910786D01*
X18128214Y-15896500D01*
X18156786Y-15882214D01*
X18528214Y-15882214D02*
X18385357Y-15882214D01*
X18371071Y-16025071D01*
X18385357Y-16010786D01*
X18413928Y-15996500D01*
X18485357Y-15996500D01*
X18513928Y-16010786D01*
X18528214Y-16025071D01*
X18542500Y-16053643D01*
X18542500Y-16125071D01*
X18528214Y-16153643D01*
X18513928Y-16167929D01*
X18485357Y-16182214D01*
X18413928Y-16182214D01*
X18385357Y-16167929D01*
X18371071Y-16153643D01*
X18828214Y-16182214D02*
X18656786Y-16182214D01*
X18742500Y-16182214D02*
X18742500Y-15882214D01*
X18713928Y-15925071D01*
X18685357Y-15953643D01*
X18656786Y-15967929D01*
X18942500Y-15910786D02*
X18956786Y-15896500D01*
X18985357Y-15882214D01*
X19056786Y-15882214D01*
X19085357Y-15896500D01*
X19099643Y-15910786D01*
X19113928Y-15939357D01*
X19113928Y-15967929D01*
X19099643Y-16010786D01*
X18928214Y-16182214D01*
X19113928Y-16182214D01*
X19228214Y-15882214D02*
X19228214Y-15939357D01*
X19342500Y-15882214D02*
X19342500Y-15939357D01*
X19785357Y-16296500D02*
X19771071Y-16282214D01*
X19742500Y-16239357D01*
X19728214Y-16210786D01*
X19713928Y-16167929D01*
X19699643Y-16096500D01*
X19699643Y-16039357D01*
X19713928Y-15967929D01*
X19728214Y-15925071D01*
X19742500Y-15896500D01*
X19771071Y-15853643D01*
X19785357Y-15839357D01*
X20042500Y-15882214D02*
X19899643Y-15882214D01*
X19885357Y-16025071D01*
X19899643Y-16010786D01*
X19928214Y-15996500D01*
X19999643Y-15996500D01*
X20028214Y-16010786D01*
X20042500Y-16025071D01*
X20056786Y-16053643D01*
X20056786Y-16125071D01*
X20042500Y-16153643D01*
X20028214Y-16167929D01*
X19999643Y-16182214D01*
X19928214Y-16182214D01*
X19899643Y-16167929D01*
X19885357Y-16153643D01*
X20413928Y-16182214D02*
X20413928Y-15882214D01*
X20542500Y-16182214D02*
X20542500Y-16025071D01*
X20528214Y-15996500D01*
X20499643Y-15982214D01*
X20456786Y-15982214D01*
X20428214Y-15996500D01*
X20413928Y-16010786D01*
X20728214Y-16182214D02*
X20699643Y-16167929D01*
X20685357Y-16153643D01*
X20671071Y-16125071D01*
X20671071Y-16039357D01*
X20685357Y-16010786D01*
X20699643Y-15996500D01*
X20728214Y-15982214D01*
X20771071Y-15982214D01*
X20799643Y-15996500D01*
X20813928Y-16010786D01*
X20828214Y-16039357D01*
X20828214Y-16125071D01*
X20813928Y-16153643D01*
X20799643Y-16167929D01*
X20771071Y-16182214D01*
X20728214Y-16182214D01*
X20999643Y-16182214D02*
X20971071Y-16167929D01*
X20956786Y-16139357D01*
X20956786Y-15882214D01*
X21228214Y-16167929D02*
X21199643Y-16182214D01*
X21142500Y-16182214D01*
X21113928Y-16167929D01*
X21099643Y-16139357D01*
X21099643Y-16025071D01*
X21113928Y-15996500D01*
X21142500Y-15982214D01*
X21199643Y-15982214D01*
X21228214Y-15996500D01*
X21242500Y-16025071D01*
X21242500Y-16053643D01*
X21099643Y-16082214D01*
X21356786Y-16167929D02*
X21385357Y-16182214D01*
X21442500Y-16182214D01*
X21471071Y-16167929D01*
X21485357Y-16139357D01*
X21485357Y-16125071D01*
X21471071Y-16096500D01*
X21442500Y-16082214D01*
X21399643Y-16082214D01*
X21371071Y-16067929D01*
X21356786Y-16039357D01*
X21356786Y-16025071D01*
X21371071Y-15996500D01*
X21399643Y-15982214D01*
X21442500Y-15982214D01*
X21471071Y-15996500D01*
X21585357Y-16296500D02*
X21599643Y-16282214D01*
X21628214Y-16239357D01*
X21642500Y-16210786D01*
X21656786Y-16167929D01*
X21671071Y-16096500D01*
X21671071Y-16039357D01*
X21656786Y-15967929D01*
X21642500Y-15925071D01*
X21628214Y-15896500D01*
X21599643Y-15853643D01*
X21585357Y-15839357D01*
X14505240Y-16496241D02*
X14505240Y-16388759D01*
X14397759Y-16388759D01*
X14397759Y-16496241D01*
X14505240Y-16496241D01*
X14527500Y-16442500D02*
G75*
G03*
X14527500Y-16442500I-76000J0D01*
G01*
X14971071Y-16578214D02*
X14799643Y-16578214D01*
X14885357Y-16578214D02*
X14885357Y-16278214D01*
X14856786Y-16321071D01*
X14828214Y-16349643D01*
X14799643Y-16363929D01*
X15099643Y-16549643D02*
X15113928Y-16563929D01*
X15099643Y-16578214D01*
X15085357Y-16563929D01*
X15099643Y-16549643D01*
X15099643Y-16578214D01*
X15385357Y-16278214D02*
X15242500Y-16278214D01*
X15228214Y-16421071D01*
X15242500Y-16406786D01*
X15271071Y-16392500D01*
X15342500Y-16392500D01*
X15371071Y-16406786D01*
X15385357Y-16421071D01*
X15399643Y-16449643D01*
X15399643Y-16521071D01*
X15385357Y-16549643D01*
X15371071Y-16563929D01*
X15342500Y-16578214D01*
X15271071Y-16578214D01*
X15242500Y-16563929D01*
X15228214Y-16549643D01*
X15513928Y-16306786D02*
X15528214Y-16292500D01*
X15556786Y-16278214D01*
X15628214Y-16278214D01*
X15656786Y-16292500D01*
X15671071Y-16306786D01*
X15685357Y-16335357D01*
X15685357Y-16363929D01*
X15671071Y-16406786D01*
X15499643Y-16578214D01*
X15685357Y-16578214D01*
X15871071Y-16278214D02*
X15899643Y-16278214D01*
X15928214Y-16292500D01*
X15942500Y-16306786D01*
X15956786Y-16335357D01*
X15971071Y-16392500D01*
X15971071Y-16463929D01*
X15956786Y-16521071D01*
X15942500Y-16549643D01*
X15928214Y-16563929D01*
X15899643Y-16578214D01*
X15871071Y-16578214D01*
X15842500Y-16563929D01*
X15828214Y-16549643D01*
X15813928Y-16521071D01*
X15799643Y-16463929D01*
X15799643Y-16392500D01*
X15813928Y-16335357D01*
X15828214Y-16306786D01*
X15842500Y-16292500D01*
X15871071Y-16278214D01*
X16099643Y-16578214D02*
X16099643Y-16378214D01*
X16099643Y-16406786D02*
X16113928Y-16392500D01*
X16142500Y-16378214D01*
X16185357Y-16378214D01*
X16213928Y-16392500D01*
X16228214Y-16421071D01*
X16228214Y-16578214D01*
X16228214Y-16421071D02*
X16242500Y-16392500D01*
X16271071Y-16378214D01*
X16313928Y-16378214D01*
X16342500Y-16392500D01*
X16356786Y-16421071D01*
X16356786Y-16578214D01*
X16499643Y-16578214D02*
X16499643Y-16378214D01*
X16499643Y-16406786D02*
X16513928Y-16392500D01*
X16542500Y-16378214D01*
X16585357Y-16378214D01*
X16613928Y-16392500D01*
X16628214Y-16421071D01*
X16628214Y-16578214D01*
X16628214Y-16421071D02*
X16642500Y-16392500D01*
X16671071Y-16378214D01*
X16713928Y-16378214D01*
X16742500Y-16392500D01*
X16756786Y-16421071D01*
X16756786Y-16578214D01*
X17342500Y-16263929D02*
X17085357Y-16649643D01*
X17728214Y-16278214D02*
X17756786Y-16278214D01*
X17785357Y-16292500D01*
X17799643Y-16306786D01*
X17813928Y-16335357D01*
X17828214Y-16392500D01*
X17828214Y-16463929D01*
X17813928Y-16521071D01*
X17799643Y-16549643D01*
X17785357Y-16563929D01*
X17756786Y-16578214D01*
X17728214Y-16578214D01*
X17699643Y-16563929D01*
X17685357Y-16549643D01*
X17671071Y-16521071D01*
X17656786Y-16463929D01*
X17656786Y-16392500D01*
X17671071Y-16335357D01*
X17685357Y-16306786D01*
X17699643Y-16292500D01*
X17728214Y-16278214D01*
X17956786Y-16549643D02*
X17971071Y-16563929D01*
X17956786Y-16578214D01*
X17942500Y-16563929D01*
X17956786Y-16549643D01*
X17956786Y-16578214D01*
X18156786Y-16278214D02*
X18185357Y-16278214D01*
X18213928Y-16292500D01*
X18228214Y-16306786D01*
X18242500Y-16335357D01*
X18256786Y-16392500D01*
X18256786Y-16463929D01*
X18242500Y-16521071D01*
X18228214Y-16549643D01*
X18213928Y-16563929D01*
X18185357Y-16578214D01*
X18156786Y-16578214D01*
X18128214Y-16563929D01*
X18113928Y-16549643D01*
X18099643Y-16521071D01*
X18085357Y-16463929D01*
X18085357Y-16392500D01*
X18099643Y-16335357D01*
X18113928Y-16306786D01*
X18128214Y-16292500D01*
X18156786Y-16278214D01*
X18528214Y-16278214D02*
X18385357Y-16278214D01*
X18371071Y-16421071D01*
X18385357Y-16406786D01*
X18413928Y-16392500D01*
X18485357Y-16392500D01*
X18513928Y-16406786D01*
X18528214Y-16421071D01*
X18542500Y-16449643D01*
X18542500Y-16521071D01*
X18528214Y-16549643D01*
X18513928Y-16563929D01*
X18485357Y-16578214D01*
X18413928Y-16578214D01*
X18385357Y-16563929D01*
X18371071Y-16549643D01*
X18685357Y-16578214D02*
X18742500Y-16578214D01*
X18771071Y-16563929D01*
X18785357Y-16549643D01*
X18813928Y-16506786D01*
X18828214Y-16449643D01*
X18828214Y-16335357D01*
X18813928Y-16306786D01*
X18799643Y-16292500D01*
X18771071Y-16278214D01*
X18713928Y-16278214D01*
X18685357Y-16292500D01*
X18671071Y-16306786D01*
X18656786Y-16335357D01*
X18656786Y-16406786D01*
X18671071Y-16435357D01*
X18685357Y-16449643D01*
X18713928Y-16463929D01*
X18771071Y-16463929D01*
X18799643Y-16449643D01*
X18813928Y-16435357D01*
X18828214Y-16406786D01*
X18999643Y-16406786D02*
X18971071Y-16392500D01*
X18956786Y-16378214D01*
X18942500Y-16349643D01*
X18942500Y-16335357D01*
X18956786Y-16306786D01*
X18971071Y-16292500D01*
X18999643Y-16278214D01*
X19056786Y-16278214D01*
X19085357Y-16292500D01*
X19099643Y-16306786D01*
X19113928Y-16335357D01*
X19113928Y-16349643D01*
X19099643Y-16378214D01*
X19085357Y-16392500D01*
X19056786Y-16406786D01*
X18999643Y-16406786D01*
X18971071Y-16421071D01*
X18956786Y-16435357D01*
X18942500Y-16463929D01*
X18942500Y-16521071D01*
X18956786Y-16549643D01*
X18971071Y-16563929D01*
X18999643Y-16578214D01*
X19056786Y-16578214D01*
X19085357Y-16563929D01*
X19099643Y-16549643D01*
X19113928Y-16521071D01*
X19113928Y-16463929D01*
X19099643Y-16435357D01*
X19085357Y-16421071D01*
X19056786Y-16406786D01*
X19228214Y-16278214D02*
X19228214Y-16335357D01*
X19342500Y-16278214D02*
X19342500Y-16335357D01*
X19785357Y-16692500D02*
X19771071Y-16678214D01*
X19742500Y-16635357D01*
X19728214Y-16606786D01*
X19713928Y-16563929D01*
X19699643Y-16492500D01*
X19699643Y-16435357D01*
X19713928Y-16363929D01*
X19728214Y-16321071D01*
X19742500Y-16292500D01*
X19771071Y-16249643D01*
X19785357Y-16235357D01*
X19885357Y-16306786D02*
X19899643Y-16292500D01*
X19928214Y-16278214D01*
X19999643Y-16278214D01*
X20028214Y-16292500D01*
X20042500Y-16306786D01*
X20056786Y-16335357D01*
X20056786Y-16363929D01*
X20042500Y-16406786D01*
X19871071Y-16578214D01*
X20056786Y-16578214D01*
X20342500Y-16578214D02*
X20171071Y-16578214D01*
X20256786Y-16578214D02*
X20256786Y-16278214D01*
X20228214Y-16321071D01*
X20199643Y-16349643D01*
X20171071Y-16363929D01*
X20699643Y-16578214D02*
X20699643Y-16278214D01*
X20828214Y-16578214D02*
X20828214Y-16421071D01*
X20813928Y-16392500D01*
X20785357Y-16378214D01*
X20742500Y-16378214D01*
X20713928Y-16392500D01*
X20699643Y-16406786D01*
X21013928Y-16578214D02*
X20985357Y-16563929D01*
X20971071Y-16549643D01*
X20956786Y-16521071D01*
X20956786Y-16435357D01*
X20971071Y-16406786D01*
X20985357Y-16392500D01*
X21013928Y-16378214D01*
X21056786Y-16378214D01*
X21085357Y-16392500D01*
X21099643Y-16406786D01*
X21113928Y-16435357D01*
X21113928Y-16521071D01*
X21099643Y-16549643D01*
X21085357Y-16563929D01*
X21056786Y-16578214D01*
X21013928Y-16578214D01*
X21285357Y-16578214D02*
X21256786Y-16563929D01*
X21242500Y-16535357D01*
X21242500Y-16278214D01*
X21513928Y-16563929D02*
X21485357Y-16578214D01*
X21428214Y-16578214D01*
X21399643Y-16563929D01*
X21385357Y-16535357D01*
X21385357Y-16421071D01*
X21399643Y-16392500D01*
X21428214Y-16378214D01*
X21485357Y-16378214D01*
X21513928Y-16392500D01*
X21528214Y-16421071D01*
X21528214Y-16449643D01*
X21385357Y-16478214D01*
X21642500Y-16563929D02*
X21671071Y-16578214D01*
X21728214Y-16578214D01*
X21756786Y-16563929D01*
X21771071Y-16535357D01*
X21771071Y-16521071D01*
X21756786Y-16492500D01*
X21728214Y-16478214D01*
X21685357Y-16478214D01*
X21656786Y-16463929D01*
X21642500Y-16435357D01*
X21642500Y-16421071D01*
X21656786Y-16392500D01*
X21685357Y-16378214D01*
X21728214Y-16378214D01*
X21756786Y-16392500D01*
X21871071Y-16692500D02*
X21885357Y-16678214D01*
X21913928Y-16635357D01*
X21928214Y-16606786D01*
X21942500Y-16563929D01*
X21956786Y-16492500D01*
X21956786Y-16435357D01*
X21942500Y-16363929D01*
X21928214Y-16321071D01*
X21913928Y-16292500D01*
X21885357Y-16249643D01*
X21871071Y-16235357D01*
X14352500Y-17013500D02*
X14527500Y-16838500D01*
X14352500Y-16663500D01*
X14177500Y-16838500D01*
X14352500Y-17013500D01*
X14527500Y-16838500D02*
G75*
G03*
X14527500Y-16838500I-175000J0D01*
G01*
X14785357Y-16674214D02*
X14971071Y-16674214D01*
X14871071Y-16788500D01*
X14913928Y-16788500D01*
X14942500Y-16802786D01*
X14956786Y-16817072D01*
X14971071Y-16845643D01*
X14971071Y-16917072D01*
X14956786Y-16945643D01*
X14942500Y-16959929D01*
X14913928Y-16974214D01*
X14828214Y-16974214D01*
X14799643Y-16959929D01*
X14785357Y-16945643D01*
X15099643Y-16945643D02*
X15113928Y-16959929D01*
X15099643Y-16974214D01*
X15085357Y-16959929D01*
X15099643Y-16945643D01*
X15099643Y-16974214D01*
X15385357Y-16674214D02*
X15242500Y-16674214D01*
X15228214Y-16817072D01*
X15242500Y-16802786D01*
X15271071Y-16788500D01*
X15342500Y-16788500D01*
X15371071Y-16802786D01*
X15385357Y-16817072D01*
X15399643Y-16845643D01*
X15399643Y-16917072D01*
X15385357Y-16945643D01*
X15371071Y-16959929D01*
X15342500Y-16974214D01*
X15271071Y-16974214D01*
X15242500Y-16959929D01*
X15228214Y-16945643D01*
X15585357Y-16674214D02*
X15613928Y-16674214D01*
X15642500Y-16688500D01*
X15656786Y-16702786D01*
X15671071Y-16731357D01*
X15685357Y-16788500D01*
X15685357Y-16859929D01*
X15671071Y-16917072D01*
X15656786Y-16945643D01*
X15642500Y-16959929D01*
X15613928Y-16974214D01*
X15585357Y-16974214D01*
X15556786Y-16959929D01*
X15542500Y-16945643D01*
X15528214Y-16917072D01*
X15513928Y-16859929D01*
X15513928Y-16788500D01*
X15528214Y-16731357D01*
X15542500Y-16702786D01*
X15556786Y-16688500D01*
X15585357Y-16674214D01*
X15871071Y-16674214D02*
X15899643Y-16674214D01*
X15928214Y-16688500D01*
X15942500Y-16702786D01*
X15956786Y-16731357D01*
X15971071Y-16788500D01*
X15971071Y-16859929D01*
X15956786Y-16917072D01*
X15942500Y-16945643D01*
X15928214Y-16959929D01*
X15899643Y-16974214D01*
X15871071Y-16974214D01*
X15842500Y-16959929D01*
X15828214Y-16945643D01*
X15813928Y-16917072D01*
X15799643Y-16859929D01*
X15799643Y-16788500D01*
X15813928Y-16731357D01*
X15828214Y-16702786D01*
X15842500Y-16688500D01*
X15871071Y-16674214D01*
X16099643Y-16974214D02*
X16099643Y-16774214D01*
X16099643Y-16802786D02*
X16113928Y-16788500D01*
X16142500Y-16774214D01*
X16185357Y-16774214D01*
X16213928Y-16788500D01*
X16228214Y-16817072D01*
X16228214Y-16974214D01*
X16228214Y-16817072D02*
X16242500Y-16788500D01*
X16271071Y-16774214D01*
X16313928Y-16774214D01*
X16342500Y-16788500D01*
X16356786Y-16817072D01*
X16356786Y-16974214D01*
X16499643Y-16974214D02*
X16499643Y-16774214D01*
X16499643Y-16802786D02*
X16513928Y-16788500D01*
X16542500Y-16774214D01*
X16585357Y-16774214D01*
X16613928Y-16788500D01*
X16628214Y-16817072D01*
X16628214Y-16974214D01*
X16628214Y-16817072D02*
X16642500Y-16788500D01*
X16671071Y-16774214D01*
X16713928Y-16774214D01*
X16742500Y-16788500D01*
X16756786Y-16817072D01*
X16756786Y-16974214D01*
X17342500Y-16659929D02*
X17085357Y-17045643D01*
X17728214Y-16674214D02*
X17756786Y-16674214D01*
X17785357Y-16688500D01*
X17799643Y-16702786D01*
X17813928Y-16731357D01*
X17828214Y-16788500D01*
X17828214Y-16859929D01*
X17813928Y-16917072D01*
X17799643Y-16945643D01*
X17785357Y-16959929D01*
X17756786Y-16974214D01*
X17728214Y-16974214D01*
X17699643Y-16959929D01*
X17685357Y-16945643D01*
X17671071Y-16917072D01*
X17656786Y-16859929D01*
X17656786Y-16788500D01*
X17671071Y-16731357D01*
X17685357Y-16702786D01*
X17699643Y-16688500D01*
X17728214Y-16674214D01*
X17956786Y-16945643D02*
X17971071Y-16959929D01*
X17956786Y-16974214D01*
X17942500Y-16959929D01*
X17956786Y-16945643D01*
X17956786Y-16974214D01*
X18256786Y-16974214D02*
X18085357Y-16974214D01*
X18171071Y-16974214D02*
X18171071Y-16674214D01*
X18142500Y-16717071D01*
X18113928Y-16745643D01*
X18085357Y-16759929D01*
X18356786Y-16674214D02*
X18542500Y-16674214D01*
X18442500Y-16788500D01*
X18485357Y-16788500D01*
X18513928Y-16802786D01*
X18528214Y-16817072D01*
X18542500Y-16845643D01*
X18542500Y-16917072D01*
X18528214Y-16945643D01*
X18513928Y-16959929D01*
X18485357Y-16974214D01*
X18399643Y-16974214D01*
X18371071Y-16959929D01*
X18356786Y-16945643D01*
X18642500Y-16674214D02*
X18842500Y-16674214D01*
X18713928Y-16974214D01*
X18999643Y-16802786D02*
X18971071Y-16788500D01*
X18956786Y-16774214D01*
X18942500Y-16745643D01*
X18942500Y-16731357D01*
X18956786Y-16702786D01*
X18971071Y-16688500D01*
X18999643Y-16674214D01*
X19056786Y-16674214D01*
X19085357Y-16688500D01*
X19099643Y-16702786D01*
X19113928Y-16731357D01*
X19113928Y-16745643D01*
X19099643Y-16774214D01*
X19085357Y-16788500D01*
X19056786Y-16802786D01*
X18999643Y-16802786D01*
X18971071Y-16817072D01*
X18956786Y-16831357D01*
X18942500Y-16859929D01*
X18942500Y-16917072D01*
X18956786Y-16945643D01*
X18971071Y-16959929D01*
X18999643Y-16974214D01*
X19056786Y-16974214D01*
X19085357Y-16959929D01*
X19099643Y-16945643D01*
X19113928Y-16917072D01*
X19113928Y-16859929D01*
X19099643Y-16831357D01*
X19085357Y-16817072D01*
X19056786Y-16802786D01*
X19228214Y-16674214D02*
X19228214Y-16731357D01*
X19342500Y-16674214D02*
X19342500Y-16731357D01*
X19785357Y-17088500D02*
X19771071Y-17074214D01*
X19742500Y-17031357D01*
X19728214Y-17002786D01*
X19713928Y-16959929D01*
X19699643Y-16888500D01*
X19699643Y-16831357D01*
X19713928Y-16759929D01*
X19728214Y-16717071D01*
X19742500Y-16688500D01*
X19771071Y-16645643D01*
X19785357Y-16631357D01*
X20028214Y-16774214D02*
X20028214Y-16974214D01*
X19956786Y-16659929D02*
X19885357Y-16874214D01*
X20071071Y-16874214D01*
X20413928Y-16974214D02*
X20413928Y-16674214D01*
X20542500Y-16974214D02*
X20542500Y-16817072D01*
X20528214Y-16788500D01*
X20499643Y-16774214D01*
X20456786Y-16774214D01*
X20428214Y-16788500D01*
X20413928Y-16802786D01*
X20728214Y-16974214D02*
X20699643Y-16959929D01*
X20685357Y-16945643D01*
X20671071Y-16917072D01*
X20671071Y-16831357D01*
X20685357Y-16802786D01*
X20699643Y-16788500D01*
X20728214Y-16774214D01*
X20771071Y-16774214D01*
X20799643Y-16788500D01*
X20813928Y-16802786D01*
X20828214Y-16831357D01*
X20828214Y-16917072D01*
X20813928Y-16945643D01*
X20799643Y-16959929D01*
X20771071Y-16974214D01*
X20728214Y-16974214D01*
X20999643Y-16974214D02*
X20971071Y-16959929D01*
X20956786Y-16931357D01*
X20956786Y-16674214D01*
X21228214Y-16959929D02*
X21199643Y-16974214D01*
X21142500Y-16974214D01*
X21113928Y-16959929D01*
X21099643Y-16931357D01*
X21099643Y-16817072D01*
X21113928Y-16788500D01*
X21142500Y-16774214D01*
X21199643Y-16774214D01*
X21228214Y-16788500D01*
X21242500Y-16817072D01*
X21242500Y-16845643D01*
X21099643Y-16874214D01*
X21356786Y-16959929D02*
X21385357Y-16974214D01*
X21442500Y-16974214D01*
X21471071Y-16959929D01*
X21485357Y-16931357D01*
X21485357Y-16917072D01*
X21471071Y-16888500D01*
X21442500Y-16874214D01*
X21399643Y-16874214D01*
X21371071Y-16859929D01*
X21356786Y-16831357D01*
X21356786Y-16817072D01*
X21371071Y-16788500D01*
X21399643Y-16774214D01*
X21442500Y-16774214D01*
X21471071Y-16788500D01*
X21585357Y-17088500D02*
X21599643Y-17074214D01*
X21628214Y-17031357D01*
X21642500Y-17002786D01*
X21656786Y-16959929D01*
X21671071Y-16888500D01*
X21671071Y-16831357D01*
X21656786Y-16759929D01*
X21642500Y-16717071D01*
X21628214Y-16688500D01*
X21599643Y-16645643D01*
X21585357Y-16631357D01*
M02*
