%FSLAX45Y45*%
G04 Gerber Fmt 4.5, Leading zero omitted, Abs format (unit mm)*
G04 Created by KiCad (PCBNEW 5.1.10) date 2021-06-17 09:11:28*
%MOMM*%
%LPD*%
G01*
G04 APERTURE LIST*
%TA.AperFunction,Profile*%
%ADD10C,0.050000*%
%TD*%
%ADD11C,0.200000*%
%ADD12C,0.300000*%
G04 APERTURE END LIST*
D10*
X14590000Y-11520000D02*
G75*
G02*
X14530000Y-11460000I0J60000D01*
G01*
X14530000Y-6730000D02*
G75*
G02*
X14590000Y-6670000I60000J0D01*
G01*
X24420000Y-6670000D02*
G75*
G02*
X24480000Y-6730000I0J-60000D01*
G01*
X24480000Y-11460000D02*
G75*
G02*
X24420000Y-11520000I-60000J0D01*
G01*
X14530000Y-6730000D02*
X14530000Y-11460000D01*
X24420000Y-6670000D02*
X14590000Y-6670000D01*
X24480000Y-11460000D02*
X24480000Y-6730000D01*
X14590000Y-11520000D02*
X24420000Y-11520000D01*
D11*
D12*
X14813928Y-11988214D02*
X14813928Y-11688214D01*
X14885357Y-11688214D01*
X14928214Y-11702500D01*
X14956786Y-11731071D01*
X14971071Y-11759643D01*
X14985357Y-11816786D01*
X14985357Y-11859643D01*
X14971071Y-11916786D01*
X14956786Y-11945357D01*
X14928214Y-11973929D01*
X14885357Y-11988214D01*
X14813928Y-11988214D01*
X15113928Y-11988214D02*
X15113928Y-11788214D01*
X15113928Y-11845357D02*
X15128214Y-11816786D01*
X15142500Y-11802500D01*
X15171071Y-11788214D01*
X15199643Y-11788214D01*
X15299643Y-11988214D02*
X15299643Y-11788214D01*
X15299643Y-11688214D02*
X15285357Y-11702500D01*
X15299643Y-11716786D01*
X15313928Y-11702500D01*
X15299643Y-11688214D01*
X15299643Y-11716786D01*
X15485357Y-11988214D02*
X15456786Y-11973929D01*
X15442500Y-11945357D01*
X15442500Y-11688214D01*
X15642500Y-11988214D02*
X15613928Y-11973929D01*
X15599643Y-11945357D01*
X15599643Y-11688214D01*
X15985357Y-11988214D02*
X15985357Y-11688214D01*
X16085357Y-11902500D01*
X16185357Y-11688214D01*
X16185357Y-11988214D01*
X16456786Y-11988214D02*
X16456786Y-11831071D01*
X16442500Y-11802500D01*
X16413928Y-11788214D01*
X16356786Y-11788214D01*
X16328214Y-11802500D01*
X16456786Y-11973929D02*
X16428214Y-11988214D01*
X16356786Y-11988214D01*
X16328214Y-11973929D01*
X16313928Y-11945357D01*
X16313928Y-11916786D01*
X16328214Y-11888214D01*
X16356786Y-11873929D01*
X16428214Y-11873929D01*
X16456786Y-11859643D01*
X16599643Y-11788214D02*
X16599643Y-12088214D01*
X16599643Y-11802500D02*
X16628214Y-11788214D01*
X16685357Y-11788214D01*
X16713928Y-11802500D01*
X16728214Y-11816786D01*
X16742500Y-11845357D01*
X16742500Y-11931071D01*
X16728214Y-11959643D01*
X16713928Y-11973929D01*
X16685357Y-11988214D01*
X16628214Y-11988214D01*
X16599643Y-11973929D01*
X16871071Y-11959643D02*
X16885357Y-11973929D01*
X16871071Y-11988214D01*
X16856786Y-11973929D01*
X16871071Y-11959643D01*
X16871071Y-11988214D01*
X16871071Y-11802500D02*
X16885357Y-11816786D01*
X16871071Y-11831071D01*
X16856786Y-11816786D01*
X16871071Y-11802500D01*
X16871071Y-11831071D01*
M02*
