%TF.GenerationSoftware,KiCad,Pcbnew,5.1.10*%
%TF.CreationDate,2021-06-17T09:11:18+01:00*%
%TF.ProjectId,controller,636f6e74-726f-46c6-9c65-722e6b696361,V0.2*%
%TF.SameCoordinates,Original*%
%TF.FileFunction,Legend,Top*%
%TF.FilePolarity,Positive*%
%FSLAX46Y46*%
G04 Gerber Fmt 4.6, Leading zero omitted, Abs format (unit mm)*
G04 Created by KiCad (PCBNEW 5.1.10) date 2021-06-17 09:11:18*
%MOMM*%
%LPD*%
G01*
G04 APERTURE LIST*
%ADD10C,0.160000*%
%ADD11C,0.150000*%
%ADD12C,0.120000*%
%ADD13C,0.125000*%
%ADD14C,1.624000*%
%ADD15O,1.700000X2.100000*%
%ADD16C,1.900000*%
%ADD17C,1.700000*%
%ADD18O,2.300000X2.300000*%
%ADD19C,3.100000*%
%ADD20C,1.400000*%
%ADD21O,2.005000X2.100000*%
%ADD22C,2.600000*%
G04 APERTURE END LIST*
D10*
X242940761Y-96172380D02*
X242607428Y-97172380D01*
X242274095Y-96172380D01*
X241750285Y-96172380D02*
X241655047Y-96172380D01*
X241559809Y-96220000D01*
X241512190Y-96267619D01*
X241464571Y-96362857D01*
X241416952Y-96553333D01*
X241416952Y-96791428D01*
X241464571Y-96981904D01*
X241512190Y-97077142D01*
X241559809Y-97124761D01*
X241655047Y-97172380D01*
X241750285Y-97172380D01*
X241845523Y-97124761D01*
X241893142Y-97077142D01*
X241940761Y-96981904D01*
X241988380Y-96791428D01*
X241988380Y-96553333D01*
X241940761Y-96362857D01*
X241893142Y-96267619D01*
X241845523Y-96220000D01*
X241750285Y-96172380D01*
X240988380Y-97077142D02*
X240940761Y-97124761D01*
X240988380Y-97172380D01*
X241036000Y-97124761D01*
X240988380Y-97077142D01*
X240988380Y-97172380D01*
X240559809Y-96267619D02*
X240512190Y-96220000D01*
X240416952Y-96172380D01*
X240178857Y-96172380D01*
X240083619Y-96220000D01*
X240036000Y-96267619D01*
X239988380Y-96362857D01*
X239988380Y-96458095D01*
X240036000Y-96600952D01*
X240607428Y-97172380D01*
X239988380Y-97172380D01*
X243334571Y-103048571D02*
X243191714Y-103096190D01*
X243144095Y-103143809D01*
X243096476Y-103239047D01*
X243096476Y-103381904D01*
X243144095Y-103477142D01*
X243191714Y-103524761D01*
X243286952Y-103572380D01*
X243667904Y-103572380D01*
X243667904Y-102572380D01*
X243334571Y-102572380D01*
X243239333Y-102620000D01*
X243191714Y-102667619D01*
X243144095Y-102762857D01*
X243144095Y-102858095D01*
X243191714Y-102953333D01*
X243239333Y-103000952D01*
X243334571Y-103048571D01*
X243667904Y-103048571D01*
X242763142Y-102905714D02*
X242525047Y-103572380D01*
X242286952Y-102905714D02*
X242525047Y-103572380D01*
X242620285Y-103810476D01*
X242667904Y-103858095D01*
X242763142Y-103905714D01*
X240667904Y-103572380D02*
X241144095Y-103572380D01*
X241144095Y-102572380D01*
X239906000Y-102905714D02*
X239906000Y-103572380D01*
X240334571Y-102905714D02*
X240334571Y-103429523D01*
X240286952Y-103524761D01*
X240191714Y-103572380D01*
X240048857Y-103572380D01*
X239953619Y-103524761D01*
X239906000Y-103477142D01*
X239429809Y-103572380D02*
X239429809Y-102905714D01*
X239429809Y-102572380D02*
X239477428Y-102620000D01*
X239429809Y-102667619D01*
X239382190Y-102620000D01*
X239429809Y-102572380D01*
X239429809Y-102667619D01*
X239001238Y-103524761D02*
X238906000Y-103572380D01*
X238715523Y-103572380D01*
X238620285Y-103524761D01*
X238572666Y-103429523D01*
X238572666Y-103381904D01*
X238620285Y-103286666D01*
X238715523Y-103239047D01*
X238858380Y-103239047D01*
X238953619Y-103191428D01*
X239001238Y-103096190D01*
X239001238Y-103048571D01*
X238953619Y-102953333D01*
X238858380Y-102905714D01*
X238715523Y-102905714D01*
X238620285Y-102953333D01*
X237382190Y-103572380D02*
X237382190Y-102572380D01*
X237001238Y-102572380D01*
X236906000Y-102620000D01*
X236858380Y-102667619D01*
X236810761Y-102762857D01*
X236810761Y-102905714D01*
X236858380Y-103000952D01*
X236906000Y-103048571D01*
X237001238Y-103096190D01*
X237382190Y-103096190D01*
X236001238Y-103524761D02*
X236096476Y-103572380D01*
X236286952Y-103572380D01*
X236382190Y-103524761D01*
X236429809Y-103429523D01*
X236429809Y-103048571D01*
X236382190Y-102953333D01*
X236286952Y-102905714D01*
X236096476Y-102905714D01*
X236001238Y-102953333D01*
X235953619Y-103048571D01*
X235953619Y-103143809D01*
X236429809Y-103239047D01*
X235525047Y-103572380D02*
X235525047Y-102905714D01*
X235525047Y-103096190D02*
X235477428Y-103000952D01*
X235429809Y-102953333D01*
X235334571Y-102905714D01*
X235239333Y-102905714D01*
X234525047Y-103524761D02*
X234620285Y-103572380D01*
X234810761Y-103572380D01*
X234906000Y-103524761D01*
X234953619Y-103429523D01*
X234953619Y-103048571D01*
X234906000Y-102953333D01*
X234810761Y-102905714D01*
X234620285Y-102905714D01*
X234525047Y-102953333D01*
X234477428Y-103048571D01*
X234477428Y-103143809D01*
X234953619Y-103239047D01*
X234048857Y-103572380D02*
X234048857Y-102905714D01*
X234048857Y-102572380D02*
X234096476Y-102620000D01*
X234048857Y-102667619D01*
X234001238Y-102620000D01*
X234048857Y-102572380D01*
X234048857Y-102667619D01*
X233572666Y-103572380D02*
X233572666Y-102905714D01*
X233572666Y-103096190D02*
X233525047Y-103000952D01*
X233477428Y-102953333D01*
X233382190Y-102905714D01*
X233286952Y-102905714D01*
X232525047Y-103572380D02*
X232525047Y-103048571D01*
X232572666Y-102953333D01*
X232667904Y-102905714D01*
X232858380Y-102905714D01*
X232953619Y-102953333D01*
X232525047Y-103524761D02*
X232620285Y-103572380D01*
X232858380Y-103572380D01*
X232953619Y-103524761D01*
X233001238Y-103429523D01*
X233001238Y-103334285D01*
X232953619Y-103239047D01*
X232858380Y-103191428D01*
X232620285Y-103191428D01*
X232525047Y-103143809D01*
X243715523Y-104327619D02*
X243667904Y-104280000D01*
X243572666Y-104232380D01*
X243334571Y-104232380D01*
X243239333Y-104280000D01*
X243191714Y-104327619D01*
X243144095Y-104422857D01*
X243144095Y-104518095D01*
X243191714Y-104660952D01*
X243763142Y-105232380D01*
X243144095Y-105232380D01*
X242525047Y-104232380D02*
X242429809Y-104232380D01*
X242334571Y-104280000D01*
X242286952Y-104327619D01*
X242239333Y-104422857D01*
X242191714Y-104613333D01*
X242191714Y-104851428D01*
X242239333Y-105041904D01*
X242286952Y-105137142D01*
X242334571Y-105184761D01*
X242429809Y-105232380D01*
X242525047Y-105232380D01*
X242620285Y-105184761D01*
X242667904Y-105137142D01*
X242715523Y-105041904D01*
X242763142Y-104851428D01*
X242763142Y-104613333D01*
X242715523Y-104422857D01*
X242667904Y-104327619D01*
X242620285Y-104280000D01*
X242525047Y-104232380D01*
X241810761Y-104327619D02*
X241763142Y-104280000D01*
X241667904Y-104232380D01*
X241429809Y-104232380D01*
X241334571Y-104280000D01*
X241286952Y-104327619D01*
X241239333Y-104422857D01*
X241239333Y-104518095D01*
X241286952Y-104660952D01*
X241858380Y-105232380D01*
X241239333Y-105232380D01*
X240286952Y-105232380D02*
X240858380Y-105232380D01*
X240572666Y-105232380D02*
X240572666Y-104232380D01*
X240667904Y-104375238D01*
X240763142Y-104470476D01*
X240858380Y-104518095D01*
X239667904Y-104232380D02*
X239572666Y-104232380D01*
X239477428Y-104280000D01*
X239429809Y-104327619D01*
X239382190Y-104422857D01*
X239334571Y-104613333D01*
X239334571Y-104851428D01*
X239382190Y-105041904D01*
X239429809Y-105137142D01*
X239477428Y-105184761D01*
X239572666Y-105232380D01*
X239667904Y-105232380D01*
X239763142Y-105184761D01*
X239810761Y-105137142D01*
X239858380Y-105041904D01*
X239906000Y-104851428D01*
X239906000Y-104613333D01*
X239858380Y-104422857D01*
X239810761Y-104327619D01*
X239763142Y-104280000D01*
X239667904Y-104232380D01*
X238477428Y-104232380D02*
X238667904Y-104232380D01*
X238763142Y-104280000D01*
X238810761Y-104327619D01*
X238906000Y-104470476D01*
X238953619Y-104660952D01*
X238953619Y-105041904D01*
X238906000Y-105137142D01*
X238858380Y-105184761D01*
X238763142Y-105232380D01*
X238572666Y-105232380D01*
X238477428Y-105184761D01*
X238429809Y-105137142D01*
X238382190Y-105041904D01*
X238382190Y-104803809D01*
X238429809Y-104708571D01*
X238477428Y-104660952D01*
X238572666Y-104613333D01*
X238763142Y-104613333D01*
X238858380Y-104660952D01*
X238906000Y-104708571D01*
X238953619Y-104803809D01*
X237429809Y-105232380D02*
X238001238Y-105232380D01*
X237715523Y-105232380D02*
X237715523Y-104232380D01*
X237810761Y-104375238D01*
X237906000Y-104470476D01*
X238001238Y-104518095D01*
X236572666Y-104232380D02*
X236763142Y-104232380D01*
X236858380Y-104280000D01*
X236906000Y-104327619D01*
X237001238Y-104470476D01*
X237048857Y-104660952D01*
X237048857Y-105041904D01*
X237001238Y-105137142D01*
X236953619Y-105184761D01*
X236858380Y-105232380D01*
X236667904Y-105232380D01*
X236572666Y-105184761D01*
X236525047Y-105137142D01*
X236477428Y-105041904D01*
X236477428Y-104803809D01*
X236525047Y-104708571D01*
X236572666Y-104660952D01*
X236667904Y-104613333D01*
X236858380Y-104613333D01*
X236953619Y-104660952D01*
X237001238Y-104708571D01*
X237048857Y-104803809D01*
X243397904Y-90572380D02*
X243397904Y-89572380D01*
X243397904Y-90048571D02*
X242826476Y-90048571D01*
X242826476Y-90572380D02*
X242826476Y-89572380D01*
X242350285Y-90572380D02*
X242350285Y-89905714D01*
X242350285Y-89572380D02*
X242397904Y-89620000D01*
X242350285Y-89667619D01*
X242302666Y-89620000D01*
X242350285Y-89572380D01*
X242350285Y-89667619D01*
X241445523Y-90572380D02*
X241445523Y-89572380D01*
X241445523Y-90524761D02*
X241540761Y-90572380D01*
X241731238Y-90572380D01*
X241826476Y-90524761D01*
X241874095Y-90477142D01*
X241921714Y-90381904D01*
X241921714Y-90096190D01*
X241874095Y-90000952D01*
X241826476Y-89953333D01*
X241731238Y-89905714D01*
X241540761Y-89905714D01*
X241445523Y-89953333D01*
X240969333Y-90572380D02*
X240969333Y-89905714D01*
X240969333Y-90096190D02*
X240921714Y-90000952D01*
X240874095Y-89953333D01*
X240778857Y-89905714D01*
X240683619Y-89905714D01*
X240207428Y-90572380D02*
X240302666Y-90524761D01*
X240350285Y-90477142D01*
X240397904Y-90381904D01*
X240397904Y-90096190D01*
X240350285Y-90000952D01*
X240302666Y-89953333D01*
X240207428Y-89905714D01*
X240064571Y-89905714D01*
X239969333Y-89953333D01*
X239921714Y-90000952D01*
X239874095Y-90096190D01*
X239874095Y-90381904D01*
X239921714Y-90477142D01*
X239969333Y-90524761D01*
X240064571Y-90572380D01*
X240207428Y-90572380D01*
X239445523Y-89905714D02*
X239445523Y-90905714D01*
X239445523Y-89953333D02*
X239350285Y-89905714D01*
X239159809Y-89905714D01*
X239064571Y-89953333D01*
X239016952Y-90000952D01*
X238969333Y-90096190D01*
X238969333Y-90381904D01*
X239016952Y-90477142D01*
X239064571Y-90524761D01*
X239159809Y-90572380D01*
X239350285Y-90572380D01*
X239445523Y-90524761D01*
X238397904Y-90572380D02*
X238493142Y-90524761D01*
X238540761Y-90477142D01*
X238588380Y-90381904D01*
X238588380Y-90096190D01*
X238540761Y-90000952D01*
X238493142Y-89953333D01*
X238397904Y-89905714D01*
X238255047Y-89905714D01*
X238159809Y-89953333D01*
X238112190Y-90000952D01*
X238064571Y-90096190D01*
X238064571Y-90381904D01*
X238112190Y-90477142D01*
X238159809Y-90524761D01*
X238255047Y-90572380D01*
X238397904Y-90572380D01*
X237636000Y-89905714D02*
X237636000Y-90572380D01*
X237636000Y-90000952D02*
X237588380Y-89953333D01*
X237493142Y-89905714D01*
X237350285Y-89905714D01*
X237255047Y-89953333D01*
X237207428Y-90048571D01*
X237207428Y-90572380D01*
X236731238Y-90572380D02*
X236731238Y-89905714D01*
X236731238Y-89572380D02*
X236778857Y-89620000D01*
X236731238Y-89667619D01*
X236683619Y-89620000D01*
X236731238Y-89572380D01*
X236731238Y-89667619D01*
X235826476Y-90524761D02*
X235921714Y-90572380D01*
X236112190Y-90572380D01*
X236207428Y-90524761D01*
X236255047Y-90477142D01*
X236302666Y-90381904D01*
X236302666Y-90096190D01*
X236255047Y-90000952D01*
X236207428Y-89953333D01*
X236112190Y-89905714D01*
X235921714Y-89905714D01*
X235826476Y-89953333D01*
X242826476Y-92137142D02*
X242874095Y-92184761D01*
X243016952Y-92232380D01*
X243112190Y-92232380D01*
X243255047Y-92184761D01*
X243350285Y-92089523D01*
X243397904Y-91994285D01*
X243445523Y-91803809D01*
X243445523Y-91660952D01*
X243397904Y-91470476D01*
X243350285Y-91375238D01*
X243255047Y-91280000D01*
X243112190Y-91232380D01*
X243016952Y-91232380D01*
X242874095Y-91280000D01*
X242826476Y-91327619D01*
X242255047Y-92232380D02*
X242350285Y-92184761D01*
X242397904Y-92137142D01*
X242445523Y-92041904D01*
X242445523Y-91756190D01*
X242397904Y-91660952D01*
X242350285Y-91613333D01*
X242255047Y-91565714D01*
X242112190Y-91565714D01*
X242016952Y-91613333D01*
X241969333Y-91660952D01*
X241921714Y-91756190D01*
X241921714Y-92041904D01*
X241969333Y-92137142D01*
X242016952Y-92184761D01*
X242112190Y-92232380D01*
X242255047Y-92232380D01*
X241493142Y-91565714D02*
X241493142Y-92232380D01*
X241493142Y-91660952D02*
X241445523Y-91613333D01*
X241350285Y-91565714D01*
X241207428Y-91565714D01*
X241112190Y-91613333D01*
X241064571Y-91708571D01*
X241064571Y-92232380D01*
X240731238Y-91565714D02*
X240350285Y-91565714D01*
X240588380Y-91232380D02*
X240588380Y-92089523D01*
X240540761Y-92184761D01*
X240445523Y-92232380D01*
X240350285Y-92232380D01*
X240016952Y-92232380D02*
X240016952Y-91565714D01*
X240016952Y-91756190D02*
X239969333Y-91660952D01*
X239921714Y-91613333D01*
X239826476Y-91565714D01*
X239731238Y-91565714D01*
X239255047Y-92232380D02*
X239350285Y-92184761D01*
X239397904Y-92137142D01*
X239445523Y-92041904D01*
X239445523Y-91756190D01*
X239397904Y-91660952D01*
X239350285Y-91613333D01*
X239255047Y-91565714D01*
X239112190Y-91565714D01*
X239016952Y-91613333D01*
X238969333Y-91660952D01*
X238921714Y-91756190D01*
X238921714Y-92041904D01*
X238969333Y-92137142D01*
X239016952Y-92184761D01*
X239112190Y-92232380D01*
X239255047Y-92232380D01*
X238350285Y-92232380D02*
X238445523Y-92184761D01*
X238493142Y-92089523D01*
X238493142Y-91232380D01*
X237826476Y-92232380D02*
X237921714Y-92184761D01*
X237969333Y-92089523D01*
X237969333Y-91232380D01*
X237064571Y-92184761D02*
X237159809Y-92232380D01*
X237350285Y-92232380D01*
X237445523Y-92184761D01*
X237493142Y-92089523D01*
X237493142Y-91708571D01*
X237445523Y-91613333D01*
X237350285Y-91565714D01*
X237159809Y-91565714D01*
X237064571Y-91613333D01*
X237016952Y-91708571D01*
X237016952Y-91803809D01*
X237493142Y-91899047D01*
X236588380Y-92232380D02*
X236588380Y-91565714D01*
X236588380Y-91756190D02*
X236540761Y-91660952D01*
X236493142Y-91613333D01*
X236397904Y-91565714D01*
X236302666Y-91565714D01*
X41690476Y-159452380D02*
X41357142Y-158976190D01*
X41119047Y-159452380D02*
X41119047Y-158452380D01*
X41500000Y-158452380D01*
X41595238Y-158500000D01*
X41642857Y-158547619D01*
X41690476Y-158642857D01*
X41690476Y-158785714D01*
X41642857Y-158880952D01*
X41595238Y-158928571D01*
X41500000Y-158976190D01*
X41119047Y-158976190D01*
X42071428Y-159404761D02*
X42214285Y-159452380D01*
X42452380Y-159452380D01*
X42547619Y-159404761D01*
X42595238Y-159357142D01*
X42642857Y-159261904D01*
X42642857Y-159166666D01*
X42595238Y-159071428D01*
X42547619Y-159023809D01*
X42452380Y-158976190D01*
X42261904Y-158928571D01*
X42166666Y-158880952D01*
X42119047Y-158833333D01*
X42071428Y-158738095D01*
X42071428Y-158642857D01*
X42119047Y-158547619D01*
X42166666Y-158500000D01*
X42261904Y-158452380D01*
X42500000Y-158452380D01*
X42642857Y-158500000D01*
X43071428Y-159071428D02*
X43833333Y-159071428D01*
X44833333Y-159452380D02*
X44261904Y-159452380D01*
X44547619Y-159452380D02*
X44547619Y-158452380D01*
X44452380Y-158595238D01*
X44357142Y-158690476D01*
X44261904Y-158738095D01*
X45738095Y-158452380D02*
X45261904Y-158452380D01*
X45214285Y-158928571D01*
X45261904Y-158880952D01*
X45357142Y-158833333D01*
X45595238Y-158833333D01*
X45690476Y-158880952D01*
X45738095Y-158928571D01*
X45785714Y-159023809D01*
X45785714Y-159261904D01*
X45738095Y-159357142D01*
X45690476Y-159404761D01*
X45595238Y-159452380D01*
X45357142Y-159452380D01*
X45261904Y-159404761D01*
X45214285Y-159357142D01*
X46214285Y-159071428D02*
X46976190Y-159071428D01*
X47976190Y-159452380D02*
X47404761Y-159452380D01*
X47690476Y-159452380D02*
X47690476Y-158452380D01*
X47595238Y-158595238D01*
X47500000Y-158690476D01*
X47404761Y-158738095D01*
X48357142Y-158547619D02*
X48404761Y-158500000D01*
X48500000Y-158452380D01*
X48738095Y-158452380D01*
X48833333Y-158500000D01*
X48880952Y-158547619D01*
X48928571Y-158642857D01*
X48928571Y-158738095D01*
X48880952Y-158880952D01*
X48309523Y-159452380D01*
X48928571Y-159452380D01*
X122690476Y-159452380D02*
X122357142Y-158976190D01*
X122119047Y-159452380D02*
X122119047Y-158452380D01*
X122500000Y-158452380D01*
X122595238Y-158500000D01*
X122642857Y-158547619D01*
X122690476Y-158642857D01*
X122690476Y-158785714D01*
X122642857Y-158880952D01*
X122595238Y-158928571D01*
X122500000Y-158976190D01*
X122119047Y-158976190D01*
X123071428Y-159404761D02*
X123214285Y-159452380D01*
X123452380Y-159452380D01*
X123547619Y-159404761D01*
X123595238Y-159357142D01*
X123642857Y-159261904D01*
X123642857Y-159166666D01*
X123595238Y-159071428D01*
X123547619Y-159023809D01*
X123452380Y-158976190D01*
X123261904Y-158928571D01*
X123166666Y-158880952D01*
X123119047Y-158833333D01*
X123071428Y-158738095D01*
X123071428Y-158642857D01*
X123119047Y-158547619D01*
X123166666Y-158500000D01*
X123261904Y-158452380D01*
X123500000Y-158452380D01*
X123642857Y-158500000D01*
X124071428Y-159071428D02*
X124833333Y-159071428D01*
X125261904Y-158547619D02*
X125309523Y-158500000D01*
X125404761Y-158452380D01*
X125642857Y-158452380D01*
X125738095Y-158500000D01*
X125785714Y-158547619D01*
X125833333Y-158642857D01*
X125833333Y-158738095D01*
X125785714Y-158880952D01*
X125214285Y-159452380D01*
X125833333Y-159452380D01*
X126738095Y-158452380D02*
X126261904Y-158452380D01*
X126214285Y-158928571D01*
X126261904Y-158880952D01*
X126357142Y-158833333D01*
X126595238Y-158833333D01*
X126690476Y-158880952D01*
X126738095Y-158928571D01*
X126785714Y-159023809D01*
X126785714Y-159261904D01*
X126738095Y-159357142D01*
X126690476Y-159404761D01*
X126595238Y-159452380D01*
X126357142Y-159452380D01*
X126261904Y-159404761D01*
X126214285Y-159357142D01*
X127214285Y-159071428D02*
X127976190Y-159071428D01*
X128976190Y-159452380D02*
X128404761Y-159452380D01*
X128690476Y-159452380D02*
X128690476Y-158452380D01*
X128595238Y-158595238D01*
X128500000Y-158690476D01*
X128404761Y-158738095D01*
X129357142Y-158547619D02*
X129404761Y-158500000D01*
X129500000Y-158452380D01*
X129738095Y-158452380D01*
X129833333Y-158500000D01*
X129880952Y-158547619D01*
X129928571Y-158642857D01*
X129928571Y-158738095D01*
X129880952Y-158880952D01*
X129309523Y-159452380D01*
X129928571Y-159452380D01*
X46622380Y-77666666D02*
X46622380Y-77095238D01*
X47622380Y-77380952D02*
X46622380Y-77380952D01*
X47622380Y-76761904D02*
X46955714Y-76761904D01*
X47146190Y-76761904D02*
X47050952Y-76714285D01*
X47003333Y-76666666D01*
X46955714Y-76571428D01*
X46955714Y-76476190D01*
X47622380Y-75714285D02*
X47098571Y-75714285D01*
X47003333Y-75761904D01*
X46955714Y-75857142D01*
X46955714Y-76047619D01*
X47003333Y-76142857D01*
X47574761Y-75714285D02*
X47622380Y-75809523D01*
X47622380Y-76047619D01*
X47574761Y-76142857D01*
X47479523Y-76190476D01*
X47384285Y-76190476D01*
X47289047Y-76142857D01*
X47241428Y-76047619D01*
X47241428Y-75809523D01*
X47193809Y-75714285D01*
X46955714Y-75238095D02*
X47622380Y-75238095D01*
X47050952Y-75238095D02*
X47003333Y-75190476D01*
X46955714Y-75095238D01*
X46955714Y-74952380D01*
X47003333Y-74857142D01*
X47098571Y-74809523D01*
X47622380Y-74809523D01*
X47574761Y-74380952D02*
X47622380Y-74285714D01*
X47622380Y-74095238D01*
X47574761Y-74000000D01*
X47479523Y-73952380D01*
X47431904Y-73952380D01*
X47336666Y-74000000D01*
X47289047Y-74095238D01*
X47289047Y-74238095D01*
X47241428Y-74333333D01*
X47146190Y-74380952D01*
X47098571Y-74380952D01*
X47003333Y-74333333D01*
X46955714Y-74238095D01*
X46955714Y-74095238D01*
X47003333Y-74000000D01*
X46955714Y-73666666D02*
X46955714Y-73285714D01*
X47622380Y-73523809D02*
X46765238Y-73523809D01*
X46670000Y-73476190D01*
X46622380Y-73380952D01*
X46622380Y-73285714D01*
X47622380Y-72809523D02*
X47574761Y-72904761D01*
X47527142Y-72952380D01*
X47431904Y-73000000D01*
X47146190Y-73000000D01*
X47050952Y-72952380D01*
X47003333Y-72904761D01*
X46955714Y-72809523D01*
X46955714Y-72666666D01*
X47003333Y-72571428D01*
X47050952Y-72523809D01*
X47146190Y-72476190D01*
X47431904Y-72476190D01*
X47527142Y-72523809D01*
X47574761Y-72571428D01*
X47622380Y-72666666D01*
X47622380Y-72809523D01*
X47622380Y-72047619D02*
X46955714Y-72047619D01*
X47146190Y-72047619D02*
X47050952Y-72000000D01*
X47003333Y-71952380D01*
X46955714Y-71857142D01*
X46955714Y-71761904D01*
X47622380Y-71428571D02*
X46955714Y-71428571D01*
X47050952Y-71428571D02*
X47003333Y-71380952D01*
X46955714Y-71285714D01*
X46955714Y-71142857D01*
X47003333Y-71047619D01*
X47098571Y-71000000D01*
X47622380Y-71000000D01*
X47098571Y-71000000D02*
X47003333Y-70952380D01*
X46955714Y-70857142D01*
X46955714Y-70714285D01*
X47003333Y-70619047D01*
X47098571Y-70571428D01*
X47622380Y-70571428D01*
X47622380Y-69666666D02*
X47098571Y-69666666D01*
X47003333Y-69714285D01*
X46955714Y-69809523D01*
X46955714Y-70000000D01*
X47003333Y-70095238D01*
X47574761Y-69666666D02*
X47622380Y-69761904D01*
X47622380Y-70000000D01*
X47574761Y-70095238D01*
X47479523Y-70142857D01*
X47384285Y-70142857D01*
X47289047Y-70095238D01*
X47241428Y-70000000D01*
X47241428Y-69761904D01*
X47193809Y-69666666D01*
X47622380Y-68761904D02*
X46622380Y-68761904D01*
X47574761Y-68761904D02*
X47622380Y-68857142D01*
X47622380Y-69047619D01*
X47574761Y-69142857D01*
X47527142Y-69190476D01*
X47431904Y-69238095D01*
X47146190Y-69238095D01*
X47050952Y-69190476D01*
X47003333Y-69142857D01*
X46955714Y-69047619D01*
X46955714Y-68857142D01*
X47003333Y-68761904D01*
X47622380Y-68142857D02*
X47574761Y-68238095D01*
X47527142Y-68285714D01*
X47431904Y-68333333D01*
X47146190Y-68333333D01*
X47050952Y-68285714D01*
X47003333Y-68238095D01*
X46955714Y-68142857D01*
X46955714Y-68000000D01*
X47003333Y-67904761D01*
X47050952Y-67857142D01*
X47146190Y-67809523D01*
X47431904Y-67809523D01*
X47527142Y-67857142D01*
X47574761Y-67904761D01*
X47622380Y-68000000D01*
X47622380Y-68142857D01*
X47622380Y-67380952D02*
X46955714Y-67380952D01*
X47146190Y-67380952D02*
X47050952Y-67333333D01*
X47003333Y-67285714D01*
X46955714Y-67190476D01*
X46955714Y-67095238D01*
X49187142Y-73666666D02*
X49234761Y-73714285D01*
X49282380Y-73857142D01*
X49282380Y-73952380D01*
X49234761Y-74095238D01*
X49139523Y-74190476D01*
X49044285Y-74238095D01*
X48853809Y-74285714D01*
X48710952Y-74285714D01*
X48520476Y-74238095D01*
X48425238Y-74190476D01*
X48330000Y-74095238D01*
X48282380Y-73952380D01*
X48282380Y-73857142D01*
X48330000Y-73714285D01*
X48377619Y-73666666D01*
X49282380Y-73238095D02*
X48282380Y-73238095D01*
X49282380Y-72809523D02*
X48758571Y-72809523D01*
X48663333Y-72857142D01*
X48615714Y-72952380D01*
X48615714Y-73095238D01*
X48663333Y-73190476D01*
X48710952Y-73238095D01*
X49282380Y-72333333D02*
X48615714Y-72333333D01*
X48282380Y-72333333D02*
X48330000Y-72380952D01*
X48377619Y-72333333D01*
X48330000Y-72285714D01*
X48282380Y-72333333D01*
X48377619Y-72333333D01*
X48615714Y-71857142D02*
X49282380Y-71857142D01*
X48710952Y-71857142D02*
X48663333Y-71809523D01*
X48615714Y-71714285D01*
X48615714Y-71571428D01*
X48663333Y-71476190D01*
X48758571Y-71428571D01*
X49282380Y-71428571D01*
X49234761Y-70571428D02*
X49282380Y-70666666D01*
X49282380Y-70857142D01*
X49234761Y-70952380D01*
X49139523Y-71000000D01*
X48758571Y-71000000D01*
X48663333Y-70952380D01*
X48615714Y-70857142D01*
X48615714Y-70666666D01*
X48663333Y-70571428D01*
X48758571Y-70523809D01*
X48853809Y-70523809D01*
X48949047Y-71000000D01*
X48377619Y-70952380D02*
X48234761Y-70761904D01*
X48377619Y-70571428D01*
X49234761Y-70142857D02*
X49282380Y-70047619D01*
X49282380Y-69857142D01*
X49234761Y-69761904D01*
X49139523Y-69714285D01*
X49091904Y-69714285D01*
X48996666Y-69761904D01*
X48949047Y-69857142D01*
X48949047Y-70000000D01*
X48901428Y-70095238D01*
X48806190Y-70142857D01*
X48758571Y-70142857D01*
X48663333Y-70095238D01*
X48615714Y-70000000D01*
X48615714Y-69857142D01*
X48663333Y-69761904D01*
D11*
X236700000Y-89155000D02*
X236700000Y-101155000D01*
X236700000Y-101155000D02*
X222700000Y-101155000D01*
X222700000Y-101155000D02*
X222700000Y-89155000D01*
X222700000Y-89155000D02*
X236700000Y-89155000D01*
X237830000Y-97695000D02*
X237830000Y-90075000D01*
X237830000Y-90075000D02*
X242910000Y-90075000D01*
X242910000Y-90075000D02*
X242910000Y-91345000D01*
X242910000Y-91345000D02*
X239100000Y-91345000D01*
X239100000Y-91345000D02*
X239100000Y-92615000D01*
X239100000Y-92615000D02*
X242910000Y-92615000D01*
X242910000Y-92615000D02*
X242910000Y-93885000D01*
X242910000Y-93885000D02*
X239100000Y-93885000D01*
X239100000Y-93885000D02*
X239100000Y-95155000D01*
X239100000Y-95155000D02*
X242910000Y-95155000D01*
X242910000Y-95155000D02*
X242910000Y-96425000D01*
X242910000Y-96425000D02*
X239100000Y-96425000D01*
X239100000Y-96425000D02*
X239100000Y-97695000D01*
X239100000Y-97695000D02*
X242910000Y-97695000D01*
X242910000Y-97695000D02*
X242910000Y-101505000D01*
X185760000Y-91345000D02*
X185760000Y-98965000D01*
X185760000Y-98965000D02*
X192110000Y-98965000D01*
X192110000Y-98965000D02*
X192110000Y-91345000D01*
X192110000Y-91345000D02*
X185760000Y-91345000D01*
X191366051Y-107855000D02*
G75*
G03*
X191366051Y-107855000I-1796051J0D01*
G01*
X191366051Y-82455000D02*
G75*
G03*
X191366051Y-82455000I-1796051J0D01*
G01*
X243436051Y-82455000D02*
G75*
G03*
X243436051Y-82455000I-1796051J0D01*
G01*
X243436051Y-107855000D02*
G75*
G03*
X243436051Y-107855000I-1796051J0D01*
G01*
X244200000Y-110405000D02*
X244200000Y-80405000D01*
X244200000Y-80405000D02*
X244200000Y-79905000D01*
X244200000Y-79905000D02*
X187200000Y-79905000D01*
X187200000Y-79905000D02*
X187200000Y-110405000D01*
X187200000Y-110405000D02*
X244200000Y-110405000D01*
D12*
X190755000Y-84765000D02*
X190755000Y-108085000D01*
X197655000Y-82225000D02*
X223085000Y-82225000D01*
X190755000Y-108085000D02*
X223085000Y-108085000D01*
X225215000Y-105965000D02*
X225215000Y-84355000D01*
D11*
G36*
X217510000Y-81185000D02*
G01*
X216240000Y-81185000D01*
X216875000Y-81820000D01*
X217510000Y-81185000D01*
G37*
X217510000Y-81185000D02*
X216240000Y-81185000D01*
X216875000Y-81820000D01*
X217510000Y-81185000D01*
D12*
X197655000Y-82225000D02*
X197655000Y-84765000D01*
X197655000Y-84765000D02*
X190755000Y-84765000D01*
X225215000Y-105955000D02*
G75*
G02*
X223085000Y-108085000I-2130000J0D01*
G01*
X223085000Y-82225000D02*
G75*
G02*
X225215000Y-84355000I0J-2130000D01*
G01*
X177870500Y-86368000D02*
X177870500Y-86524000D01*
X177870500Y-88684000D02*
X177870500Y-88840000D01*
X180471630Y-88683837D02*
G75*
G02*
X178389539Y-88684000I-1041130J1079837D01*
G01*
X180471630Y-86524163D02*
G75*
G03*
X178389539Y-86524000I-1041130J-1079837D01*
G01*
X181102835Y-88682608D02*
G75*
G02*
X177870500Y-88839516I-1672335J1078608D01*
G01*
X181102835Y-86525392D02*
G75*
G03*
X177870500Y-86368484I-1672335J-1078608D01*
G01*
X181265875Y-96898800D02*
X181265875Y-96398800D01*
X181515875Y-96648800D02*
X181015875Y-96648800D01*
X176110100Y-95457800D02*
X176110100Y-94889800D01*
X176150100Y-95691800D02*
X176150100Y-94655800D01*
X176190100Y-95850800D02*
X176190100Y-94496800D01*
X176230100Y-95978800D02*
X176230100Y-94368800D01*
X176270100Y-96088800D02*
X176270100Y-94258800D01*
X176310100Y-96184800D02*
X176310100Y-94162800D01*
X176350100Y-96271800D02*
X176350100Y-94075800D01*
X176390100Y-96351800D02*
X176390100Y-93995800D01*
X176430100Y-96424800D02*
X176430100Y-93922800D01*
X176470100Y-96492800D02*
X176470100Y-93854800D01*
X176510100Y-96556800D02*
X176510100Y-93790800D01*
X176550100Y-96616800D02*
X176550100Y-93730800D01*
X176590100Y-96673800D02*
X176590100Y-93673800D01*
X176630100Y-96727800D02*
X176630100Y-93619800D01*
X176670100Y-96778800D02*
X176670100Y-93568800D01*
X176710100Y-94133800D02*
X176710100Y-93520800D01*
X176710100Y-96826800D02*
X176710100Y-96213800D01*
X176750100Y-94133800D02*
X176750100Y-93474800D01*
X176750100Y-96872800D02*
X176750100Y-96213800D01*
X176790100Y-94133800D02*
X176790100Y-93430800D01*
X176790100Y-96916800D02*
X176790100Y-96213800D01*
X176830100Y-94133800D02*
X176830100Y-93388800D01*
X176830100Y-96958800D02*
X176830100Y-96213800D01*
X176870100Y-94133800D02*
X176870100Y-93347800D01*
X176870100Y-96999800D02*
X176870100Y-96213800D01*
X176910100Y-94133800D02*
X176910100Y-93309800D01*
X176910100Y-97037800D02*
X176910100Y-96213800D01*
X176950100Y-94133800D02*
X176950100Y-93272800D01*
X176950100Y-97074800D02*
X176950100Y-96213800D01*
X176990100Y-94133800D02*
X176990100Y-93236800D01*
X176990100Y-97110800D02*
X176990100Y-96213800D01*
X177030100Y-94133800D02*
X177030100Y-93202800D01*
X177030100Y-97144800D02*
X177030100Y-96213800D01*
X177070100Y-94133800D02*
X177070100Y-93169800D01*
X177070100Y-97177800D02*
X177070100Y-96213800D01*
X177110100Y-94133800D02*
X177110100Y-93138800D01*
X177110100Y-97208800D02*
X177110100Y-96213800D01*
X177150100Y-94133800D02*
X177150100Y-93108800D01*
X177150100Y-97238800D02*
X177150100Y-96213800D01*
X177190100Y-94133800D02*
X177190100Y-93078800D01*
X177190100Y-97268800D02*
X177190100Y-96213800D01*
X177230100Y-94133800D02*
X177230100Y-93051800D01*
X177230100Y-97295800D02*
X177230100Y-96213800D01*
X177270100Y-94133800D02*
X177270100Y-93024800D01*
X177270100Y-97322800D02*
X177270100Y-96213800D01*
X177310100Y-94133800D02*
X177310100Y-92998800D01*
X177310100Y-97348800D02*
X177310100Y-96213800D01*
X177350100Y-94133800D02*
X177350100Y-92973800D01*
X177350100Y-97373800D02*
X177350100Y-96213800D01*
X177390100Y-94133800D02*
X177390100Y-92949800D01*
X177390100Y-97397800D02*
X177390100Y-96213800D01*
X177430100Y-94133800D02*
X177430100Y-92926800D01*
X177430100Y-97420800D02*
X177430100Y-96213800D01*
X177470100Y-94133800D02*
X177470100Y-92905800D01*
X177470100Y-97441800D02*
X177470100Y-96213800D01*
X177510100Y-94133800D02*
X177510100Y-92883800D01*
X177510100Y-97463800D02*
X177510100Y-96213800D01*
X177550100Y-94133800D02*
X177550100Y-92863800D01*
X177550100Y-97483800D02*
X177550100Y-96213800D01*
X177590100Y-94133800D02*
X177590100Y-92844800D01*
X177590100Y-97502800D02*
X177590100Y-96213800D01*
X177630100Y-94133800D02*
X177630100Y-92825800D01*
X177630100Y-97521800D02*
X177630100Y-96213800D01*
X177670100Y-94133800D02*
X177670100Y-92808800D01*
X177670100Y-97538800D02*
X177670100Y-96213800D01*
X177710100Y-94133800D02*
X177710100Y-92791800D01*
X177710100Y-97555800D02*
X177710100Y-96213800D01*
X177750100Y-94133800D02*
X177750100Y-92775800D01*
X177750100Y-97571800D02*
X177750100Y-96213800D01*
X177790100Y-94133800D02*
X177790100Y-92759800D01*
X177790100Y-97587800D02*
X177790100Y-96213800D01*
X177830100Y-94133800D02*
X177830100Y-92745800D01*
X177830100Y-97601800D02*
X177830100Y-96213800D01*
X177870100Y-94133800D02*
X177870100Y-92731800D01*
X177870100Y-97615800D02*
X177870100Y-96213800D01*
X177910100Y-94133800D02*
X177910100Y-92718800D01*
X177910100Y-97628800D02*
X177910100Y-96213800D01*
X177950100Y-94133800D02*
X177950100Y-92705800D01*
X177950100Y-97641800D02*
X177950100Y-96213800D01*
X177990100Y-94133800D02*
X177990100Y-92693800D01*
X177990100Y-97653800D02*
X177990100Y-96213800D01*
X178031100Y-94133800D02*
X178031100Y-92682800D01*
X178031100Y-97664800D02*
X178031100Y-96213800D01*
X178071100Y-94133800D02*
X178071100Y-92672800D01*
X178071100Y-97674800D02*
X178071100Y-96213800D01*
X178111100Y-94133800D02*
X178111100Y-92662800D01*
X178111100Y-97684800D02*
X178111100Y-96213800D01*
X178151100Y-94133800D02*
X178151100Y-92653800D01*
X178151100Y-97693800D02*
X178151100Y-96213800D01*
X178191100Y-94133800D02*
X178191100Y-92645800D01*
X178191100Y-97701800D02*
X178191100Y-96213800D01*
X178231100Y-94133800D02*
X178231100Y-92637800D01*
X178231100Y-97709800D02*
X178231100Y-96213800D01*
X178271100Y-94133800D02*
X178271100Y-92630800D01*
X178271100Y-97716800D02*
X178271100Y-96213800D01*
X178311100Y-94133800D02*
X178311100Y-92623800D01*
X178311100Y-97723800D02*
X178311100Y-96213800D01*
X178351100Y-94133800D02*
X178351100Y-92617800D01*
X178351100Y-97729800D02*
X178351100Y-96213800D01*
X178391100Y-94133800D02*
X178391100Y-92612800D01*
X178391100Y-97734800D02*
X178391100Y-96213800D01*
X178431100Y-94133800D02*
X178431100Y-92608800D01*
X178431100Y-97738800D02*
X178431100Y-96213800D01*
X178471100Y-94133800D02*
X178471100Y-92604800D01*
X178471100Y-97742800D02*
X178471100Y-96213800D01*
X178511100Y-94133800D02*
X178511100Y-92600800D01*
X178511100Y-97746800D02*
X178511100Y-96213800D01*
X178551100Y-94133800D02*
X178551100Y-92597800D01*
X178551100Y-97749800D02*
X178551100Y-96213800D01*
X178591100Y-94133800D02*
X178591100Y-92595800D01*
X178591100Y-97751800D02*
X178591100Y-96213800D01*
X178631100Y-94133800D02*
X178631100Y-92594800D01*
X178631100Y-97752800D02*
X178631100Y-96213800D01*
X178671100Y-97753800D02*
X178671100Y-96213800D01*
X178671100Y-94133800D02*
X178671100Y-92593800D01*
X178711100Y-97753800D02*
X178711100Y-96213800D01*
X178711100Y-94133800D02*
X178711100Y-92593800D01*
X181331100Y-95173800D02*
G75*
G03*
X181331100Y-95173800I-2620000J0D01*
G01*
X167395000Y-108751252D02*
X167395000Y-108228748D01*
X168865000Y-108751252D02*
X168865000Y-108228748D01*
X174472600Y-108751252D02*
X174472600Y-108228748D01*
X173002600Y-108751252D02*
X173002600Y-108228748D01*
X180080200Y-108751252D02*
X180080200Y-108228748D01*
X178610200Y-108751252D02*
X178610200Y-108228748D01*
X170613900Y-93810800D02*
X170613900Y-93966800D01*
X170613900Y-96126800D02*
X170613900Y-96282800D01*
X173846235Y-93968192D02*
G75*
G03*
X170613900Y-93811284I-1672335J-1078608D01*
G01*
X173846235Y-96125408D02*
G75*
G02*
X170613900Y-96282316I-1672335J1078608D01*
G01*
X173215030Y-93966963D02*
G75*
G03*
X171132939Y-93966800I-1041130J-1079837D01*
G01*
X173215030Y-96126637D02*
G75*
G02*
X171132939Y-96126800I-1041130J1079837D01*
G01*
X179462500Y-76624200D02*
X179462500Y-76494200D01*
X179462500Y-76494200D02*
X184902500Y-76494200D01*
X184902500Y-76494200D02*
X184902500Y-76624200D01*
X179462500Y-79304200D02*
X179462500Y-79434200D01*
X179462500Y-79434200D02*
X184902500Y-79434200D01*
X184902500Y-79434200D02*
X184902500Y-79304200D01*
X180362500Y-76494200D02*
X180362500Y-79434200D01*
X180482500Y-76494200D02*
X180482500Y-79434200D01*
X180242500Y-76494200D02*
X180242500Y-79434200D01*
X155130000Y-97300000D02*
X155130000Y-94360000D01*
X154890000Y-97300000D02*
X154890000Y-94360000D01*
X155010000Y-97300000D02*
X155010000Y-94360000D01*
X150470000Y-94360000D02*
X150470000Y-94490000D01*
X155910000Y-94360000D02*
X150470000Y-94360000D01*
X155910000Y-94490000D02*
X155910000Y-94360000D01*
X150470000Y-97300000D02*
X150470000Y-97170000D01*
X155910000Y-97300000D02*
X150470000Y-97300000D01*
X155910000Y-97170000D02*
X155910000Y-97300000D01*
X187248800Y-73279000D02*
X177088800Y-73279000D01*
X187248800Y-74549000D02*
X187248800Y-66929000D01*
X187248800Y-66929000D02*
X177088800Y-66929000D01*
X177088800Y-66929000D02*
X177088800Y-74549000D01*
X177088800Y-74549000D02*
X187248800Y-74549000D01*
X203301600Y-74549000D02*
X223621600Y-74549000D01*
X203301600Y-66929000D02*
X223621600Y-66929000D01*
X223621600Y-73279000D02*
X203301600Y-73279000D01*
X223621600Y-74549000D02*
X223621600Y-66929000D01*
X203301600Y-66929000D02*
X203301600Y-74549000D01*
X161442400Y-74549000D02*
X161442400Y-66929000D01*
X176682400Y-74549000D02*
X176682400Y-66929000D01*
X161442400Y-73279000D02*
X176682400Y-73279000D01*
X161442400Y-66929000D02*
X176682400Y-66929000D01*
X161442400Y-74549000D02*
X176682400Y-74549000D01*
X224066100Y-74549000D02*
X244386100Y-74549000D01*
X224066100Y-66929000D02*
X244386100Y-66929000D01*
X244386100Y-73279000D02*
X224066100Y-73279000D01*
X244386100Y-74549000D02*
X244386100Y-66929000D01*
X224066100Y-66929000D02*
X224066100Y-74549000D01*
X145550000Y-98132900D02*
X145550000Y-108292900D01*
X153170000Y-98132900D02*
X145550000Y-98132900D01*
X153170000Y-108292900D02*
X153170000Y-98132900D01*
X145550000Y-108292900D02*
X153170000Y-108292900D01*
X146820000Y-108292900D02*
X146820000Y-98132900D01*
X153170000Y-91450000D02*
X153170000Y-76210000D01*
X145550000Y-91450000D02*
X145550000Y-76210000D01*
X151900000Y-91450000D02*
X151900000Y-76210000D01*
X153170000Y-76210000D02*
X145550000Y-76210000D01*
X153170000Y-91450000D02*
X145550000Y-91450000D01*
X177182900Y-80685400D02*
X177182900Y-84285400D01*
X177194422Y-80646922D02*
G75*
G02*
X181632900Y-82485400I1838478J-1838478D01*
G01*
X177194422Y-84323878D02*
G75*
G03*
X181632900Y-82485400I1838478J1838478D01*
G01*
X164215700Y-108242936D02*
X164215700Y-108697064D01*
X165685700Y-108242936D02*
X165685700Y-108697064D01*
X163729900Y-108242936D02*
X163729900Y-108697064D01*
X162259900Y-108242936D02*
X162259900Y-108697064D01*
X178051000Y-99269800D02*
X178051000Y-100779800D01*
X174350000Y-99269800D02*
X174350000Y-100779800D01*
X171080000Y-100779800D02*
X181320000Y-100779800D01*
X181320000Y-99269800D02*
X181320000Y-103910800D01*
X171080000Y-99269800D02*
X171080000Y-103910800D01*
X171080000Y-103910800D02*
X181320000Y-103910800D01*
X171080000Y-99269800D02*
X181320000Y-99269800D01*
X160386400Y-99269800D02*
X170626400Y-99269800D01*
X160386400Y-103910800D02*
X170626400Y-103910800D01*
X160386400Y-99269800D02*
X160386400Y-103910800D01*
X170626400Y-99269800D02*
X170626400Y-103910800D01*
X160386400Y-100779800D02*
X170626400Y-100779800D01*
X163656400Y-99269800D02*
X163656400Y-100779800D01*
X167357400Y-99269800D02*
X167357400Y-100779800D01*
X185274564Y-87845000D02*
X184820436Y-87845000D01*
X185274564Y-89315000D02*
X184820436Y-89315000D01*
X166424236Y-94388000D02*
X166878364Y-94388000D01*
X166424236Y-95858000D02*
X166878364Y-95858000D01*
X160304100Y-108242936D02*
X160304100Y-108697064D01*
X161774100Y-108242936D02*
X161774100Y-108697064D01*
X184820436Y-80815000D02*
X185274564Y-80815000D01*
X184820436Y-82285000D02*
X185274564Y-82285000D01*
X159330000Y-104720000D02*
G75*
G03*
X159330000Y-104720000I-2620000J0D01*
G01*
X155670000Y-104720000D02*
X154130000Y-104720000D01*
X159290000Y-104720000D02*
X157750000Y-104720000D01*
X155670000Y-104760000D02*
X154130000Y-104760000D01*
X159290000Y-104760000D02*
X157750000Y-104760000D01*
X159289000Y-104800000D02*
X157750000Y-104800000D01*
X155670000Y-104800000D02*
X154131000Y-104800000D01*
X159288000Y-104840000D02*
X157750000Y-104840000D01*
X155670000Y-104840000D02*
X154132000Y-104840000D01*
X159286000Y-104880000D02*
X157750000Y-104880000D01*
X155670000Y-104880000D02*
X154134000Y-104880000D01*
X159283000Y-104920000D02*
X157750000Y-104920000D01*
X155670000Y-104920000D02*
X154137000Y-104920000D01*
X159279000Y-104960000D02*
X157750000Y-104960000D01*
X155670000Y-104960000D02*
X154141000Y-104960000D01*
X159275000Y-105000000D02*
X157750000Y-105000000D01*
X155670000Y-105000000D02*
X154145000Y-105000000D01*
X159271000Y-105040000D02*
X157750000Y-105040000D01*
X155670000Y-105040000D02*
X154149000Y-105040000D01*
X159266000Y-105080000D02*
X157750000Y-105080000D01*
X155670000Y-105080000D02*
X154154000Y-105080000D01*
X159260000Y-105120000D02*
X157750000Y-105120000D01*
X155670000Y-105120000D02*
X154160000Y-105120000D01*
X159253000Y-105160000D02*
X157750000Y-105160000D01*
X155670000Y-105160000D02*
X154167000Y-105160000D01*
X159246000Y-105200000D02*
X157750000Y-105200000D01*
X155670000Y-105200000D02*
X154174000Y-105200000D01*
X159238000Y-105240000D02*
X157750000Y-105240000D01*
X155670000Y-105240000D02*
X154182000Y-105240000D01*
X159230000Y-105280000D02*
X157750000Y-105280000D01*
X155670000Y-105280000D02*
X154190000Y-105280000D01*
X159221000Y-105320000D02*
X157750000Y-105320000D01*
X155670000Y-105320000D02*
X154199000Y-105320000D01*
X159211000Y-105360000D02*
X157750000Y-105360000D01*
X155670000Y-105360000D02*
X154209000Y-105360000D01*
X159201000Y-105400000D02*
X157750000Y-105400000D01*
X155670000Y-105400000D02*
X154219000Y-105400000D01*
X159190000Y-105441000D02*
X157750000Y-105441000D01*
X155670000Y-105441000D02*
X154230000Y-105441000D01*
X159178000Y-105481000D02*
X157750000Y-105481000D01*
X155670000Y-105481000D02*
X154242000Y-105481000D01*
X159165000Y-105521000D02*
X157750000Y-105521000D01*
X155670000Y-105521000D02*
X154255000Y-105521000D01*
X159152000Y-105561000D02*
X157750000Y-105561000D01*
X155670000Y-105561000D02*
X154268000Y-105561000D01*
X159138000Y-105601000D02*
X157750000Y-105601000D01*
X155670000Y-105601000D02*
X154282000Y-105601000D01*
X159124000Y-105641000D02*
X157750000Y-105641000D01*
X155670000Y-105641000D02*
X154296000Y-105641000D01*
X159108000Y-105681000D02*
X157750000Y-105681000D01*
X155670000Y-105681000D02*
X154312000Y-105681000D01*
X159092000Y-105721000D02*
X157750000Y-105721000D01*
X155670000Y-105721000D02*
X154328000Y-105721000D01*
X159075000Y-105761000D02*
X157750000Y-105761000D01*
X155670000Y-105761000D02*
X154345000Y-105761000D01*
X159058000Y-105801000D02*
X157750000Y-105801000D01*
X155670000Y-105801000D02*
X154362000Y-105801000D01*
X159039000Y-105841000D02*
X157750000Y-105841000D01*
X155670000Y-105841000D02*
X154381000Y-105841000D01*
X159020000Y-105881000D02*
X157750000Y-105881000D01*
X155670000Y-105881000D02*
X154400000Y-105881000D01*
X159000000Y-105921000D02*
X157750000Y-105921000D01*
X155670000Y-105921000D02*
X154420000Y-105921000D01*
X158978000Y-105961000D02*
X157750000Y-105961000D01*
X155670000Y-105961000D02*
X154442000Y-105961000D01*
X158957000Y-106001000D02*
X157750000Y-106001000D01*
X155670000Y-106001000D02*
X154463000Y-106001000D01*
X158934000Y-106041000D02*
X157750000Y-106041000D01*
X155670000Y-106041000D02*
X154486000Y-106041000D01*
X158910000Y-106081000D02*
X157750000Y-106081000D01*
X155670000Y-106081000D02*
X154510000Y-106081000D01*
X158885000Y-106121000D02*
X157750000Y-106121000D01*
X155670000Y-106121000D02*
X154535000Y-106121000D01*
X158859000Y-106161000D02*
X157750000Y-106161000D01*
X155670000Y-106161000D02*
X154561000Y-106161000D01*
X158832000Y-106201000D02*
X157750000Y-106201000D01*
X155670000Y-106201000D02*
X154588000Y-106201000D01*
X158805000Y-106241000D02*
X157750000Y-106241000D01*
X155670000Y-106241000D02*
X154615000Y-106241000D01*
X158775000Y-106281000D02*
X157750000Y-106281000D01*
X155670000Y-106281000D02*
X154645000Y-106281000D01*
X158745000Y-106321000D02*
X157750000Y-106321000D01*
X155670000Y-106321000D02*
X154675000Y-106321000D01*
X158714000Y-106361000D02*
X157750000Y-106361000D01*
X155670000Y-106361000D02*
X154706000Y-106361000D01*
X158681000Y-106401000D02*
X157750000Y-106401000D01*
X155670000Y-106401000D02*
X154739000Y-106401000D01*
X158647000Y-106441000D02*
X157750000Y-106441000D01*
X155670000Y-106441000D02*
X154773000Y-106441000D01*
X158611000Y-106481000D02*
X157750000Y-106481000D01*
X155670000Y-106481000D02*
X154809000Y-106481000D01*
X158574000Y-106521000D02*
X157750000Y-106521000D01*
X155670000Y-106521000D02*
X154846000Y-106521000D01*
X158536000Y-106561000D02*
X157750000Y-106561000D01*
X155670000Y-106561000D02*
X154884000Y-106561000D01*
X158495000Y-106601000D02*
X157750000Y-106601000D01*
X155670000Y-106601000D02*
X154925000Y-106601000D01*
X158453000Y-106641000D02*
X157750000Y-106641000D01*
X155670000Y-106641000D02*
X154967000Y-106641000D01*
X158409000Y-106681000D02*
X157750000Y-106681000D01*
X155670000Y-106681000D02*
X155011000Y-106681000D01*
X158363000Y-106721000D02*
X157750000Y-106721000D01*
X155670000Y-106721000D02*
X155057000Y-106721000D01*
X158315000Y-106761000D02*
X155105000Y-106761000D01*
X158264000Y-106801000D02*
X155156000Y-106801000D01*
X158210000Y-106841000D02*
X155210000Y-106841000D01*
X158153000Y-106881000D02*
X155267000Y-106881000D01*
X158093000Y-106921000D02*
X155327000Y-106921000D01*
X158029000Y-106961000D02*
X155391000Y-106961000D01*
X157961000Y-107001000D02*
X155459000Y-107001000D01*
X157888000Y-107041000D02*
X155532000Y-107041000D01*
X157808000Y-107081000D02*
X155612000Y-107081000D01*
X157721000Y-107121000D02*
X155699000Y-107121000D01*
X157625000Y-107161000D02*
X155795000Y-107161000D01*
X157515000Y-107201000D02*
X155905000Y-107201000D01*
X157387000Y-107241000D02*
X156033000Y-107241000D01*
X157228000Y-107281000D02*
X156192000Y-107281000D01*
X156994000Y-107321000D02*
X156426000Y-107321000D01*
X158185000Y-101915225D02*
X158185000Y-102415225D01*
X158435000Y-102165225D02*
X157935000Y-102165225D01*
X211590000Y-98090000D02*
X212520000Y-98090000D01*
X214750000Y-98090000D02*
X213820000Y-98090000D01*
X214750000Y-98090000D02*
X214750000Y-95930000D01*
X211590000Y-98090000D02*
X211590000Y-96630000D01*
X187642500Y-74549000D02*
X187642500Y-66929000D01*
X202882500Y-74549000D02*
X202882500Y-66929000D01*
X187642500Y-73279000D02*
X202882500Y-73279000D01*
X187642500Y-66929000D02*
X202882500Y-66929000D01*
X187642500Y-74549000D02*
X202882500Y-74549000D01*
X185274564Y-85800000D02*
X184820436Y-85800000D01*
X185274564Y-84330000D02*
X184820436Y-84330000D01*
X164836100Y-82095900D02*
X168836100Y-82095900D01*
X164836100Y-85695900D02*
X164836100Y-82095900D01*
X168836100Y-85695900D02*
X164836100Y-85695900D01*
X168836100Y-82095900D02*
X168836100Y-85695900D01*
X164836100Y-82095900D02*
X168836100Y-85695900D01*
X166836100Y-82095900D02*
X166836100Y-77895900D01*
X166836100Y-89895900D02*
X166836100Y-85695900D01*
X170236100Y-83895900D02*
X170236100Y-80295900D01*
X163436100Y-83895900D02*
X163436100Y-80295900D01*
X163436100Y-80295900D02*
X170236100Y-80295900D01*
X161936100Y-83895900D02*
X157336100Y-86395900D01*
X163436100Y-83895900D02*
X161936100Y-83895900D01*
X166836100Y-89895900D02*
X169336100Y-89895900D01*
X170236100Y-83895900D02*
X171036100Y-83895900D01*
X169336100Y-77895900D02*
X166836100Y-77895900D01*
X158736100Y-88145900D02*
X158736100Y-85645900D01*
X158736100Y-79745900D02*
X158736100Y-82195900D01*
X154486100Y-76145900D02*
X174286100Y-76145900D01*
X154486100Y-91745900D02*
X154486100Y-76145900D01*
X174286100Y-91745900D02*
X154486100Y-91745900D01*
X174286100Y-91745900D02*
X174286100Y-85145900D01*
X174286100Y-82745900D02*
X174286100Y-76145900D01*
D10*
X184252380Y-110561904D02*
X185061904Y-110561904D01*
X185157142Y-110514285D01*
X185204761Y-110466666D01*
X185252380Y-110371428D01*
X185252380Y-110180952D01*
X185204761Y-110085714D01*
X185157142Y-110038095D01*
X185061904Y-109990476D01*
X184252380Y-109990476D01*
X184347619Y-109561904D02*
X184300000Y-109514285D01*
X184252380Y-109419047D01*
X184252380Y-109180952D01*
X184300000Y-109085714D01*
X184347619Y-109038095D01*
X184442857Y-108990476D01*
X184538095Y-108990476D01*
X184680952Y-109038095D01*
X185252380Y-109609523D01*
X185252380Y-108990476D01*
D11*
X235107380Y-107323095D02*
X234107380Y-107323095D01*
X234107380Y-107085000D01*
X234155000Y-106942142D01*
X234250238Y-106846904D01*
X234345476Y-106799285D01*
X234535952Y-106751666D01*
X234678809Y-106751666D01*
X234869285Y-106799285D01*
X234964523Y-106846904D01*
X235059761Y-106942142D01*
X235107380Y-107085000D01*
X235107380Y-107323095D01*
X234107380Y-106132619D02*
X234107380Y-106037380D01*
X234155000Y-105942142D01*
X234202619Y-105894523D01*
X234297857Y-105846904D01*
X234488333Y-105799285D01*
X234726428Y-105799285D01*
X234916904Y-105846904D01*
X235012142Y-105894523D01*
X235059761Y-105942142D01*
X235107380Y-106037380D01*
X235107380Y-106132619D01*
X235059761Y-106227857D01*
X235012142Y-106275476D01*
X234916904Y-106323095D01*
X234726428Y-106370714D01*
X234488333Y-106370714D01*
X234297857Y-106323095D01*
X234202619Y-106275476D01*
X234155000Y-106227857D01*
X234107380Y-106132619D01*
X232567380Y-107323095D02*
X231567380Y-107323095D01*
X231567380Y-107085000D01*
X231615000Y-106942142D01*
X231710238Y-106846904D01*
X231805476Y-106799285D01*
X231995952Y-106751666D01*
X232138809Y-106751666D01*
X232329285Y-106799285D01*
X232424523Y-106846904D01*
X232519761Y-106942142D01*
X232567380Y-107085000D01*
X232567380Y-107323095D01*
X232567380Y-105799285D02*
X232567380Y-106370714D01*
X232567380Y-106085000D02*
X231567380Y-106085000D01*
X231710238Y-106180238D01*
X231805476Y-106275476D01*
X231853095Y-106370714D01*
X230027380Y-107323095D02*
X229027380Y-107323095D01*
X229027380Y-107085000D01*
X229075000Y-106942142D01*
X229170238Y-106846904D01*
X229265476Y-106799285D01*
X229455952Y-106751666D01*
X229598809Y-106751666D01*
X229789285Y-106799285D01*
X229884523Y-106846904D01*
X229979761Y-106942142D01*
X230027380Y-107085000D01*
X230027380Y-107323095D01*
X229122619Y-106370714D02*
X229075000Y-106323095D01*
X229027380Y-106227857D01*
X229027380Y-105989761D01*
X229075000Y-105894523D01*
X229122619Y-105846904D01*
X229217857Y-105799285D01*
X229313095Y-105799285D01*
X229455952Y-105846904D01*
X230027380Y-106418333D01*
X230027380Y-105799285D01*
X227487380Y-107323095D02*
X226487380Y-107323095D01*
X226487380Y-107085000D01*
X226535000Y-106942142D01*
X226630238Y-106846904D01*
X226725476Y-106799285D01*
X226915952Y-106751666D01*
X227058809Y-106751666D01*
X227249285Y-106799285D01*
X227344523Y-106846904D01*
X227439761Y-106942142D01*
X227487380Y-107085000D01*
X227487380Y-107323095D01*
X226487380Y-106418333D02*
X226487380Y-105799285D01*
X226868333Y-106132619D01*
X226868333Y-105989761D01*
X226915952Y-105894523D01*
X226963571Y-105846904D01*
X227058809Y-105799285D01*
X227296904Y-105799285D01*
X227392142Y-105846904D01*
X227439761Y-105894523D01*
X227487380Y-105989761D01*
X227487380Y-106275476D01*
X227439761Y-106370714D01*
X227392142Y-106418333D01*
X224947380Y-107323095D02*
X223947380Y-107323095D01*
X223947380Y-107085000D01*
X223995000Y-106942142D01*
X224090238Y-106846904D01*
X224185476Y-106799285D01*
X224375952Y-106751666D01*
X224518809Y-106751666D01*
X224709285Y-106799285D01*
X224804523Y-106846904D01*
X224899761Y-106942142D01*
X224947380Y-107085000D01*
X224947380Y-107323095D01*
X224280714Y-105894523D02*
X224947380Y-105894523D01*
X223899761Y-106132619D02*
X224614047Y-106370714D01*
X224614047Y-105751666D01*
X221407380Y-107346904D02*
X221407380Y-106727857D01*
X221788333Y-107061190D01*
X221788333Y-106918333D01*
X221835952Y-106823095D01*
X221883571Y-106775476D01*
X221978809Y-106727857D01*
X222216904Y-106727857D01*
X222312142Y-106775476D01*
X222359761Y-106823095D01*
X222407380Y-106918333D01*
X222407380Y-107204047D01*
X222359761Y-107299285D01*
X222312142Y-107346904D01*
X221407380Y-106442142D02*
X222407380Y-106108809D01*
X221407380Y-105775476D01*
X218915000Y-106323095D02*
X218867380Y-106418333D01*
X218867380Y-106561190D01*
X218915000Y-106704047D01*
X219010238Y-106799285D01*
X219105476Y-106846904D01*
X219295952Y-106894523D01*
X219438809Y-106894523D01*
X219629285Y-106846904D01*
X219724523Y-106799285D01*
X219819761Y-106704047D01*
X219867380Y-106561190D01*
X219867380Y-106465952D01*
X219819761Y-106323095D01*
X219772142Y-106275476D01*
X219438809Y-106275476D01*
X219438809Y-106465952D01*
X217327380Y-107323095D02*
X216327380Y-107323095D01*
X216327380Y-107085000D01*
X216375000Y-106942142D01*
X216470238Y-106846904D01*
X216565476Y-106799285D01*
X216755952Y-106751666D01*
X216898809Y-106751666D01*
X217089285Y-106799285D01*
X217184523Y-106846904D01*
X217279761Y-106942142D01*
X217327380Y-107085000D01*
X217327380Y-107323095D01*
X216327380Y-105846904D02*
X216327380Y-106323095D01*
X216803571Y-106370714D01*
X216755952Y-106323095D01*
X216708333Y-106227857D01*
X216708333Y-105989761D01*
X216755952Y-105894523D01*
X216803571Y-105846904D01*
X216898809Y-105799285D01*
X217136904Y-105799285D01*
X217232142Y-105846904D01*
X217279761Y-105894523D01*
X217327380Y-105989761D01*
X217327380Y-106227857D01*
X217279761Y-106323095D01*
X217232142Y-106370714D01*
X214787380Y-107323095D02*
X213787380Y-107323095D01*
X213787380Y-107085000D01*
X213835000Y-106942142D01*
X213930238Y-106846904D01*
X214025476Y-106799285D01*
X214215952Y-106751666D01*
X214358809Y-106751666D01*
X214549285Y-106799285D01*
X214644523Y-106846904D01*
X214739761Y-106942142D01*
X214787380Y-107085000D01*
X214787380Y-107323095D01*
X213787380Y-105894523D02*
X213787380Y-106085000D01*
X213835000Y-106180238D01*
X213882619Y-106227857D01*
X214025476Y-106323095D01*
X214215952Y-106370714D01*
X214596904Y-106370714D01*
X214692142Y-106323095D01*
X214739761Y-106275476D01*
X214787380Y-106180238D01*
X214787380Y-105989761D01*
X214739761Y-105894523D01*
X214692142Y-105846904D01*
X214596904Y-105799285D01*
X214358809Y-105799285D01*
X214263571Y-105846904D01*
X214215952Y-105894523D01*
X214168333Y-105989761D01*
X214168333Y-106180238D01*
X214215952Y-106275476D01*
X214263571Y-106323095D01*
X214358809Y-106370714D01*
X212247380Y-107323095D02*
X211247380Y-107323095D01*
X211247380Y-107085000D01*
X211295000Y-106942142D01*
X211390238Y-106846904D01*
X211485476Y-106799285D01*
X211675952Y-106751666D01*
X211818809Y-106751666D01*
X212009285Y-106799285D01*
X212104523Y-106846904D01*
X212199761Y-106942142D01*
X212247380Y-107085000D01*
X212247380Y-107323095D01*
X211247380Y-106418333D02*
X211247380Y-105751666D01*
X212247380Y-106180238D01*
X209707380Y-107323095D02*
X208707380Y-107323095D01*
X208707380Y-107085000D01*
X208755000Y-106942142D01*
X208850238Y-106846904D01*
X208945476Y-106799285D01*
X209135952Y-106751666D01*
X209278809Y-106751666D01*
X209469285Y-106799285D01*
X209564523Y-106846904D01*
X209659761Y-106942142D01*
X209707380Y-107085000D01*
X209707380Y-107323095D01*
X209135952Y-106180238D02*
X209088333Y-106275476D01*
X209040714Y-106323095D01*
X208945476Y-106370714D01*
X208897857Y-106370714D01*
X208802619Y-106323095D01*
X208755000Y-106275476D01*
X208707380Y-106180238D01*
X208707380Y-105989761D01*
X208755000Y-105894523D01*
X208802619Y-105846904D01*
X208897857Y-105799285D01*
X208945476Y-105799285D01*
X209040714Y-105846904D01*
X209088333Y-105894523D01*
X209135952Y-105989761D01*
X209135952Y-106180238D01*
X209183571Y-106275476D01*
X209231190Y-106323095D01*
X209326428Y-106370714D01*
X209516904Y-106370714D01*
X209612142Y-106323095D01*
X209659761Y-106275476D01*
X209707380Y-106180238D01*
X209707380Y-105989761D01*
X209659761Y-105894523D01*
X209612142Y-105846904D01*
X209516904Y-105799285D01*
X209326428Y-105799285D01*
X209231190Y-105846904D01*
X209183571Y-105894523D01*
X209135952Y-105989761D01*
X207167380Y-106751666D02*
X206691190Y-107085000D01*
X207167380Y-107323095D02*
X206167380Y-107323095D01*
X206167380Y-106942142D01*
X206215000Y-106846904D01*
X206262619Y-106799285D01*
X206357857Y-106751666D01*
X206500714Y-106751666D01*
X206595952Y-106799285D01*
X206643571Y-106846904D01*
X206691190Y-106942142D01*
X206691190Y-107323095D01*
X206167380Y-106418333D02*
X207167380Y-105751666D01*
X206167380Y-105751666D02*
X207167380Y-106418333D01*
X203627380Y-107346904D02*
X203627380Y-106775476D01*
X204627380Y-107061190D02*
X203627380Y-107061190D01*
X203627380Y-106537380D02*
X204627380Y-105870714D01*
X203627380Y-105870714D02*
X204627380Y-106537380D01*
X201135000Y-106323095D02*
X201087380Y-106418333D01*
X201087380Y-106561190D01*
X201135000Y-106704047D01*
X201230238Y-106799285D01*
X201325476Y-106846904D01*
X201515952Y-106894523D01*
X201658809Y-106894523D01*
X201849285Y-106846904D01*
X201944523Y-106799285D01*
X202039761Y-106704047D01*
X202087380Y-106561190D01*
X202087380Y-106465952D01*
X202039761Y-106323095D01*
X201992142Y-106275476D01*
X201658809Y-106275476D01*
X201658809Y-106465952D01*
X198547380Y-107346904D02*
X198547380Y-106727857D01*
X198928333Y-107061190D01*
X198928333Y-106918333D01*
X198975952Y-106823095D01*
X199023571Y-106775476D01*
X199118809Y-106727857D01*
X199356904Y-106727857D01*
X199452142Y-106775476D01*
X199499761Y-106823095D01*
X199547380Y-106918333D01*
X199547380Y-107204047D01*
X199499761Y-107299285D01*
X199452142Y-107346904D01*
X198547380Y-106442142D02*
X199547380Y-106108809D01*
X198547380Y-105775476D01*
X234821666Y-84439285D02*
X234821666Y-83963095D01*
X235107380Y-84534523D02*
X234107380Y-84201190D01*
X235107380Y-83867857D01*
X234107380Y-83344047D02*
X234107380Y-83248809D01*
X234155000Y-83153571D01*
X234202619Y-83105952D01*
X234297857Y-83058333D01*
X234488333Y-83010714D01*
X234726428Y-83010714D01*
X234916904Y-83058333D01*
X235012142Y-83105952D01*
X235059761Y-83153571D01*
X235107380Y-83248809D01*
X235107380Y-83344047D01*
X235059761Y-83439285D01*
X235012142Y-83486904D01*
X234916904Y-83534523D01*
X234726428Y-83582142D01*
X234488333Y-83582142D01*
X234297857Y-83534523D01*
X234202619Y-83486904D01*
X234155000Y-83439285D01*
X234107380Y-83344047D01*
X232567380Y-84320238D02*
X232091190Y-84653571D01*
X232567380Y-84891666D02*
X231567380Y-84891666D01*
X231567380Y-84510714D01*
X231615000Y-84415476D01*
X231662619Y-84367857D01*
X231757857Y-84320238D01*
X231900714Y-84320238D01*
X231995952Y-84367857D01*
X232043571Y-84415476D01*
X232091190Y-84510714D01*
X232091190Y-84891666D01*
X232519761Y-83939285D02*
X232567380Y-83796428D01*
X232567380Y-83558333D01*
X232519761Y-83463095D01*
X232472142Y-83415476D01*
X232376904Y-83367857D01*
X232281666Y-83367857D01*
X232186428Y-83415476D01*
X232138809Y-83463095D01*
X232091190Y-83558333D01*
X232043571Y-83748809D01*
X231995952Y-83844047D01*
X231948333Y-83891666D01*
X231853095Y-83939285D01*
X231757857Y-83939285D01*
X231662619Y-83891666D01*
X231615000Y-83844047D01*
X231567380Y-83748809D01*
X231567380Y-83510714D01*
X231615000Y-83367857D01*
X231567380Y-83082142D02*
X232567380Y-82748809D01*
X231567380Y-82415476D01*
X230027380Y-84320238D02*
X229551190Y-84653571D01*
X230027380Y-84891666D02*
X229027380Y-84891666D01*
X229027380Y-84510714D01*
X229075000Y-84415476D01*
X229122619Y-84367857D01*
X229217857Y-84320238D01*
X229360714Y-84320238D01*
X229455952Y-84367857D01*
X229503571Y-84415476D01*
X229551190Y-84510714D01*
X229551190Y-84891666D01*
X229979761Y-83939285D02*
X230027380Y-83796428D01*
X230027380Y-83558333D01*
X229979761Y-83463095D01*
X229932142Y-83415476D01*
X229836904Y-83367857D01*
X229741666Y-83367857D01*
X229646428Y-83415476D01*
X229598809Y-83463095D01*
X229551190Y-83558333D01*
X229503571Y-83748809D01*
X229455952Y-83844047D01*
X229408333Y-83891666D01*
X229313095Y-83939285D01*
X229217857Y-83939285D01*
X229122619Y-83891666D01*
X229075000Y-83844047D01*
X229027380Y-83748809D01*
X229027380Y-83510714D01*
X229075000Y-83367857D01*
X229027380Y-83082142D02*
X230027380Y-82748809D01*
X229027380Y-82415476D01*
X227439761Y-84486904D02*
X227487380Y-84344047D01*
X227487380Y-84105952D01*
X227439761Y-84010714D01*
X227392142Y-83963095D01*
X227296904Y-83915476D01*
X227201666Y-83915476D01*
X227106428Y-83963095D01*
X227058809Y-84010714D01*
X227011190Y-84105952D01*
X226963571Y-84296428D01*
X226915952Y-84391666D01*
X226868333Y-84439285D01*
X226773095Y-84486904D01*
X226677857Y-84486904D01*
X226582619Y-84439285D01*
X226535000Y-84391666D01*
X226487380Y-84296428D01*
X226487380Y-84058333D01*
X226535000Y-83915476D01*
X226487380Y-83582142D02*
X226487380Y-82963095D01*
X226868333Y-83296428D01*
X226868333Y-83153571D01*
X226915952Y-83058333D01*
X226963571Y-83010714D01*
X227058809Y-82963095D01*
X227296904Y-82963095D01*
X227392142Y-83010714D01*
X227439761Y-83058333D01*
X227487380Y-83153571D01*
X227487380Y-83439285D01*
X227439761Y-83534523D01*
X227392142Y-83582142D01*
X224899761Y-84486904D02*
X224947380Y-84344047D01*
X224947380Y-84105952D01*
X224899761Y-84010714D01*
X224852142Y-83963095D01*
X224756904Y-83915476D01*
X224661666Y-83915476D01*
X224566428Y-83963095D01*
X224518809Y-84010714D01*
X224471190Y-84105952D01*
X224423571Y-84296428D01*
X224375952Y-84391666D01*
X224328333Y-84439285D01*
X224233095Y-84486904D01*
X224137857Y-84486904D01*
X224042619Y-84439285D01*
X223995000Y-84391666D01*
X223947380Y-84296428D01*
X223947380Y-84058333D01*
X223995000Y-83915476D01*
X224042619Y-83534523D02*
X223995000Y-83486904D01*
X223947380Y-83391666D01*
X223947380Y-83153571D01*
X223995000Y-83058333D01*
X224042619Y-83010714D01*
X224137857Y-82963095D01*
X224233095Y-82963095D01*
X224375952Y-83010714D01*
X224947380Y-83582142D01*
X224947380Y-82963095D01*
X222359761Y-84486904D02*
X222407380Y-84344047D01*
X222407380Y-84105952D01*
X222359761Y-84010714D01*
X222312142Y-83963095D01*
X222216904Y-83915476D01*
X222121666Y-83915476D01*
X222026428Y-83963095D01*
X221978809Y-84010714D01*
X221931190Y-84105952D01*
X221883571Y-84296428D01*
X221835952Y-84391666D01*
X221788333Y-84439285D01*
X221693095Y-84486904D01*
X221597857Y-84486904D01*
X221502619Y-84439285D01*
X221455000Y-84391666D01*
X221407380Y-84296428D01*
X221407380Y-84058333D01*
X221455000Y-83915476D01*
X222407380Y-82963095D02*
X222407380Y-83534523D01*
X222407380Y-83248809D02*
X221407380Y-83248809D01*
X221550238Y-83344047D01*
X221645476Y-83439285D01*
X221693095Y-83534523D01*
X219819761Y-84510714D02*
X219867380Y-84367857D01*
X219867380Y-84129761D01*
X219819761Y-84034523D01*
X219772142Y-83986904D01*
X219676904Y-83939285D01*
X219581666Y-83939285D01*
X219486428Y-83986904D01*
X219438809Y-84034523D01*
X219391190Y-84129761D01*
X219343571Y-84320238D01*
X219295952Y-84415476D01*
X219248333Y-84463095D01*
X219153095Y-84510714D01*
X219057857Y-84510714D01*
X218962619Y-84463095D01*
X218915000Y-84415476D01*
X218867380Y-84320238D01*
X218867380Y-84082142D01*
X218915000Y-83939285D01*
X219772142Y-82939285D02*
X219819761Y-82986904D01*
X219867380Y-83129761D01*
X219867380Y-83225000D01*
X219819761Y-83367857D01*
X219724523Y-83463095D01*
X219629285Y-83510714D01*
X219438809Y-83558333D01*
X219295952Y-83558333D01*
X219105476Y-83510714D01*
X219010238Y-83463095D01*
X218915000Y-83367857D01*
X218867380Y-83225000D01*
X218867380Y-83129761D01*
X218915000Y-82986904D01*
X218962619Y-82939285D01*
X217279761Y-84534523D02*
X217327380Y-84391666D01*
X217327380Y-84153571D01*
X217279761Y-84058333D01*
X217232142Y-84010714D01*
X217136904Y-83963095D01*
X217041666Y-83963095D01*
X216946428Y-84010714D01*
X216898809Y-84058333D01*
X216851190Y-84153571D01*
X216803571Y-84344047D01*
X216755952Y-84439285D01*
X216708333Y-84486904D01*
X216613095Y-84534523D01*
X216517857Y-84534523D01*
X216422619Y-84486904D01*
X216375000Y-84439285D01*
X216327380Y-84344047D01*
X216327380Y-84105952D01*
X216375000Y-83963095D01*
X216327380Y-83344047D02*
X216327380Y-83153571D01*
X216375000Y-83058333D01*
X216470238Y-82963095D01*
X216660714Y-82915476D01*
X216994047Y-82915476D01*
X217184523Y-82963095D01*
X217279761Y-83058333D01*
X217327380Y-83153571D01*
X217327380Y-83344047D01*
X217279761Y-83439285D01*
X217184523Y-83534523D01*
X216994047Y-83582142D01*
X216660714Y-83582142D01*
X216470238Y-83534523D01*
X216375000Y-83439285D01*
X216327380Y-83344047D01*
X214739761Y-84510714D02*
X214787380Y-84367857D01*
X214787380Y-84129761D01*
X214739761Y-84034523D01*
X214692142Y-83986904D01*
X214596904Y-83939285D01*
X214501666Y-83939285D01*
X214406428Y-83986904D01*
X214358809Y-84034523D01*
X214311190Y-84129761D01*
X214263571Y-84320238D01*
X214215952Y-84415476D01*
X214168333Y-84463095D01*
X214073095Y-84510714D01*
X213977857Y-84510714D01*
X213882619Y-84463095D01*
X213835000Y-84415476D01*
X213787380Y-84320238D01*
X213787380Y-84082142D01*
X213835000Y-83939285D01*
X214787380Y-83510714D02*
X213787380Y-83510714D01*
X214787380Y-82939285D02*
X214215952Y-83367857D01*
X213787380Y-82939285D02*
X214358809Y-83510714D01*
X211295000Y-83463095D02*
X211247380Y-83558333D01*
X211247380Y-83701190D01*
X211295000Y-83844047D01*
X211390238Y-83939285D01*
X211485476Y-83986904D01*
X211675952Y-84034523D01*
X211818809Y-84034523D01*
X212009285Y-83986904D01*
X212104523Y-83939285D01*
X212199761Y-83844047D01*
X212247380Y-83701190D01*
X212247380Y-83605952D01*
X212199761Y-83463095D01*
X212152142Y-83415476D01*
X211818809Y-83415476D01*
X211818809Y-83605952D01*
X208707380Y-84486904D02*
X208707380Y-83867857D01*
X209088333Y-84201190D01*
X209088333Y-84058333D01*
X209135952Y-83963095D01*
X209183571Y-83915476D01*
X209278809Y-83867857D01*
X209516904Y-83867857D01*
X209612142Y-83915476D01*
X209659761Y-83963095D01*
X209707380Y-84058333D01*
X209707380Y-84344047D01*
X209659761Y-84439285D01*
X209612142Y-84486904D01*
X208707380Y-83582142D02*
X209707380Y-83248809D01*
X208707380Y-82915476D01*
X206643571Y-84463095D02*
X206643571Y-84129761D01*
X207167380Y-83986904D02*
X207167380Y-84463095D01*
X206167380Y-84463095D01*
X206167380Y-83986904D01*
X207167380Y-83558333D02*
X206167380Y-83558333D01*
X207167380Y-82986904D01*
X206167380Y-82986904D01*
X204627380Y-84272619D02*
X204151190Y-84605952D01*
X204627380Y-84844047D02*
X203627380Y-84844047D01*
X203627380Y-84463095D01*
X203675000Y-84367857D01*
X203722619Y-84320238D01*
X203817857Y-84272619D01*
X203960714Y-84272619D01*
X204055952Y-84320238D01*
X204103571Y-84367857D01*
X204151190Y-84463095D01*
X204151190Y-84844047D01*
X204579761Y-83891666D02*
X204627380Y-83748809D01*
X204627380Y-83510714D01*
X204579761Y-83415476D01*
X204532142Y-83367857D01*
X204436904Y-83320238D01*
X204341666Y-83320238D01*
X204246428Y-83367857D01*
X204198809Y-83415476D01*
X204151190Y-83510714D01*
X204103571Y-83701190D01*
X204055952Y-83796428D01*
X204008333Y-83844047D01*
X203913095Y-83891666D01*
X203817857Y-83891666D01*
X203722619Y-83844047D01*
X203675000Y-83796428D01*
X203627380Y-83701190D01*
X203627380Y-83463095D01*
X203675000Y-83320238D01*
X203627380Y-83034523D02*
X203627380Y-82463095D01*
X204627380Y-82748809D02*
X203627380Y-82748809D01*
X201135000Y-83463095D02*
X201087380Y-83558333D01*
X201087380Y-83701190D01*
X201135000Y-83844047D01*
X201230238Y-83939285D01*
X201325476Y-83986904D01*
X201515952Y-84034523D01*
X201658809Y-84034523D01*
X201849285Y-83986904D01*
X201944523Y-83939285D01*
X202039761Y-83844047D01*
X202087380Y-83701190D01*
X202087380Y-83605952D01*
X202039761Y-83463095D01*
X201992142Y-83415476D01*
X201658809Y-83415476D01*
X201658809Y-83605952D01*
X198547380Y-84820238D02*
X199547380Y-84486904D01*
X198547380Y-84153571D01*
X199547380Y-83820238D02*
X198547380Y-83820238D01*
X199547380Y-83344047D02*
X198547380Y-83344047D01*
X199547380Y-82772619D01*
X198547380Y-82772619D01*
D10*
X185652380Y-110361904D02*
X186461904Y-110361904D01*
X186557142Y-110314285D01*
X186604761Y-110266666D01*
X186652380Y-110171428D01*
X186652380Y-109980952D01*
X186604761Y-109885714D01*
X186557142Y-109838095D01*
X186461904Y-109790476D01*
X185652380Y-109790476D01*
X186652380Y-108790476D02*
X186652380Y-109361904D01*
X186652380Y-109076190D02*
X185652380Y-109076190D01*
X185795238Y-109171428D01*
X185890476Y-109266666D01*
X185938095Y-109361904D01*
X185652380Y-110361904D02*
X186461904Y-110361904D01*
X186557142Y-110314285D01*
X186604761Y-110266666D01*
X186652380Y-110171428D01*
X186652380Y-109980952D01*
X186604761Y-109885714D01*
X186557142Y-109838095D01*
X186461904Y-109790476D01*
X185652380Y-109790476D01*
X186652380Y-108790476D02*
X186652380Y-109361904D01*
X186652380Y-109076190D02*
X185652380Y-109076190D01*
X185795238Y-109171428D01*
X185890476Y-109266666D01*
X185938095Y-109361904D01*
X178791904Y-90942380D02*
X178791904Y-89942380D01*
X179030000Y-89942380D01*
X179172857Y-89990000D01*
X179268095Y-90085238D01*
X179315714Y-90180476D01*
X179363333Y-90370952D01*
X179363333Y-90513809D01*
X179315714Y-90704285D01*
X179268095Y-90799523D01*
X179172857Y-90894761D01*
X179030000Y-90942380D01*
X178791904Y-90942380D01*
X180315714Y-90942380D02*
X179744285Y-90942380D01*
X180030000Y-90942380D02*
X180030000Y-89942380D01*
X179934761Y-90085238D01*
X179839523Y-90180476D01*
X179744285Y-90228095D01*
X182233333Y-95357142D02*
X182185714Y-95404761D01*
X182042857Y-95452380D01*
X181947619Y-95452380D01*
X181804761Y-95404761D01*
X181709523Y-95309523D01*
X181661904Y-95214285D01*
X181614285Y-95023809D01*
X181614285Y-94880952D01*
X181661904Y-94690476D01*
X181709523Y-94595238D01*
X181804761Y-94500000D01*
X181947619Y-94452380D01*
X182042857Y-94452380D01*
X182185714Y-94500000D01*
X182233333Y-94547619D01*
X182566666Y-94452380D02*
X183185714Y-94452380D01*
X182852380Y-94833333D01*
X182995238Y-94833333D01*
X183090476Y-94880952D01*
X183138095Y-94928571D01*
X183185714Y-95023809D01*
X183185714Y-95261904D01*
X183138095Y-95357142D01*
X183090476Y-95404761D01*
X182995238Y-95452380D01*
X182709523Y-95452380D01*
X182614285Y-95404761D01*
X182566666Y-95357142D01*
X178544433Y-95530942D02*
X178496814Y-95578561D01*
X178353957Y-95626180D01*
X178258719Y-95626180D01*
X178115861Y-95578561D01*
X178020623Y-95483323D01*
X177973004Y-95388085D01*
X177925385Y-95197609D01*
X177925385Y-95054752D01*
X177973004Y-94864276D01*
X178020623Y-94769038D01*
X178115861Y-94673800D01*
X178258719Y-94626180D01*
X178353957Y-94626180D01*
X178496814Y-94673800D01*
X178544433Y-94721419D01*
X178877766Y-94626180D02*
X179496814Y-94626180D01*
X179163480Y-95007133D01*
X179306338Y-95007133D01*
X179401576Y-95054752D01*
X179449195Y-95102371D01*
X179496814Y-95197609D01*
X179496814Y-95435704D01*
X179449195Y-95530942D01*
X179401576Y-95578561D01*
X179306338Y-95626180D01*
X179020623Y-95626180D01*
X178925385Y-95578561D01*
X178877766Y-95530942D01*
X167913333Y-111387142D02*
X167865714Y-111434761D01*
X167722857Y-111482380D01*
X167627619Y-111482380D01*
X167484761Y-111434761D01*
X167389523Y-111339523D01*
X167341904Y-111244285D01*
X167294285Y-111053809D01*
X167294285Y-110910952D01*
X167341904Y-110720476D01*
X167389523Y-110625238D01*
X167484761Y-110530000D01*
X167627619Y-110482380D01*
X167722857Y-110482380D01*
X167865714Y-110530000D01*
X167913333Y-110577619D01*
X168818095Y-110482380D02*
X168341904Y-110482380D01*
X168294285Y-110958571D01*
X168341904Y-110910952D01*
X168437142Y-110863333D01*
X168675238Y-110863333D01*
X168770476Y-110910952D01*
X168818095Y-110958571D01*
X168865714Y-111053809D01*
X168865714Y-111291904D01*
X168818095Y-111387142D01*
X168770476Y-111434761D01*
X168675238Y-111482380D01*
X168437142Y-111482380D01*
X168341904Y-111434761D01*
X168294285Y-111387142D01*
D13*
X168308571Y-108573333D02*
X168332380Y-108597142D01*
X168356190Y-108668571D01*
X168356190Y-108716190D01*
X168332380Y-108787619D01*
X168284761Y-108835238D01*
X168237142Y-108859047D01*
X168141904Y-108882857D01*
X168070476Y-108882857D01*
X167975238Y-108859047D01*
X167927619Y-108835238D01*
X167880000Y-108787619D01*
X167856190Y-108716190D01*
X167856190Y-108668571D01*
X167880000Y-108597142D01*
X167903809Y-108573333D01*
X167856190Y-108120952D02*
X167856190Y-108359047D01*
X168094285Y-108382857D01*
X168070476Y-108359047D01*
X168046666Y-108311428D01*
X168046666Y-108192380D01*
X168070476Y-108144761D01*
X168094285Y-108120952D01*
X168141904Y-108097142D01*
X168260952Y-108097142D01*
X168308571Y-108120952D01*
X168332380Y-108144761D01*
X168356190Y-108192380D01*
X168356190Y-108311428D01*
X168332380Y-108359047D01*
X168308571Y-108382857D01*
D10*
X173563333Y-111447142D02*
X173515714Y-111494761D01*
X173372857Y-111542380D01*
X173277619Y-111542380D01*
X173134761Y-111494761D01*
X173039523Y-111399523D01*
X172991904Y-111304285D01*
X172944285Y-111113809D01*
X172944285Y-110970952D01*
X172991904Y-110780476D01*
X173039523Y-110685238D01*
X173134761Y-110590000D01*
X173277619Y-110542380D01*
X173372857Y-110542380D01*
X173515714Y-110590000D01*
X173563333Y-110637619D01*
X174420476Y-110542380D02*
X174230000Y-110542380D01*
X174134761Y-110590000D01*
X174087142Y-110637619D01*
X173991904Y-110780476D01*
X173944285Y-110970952D01*
X173944285Y-111351904D01*
X173991904Y-111447142D01*
X174039523Y-111494761D01*
X174134761Y-111542380D01*
X174325238Y-111542380D01*
X174420476Y-111494761D01*
X174468095Y-111447142D01*
X174515714Y-111351904D01*
X174515714Y-111113809D01*
X174468095Y-111018571D01*
X174420476Y-110970952D01*
X174325238Y-110923333D01*
X174134761Y-110923333D01*
X174039523Y-110970952D01*
X173991904Y-111018571D01*
X173944285Y-111113809D01*
D13*
X173916171Y-108573333D02*
X173939980Y-108597142D01*
X173963790Y-108668571D01*
X173963790Y-108716190D01*
X173939980Y-108787619D01*
X173892361Y-108835238D01*
X173844742Y-108859047D01*
X173749504Y-108882857D01*
X173678076Y-108882857D01*
X173582838Y-108859047D01*
X173535219Y-108835238D01*
X173487600Y-108787619D01*
X173463790Y-108716190D01*
X173463790Y-108668571D01*
X173487600Y-108597142D01*
X173511409Y-108573333D01*
X173463790Y-108144761D02*
X173463790Y-108240000D01*
X173487600Y-108287619D01*
X173511409Y-108311428D01*
X173582838Y-108359047D01*
X173678076Y-108382857D01*
X173868552Y-108382857D01*
X173916171Y-108359047D01*
X173939980Y-108335238D01*
X173963790Y-108287619D01*
X173963790Y-108192380D01*
X173939980Y-108144761D01*
X173916171Y-108120952D01*
X173868552Y-108097142D01*
X173749504Y-108097142D01*
X173701885Y-108120952D01*
X173678076Y-108144761D01*
X173654266Y-108192380D01*
X173654266Y-108287619D01*
X173678076Y-108335238D01*
X173701885Y-108359047D01*
X173749504Y-108382857D01*
D10*
X179103333Y-111347142D02*
X179055714Y-111394761D01*
X178912857Y-111442380D01*
X178817619Y-111442380D01*
X178674761Y-111394761D01*
X178579523Y-111299523D01*
X178531904Y-111204285D01*
X178484285Y-111013809D01*
X178484285Y-110870952D01*
X178531904Y-110680476D01*
X178579523Y-110585238D01*
X178674761Y-110490000D01*
X178817619Y-110442380D01*
X178912857Y-110442380D01*
X179055714Y-110490000D01*
X179103333Y-110537619D01*
X179674761Y-110870952D02*
X179579523Y-110823333D01*
X179531904Y-110775714D01*
X179484285Y-110680476D01*
X179484285Y-110632857D01*
X179531904Y-110537619D01*
X179579523Y-110490000D01*
X179674761Y-110442380D01*
X179865238Y-110442380D01*
X179960476Y-110490000D01*
X180008095Y-110537619D01*
X180055714Y-110632857D01*
X180055714Y-110680476D01*
X180008095Y-110775714D01*
X179960476Y-110823333D01*
X179865238Y-110870952D01*
X179674761Y-110870952D01*
X179579523Y-110918571D01*
X179531904Y-110966190D01*
X179484285Y-111061428D01*
X179484285Y-111251904D01*
X179531904Y-111347142D01*
X179579523Y-111394761D01*
X179674761Y-111442380D01*
X179865238Y-111442380D01*
X179960476Y-111394761D01*
X180008095Y-111347142D01*
X180055714Y-111251904D01*
X180055714Y-111061428D01*
X180008095Y-110966190D01*
X179960476Y-110918571D01*
X179865238Y-110870952D01*
D13*
X179523771Y-108573333D02*
X179547580Y-108597142D01*
X179571390Y-108668571D01*
X179571390Y-108716190D01*
X179547580Y-108787619D01*
X179499961Y-108835238D01*
X179452342Y-108859047D01*
X179357104Y-108882857D01*
X179285676Y-108882857D01*
X179190438Y-108859047D01*
X179142819Y-108835238D01*
X179095200Y-108787619D01*
X179071390Y-108716190D01*
X179071390Y-108668571D01*
X179095200Y-108597142D01*
X179119009Y-108573333D01*
X179285676Y-108287619D02*
X179261866Y-108335238D01*
X179238057Y-108359047D01*
X179190438Y-108382857D01*
X179166628Y-108382857D01*
X179119009Y-108359047D01*
X179095200Y-108335238D01*
X179071390Y-108287619D01*
X179071390Y-108192380D01*
X179095200Y-108144761D01*
X179119009Y-108120952D01*
X179166628Y-108097142D01*
X179190438Y-108097142D01*
X179238057Y-108120952D01*
X179261866Y-108144761D01*
X179285676Y-108192380D01*
X179285676Y-108287619D01*
X179309485Y-108335238D01*
X179333295Y-108359047D01*
X179380914Y-108382857D01*
X179476152Y-108382857D01*
X179523771Y-108359047D01*
X179547580Y-108335238D01*
X179571390Y-108287619D01*
X179571390Y-108192380D01*
X179547580Y-108144761D01*
X179523771Y-108120952D01*
X179476152Y-108097142D01*
X179380914Y-108097142D01*
X179333295Y-108120952D01*
X179309485Y-108144761D01*
X179285676Y-108192380D01*
D10*
X171551904Y-98472380D02*
X171551904Y-97472380D01*
X171790000Y-97472380D01*
X171932857Y-97520000D01*
X172028095Y-97615238D01*
X172075714Y-97710476D01*
X172123333Y-97900952D01*
X172123333Y-98043809D01*
X172075714Y-98234285D01*
X172028095Y-98329523D01*
X171932857Y-98424761D01*
X171790000Y-98472380D01*
X171551904Y-98472380D01*
X172504285Y-97567619D02*
X172551904Y-97520000D01*
X172647142Y-97472380D01*
X172885238Y-97472380D01*
X172980476Y-97520000D01*
X173028095Y-97567619D01*
X173075714Y-97662857D01*
X173075714Y-97758095D01*
X173028095Y-97900952D01*
X172456666Y-98472380D01*
X173075714Y-98472380D01*
X187541904Y-79522380D02*
X187541904Y-78522380D01*
X187780000Y-78522380D01*
X187922857Y-78570000D01*
X188018095Y-78665238D01*
X188065714Y-78760476D01*
X188113333Y-78950952D01*
X188113333Y-79093809D01*
X188065714Y-79284285D01*
X188018095Y-79379523D01*
X187922857Y-79474761D01*
X187780000Y-79522380D01*
X187541904Y-79522380D01*
X188446666Y-78522380D02*
X189065714Y-78522380D01*
X188732380Y-78903333D01*
X188875238Y-78903333D01*
X188970476Y-78950952D01*
X189018095Y-78998571D01*
X189065714Y-79093809D01*
X189065714Y-79331904D01*
X189018095Y-79427142D01*
X188970476Y-79474761D01*
X188875238Y-79522380D01*
X188589523Y-79522380D01*
X188494285Y-79474761D01*
X188446666Y-79427142D01*
X187521904Y-79552380D02*
X187521904Y-78552380D01*
X187760000Y-78552380D01*
X187902857Y-78600000D01*
X187998095Y-78695238D01*
X188045714Y-78790476D01*
X188093333Y-78980952D01*
X188093333Y-79123809D01*
X188045714Y-79314285D01*
X187998095Y-79409523D01*
X187902857Y-79504761D01*
X187760000Y-79552380D01*
X187521904Y-79552380D01*
X188426666Y-78552380D02*
X189045714Y-78552380D01*
X188712380Y-78933333D01*
X188855238Y-78933333D01*
X188950476Y-78980952D01*
X188998095Y-79028571D01*
X189045714Y-79123809D01*
X189045714Y-79361904D01*
X188998095Y-79457142D01*
X188950476Y-79504761D01*
X188855238Y-79552380D01*
X188569523Y-79552380D01*
X188474285Y-79504761D01*
X188426666Y-79457142D01*
D11*
X176158095Y-78362380D02*
X176158095Y-77362380D01*
X176729523Y-78362380D02*
X176300952Y-77790952D01*
X176729523Y-77362380D02*
X176158095Y-77933809D01*
D10*
X158651904Y-95292380D02*
X158651904Y-94292380D01*
X158890000Y-94292380D01*
X159032857Y-94340000D01*
X159128095Y-94435238D01*
X159175714Y-94530476D01*
X159223333Y-94720952D01*
X159223333Y-94863809D01*
X159175714Y-95054285D01*
X159128095Y-95149523D01*
X159032857Y-95244761D01*
X158890000Y-95292380D01*
X158651904Y-95292380D01*
X160080476Y-94625714D02*
X160080476Y-95292380D01*
X159842380Y-94244761D02*
X159604285Y-94959047D01*
X160223333Y-94959047D01*
D11*
X158578895Y-97409480D02*
X158578895Y-96409480D01*
X159150323Y-97409480D02*
X158721752Y-96838052D01*
X159150323Y-96409480D02*
X158578895Y-96980909D01*
D10*
X152061904Y-96282380D02*
X152061904Y-95282380D01*
X152300000Y-95282380D01*
X152442857Y-95330000D01*
X152538095Y-95425238D01*
X152585714Y-95520476D01*
X152633333Y-95710952D01*
X152633333Y-95853809D01*
X152585714Y-96044285D01*
X152538095Y-96139523D01*
X152442857Y-96234761D01*
X152300000Y-96282380D01*
X152061904Y-96282380D01*
X153490476Y-95615714D02*
X153490476Y-96282380D01*
X153252380Y-95234761D02*
X153014285Y-95949047D01*
X153633333Y-95949047D01*
X177366666Y-74862380D02*
X177366666Y-75576666D01*
X177319047Y-75719523D01*
X177223809Y-75814761D01*
X177080952Y-75862380D01*
X176985714Y-75862380D01*
X178366666Y-75862380D02*
X177795238Y-75862380D01*
X178080952Y-75862380D02*
X178080952Y-74862380D01*
X177985714Y-75005238D01*
X177890476Y-75100476D01*
X177795238Y-75148095D01*
D11*
X181646190Y-76277619D02*
X181550952Y-76230000D01*
X181455714Y-76134761D01*
X181312857Y-75991904D01*
X181217619Y-75944285D01*
X181122380Y-75944285D01*
X181170000Y-76182380D02*
X181074761Y-76134761D01*
X180979523Y-76039523D01*
X180931904Y-75849047D01*
X180931904Y-75515714D01*
X180979523Y-75325238D01*
X181074761Y-75230000D01*
X181170000Y-75182380D01*
X181360476Y-75182380D01*
X181455714Y-75230000D01*
X181550952Y-75325238D01*
X181598571Y-75515714D01*
X181598571Y-75849047D01*
X181550952Y-76039523D01*
X181455714Y-76134761D01*
X181360476Y-76182380D01*
X181170000Y-76182380D01*
X182598571Y-76182380D02*
X182265238Y-75706190D01*
X182027142Y-76182380D02*
X182027142Y-75182380D01*
X182408095Y-75182380D01*
X182503333Y-75230000D01*
X182550952Y-75277619D01*
X182598571Y-75372857D01*
X182598571Y-75515714D01*
X182550952Y-75610952D01*
X182503333Y-75658571D01*
X182408095Y-75706190D01*
X182027142Y-75706190D01*
X182979523Y-76134761D02*
X183122380Y-76182380D01*
X183360476Y-76182380D01*
X183455714Y-76134761D01*
X183503333Y-76087142D01*
X183550952Y-75991904D01*
X183550952Y-75896666D01*
X183503333Y-75801428D01*
X183455714Y-75753809D01*
X183360476Y-75706190D01*
X183170000Y-75658571D01*
X183074761Y-75610952D01*
X183027142Y-75563333D01*
X182979523Y-75468095D01*
X182979523Y-75372857D01*
X183027142Y-75277619D01*
X183074761Y-75230000D01*
X183170000Y-75182380D01*
X183408095Y-75182380D01*
X183550952Y-75230000D01*
X183884285Y-75515714D02*
X184074761Y-76182380D01*
X184265238Y-75706190D01*
X184455714Y-76182380D01*
X184646190Y-75515714D01*
X185027142Y-76182380D02*
X185027142Y-75515714D01*
X185027142Y-75182380D02*
X184979523Y-75230000D01*
X185027142Y-75277619D01*
X185074761Y-75230000D01*
X185027142Y-75182380D01*
X185027142Y-75277619D01*
X185360476Y-75515714D02*
X185741428Y-75515714D01*
X185503333Y-75182380D02*
X185503333Y-76039523D01*
X185550952Y-76134761D01*
X185646190Y-76182380D01*
X185741428Y-76182380D01*
X186503333Y-76134761D02*
X186408095Y-76182380D01*
X186217619Y-76182380D01*
X186122380Y-76134761D01*
X186074761Y-76087142D01*
X186027142Y-75991904D01*
X186027142Y-75706190D01*
X186074761Y-75610952D01*
X186122380Y-75563333D01*
X186217619Y-75515714D01*
X186408095Y-75515714D01*
X186503333Y-75563333D01*
X186931904Y-76182380D02*
X186931904Y-75182380D01*
X187360476Y-76182380D02*
X187360476Y-75658571D01*
X187312857Y-75563333D01*
X187217619Y-75515714D01*
X187074761Y-75515714D01*
X186979523Y-75563333D01*
X186931904Y-75610952D01*
D10*
X181835466Y-70191380D02*
X181835466Y-70905666D01*
X181787847Y-71048523D01*
X181692609Y-71143761D01*
X181549752Y-71191380D01*
X181454514Y-71191380D01*
X182835466Y-71191380D02*
X182264038Y-71191380D01*
X182549752Y-71191380D02*
X182549752Y-70191380D01*
X182454514Y-70334238D01*
X182359276Y-70429476D01*
X182264038Y-70477095D01*
X220666666Y-75252380D02*
X220666666Y-75966666D01*
X220619047Y-76109523D01*
X220523809Y-76204761D01*
X220380952Y-76252380D01*
X220285714Y-76252380D01*
X221095238Y-75347619D02*
X221142857Y-75300000D01*
X221238095Y-75252380D01*
X221476190Y-75252380D01*
X221571428Y-75300000D01*
X221619047Y-75347619D01*
X221666666Y-75442857D01*
X221666666Y-75538095D01*
X221619047Y-75680952D01*
X221047619Y-76252380D01*
X221666666Y-76252380D01*
D11*
X217066666Y-77604761D02*
X217209523Y-77652380D01*
X217447619Y-77652380D01*
X217542857Y-77604761D01*
X217590476Y-77557142D01*
X217638095Y-77461904D01*
X217638095Y-77366666D01*
X217590476Y-77271428D01*
X217542857Y-77223809D01*
X217447619Y-77176190D01*
X217257142Y-77128571D01*
X217161904Y-77080952D01*
X217114285Y-77033333D01*
X217066666Y-76938095D01*
X217066666Y-76842857D01*
X217114285Y-76747619D01*
X217161904Y-76700000D01*
X217257142Y-76652380D01*
X217495238Y-76652380D01*
X217638095Y-76700000D01*
X218495238Y-77604761D02*
X218400000Y-77652380D01*
X218209523Y-77652380D01*
X218114285Y-77604761D01*
X218066666Y-77557142D01*
X218019047Y-77461904D01*
X218019047Y-77176190D01*
X218066666Y-77080952D01*
X218114285Y-77033333D01*
X218209523Y-76985714D01*
X218400000Y-76985714D01*
X218495238Y-77033333D01*
X218923809Y-77652380D02*
X218923809Y-76985714D01*
X218923809Y-77176190D02*
X218971428Y-77080952D01*
X219019047Y-77033333D01*
X219114285Y-76985714D01*
X219209523Y-76985714D01*
X219923809Y-77604761D02*
X219828571Y-77652380D01*
X219638095Y-77652380D01*
X219542857Y-77604761D01*
X219495238Y-77509523D01*
X219495238Y-77128571D01*
X219542857Y-77033333D01*
X219638095Y-76985714D01*
X219828571Y-76985714D01*
X219923809Y-77033333D01*
X219971428Y-77128571D01*
X219971428Y-77223809D01*
X219495238Y-77319047D01*
X220780952Y-77604761D02*
X220685714Y-77652380D01*
X220495238Y-77652380D01*
X220400000Y-77604761D01*
X220352380Y-77509523D01*
X220352380Y-77128571D01*
X220400000Y-77033333D01*
X220495238Y-76985714D01*
X220685714Y-76985714D01*
X220780952Y-77033333D01*
X220828571Y-77128571D01*
X220828571Y-77223809D01*
X220352380Y-77319047D01*
X221257142Y-76985714D02*
X221257142Y-77652380D01*
X221257142Y-77080952D02*
X221304761Y-77033333D01*
X221400000Y-76985714D01*
X221542857Y-76985714D01*
X221638095Y-77033333D01*
X221685714Y-77128571D01*
X221685714Y-77652380D01*
D10*
X220666666Y-75252380D02*
X220666666Y-75966666D01*
X220619047Y-76109523D01*
X220523809Y-76204761D01*
X220380952Y-76252380D01*
X220285714Y-76252380D01*
X221095238Y-75347619D02*
X221142857Y-75300000D01*
X221238095Y-75252380D01*
X221476190Y-75252380D01*
X221571428Y-75300000D01*
X221619047Y-75347619D01*
X221666666Y-75442857D01*
X221666666Y-75538095D01*
X221619047Y-75680952D01*
X221047619Y-76252380D01*
X221666666Y-76252380D01*
X159466666Y-67652380D02*
X159466666Y-68366666D01*
X159419047Y-68509523D01*
X159323809Y-68604761D01*
X159180952Y-68652380D01*
X159085714Y-68652380D01*
X159847619Y-67652380D02*
X160466666Y-67652380D01*
X160133333Y-68033333D01*
X160276190Y-68033333D01*
X160371428Y-68080952D01*
X160419047Y-68128571D01*
X160466666Y-68223809D01*
X160466666Y-68461904D01*
X160419047Y-68557142D01*
X160371428Y-68604761D01*
X160276190Y-68652380D01*
X159990476Y-68652380D01*
X159895238Y-68604761D01*
X159847619Y-68557142D01*
D11*
X154209523Y-70652380D02*
X154209523Y-69652380D01*
X154685714Y-70652380D02*
X154685714Y-69985714D01*
X154685714Y-70176190D02*
X154733333Y-70080952D01*
X154780952Y-70033333D01*
X154876190Y-69985714D01*
X154971428Y-69985714D01*
X155304761Y-70652380D02*
X155304761Y-69985714D01*
X155304761Y-70176190D02*
X155352380Y-70080952D01*
X155400000Y-70033333D01*
X155495238Y-69985714D01*
X155590476Y-69985714D01*
X155923809Y-70652380D02*
X155923809Y-69985714D01*
X155923809Y-69652380D02*
X155876190Y-69700000D01*
X155923809Y-69747619D01*
X155971428Y-69700000D01*
X155923809Y-69652380D01*
X155923809Y-69747619D01*
X156828571Y-69985714D02*
X156828571Y-70795238D01*
X156780952Y-70890476D01*
X156733333Y-70938095D01*
X156638095Y-70985714D01*
X156495238Y-70985714D01*
X156400000Y-70938095D01*
X156828571Y-70604761D02*
X156733333Y-70652380D01*
X156542857Y-70652380D01*
X156447619Y-70604761D01*
X156400000Y-70557142D01*
X156352380Y-70461904D01*
X156352380Y-70176190D01*
X156400000Y-70080952D01*
X156447619Y-70033333D01*
X156542857Y-69985714D01*
X156733333Y-69985714D01*
X156828571Y-70033333D01*
X157733333Y-70652380D02*
X157733333Y-70128571D01*
X157685714Y-70033333D01*
X157590476Y-69985714D01*
X157400000Y-69985714D01*
X157304761Y-70033333D01*
X157733333Y-70604761D02*
X157638095Y-70652380D01*
X157400000Y-70652380D01*
X157304761Y-70604761D01*
X157257142Y-70509523D01*
X157257142Y-70414285D01*
X157304761Y-70319047D01*
X157400000Y-70271428D01*
X157638095Y-70271428D01*
X157733333Y-70223809D01*
X158066666Y-69985714D02*
X158447619Y-69985714D01*
X158209523Y-69652380D02*
X158209523Y-70509523D01*
X158257142Y-70604761D01*
X158352380Y-70652380D01*
X158447619Y-70652380D01*
X158780952Y-70652380D02*
X158780952Y-69985714D01*
X158780952Y-69652380D02*
X158733333Y-69700000D01*
X158780952Y-69747619D01*
X158828571Y-69700000D01*
X158780952Y-69652380D01*
X158780952Y-69747619D01*
X159400000Y-70652380D02*
X159304761Y-70604761D01*
X159257142Y-70557142D01*
X159209523Y-70461904D01*
X159209523Y-70176190D01*
X159257142Y-70080952D01*
X159304761Y-70033333D01*
X159400000Y-69985714D01*
X159542857Y-69985714D01*
X159638095Y-70033333D01*
X159685714Y-70080952D01*
X159733333Y-70176190D01*
X159733333Y-70461904D01*
X159685714Y-70557142D01*
X159638095Y-70604761D01*
X159542857Y-70652380D01*
X159400000Y-70652380D01*
X160161904Y-69985714D02*
X160161904Y-70652380D01*
X160161904Y-70080952D02*
X160209523Y-70033333D01*
X160304761Y-69985714D01*
X160447619Y-69985714D01*
X160542857Y-70033333D01*
X160590476Y-70128571D01*
X160590476Y-70652380D01*
D10*
X168729066Y-70191380D02*
X168729066Y-70905666D01*
X168681447Y-71048523D01*
X168586209Y-71143761D01*
X168443352Y-71191380D01*
X168348114Y-71191380D01*
X169110019Y-70191380D02*
X169729066Y-70191380D01*
X169395733Y-70572333D01*
X169538590Y-70572333D01*
X169633828Y-70619952D01*
X169681447Y-70667571D01*
X169729066Y-70762809D01*
X169729066Y-71000904D01*
X169681447Y-71096142D01*
X169633828Y-71143761D01*
X169538590Y-71191380D01*
X169252876Y-71191380D01*
X169157638Y-71143761D01*
X169110019Y-71096142D01*
X231286666Y-75122380D02*
X231286666Y-75836666D01*
X231239047Y-75979523D01*
X231143809Y-76074761D01*
X231000952Y-76122380D01*
X230905714Y-76122380D01*
X232191428Y-75455714D02*
X232191428Y-76122380D01*
X231953333Y-75074761D02*
X231715238Y-75789047D01*
X232334285Y-75789047D01*
D11*
X228068571Y-77068571D02*
X228401904Y-77068571D01*
X228544761Y-77592380D02*
X228068571Y-77592380D01*
X228068571Y-76592380D01*
X228544761Y-76592380D01*
X228973333Y-76925714D02*
X228973333Y-77592380D01*
X228973333Y-77020952D02*
X229020952Y-76973333D01*
X229116190Y-76925714D01*
X229259047Y-76925714D01*
X229354285Y-76973333D01*
X229401904Y-77068571D01*
X229401904Y-77592380D01*
X229782857Y-76925714D02*
X230020952Y-77592380D01*
X230259047Y-76925714D01*
X230592380Y-77544761D02*
X230735238Y-77592380D01*
X230973333Y-77592380D01*
X231068571Y-77544761D01*
X231116190Y-77497142D01*
X231163809Y-77401904D01*
X231163809Y-77306666D01*
X231116190Y-77211428D01*
X231068571Y-77163809D01*
X230973333Y-77116190D01*
X230782857Y-77068571D01*
X230687619Y-77020952D01*
X230640000Y-76973333D01*
X230592380Y-76878095D01*
X230592380Y-76782857D01*
X230640000Y-76687619D01*
X230687619Y-76640000D01*
X230782857Y-76592380D01*
X231020952Y-76592380D01*
X231163809Y-76640000D01*
X231973333Y-77544761D02*
X231878095Y-77592380D01*
X231687619Y-77592380D01*
X231592380Y-77544761D01*
X231544761Y-77449523D01*
X231544761Y-77068571D01*
X231592380Y-76973333D01*
X231687619Y-76925714D01*
X231878095Y-76925714D01*
X231973333Y-76973333D01*
X232020952Y-77068571D01*
X232020952Y-77163809D01*
X231544761Y-77259047D01*
X232449523Y-76925714D02*
X232449523Y-77592380D01*
X232449523Y-77020952D02*
X232497142Y-76973333D01*
X232592380Y-76925714D01*
X232735238Y-76925714D01*
X232830476Y-76973333D01*
X232878095Y-77068571D01*
X232878095Y-77592380D01*
X233306666Y-77544761D02*
X233401904Y-77592380D01*
X233592380Y-77592380D01*
X233687619Y-77544761D01*
X233735238Y-77449523D01*
X233735238Y-77401904D01*
X233687619Y-77306666D01*
X233592380Y-77259047D01*
X233449523Y-77259047D01*
X233354285Y-77211428D01*
X233306666Y-77116190D01*
X233306666Y-77068571D01*
X233354285Y-76973333D01*
X233449523Y-76925714D01*
X233592380Y-76925714D01*
X233687619Y-76973333D01*
X234306666Y-77592380D02*
X234211428Y-77544761D01*
X234163809Y-77497142D01*
X234116190Y-77401904D01*
X234116190Y-77116190D01*
X234163809Y-77020952D01*
X234211428Y-76973333D01*
X234306666Y-76925714D01*
X234449523Y-76925714D01*
X234544761Y-76973333D01*
X234592380Y-77020952D01*
X234640000Y-77116190D01*
X234640000Y-77401904D01*
X234592380Y-77497142D01*
X234544761Y-77544761D01*
X234449523Y-77592380D01*
X234306666Y-77592380D01*
X235068571Y-77592380D02*
X235068571Y-76925714D01*
X235068571Y-77116190D02*
X235116190Y-77020952D01*
X235163809Y-76973333D01*
X235259047Y-76925714D01*
X235354285Y-76925714D01*
D10*
X231306666Y-75092380D02*
X231306666Y-75806666D01*
X231259047Y-75949523D01*
X231163809Y-76044761D01*
X231020952Y-76092380D01*
X230925714Y-76092380D01*
X232211428Y-75425714D02*
X232211428Y-76092380D01*
X231973333Y-75044761D02*
X231735238Y-75759047D01*
X232354285Y-75759047D01*
X152195366Y-108862380D02*
X152195366Y-109576666D01*
X152147747Y-109719523D01*
X152052509Y-109814761D01*
X151909652Y-109862380D01*
X151814414Y-109862380D01*
X153147747Y-108862380D02*
X152671557Y-108862380D01*
X152623938Y-109338571D01*
X152671557Y-109290952D01*
X152766795Y-109243333D01*
X153004890Y-109243333D01*
X153100128Y-109290952D01*
X153147747Y-109338571D01*
X153195366Y-109433809D01*
X153195366Y-109671904D01*
X153147747Y-109767142D01*
X153100128Y-109814761D01*
X153004890Y-109862380D01*
X152766795Y-109862380D01*
X152671557Y-109814761D01*
X152623938Y-109767142D01*
D11*
X154592380Y-102216190D02*
X153592380Y-102216190D01*
X153592380Y-101835238D01*
X153640000Y-101740000D01*
X153687619Y-101692380D01*
X153782857Y-101644761D01*
X153925714Y-101644761D01*
X154020952Y-101692380D01*
X154068571Y-101740000D01*
X154116190Y-101835238D01*
X154116190Y-102216190D01*
X154592380Y-101073333D02*
X154544761Y-101168571D01*
X154497142Y-101216190D01*
X154401904Y-101263809D01*
X154116190Y-101263809D01*
X154020952Y-101216190D01*
X153973333Y-101168571D01*
X153925714Y-101073333D01*
X153925714Y-100930476D01*
X153973333Y-100835238D01*
X154020952Y-100787619D01*
X154116190Y-100740000D01*
X154401904Y-100740000D01*
X154497142Y-100787619D01*
X154544761Y-100835238D01*
X154592380Y-100930476D01*
X154592380Y-101073333D01*
X153925714Y-100406666D02*
X154592380Y-100216190D01*
X154116190Y-100025714D01*
X154592380Y-99835238D01*
X153925714Y-99644761D01*
X154544761Y-98882857D02*
X154592380Y-98978095D01*
X154592380Y-99168571D01*
X154544761Y-99263809D01*
X154449523Y-99311428D01*
X154068571Y-99311428D01*
X153973333Y-99263809D01*
X153925714Y-99168571D01*
X153925714Y-98978095D01*
X153973333Y-98882857D01*
X154068571Y-98835238D01*
X154163809Y-98835238D01*
X154259047Y-99311428D01*
X154592380Y-98406666D02*
X153925714Y-98406666D01*
X154116190Y-98406666D02*
X154020952Y-98359047D01*
X153973333Y-98311428D01*
X153925714Y-98216190D01*
X153925714Y-98120952D01*
D10*
X148812380Y-103546233D02*
X149526666Y-103546233D01*
X149669523Y-103593852D01*
X149764761Y-103689090D01*
X149812380Y-103831947D01*
X149812380Y-103927185D01*
X148812380Y-102593852D02*
X148812380Y-103070042D01*
X149288571Y-103117661D01*
X149240952Y-103070042D01*
X149193333Y-102974804D01*
X149193333Y-102736709D01*
X149240952Y-102641471D01*
X149288571Y-102593852D01*
X149383809Y-102546233D01*
X149621904Y-102546233D01*
X149717142Y-102593852D01*
X149764761Y-102641471D01*
X149812380Y-102736709D01*
X149812380Y-102974804D01*
X149764761Y-103070042D01*
X149717142Y-103117661D01*
X152345366Y-74636980D02*
X152345366Y-75351266D01*
X152297747Y-75494123D01*
X152202509Y-75589361D01*
X152059652Y-75636980D01*
X151964414Y-75636980D01*
X153250128Y-74636980D02*
X153059652Y-74636980D01*
X152964414Y-74684600D01*
X152916795Y-74732219D01*
X152821557Y-74875076D01*
X152773938Y-75065552D01*
X152773938Y-75446504D01*
X152821557Y-75541742D01*
X152869176Y-75589361D01*
X152964414Y-75636980D01*
X153154890Y-75636980D01*
X153250128Y-75589361D01*
X153297747Y-75541742D01*
X153345366Y-75446504D01*
X153345366Y-75208409D01*
X153297747Y-75113171D01*
X153250128Y-75065552D01*
X153154890Y-75017933D01*
X152964414Y-75017933D01*
X152869176Y-75065552D01*
X152821557Y-75113171D01*
X152773938Y-75208409D01*
D11*
X146221557Y-93636980D02*
X146221557Y-92636980D01*
X146602509Y-92636980D01*
X146697747Y-92684600D01*
X146745366Y-92732219D01*
X146792985Y-92827457D01*
X146792985Y-92970314D01*
X146745366Y-93065552D01*
X146697747Y-93113171D01*
X146602509Y-93160790D01*
X146221557Y-93160790D01*
X147650128Y-92970314D02*
X147650128Y-93636980D01*
X147221557Y-92970314D02*
X147221557Y-93494123D01*
X147269176Y-93589361D01*
X147364414Y-93636980D01*
X147507271Y-93636980D01*
X147602509Y-93589361D01*
X147650128Y-93541742D01*
X148126319Y-93636980D02*
X148126319Y-92970314D01*
X148126319Y-93065552D02*
X148173938Y-93017933D01*
X148269176Y-92970314D01*
X148412033Y-92970314D01*
X148507271Y-93017933D01*
X148554890Y-93113171D01*
X148554890Y-93636980D01*
X148554890Y-93113171D02*
X148602509Y-93017933D01*
X148697747Y-92970314D01*
X148840604Y-92970314D01*
X148935842Y-93017933D01*
X148983461Y-93113171D01*
X148983461Y-93636980D01*
X149459652Y-92970314D02*
X149459652Y-93970314D01*
X149459652Y-93017933D02*
X149554890Y-92970314D01*
X149745366Y-92970314D01*
X149840604Y-93017933D01*
X149888223Y-93065552D01*
X149935842Y-93160790D01*
X149935842Y-93446504D01*
X149888223Y-93541742D01*
X149840604Y-93589361D01*
X149745366Y-93636980D01*
X149554890Y-93636980D01*
X149459652Y-93589361D01*
X150935842Y-93636980D02*
X150602509Y-93160790D01*
X150364414Y-93636980D02*
X150364414Y-92636980D01*
X150745366Y-92636980D01*
X150840604Y-92684600D01*
X150888223Y-92732219D01*
X150935842Y-92827457D01*
X150935842Y-92970314D01*
X150888223Y-93065552D01*
X150840604Y-93113171D01*
X150745366Y-93160790D01*
X150364414Y-93160790D01*
X151745366Y-93589361D02*
X151650128Y-93636980D01*
X151459652Y-93636980D01*
X151364414Y-93589361D01*
X151316795Y-93494123D01*
X151316795Y-93113171D01*
X151364414Y-93017933D01*
X151459652Y-92970314D01*
X151650128Y-92970314D01*
X151745366Y-93017933D01*
X151792985Y-93113171D01*
X151792985Y-93208409D01*
X151316795Y-93303647D01*
X152364414Y-93636980D02*
X152269176Y-93589361D01*
X152221557Y-93494123D01*
X152221557Y-92636980D01*
X153173938Y-93636980D02*
X153173938Y-93113171D01*
X153126319Y-93017933D01*
X153031080Y-92970314D01*
X152840604Y-92970314D01*
X152745366Y-93017933D01*
X153173938Y-93589361D02*
X153078700Y-93636980D01*
X152840604Y-93636980D01*
X152745366Y-93589361D01*
X152697747Y-93494123D01*
X152697747Y-93398885D01*
X152745366Y-93303647D01*
X152840604Y-93256028D01*
X153078700Y-93256028D01*
X153173938Y-93208409D01*
X153554890Y-92970314D02*
X153792985Y-93636980D01*
X154031080Y-92970314D02*
X153792985Y-93636980D01*
X153697747Y-93875076D01*
X153650128Y-93922695D01*
X153554890Y-93970314D01*
D10*
X148812380Y-84163333D02*
X149526666Y-84163333D01*
X149669523Y-84210952D01*
X149764761Y-84306190D01*
X149812380Y-84449047D01*
X149812380Y-84544285D01*
X148812380Y-83258571D02*
X148812380Y-83449047D01*
X148860000Y-83544285D01*
X148907619Y-83591904D01*
X149050476Y-83687142D01*
X149240952Y-83734761D01*
X149621904Y-83734761D01*
X149717142Y-83687142D01*
X149764761Y-83639523D01*
X149812380Y-83544285D01*
X149812380Y-83353809D01*
X149764761Y-83258571D01*
X149717142Y-83210952D01*
X149621904Y-83163333D01*
X149383809Y-83163333D01*
X149288571Y-83210952D01*
X149240952Y-83258571D01*
X149193333Y-83353809D01*
X149193333Y-83544285D01*
X149240952Y-83639523D01*
X149288571Y-83687142D01*
X149383809Y-83734761D01*
X175894761Y-80757619D02*
X175799523Y-80710000D01*
X175704285Y-80614761D01*
X175561428Y-80471904D01*
X175466190Y-80424285D01*
X175370952Y-80424285D01*
X175418571Y-80662380D02*
X175323333Y-80614761D01*
X175228095Y-80519523D01*
X175180476Y-80329047D01*
X175180476Y-79995714D01*
X175228095Y-79805238D01*
X175323333Y-79710000D01*
X175418571Y-79662380D01*
X175609047Y-79662380D01*
X175704285Y-79710000D01*
X175799523Y-79805238D01*
X175847142Y-79995714D01*
X175847142Y-80329047D01*
X175799523Y-80519523D01*
X175704285Y-80614761D01*
X175609047Y-80662380D01*
X175418571Y-80662380D01*
X176799523Y-80662380D02*
X176228095Y-80662380D01*
X176513809Y-80662380D02*
X176513809Y-79662380D01*
X176418571Y-79805238D01*
X176323333Y-79900476D01*
X176228095Y-79948095D01*
X175894761Y-80757619D02*
X175799523Y-80710000D01*
X175704285Y-80614761D01*
X175561428Y-80471904D01*
X175466190Y-80424285D01*
X175370952Y-80424285D01*
X175418571Y-80662380D02*
X175323333Y-80614761D01*
X175228095Y-80519523D01*
X175180476Y-80329047D01*
X175180476Y-79995714D01*
X175228095Y-79805238D01*
X175323333Y-79710000D01*
X175418571Y-79662380D01*
X175609047Y-79662380D01*
X175704285Y-79710000D01*
X175799523Y-79805238D01*
X175847142Y-79995714D01*
X175847142Y-80329047D01*
X175799523Y-80519523D01*
X175704285Y-80614761D01*
X175609047Y-80662380D01*
X175418571Y-80662380D01*
X176799523Y-80662380D02*
X176228095Y-80662380D01*
X176513809Y-80662380D02*
X176513809Y-79662380D01*
X176418571Y-79805238D01*
X176323333Y-79900476D01*
X176228095Y-79948095D01*
X165372380Y-111416666D02*
X164896190Y-111750000D01*
X165372380Y-111988095D02*
X164372380Y-111988095D01*
X164372380Y-111607142D01*
X164420000Y-111511904D01*
X164467619Y-111464285D01*
X164562857Y-111416666D01*
X164705714Y-111416666D01*
X164800952Y-111464285D01*
X164848571Y-111511904D01*
X164896190Y-111607142D01*
X164896190Y-111988095D01*
X164372380Y-111083333D02*
X164372380Y-110464285D01*
X164753333Y-110797619D01*
X164753333Y-110654761D01*
X164800952Y-110559523D01*
X164848571Y-110511904D01*
X164943809Y-110464285D01*
X165181904Y-110464285D01*
X165277142Y-110511904D01*
X165324761Y-110559523D01*
X165372380Y-110654761D01*
X165372380Y-110940476D01*
X165324761Y-111035714D01*
X165277142Y-111083333D01*
D13*
X165126190Y-111333333D02*
X164888095Y-111500000D01*
X165126190Y-111619047D02*
X164626190Y-111619047D01*
X164626190Y-111428571D01*
X164650000Y-111380952D01*
X164673809Y-111357142D01*
X164721428Y-111333333D01*
X164792857Y-111333333D01*
X164840476Y-111357142D01*
X164864285Y-111380952D01*
X164888095Y-111428571D01*
X164888095Y-111619047D01*
X164626190Y-111166666D02*
X164626190Y-110857142D01*
X164816666Y-111023809D01*
X164816666Y-110952380D01*
X164840476Y-110904761D01*
X164864285Y-110880952D01*
X164911904Y-110857142D01*
X165030952Y-110857142D01*
X165078571Y-110880952D01*
X165102380Y-110904761D01*
X165126190Y-110952380D01*
X165126190Y-111095238D01*
X165102380Y-111142857D01*
X165078571Y-111166666D01*
D10*
X163442380Y-111376666D02*
X162966190Y-111710000D01*
X163442380Y-111948095D02*
X162442380Y-111948095D01*
X162442380Y-111567142D01*
X162490000Y-111471904D01*
X162537619Y-111424285D01*
X162632857Y-111376666D01*
X162775714Y-111376666D01*
X162870952Y-111424285D01*
X162918571Y-111471904D01*
X162966190Y-111567142D01*
X162966190Y-111948095D01*
X162775714Y-110519523D02*
X163442380Y-110519523D01*
X162394761Y-110757619D02*
X163109047Y-110995714D01*
X163109047Y-110376666D01*
D13*
X163256190Y-111253333D02*
X163018095Y-111420000D01*
X163256190Y-111539047D02*
X162756190Y-111539047D01*
X162756190Y-111348571D01*
X162780000Y-111300952D01*
X162803809Y-111277142D01*
X162851428Y-111253333D01*
X162922857Y-111253333D01*
X162970476Y-111277142D01*
X162994285Y-111300952D01*
X163018095Y-111348571D01*
X163018095Y-111539047D01*
X162922857Y-110824761D02*
X163256190Y-110824761D01*
X162732380Y-110943809D02*
X163089523Y-111062857D01*
X163089523Y-110753333D01*
D10*
X181638095Y-99252380D02*
X181638095Y-100061904D01*
X181685714Y-100157142D01*
X181733333Y-100204761D01*
X181828571Y-100252380D01*
X182019047Y-100252380D01*
X182114285Y-100204761D01*
X182161904Y-100157142D01*
X182209523Y-100061904D01*
X182209523Y-99252380D01*
X182590476Y-99252380D02*
X183209523Y-99252380D01*
X182876190Y-99633333D01*
X183019047Y-99633333D01*
X183114285Y-99680952D01*
X183161904Y-99728571D01*
X183209523Y-99823809D01*
X183209523Y-100061904D01*
X183161904Y-100157142D01*
X183114285Y-100204761D01*
X183019047Y-100252380D01*
X182733333Y-100252380D01*
X182638095Y-100204761D01*
X182590476Y-100157142D01*
X181638095Y-99252380D02*
X181638095Y-100061904D01*
X181685714Y-100157142D01*
X181733333Y-100204761D01*
X181828571Y-100252380D01*
X182019047Y-100252380D01*
X182114285Y-100204761D01*
X182161904Y-100157142D01*
X182209523Y-100061904D01*
X182209523Y-99252380D01*
X182590476Y-99252380D02*
X183209523Y-99252380D01*
X182876190Y-99633333D01*
X183019047Y-99633333D01*
X183114285Y-99680952D01*
X183161904Y-99728571D01*
X183209523Y-99823809D01*
X183209523Y-100061904D01*
X183161904Y-100157142D01*
X183114285Y-100204761D01*
X183019047Y-100252380D01*
X182733333Y-100252380D01*
X182638095Y-100204761D01*
X182590476Y-100157142D01*
X160438095Y-97852380D02*
X160438095Y-98661904D01*
X160485714Y-98757142D01*
X160533333Y-98804761D01*
X160628571Y-98852380D01*
X160819047Y-98852380D01*
X160914285Y-98804761D01*
X160961904Y-98757142D01*
X161009523Y-98661904D01*
X161009523Y-97852380D01*
X161914285Y-98185714D02*
X161914285Y-98852380D01*
X161676190Y-97804761D02*
X161438095Y-98519047D01*
X162057142Y-98519047D01*
X160438095Y-97852380D02*
X160438095Y-98661904D01*
X160485714Y-98757142D01*
X160533333Y-98804761D01*
X160628571Y-98852380D01*
X160819047Y-98852380D01*
X160914285Y-98804761D01*
X160961904Y-98757142D01*
X161009523Y-98661904D01*
X161009523Y-97852380D01*
X161914285Y-98185714D02*
X161914285Y-98852380D01*
X161676190Y-97804761D02*
X161438095Y-98519047D01*
X162057142Y-98519047D01*
X183903333Y-90852380D02*
X183570000Y-90376190D01*
X183331904Y-90852380D02*
X183331904Y-89852380D01*
X183712857Y-89852380D01*
X183808095Y-89900000D01*
X183855714Y-89947619D01*
X183903333Y-90042857D01*
X183903333Y-90185714D01*
X183855714Y-90280952D01*
X183808095Y-90328571D01*
X183712857Y-90376190D01*
X183331904Y-90376190D01*
X184855714Y-90852380D02*
X184284285Y-90852380D01*
X184570000Y-90852380D02*
X184570000Y-89852380D01*
X184474761Y-89995238D01*
X184379523Y-90090476D01*
X184284285Y-90138095D01*
D13*
X184964166Y-88806190D02*
X184797500Y-88568095D01*
X184678452Y-88806190D02*
X184678452Y-88306190D01*
X184868928Y-88306190D01*
X184916547Y-88330000D01*
X184940357Y-88353809D01*
X184964166Y-88401428D01*
X184964166Y-88472857D01*
X184940357Y-88520476D01*
X184916547Y-88544285D01*
X184868928Y-88568095D01*
X184678452Y-88568095D01*
X185440357Y-88806190D02*
X185154642Y-88806190D01*
X185297500Y-88806190D02*
X185297500Y-88306190D01*
X185249880Y-88377619D01*
X185202261Y-88425238D01*
X185154642Y-88449047D01*
D10*
X166484633Y-93925380D02*
X166151300Y-93449190D01*
X165913204Y-93925380D02*
X165913204Y-92925380D01*
X166294157Y-92925380D01*
X166389395Y-92973000D01*
X166437014Y-93020619D01*
X166484633Y-93115857D01*
X166484633Y-93258714D01*
X166437014Y-93353952D01*
X166389395Y-93401571D01*
X166294157Y-93449190D01*
X165913204Y-93449190D01*
X166865585Y-93020619D02*
X166913204Y-92973000D01*
X167008442Y-92925380D01*
X167246538Y-92925380D01*
X167341776Y-92973000D01*
X167389395Y-93020619D01*
X167437014Y-93115857D01*
X167437014Y-93211095D01*
X167389395Y-93353952D01*
X166817966Y-93925380D01*
X167437014Y-93925380D01*
D13*
X166516666Y-93826190D02*
X166350000Y-93588095D01*
X166230952Y-93826190D02*
X166230952Y-93326190D01*
X166421428Y-93326190D01*
X166469047Y-93350000D01*
X166492857Y-93373809D01*
X166516666Y-93421428D01*
X166516666Y-93492857D01*
X166492857Y-93540476D01*
X166469047Y-93564285D01*
X166421428Y-93588095D01*
X166230952Y-93588095D01*
X166707142Y-93373809D02*
X166730952Y-93350000D01*
X166778571Y-93326190D01*
X166897619Y-93326190D01*
X166945238Y-93350000D01*
X166969047Y-93373809D01*
X166992857Y-93421428D01*
X166992857Y-93469047D01*
X166969047Y-93540476D01*
X166683333Y-93826190D01*
X166992857Y-93826190D01*
D10*
X161492380Y-111356666D02*
X161016190Y-111690000D01*
X161492380Y-111928095D02*
X160492380Y-111928095D01*
X160492380Y-111547142D01*
X160540000Y-111451904D01*
X160587619Y-111404285D01*
X160682857Y-111356666D01*
X160825714Y-111356666D01*
X160920952Y-111404285D01*
X160968571Y-111451904D01*
X161016190Y-111547142D01*
X161016190Y-111928095D01*
X160492380Y-110451904D02*
X160492380Y-110928095D01*
X160968571Y-110975714D01*
X160920952Y-110928095D01*
X160873333Y-110832857D01*
X160873333Y-110594761D01*
X160920952Y-110499523D01*
X160968571Y-110451904D01*
X161063809Y-110404285D01*
X161301904Y-110404285D01*
X161397142Y-110451904D01*
X161444761Y-110499523D01*
X161492380Y-110594761D01*
X161492380Y-110832857D01*
X161444761Y-110928095D01*
X161397142Y-110975714D01*
D13*
X161226190Y-111223333D02*
X160988095Y-111390000D01*
X161226190Y-111509047D02*
X160726190Y-111509047D01*
X160726190Y-111318571D01*
X160750000Y-111270952D01*
X160773809Y-111247142D01*
X160821428Y-111223333D01*
X160892857Y-111223333D01*
X160940476Y-111247142D01*
X160964285Y-111270952D01*
X160988095Y-111318571D01*
X160988095Y-111509047D01*
X160726190Y-110770952D02*
X160726190Y-111009047D01*
X160964285Y-111032857D01*
X160940476Y-111009047D01*
X160916666Y-110961428D01*
X160916666Y-110842380D01*
X160940476Y-110794761D01*
X160964285Y-110770952D01*
X161011904Y-110747142D01*
X161130952Y-110747142D01*
X161178571Y-110770952D01*
X161202380Y-110794761D01*
X161226190Y-110842380D01*
X161226190Y-110961428D01*
X161202380Y-111009047D01*
X161178571Y-111032857D01*
D10*
X183983333Y-83702380D02*
X183650000Y-83226190D01*
X183411904Y-83702380D02*
X183411904Y-82702380D01*
X183792857Y-82702380D01*
X183888095Y-82750000D01*
X183935714Y-82797619D01*
X183983333Y-82892857D01*
X183983333Y-83035714D01*
X183935714Y-83130952D01*
X183888095Y-83178571D01*
X183792857Y-83226190D01*
X183411904Y-83226190D01*
X184840476Y-82702380D02*
X184650000Y-82702380D01*
X184554761Y-82750000D01*
X184507142Y-82797619D01*
X184411904Y-82940476D01*
X184364285Y-83130952D01*
X184364285Y-83511904D01*
X184411904Y-83607142D01*
X184459523Y-83654761D01*
X184554761Y-83702380D01*
X184745238Y-83702380D01*
X184840476Y-83654761D01*
X184888095Y-83607142D01*
X184935714Y-83511904D01*
X184935714Y-83273809D01*
X184888095Y-83178571D01*
X184840476Y-83130952D01*
X184745238Y-83083333D01*
X184554761Y-83083333D01*
X184459523Y-83130952D01*
X184411904Y-83178571D01*
X184364285Y-83273809D01*
D13*
X184964166Y-81776190D02*
X184797500Y-81538095D01*
X184678452Y-81776190D02*
X184678452Y-81276190D01*
X184868928Y-81276190D01*
X184916547Y-81300000D01*
X184940357Y-81323809D01*
X184964166Y-81371428D01*
X184964166Y-81442857D01*
X184940357Y-81490476D01*
X184916547Y-81514285D01*
X184868928Y-81538095D01*
X184678452Y-81538095D01*
X185392738Y-81276190D02*
X185297500Y-81276190D01*
X185249880Y-81300000D01*
X185226071Y-81323809D01*
X185178452Y-81395238D01*
X185154642Y-81490476D01*
X185154642Y-81680952D01*
X185178452Y-81728571D01*
X185202261Y-81752380D01*
X185249880Y-81776190D01*
X185345119Y-81776190D01*
X185392738Y-81752380D01*
X185416547Y-81728571D01*
X185440357Y-81680952D01*
X185440357Y-81561904D01*
X185416547Y-81514285D01*
X185392738Y-81490476D01*
X185345119Y-81466666D01*
X185249880Y-81466666D01*
X185202261Y-81490476D01*
X185178452Y-81514285D01*
X185154642Y-81561904D01*
D10*
X156163333Y-108527142D02*
X156115714Y-108574761D01*
X155972857Y-108622380D01*
X155877619Y-108622380D01*
X155734761Y-108574761D01*
X155639523Y-108479523D01*
X155591904Y-108384285D01*
X155544285Y-108193809D01*
X155544285Y-108050952D01*
X155591904Y-107860476D01*
X155639523Y-107765238D01*
X155734761Y-107670000D01*
X155877619Y-107622380D01*
X155972857Y-107622380D01*
X156115714Y-107670000D01*
X156163333Y-107717619D01*
X156544285Y-107717619D02*
X156591904Y-107670000D01*
X156687142Y-107622380D01*
X156925238Y-107622380D01*
X157020476Y-107670000D01*
X157068095Y-107717619D01*
X157115714Y-107812857D01*
X157115714Y-107908095D01*
X157068095Y-108050952D01*
X156496666Y-108622380D01*
X157115714Y-108622380D01*
X157067142Y-104886666D02*
X157114761Y-104934285D01*
X157162380Y-105077142D01*
X157162380Y-105172380D01*
X157114761Y-105315238D01*
X157019523Y-105410476D01*
X156924285Y-105458095D01*
X156733809Y-105505714D01*
X156590952Y-105505714D01*
X156400476Y-105458095D01*
X156305238Y-105410476D01*
X156210000Y-105315238D01*
X156162380Y-105172380D01*
X156162380Y-105077142D01*
X156210000Y-104934285D01*
X156257619Y-104886666D01*
X156257619Y-104505714D02*
X156210000Y-104458095D01*
X156162380Y-104362857D01*
X156162380Y-104124761D01*
X156210000Y-104029523D01*
X156257619Y-103981904D01*
X156352857Y-103934285D01*
X156448095Y-103934285D01*
X156590952Y-103981904D01*
X157162380Y-104553333D01*
X157162380Y-103934285D01*
X211391904Y-100382380D02*
X211391904Y-99382380D01*
X211630000Y-99382380D01*
X211772857Y-99430000D01*
X211868095Y-99525238D01*
X211915714Y-99620476D01*
X211963333Y-99810952D01*
X211963333Y-99953809D01*
X211915714Y-100144285D01*
X211868095Y-100239523D01*
X211772857Y-100334761D01*
X211630000Y-100382380D01*
X211391904Y-100382380D01*
X212868095Y-99382380D02*
X212391904Y-99382380D01*
X212344285Y-99858571D01*
X212391904Y-99810952D01*
X212487142Y-99763333D01*
X212725238Y-99763333D01*
X212820476Y-99810952D01*
X212868095Y-99858571D01*
X212915714Y-99953809D01*
X212915714Y-100191904D01*
X212868095Y-100287142D01*
X212820476Y-100334761D01*
X212725238Y-100382380D01*
X212487142Y-100382380D01*
X212391904Y-100334761D01*
X212344285Y-100287142D01*
D13*
X211630952Y-100226190D02*
X211630952Y-99726190D01*
X211750000Y-99726190D01*
X211821428Y-99750000D01*
X211869047Y-99797619D01*
X211892857Y-99845238D01*
X211916666Y-99940476D01*
X211916666Y-100011904D01*
X211892857Y-100107142D01*
X211869047Y-100154761D01*
X211821428Y-100202380D01*
X211750000Y-100226190D01*
X211630952Y-100226190D01*
X212369047Y-99726190D02*
X212130952Y-99726190D01*
X212107142Y-99964285D01*
X212130952Y-99940476D01*
X212178571Y-99916666D01*
X212297619Y-99916666D01*
X212345238Y-99940476D01*
X212369047Y-99964285D01*
X212392857Y-100011904D01*
X212392857Y-100130952D01*
X212369047Y-100178571D01*
X212345238Y-100202380D01*
X212297619Y-100226190D01*
X212178571Y-100226190D01*
X212130952Y-100202380D01*
X212107142Y-100178571D01*
D10*
X194899166Y-75052380D02*
X194899166Y-75766666D01*
X194851547Y-75909523D01*
X194756309Y-76004761D01*
X194613452Y-76052380D01*
X194518214Y-76052380D01*
X195280119Y-75052380D02*
X195946785Y-75052380D01*
X195518214Y-76052380D01*
D11*
X192660476Y-77587142D02*
X192612857Y-77634761D01*
X192470000Y-77682380D01*
X192374761Y-77682380D01*
X192231904Y-77634761D01*
X192136666Y-77539523D01*
X192089047Y-77444285D01*
X192041428Y-77253809D01*
X192041428Y-77110952D01*
X192089047Y-76920476D01*
X192136666Y-76825238D01*
X192231904Y-76730000D01*
X192374761Y-76682380D01*
X192470000Y-76682380D01*
X192612857Y-76730000D01*
X192660476Y-76777619D01*
X193231904Y-77682380D02*
X193136666Y-77634761D01*
X193089047Y-77587142D01*
X193041428Y-77491904D01*
X193041428Y-77206190D01*
X193089047Y-77110952D01*
X193136666Y-77063333D01*
X193231904Y-77015714D01*
X193374761Y-77015714D01*
X193470000Y-77063333D01*
X193517619Y-77110952D01*
X193565238Y-77206190D01*
X193565238Y-77491904D01*
X193517619Y-77587142D01*
X193470000Y-77634761D01*
X193374761Y-77682380D01*
X193231904Y-77682380D01*
X193993809Y-77015714D02*
X193993809Y-77682380D01*
X193993809Y-77110952D02*
X194041428Y-77063333D01*
X194136666Y-77015714D01*
X194279523Y-77015714D01*
X194374761Y-77063333D01*
X194422380Y-77158571D01*
X194422380Y-77682380D01*
X195327142Y-77682380D02*
X195327142Y-76682380D01*
X195327142Y-77634761D02*
X195231904Y-77682380D01*
X195041428Y-77682380D01*
X194946190Y-77634761D01*
X194898571Y-77587142D01*
X194850952Y-77491904D01*
X194850952Y-77206190D01*
X194898571Y-77110952D01*
X194946190Y-77063333D01*
X195041428Y-77015714D01*
X195231904Y-77015714D01*
X195327142Y-77063333D01*
X196231904Y-77015714D02*
X196231904Y-77682380D01*
X195803333Y-77015714D02*
X195803333Y-77539523D01*
X195850952Y-77634761D01*
X195946190Y-77682380D01*
X196089047Y-77682380D01*
X196184285Y-77634761D01*
X196231904Y-77587142D01*
X196565238Y-77015714D02*
X196946190Y-77015714D01*
X196708095Y-76682380D02*
X196708095Y-77539523D01*
X196755714Y-77634761D01*
X196850952Y-77682380D01*
X196946190Y-77682380D01*
X197279523Y-77682380D02*
X197279523Y-77015714D01*
X197279523Y-76682380D02*
X197231904Y-76730000D01*
X197279523Y-76777619D01*
X197327142Y-76730000D01*
X197279523Y-76682380D01*
X197279523Y-76777619D01*
X197660476Y-77015714D02*
X197898571Y-77682380D01*
X198136666Y-77015714D01*
X198517619Y-77682380D02*
X198517619Y-77015714D01*
X198517619Y-76682380D02*
X198470000Y-76730000D01*
X198517619Y-76777619D01*
X198565238Y-76730000D01*
X198517619Y-76682380D01*
X198517619Y-76777619D01*
X198850952Y-77015714D02*
X199231904Y-77015714D01*
X198993809Y-76682380D02*
X198993809Y-77539523D01*
X199041428Y-77634761D01*
X199136666Y-77682380D01*
X199231904Y-77682380D01*
X199470000Y-77015714D02*
X199708095Y-77682380D01*
X199946190Y-77015714D02*
X199708095Y-77682380D01*
X199612857Y-77920476D01*
X199565238Y-77968095D01*
X199470000Y-78015714D01*
D10*
X194929166Y-70191380D02*
X194929166Y-70905666D01*
X194881547Y-71048523D01*
X194786309Y-71143761D01*
X194643452Y-71191380D01*
X194548214Y-71191380D01*
X195310119Y-70191380D02*
X195976785Y-70191380D01*
X195548214Y-71191380D01*
X183943333Y-87322380D02*
X183610000Y-86846190D01*
X183371904Y-87322380D02*
X183371904Y-86322380D01*
X183752857Y-86322380D01*
X183848095Y-86370000D01*
X183895714Y-86417619D01*
X183943333Y-86512857D01*
X183943333Y-86655714D01*
X183895714Y-86750952D01*
X183848095Y-86798571D01*
X183752857Y-86846190D01*
X183371904Y-86846190D01*
X184276666Y-86322380D02*
X184943333Y-86322380D01*
X184514761Y-87322380D01*
D13*
X184964166Y-85291190D02*
X184797500Y-85053095D01*
X184678452Y-85291190D02*
X184678452Y-84791190D01*
X184868928Y-84791190D01*
X184916547Y-84815000D01*
X184940357Y-84838809D01*
X184964166Y-84886428D01*
X184964166Y-84957857D01*
X184940357Y-85005476D01*
X184916547Y-85029285D01*
X184868928Y-85053095D01*
X184678452Y-85053095D01*
X185130833Y-84791190D02*
X185464166Y-84791190D01*
X185249880Y-85291190D01*
D10*
X157700000Y-75702380D02*
X157366666Y-75226190D01*
X157128571Y-75702380D02*
X157128571Y-74702380D01*
X157509523Y-74702380D01*
X157604761Y-74750000D01*
X157652380Y-74797619D01*
X157700000Y-74892857D01*
X157700000Y-75035714D01*
X157652380Y-75130952D01*
X157604761Y-75178571D01*
X157509523Y-75226190D01*
X157128571Y-75226190D01*
X158604761Y-75702380D02*
X158128571Y-75702380D01*
X158128571Y-74702380D01*
X159128571Y-75226190D02*
X159128571Y-75702380D01*
X158795238Y-74702380D02*
X159128571Y-75226190D01*
X159461904Y-74702380D01*
X160319047Y-75702380D02*
X159747619Y-75702380D01*
X160033333Y-75702380D02*
X160033333Y-74702380D01*
X159938095Y-74845238D01*
X159842857Y-74940476D01*
X159747619Y-74988095D01*
X164786100Y-84373280D02*
X164452766Y-83897090D01*
X164214671Y-84373280D02*
X164214671Y-83373280D01*
X164595623Y-83373280D01*
X164690861Y-83420900D01*
X164738480Y-83468519D01*
X164786100Y-83563757D01*
X164786100Y-83706614D01*
X164738480Y-83801852D01*
X164690861Y-83849471D01*
X164595623Y-83897090D01*
X164214671Y-83897090D01*
X165690861Y-84373280D02*
X165214671Y-84373280D01*
X165214671Y-83373280D01*
X166214671Y-83897090D02*
X166214671Y-84373280D01*
X165881338Y-83373280D02*
X166214671Y-83897090D01*
X166548004Y-83373280D01*
X167405147Y-84373280D02*
X166833719Y-84373280D01*
X167119433Y-84373280D02*
X167119433Y-83373280D01*
X167024195Y-83516138D01*
X166928957Y-83611376D01*
X166833719Y-83658995D01*
%LPC*%
D14*
X234655000Y-109125000D03*
X232115000Y-109125000D03*
X229575000Y-109125000D03*
X227035000Y-109125000D03*
X224495000Y-109125000D03*
X221955000Y-109125000D03*
X219415000Y-109125000D03*
X216875000Y-109125000D03*
X214335000Y-109125000D03*
X211795000Y-109125000D03*
X209255000Y-109125000D03*
X206715000Y-109125000D03*
X204175000Y-109125000D03*
X201635000Y-109125000D03*
X199095000Y-109125000D03*
X199095000Y-81185000D03*
X201635000Y-81185000D03*
X204175000Y-81185000D03*
X206715000Y-81185000D03*
X209255000Y-81185000D03*
X211795000Y-81185000D03*
X214335000Y-81185000D03*
X216875000Y-81185000D03*
X219415000Y-81185000D03*
X221955000Y-81185000D03*
X224495000Y-81185000D03*
X227035000Y-81185000D03*
X229575000Y-81185000D03*
X232115000Y-81185000D03*
X234655000Y-81185000D03*
D15*
X216875000Y-106585000D03*
X214335000Y-106585000D03*
X211795000Y-106585000D03*
X209255000Y-106585000D03*
X206715000Y-106585000D03*
X204175000Y-106585000D03*
X201635000Y-106585000D03*
X199095000Y-106585000D03*
X199095000Y-83725000D03*
X201635000Y-83725000D03*
X204175000Y-83725000D03*
X206715000Y-83725000D03*
X209255000Y-83725000D03*
X211795000Y-83725000D03*
G36*
G01*
X215875000Y-82675000D02*
X217875000Y-82675000D01*
G75*
G02*
X217925000Y-82725000I0J-50000D01*
G01*
X217925000Y-84725000D01*
G75*
G02*
X217875000Y-84775000I-50000J0D01*
G01*
X215875000Y-84775000D01*
G75*
G02*
X215825000Y-84725000I0J50000D01*
G01*
X215825000Y-82725000D01*
G75*
G02*
X215875000Y-82675000I50000J0D01*
G01*
G37*
X214335000Y-83725000D03*
D16*
X180700500Y-87604000D03*
G36*
G01*
X177210500Y-88504000D02*
X177210500Y-86704000D01*
G75*
G02*
X177260500Y-86654000I50000J0D01*
G01*
X179060500Y-86654000D01*
G75*
G02*
X179110500Y-86704000I0J-50000D01*
G01*
X179110500Y-88504000D01*
G75*
G02*
X179060500Y-88554000I-50000J0D01*
G01*
X177260500Y-88554000D01*
G75*
G02*
X177210500Y-88504000I0J50000D01*
G01*
G37*
D17*
X177711100Y-95173800D03*
G36*
G01*
X180561100Y-94373800D02*
X180561100Y-95973800D01*
G75*
G02*
X180511100Y-96023800I-50000J0D01*
G01*
X178911100Y-96023800D01*
G75*
G02*
X178861100Y-95973800I0J50000D01*
G01*
X178861100Y-94373800D01*
G75*
G02*
X178911100Y-94323800I50000J0D01*
G01*
X180511100Y-94323800D01*
G75*
G02*
X180561100Y-94373800I0J-50000D01*
G01*
G37*
G36*
G01*
X168630000Y-109990000D02*
X167630000Y-109990000D01*
G75*
G02*
X167355000Y-109715000I0J275000D01*
G01*
X167355000Y-109165000D01*
G75*
G02*
X167630000Y-108890000I275000J0D01*
G01*
X168630000Y-108890000D01*
G75*
G02*
X168905000Y-109165000I0J-275000D01*
G01*
X168905000Y-109715000D01*
G75*
G02*
X168630000Y-109990000I-275000J0D01*
G01*
G37*
G36*
G01*
X168630000Y-108090000D02*
X167630000Y-108090000D01*
G75*
G02*
X167355000Y-107815000I0J275000D01*
G01*
X167355000Y-107265000D01*
G75*
G02*
X167630000Y-106990000I275000J0D01*
G01*
X168630000Y-106990000D01*
G75*
G02*
X168905000Y-107265000I0J-275000D01*
G01*
X168905000Y-107815000D01*
G75*
G02*
X168630000Y-108090000I-275000J0D01*
G01*
G37*
G36*
G01*
X174237600Y-108090000D02*
X173237600Y-108090000D01*
G75*
G02*
X172962600Y-107815000I0J275000D01*
G01*
X172962600Y-107265000D01*
G75*
G02*
X173237600Y-106990000I275000J0D01*
G01*
X174237600Y-106990000D01*
G75*
G02*
X174512600Y-107265000I0J-275000D01*
G01*
X174512600Y-107815000D01*
G75*
G02*
X174237600Y-108090000I-275000J0D01*
G01*
G37*
G36*
G01*
X174237600Y-109990000D02*
X173237600Y-109990000D01*
G75*
G02*
X172962600Y-109715000I0J275000D01*
G01*
X172962600Y-109165000D01*
G75*
G02*
X173237600Y-108890000I275000J0D01*
G01*
X174237600Y-108890000D01*
G75*
G02*
X174512600Y-109165000I0J-275000D01*
G01*
X174512600Y-109715000D01*
G75*
G02*
X174237600Y-109990000I-275000J0D01*
G01*
G37*
G36*
G01*
X179845200Y-108090000D02*
X178845200Y-108090000D01*
G75*
G02*
X178570200Y-107815000I0J275000D01*
G01*
X178570200Y-107265000D01*
G75*
G02*
X178845200Y-106990000I275000J0D01*
G01*
X179845200Y-106990000D01*
G75*
G02*
X180120200Y-107265000I0J-275000D01*
G01*
X180120200Y-107815000D01*
G75*
G02*
X179845200Y-108090000I-275000J0D01*
G01*
G37*
G36*
G01*
X179845200Y-109990000D02*
X178845200Y-109990000D01*
G75*
G02*
X178570200Y-109715000I0J275000D01*
G01*
X178570200Y-109165000D01*
G75*
G02*
X178845200Y-108890000I275000J0D01*
G01*
X179845200Y-108890000D01*
G75*
G02*
X180120200Y-109165000I0J-275000D01*
G01*
X180120200Y-109715000D01*
G75*
G02*
X179845200Y-109990000I-275000J0D01*
G01*
G37*
G36*
G01*
X169953900Y-95946800D02*
X169953900Y-94146800D01*
G75*
G02*
X170003900Y-94096800I50000J0D01*
G01*
X171803900Y-94096800D01*
G75*
G02*
X171853900Y-94146800I0J-50000D01*
G01*
X171853900Y-95946800D01*
G75*
G02*
X171803900Y-95996800I-50000J0D01*
G01*
X170003900Y-95996800D01*
G75*
G02*
X169953900Y-95946800I0J50000D01*
G01*
G37*
D16*
X173443900Y-95046800D03*
G36*
G01*
X177222500Y-79064200D02*
X177222500Y-76864200D01*
G75*
G02*
X177272500Y-76814200I50000J0D01*
G01*
X179472500Y-76814200D01*
G75*
G02*
X179522500Y-76864200I0J-50000D01*
G01*
X179522500Y-79064200D01*
G75*
G02*
X179472500Y-79114200I-50000J0D01*
G01*
X177272500Y-79114200D01*
G75*
G02*
X177222500Y-79064200I0J50000D01*
G01*
G37*
D18*
X185992500Y-77964200D03*
X149380000Y-95830000D03*
G36*
G01*
X158150000Y-94730000D02*
X158150000Y-96930000D01*
G75*
G02*
X158100000Y-96980000I-50000J0D01*
G01*
X155900000Y-96980000D01*
G75*
G02*
X155850000Y-96930000I0J50000D01*
G01*
X155850000Y-94730000D01*
G75*
G02*
X155900000Y-94680000I50000J0D01*
G01*
X158100000Y-94680000D01*
G75*
G02*
X158150000Y-94730000I0J-50000D01*
G01*
G37*
G36*
G01*
X178078800Y-72239000D02*
X178078800Y-69239000D01*
G75*
G02*
X178128800Y-69189000I50000J0D01*
G01*
X181128800Y-69189000D01*
G75*
G02*
X181178800Y-69239000I0J-50000D01*
G01*
X181178800Y-72239000D01*
G75*
G02*
X181128800Y-72289000I-50000J0D01*
G01*
X178128800Y-72289000D01*
G75*
G02*
X178078800Y-72239000I0J50000D01*
G01*
G37*
D19*
X184708800Y-70739000D03*
X221081600Y-70739000D03*
G36*
G01*
X204291600Y-72239000D02*
X204291600Y-69239000D01*
G75*
G02*
X204341600Y-69189000I50000J0D01*
G01*
X207341600Y-69189000D01*
G75*
G02*
X207391600Y-69239000I0J-50000D01*
G01*
X207391600Y-72239000D01*
G75*
G02*
X207341600Y-72289000I-50000J0D01*
G01*
X204341600Y-72289000D01*
G75*
G02*
X204291600Y-72239000I0J50000D01*
G01*
G37*
X216001600Y-70739000D03*
X210921600Y-70739000D03*
G36*
G01*
X162432400Y-72239000D02*
X162432400Y-69239000D01*
G75*
G02*
X162482400Y-69189000I50000J0D01*
G01*
X165482400Y-69189000D01*
G75*
G02*
X165532400Y-69239000I0J-50000D01*
G01*
X165532400Y-72239000D01*
G75*
G02*
X165482400Y-72289000I-50000J0D01*
G01*
X162482400Y-72289000D01*
G75*
G02*
X162432400Y-72239000I0J50000D01*
G01*
G37*
X169062400Y-70739000D03*
X174142400Y-70739000D03*
X241846100Y-70739000D03*
G36*
G01*
X225056100Y-72239000D02*
X225056100Y-69239000D01*
G75*
G02*
X225106100Y-69189000I50000J0D01*
G01*
X228106100Y-69189000D01*
G75*
G02*
X228156100Y-69239000I0J-50000D01*
G01*
X228156100Y-72239000D01*
G75*
G02*
X228106100Y-72289000I-50000J0D01*
G01*
X225106100Y-72289000D01*
G75*
G02*
X225056100Y-72239000I0J50000D01*
G01*
G37*
X236766100Y-70739000D03*
X231686100Y-70739000D03*
X149360000Y-105752900D03*
G36*
G01*
X147860000Y-99122900D02*
X150860000Y-99122900D01*
G75*
G02*
X150910000Y-99172900I0J-50000D01*
G01*
X150910000Y-102172900D01*
G75*
G02*
X150860000Y-102222900I-50000J0D01*
G01*
X147860000Y-102222900D01*
G75*
G02*
X147810000Y-102172900I0J50000D01*
G01*
X147810000Y-99172900D01*
G75*
G02*
X147860000Y-99122900I50000J0D01*
G01*
G37*
X149360000Y-78750000D03*
X149360000Y-83830000D03*
G36*
G01*
X150860000Y-90460000D02*
X147860000Y-90460000D01*
G75*
G02*
X147810000Y-90410000I0J50000D01*
G01*
X147810000Y-87410000D01*
G75*
G02*
X147860000Y-87360000I50000J0D01*
G01*
X150860000Y-87360000D01*
G75*
G02*
X150910000Y-87410000I0J-50000D01*
G01*
X150910000Y-90410000D01*
G75*
G02*
X150860000Y-90460000I-50000J0D01*
G01*
G37*
D20*
X180302900Y-82485400D03*
X179032900Y-83755400D03*
G36*
G01*
X178382900Y-80515400D02*
X179682900Y-80515400D01*
G75*
G02*
X179732900Y-80565400I0J-50000D01*
G01*
X179732900Y-81865400D01*
G75*
G02*
X179682900Y-81915400I-50000J0D01*
G01*
X178382900Y-81915400D01*
G75*
G02*
X178332900Y-81865400I0J50000D01*
G01*
X178332900Y-80565400D01*
G75*
G02*
X178382900Y-80515400I50000J0D01*
G01*
G37*
G36*
G01*
X164475089Y-108820000D02*
X165426311Y-108820000D01*
G75*
G02*
X165700700Y-109094389I0J-274389D01*
G01*
X165700700Y-109670611D01*
G75*
G02*
X165426311Y-109945000I-274389J0D01*
G01*
X164475089Y-109945000D01*
G75*
G02*
X164200700Y-109670611I0J274389D01*
G01*
X164200700Y-109094389D01*
G75*
G02*
X164475089Y-108820000I274389J0D01*
G01*
G37*
G36*
G01*
X164475089Y-106995000D02*
X165426311Y-106995000D01*
G75*
G02*
X165700700Y-107269389I0J-274389D01*
G01*
X165700700Y-107845611D01*
G75*
G02*
X165426311Y-108120000I-274389J0D01*
G01*
X164475089Y-108120000D01*
G75*
G02*
X164200700Y-107845611I0J274389D01*
G01*
X164200700Y-107269389D01*
G75*
G02*
X164475089Y-106995000I274389J0D01*
G01*
G37*
G36*
G01*
X162519289Y-106995000D02*
X163470511Y-106995000D01*
G75*
G02*
X163744900Y-107269389I0J-274389D01*
G01*
X163744900Y-107845611D01*
G75*
G02*
X163470511Y-108120000I-274389J0D01*
G01*
X162519289Y-108120000D01*
G75*
G02*
X162244900Y-107845611I0J274389D01*
G01*
X162244900Y-107269389D01*
G75*
G02*
X162519289Y-106995000I274389J0D01*
G01*
G37*
G36*
G01*
X162519289Y-108820000D02*
X163470511Y-108820000D01*
G75*
G02*
X163744900Y-109094389I0J-274389D01*
G01*
X163744900Y-109670611D01*
G75*
G02*
X163470511Y-109945000I-274389J0D01*
G01*
X162519289Y-109945000D01*
G75*
G02*
X162244900Y-109670611I0J274389D01*
G01*
X162244900Y-109094389D01*
G75*
G02*
X162519289Y-108820000I274389J0D01*
G01*
G37*
D21*
X178740000Y-102539800D03*
X176200000Y-102539800D03*
G36*
G01*
X172657500Y-103539800D02*
X172657500Y-101539800D01*
G75*
G02*
X172707500Y-101489800I50000J0D01*
G01*
X174612500Y-101489800D01*
G75*
G02*
X174662500Y-101539800I0J-50000D01*
G01*
X174662500Y-103539800D01*
G75*
G02*
X174612500Y-103589800I-50000J0D01*
G01*
X172707500Y-103589800D01*
G75*
G02*
X172657500Y-103539800I0J50000D01*
G01*
G37*
G36*
G01*
X161963900Y-103539800D02*
X161963900Y-101539800D01*
G75*
G02*
X162013900Y-101489800I50000J0D01*
G01*
X163918900Y-101489800D01*
G75*
G02*
X163968900Y-101539800I0J-50000D01*
G01*
X163968900Y-103539800D01*
G75*
G02*
X163918900Y-103589800I-50000J0D01*
G01*
X162013900Y-103589800D01*
G75*
G02*
X161963900Y-103539800I0J50000D01*
G01*
G37*
X165506400Y-102539800D03*
X168046400Y-102539800D03*
G36*
G01*
X186522500Y-88104389D02*
X186522500Y-89055611D01*
G75*
G02*
X186248111Y-89330000I-274389J0D01*
G01*
X185671889Y-89330000D01*
G75*
G02*
X185397500Y-89055611I0J274389D01*
G01*
X185397500Y-88104389D01*
G75*
G02*
X185671889Y-87830000I274389J0D01*
G01*
X186248111Y-87830000D01*
G75*
G02*
X186522500Y-88104389I0J-274389D01*
G01*
G37*
G36*
G01*
X184697500Y-88104389D02*
X184697500Y-89055611D01*
G75*
G02*
X184423111Y-89330000I-274389J0D01*
G01*
X183846889Y-89330000D01*
G75*
G02*
X183572500Y-89055611I0J274389D01*
G01*
X183572500Y-88104389D01*
G75*
G02*
X183846889Y-87830000I274389J0D01*
G01*
X184423111Y-87830000D01*
G75*
G02*
X184697500Y-88104389I0J-274389D01*
G01*
G37*
G36*
G01*
X167001300Y-95598611D02*
X167001300Y-94647389D01*
G75*
G02*
X167275689Y-94373000I274389J0D01*
G01*
X167851911Y-94373000D01*
G75*
G02*
X168126300Y-94647389I0J-274389D01*
G01*
X168126300Y-95598611D01*
G75*
G02*
X167851911Y-95873000I-274389J0D01*
G01*
X167275689Y-95873000D01*
G75*
G02*
X167001300Y-95598611I0J274389D01*
G01*
G37*
G36*
G01*
X165176300Y-95598611D02*
X165176300Y-94647389D01*
G75*
G02*
X165450689Y-94373000I274389J0D01*
G01*
X166026911Y-94373000D01*
G75*
G02*
X166301300Y-94647389I0J-274389D01*
G01*
X166301300Y-95598611D01*
G75*
G02*
X166026911Y-95873000I-274389J0D01*
G01*
X165450689Y-95873000D01*
G75*
G02*
X165176300Y-95598611I0J274389D01*
G01*
G37*
G36*
G01*
X160563489Y-106995000D02*
X161514711Y-106995000D01*
G75*
G02*
X161789100Y-107269389I0J-274389D01*
G01*
X161789100Y-107845611D01*
G75*
G02*
X161514711Y-108120000I-274389J0D01*
G01*
X160563489Y-108120000D01*
G75*
G02*
X160289100Y-107845611I0J274389D01*
G01*
X160289100Y-107269389D01*
G75*
G02*
X160563489Y-106995000I274389J0D01*
G01*
G37*
G36*
G01*
X160563489Y-108820000D02*
X161514711Y-108820000D01*
G75*
G02*
X161789100Y-109094389I0J-274389D01*
G01*
X161789100Y-109670611D01*
G75*
G02*
X161514711Y-109945000I-274389J0D01*
G01*
X160563489Y-109945000D01*
G75*
G02*
X160289100Y-109670611I0J274389D01*
G01*
X160289100Y-109094389D01*
G75*
G02*
X160563489Y-108820000I274389J0D01*
G01*
G37*
G36*
G01*
X185397500Y-82025611D02*
X185397500Y-81074389D01*
G75*
G02*
X185671889Y-80800000I274389J0D01*
G01*
X186248111Y-80800000D01*
G75*
G02*
X186522500Y-81074389I0J-274389D01*
G01*
X186522500Y-82025611D01*
G75*
G02*
X186248111Y-82300000I-274389J0D01*
G01*
X185671889Y-82300000D01*
G75*
G02*
X185397500Y-82025611I0J274389D01*
G01*
G37*
G36*
G01*
X183572500Y-82025611D02*
X183572500Y-81074389D01*
G75*
G02*
X183846889Y-80800000I274389J0D01*
G01*
X184423111Y-80800000D01*
G75*
G02*
X184697500Y-81074389I0J-274389D01*
G01*
X184697500Y-82025611D01*
G75*
G02*
X184423111Y-82300000I-274389J0D01*
G01*
X183846889Y-82300000D01*
G75*
G02*
X183572500Y-82025611I0J274389D01*
G01*
G37*
G36*
G01*
X155910000Y-102870000D02*
X157510000Y-102870000D01*
G75*
G02*
X157560000Y-102920000I0J-50000D01*
G01*
X157560000Y-104520000D01*
G75*
G02*
X157510000Y-104570000I-50000J0D01*
G01*
X155910000Y-104570000D01*
G75*
G02*
X155860000Y-104520000I0J50000D01*
G01*
X155860000Y-102920000D01*
G75*
G02*
X155910000Y-102870000I50000J0D01*
G01*
G37*
D17*
X156710000Y-105720000D03*
G36*
G01*
X213720000Y-95830000D02*
X214520000Y-95830000D01*
G75*
G02*
X214570000Y-95880000I0J-50000D01*
G01*
X214570000Y-96780000D01*
G75*
G02*
X214520000Y-96830000I-50000J0D01*
G01*
X213720000Y-96830000D01*
G75*
G02*
X213670000Y-96780000I0J50000D01*
G01*
X213670000Y-95880000D01*
G75*
G02*
X213720000Y-95830000I50000J0D01*
G01*
G37*
G36*
G01*
X211820000Y-95830000D02*
X212620000Y-95830000D01*
G75*
G02*
X212670000Y-95880000I0J-50000D01*
G01*
X212670000Y-96780000D01*
G75*
G02*
X212620000Y-96830000I-50000J0D01*
G01*
X211820000Y-96830000D01*
G75*
G02*
X211770000Y-96780000I0J50000D01*
G01*
X211770000Y-95880000D01*
G75*
G02*
X211820000Y-95830000I50000J0D01*
G01*
G37*
G36*
G01*
X212770000Y-97830000D02*
X213570000Y-97830000D01*
G75*
G02*
X213620000Y-97880000I0J-50000D01*
G01*
X213620000Y-98780000D01*
G75*
G02*
X213570000Y-98830000I-50000J0D01*
G01*
X212770000Y-98830000D01*
G75*
G02*
X212720000Y-98780000I0J50000D01*
G01*
X212720000Y-97880000D01*
G75*
G02*
X212770000Y-97830000I50000J0D01*
G01*
G37*
G36*
G01*
X188632500Y-72239000D02*
X188632500Y-69239000D01*
G75*
G02*
X188682500Y-69189000I50000J0D01*
G01*
X191682500Y-69189000D01*
G75*
G02*
X191732500Y-69239000I0J-50000D01*
G01*
X191732500Y-72239000D01*
G75*
G02*
X191682500Y-72289000I-50000J0D01*
G01*
X188682500Y-72289000D01*
G75*
G02*
X188632500Y-72239000I0J50000D01*
G01*
G37*
D19*
X195262500Y-70739000D03*
X200342500Y-70739000D03*
G36*
G01*
X186522500Y-84589389D02*
X186522500Y-85540611D01*
G75*
G02*
X186248111Y-85815000I-274389J0D01*
G01*
X185671889Y-85815000D01*
G75*
G02*
X185397500Y-85540611I0J274389D01*
G01*
X185397500Y-84589389D01*
G75*
G02*
X185671889Y-84315000I274389J0D01*
G01*
X186248111Y-84315000D01*
G75*
G02*
X186522500Y-84589389I0J-274389D01*
G01*
G37*
G36*
G01*
X184697500Y-84589389D02*
X184697500Y-85540611D01*
G75*
G02*
X184423111Y-85815000I-274389J0D01*
G01*
X183846889Y-85815000D01*
G75*
G02*
X183572500Y-85540611I0J274389D01*
G01*
X183572500Y-84589389D01*
G75*
G02*
X183846889Y-84315000I274389J0D01*
G01*
X184423111Y-84315000D01*
G75*
G02*
X184697500Y-84589389I0J-274389D01*
G01*
G37*
D22*
X170936100Y-77895900D03*
D19*
X158736100Y-77895900D03*
X158686100Y-89945900D03*
D22*
X170936100Y-89895900D03*
D19*
X172886100Y-83945900D03*
M02*
