%TF.GenerationSoftware,KiCad,Pcbnew,5.1.10*%
%TF.CreationDate,2021-06-17T09:11:18+01:00*%
%TF.ProjectId,controller,636f6e74-726f-46c6-9c65-722e6b696361,V0.2*%
%TF.SameCoordinates,Original*%
%TF.FileFunction,Copper,L2,Bot*%
%TF.FilePolarity,Positive*%
%FSLAX46Y46*%
G04 Gerber Fmt 4.6, Leading zero omitted, Abs format (unit mm)*
G04 Created by KiCad (PCBNEW 5.1.10) date 2021-06-17 09:11:18*
%MOMM*%
%LPD*%
G01*
G04 APERTURE LIST*
%TA.AperFunction,ComponentPad*%
%ADD10C,1.524000*%
%TD*%
%TA.AperFunction,ComponentPad*%
%ADD11O,1.600000X2.000000*%
%TD*%
%TA.AperFunction,ComponentPad*%
%ADD12R,2.000000X2.000000*%
%TD*%
%TA.AperFunction,ComponentPad*%
%ADD13C,1.800000*%
%TD*%
%TA.AperFunction,ComponentPad*%
%ADD14R,1.800000X1.800000*%
%TD*%
%TA.AperFunction,ComponentPad*%
%ADD15C,1.600000*%
%TD*%
%TA.AperFunction,ComponentPad*%
%ADD16R,1.600000X1.600000*%
%TD*%
%TA.AperFunction,ComponentPad*%
%ADD17R,2.200000X2.200000*%
%TD*%
%TA.AperFunction,ComponentPad*%
%ADD18O,2.200000X2.200000*%
%TD*%
%TA.AperFunction,ComponentPad*%
%ADD19R,3.000000X3.000000*%
%TD*%
%TA.AperFunction,ComponentPad*%
%ADD20C,3.000000*%
%TD*%
%TA.AperFunction,ComponentPad*%
%ADD21C,1.300000*%
%TD*%
%TA.AperFunction,ComponentPad*%
%ADD22R,1.300000X1.300000*%
%TD*%
%TA.AperFunction,ComponentPad*%
%ADD23O,1.905000X2.000000*%
%TD*%
%TA.AperFunction,ComponentPad*%
%ADD24R,1.905000X2.000000*%
%TD*%
%TA.AperFunction,ComponentPad*%
%ADD25C,2.500000*%
%TD*%
%TA.AperFunction,ViaPad*%
%ADD26C,4.500000*%
%TD*%
%TA.AperFunction,ViaPad*%
%ADD27C,0.500000*%
%TD*%
%TA.AperFunction,ViaPad*%
%ADD28C,0.800000*%
%TD*%
%TA.AperFunction,ViaPad*%
%ADD29C,0.400000*%
%TD*%
%TA.AperFunction,Conductor*%
%ADD30C,0.300000*%
%TD*%
%TA.AperFunction,Conductor*%
%ADD31C,0.200000*%
%TD*%
%TA.AperFunction,Conductor*%
%ADD32C,0.254000*%
%TD*%
%TA.AperFunction,Conductor*%
%ADD33C,0.160000*%
%TD*%
G04 APERTURE END LIST*
D10*
X234655000Y-109125000D03*
X232115000Y-109125000D03*
X229575000Y-109125000D03*
X227035000Y-109125000D03*
X224495000Y-109125000D03*
X221955000Y-109125000D03*
X219415000Y-109125000D03*
X216875000Y-109125000D03*
X214335000Y-109125000D03*
X211795000Y-109125000D03*
X209255000Y-109125000D03*
X206715000Y-109125000D03*
X204175000Y-109125000D03*
X201635000Y-109125000D03*
X199095000Y-109125000D03*
X199095000Y-81185000D03*
X201635000Y-81185000D03*
X204175000Y-81185000D03*
X206715000Y-81185000D03*
X209255000Y-81185000D03*
X211795000Y-81185000D03*
X214335000Y-81185000D03*
X216875000Y-81185000D03*
X219415000Y-81185000D03*
X221955000Y-81185000D03*
X224495000Y-81185000D03*
X227035000Y-81185000D03*
X229575000Y-81185000D03*
X232115000Y-81185000D03*
X234655000Y-81185000D03*
D11*
X216875000Y-106585000D03*
X214335000Y-106585000D03*
X211795000Y-106585000D03*
X209255000Y-106585000D03*
X206715000Y-106585000D03*
X204175000Y-106585000D03*
X201635000Y-106585000D03*
X199095000Y-106585000D03*
X199095000Y-83725000D03*
X201635000Y-83725000D03*
X204175000Y-83725000D03*
X206715000Y-83725000D03*
X209255000Y-83725000D03*
X211795000Y-83725000D03*
D12*
X216875000Y-83725000D03*
D11*
X214335000Y-83725000D03*
D13*
X180700500Y-87604000D03*
D14*
X178160500Y-87604000D03*
D15*
X177711100Y-95173800D03*
D16*
X179711100Y-95173800D03*
D14*
X170903900Y-95046800D03*
D13*
X173443900Y-95046800D03*
D17*
X178372500Y-77964200D03*
D18*
X185992500Y-77964200D03*
X149380000Y-95830000D03*
D17*
X157000000Y-95830000D03*
D19*
X179628800Y-70739000D03*
D20*
X184708800Y-70739000D03*
X221081600Y-70739000D03*
D19*
X205841600Y-70739000D03*
D20*
X216001600Y-70739000D03*
X210921600Y-70739000D03*
D19*
X163982400Y-70739000D03*
D20*
X169062400Y-70739000D03*
X174142400Y-70739000D03*
X241846100Y-70739000D03*
D19*
X226606100Y-70739000D03*
D20*
X236766100Y-70739000D03*
X231686100Y-70739000D03*
X149360000Y-105752900D03*
D19*
X149360000Y-100672900D03*
D20*
X149360000Y-78750000D03*
X149360000Y-83830000D03*
D19*
X149360000Y-88910000D03*
D21*
X180302900Y-82485400D03*
X179032900Y-83755400D03*
D22*
X179032900Y-81215400D03*
D23*
X178740000Y-102539800D03*
X176200000Y-102539800D03*
D24*
X173660000Y-102539800D03*
X162966400Y-102539800D03*
D23*
X165506400Y-102539800D03*
X168046400Y-102539800D03*
D16*
X156710000Y-103720000D03*
D15*
X156710000Y-105720000D03*
D19*
X190182500Y-70739000D03*
D20*
X195262500Y-70739000D03*
X200342500Y-70739000D03*
D25*
X170936100Y-77895900D03*
D20*
X158736100Y-77895900D03*
X158686100Y-89945900D03*
D25*
X170936100Y-89895900D03*
D20*
X172886100Y-83945900D03*
D26*
X148800000Y-70200000D03*
X148810000Y-111680000D03*
X241300000Y-111690000D03*
X241300000Y-80020000D03*
D27*
X184708800Y-74750000D03*
X200410000Y-74750000D03*
X216010000Y-74750000D03*
X236750000Y-74750000D03*
X211795000Y-74770000D03*
X214340000Y-111230011D03*
X232110000Y-111240000D03*
X201635000Y-98390000D03*
X232000000Y-98400000D03*
X213000000Y-100200000D03*
X217070000Y-98330000D03*
X214670000Y-98330000D03*
X211270000Y-98330000D03*
X170940000Y-100260000D03*
X158600000Y-100400000D03*
X176260000Y-107540000D03*
X169200000Y-74800000D03*
D28*
X181844600Y-83755400D03*
D27*
X181800000Y-74800000D03*
X199200000Y-102600000D03*
X190800000Y-109400000D03*
X190939800Y-102539800D03*
X164000000Y-73400000D03*
X171000000Y-73400000D03*
X199000000Y-73400000D03*
D29*
X209190000Y-89990000D03*
X215600000Y-90000000D03*
X179600000Y-74050000D03*
X207800000Y-74000000D03*
X220800000Y-104000000D03*
X209200000Y-104000000D03*
X205400000Y-104000000D03*
X203000000Y-103200000D03*
X211800000Y-103200000D03*
X210600000Y-103200000D03*
D27*
X226600000Y-76000000D03*
X205840000Y-75980000D03*
X209260000Y-76000000D03*
X200350000Y-76030000D03*
X234650000Y-112010000D03*
X211810000Y-111980000D03*
X238530000Y-76060000D03*
X190200000Y-76000000D03*
D28*
X204175000Y-88660000D03*
X219410000Y-88680000D03*
X188750000Y-81550000D03*
X188778810Y-88578810D03*
X188800000Y-75800000D03*
X174200000Y-75850000D03*
D27*
X166617500Y-109382500D03*
X166600000Y-105200000D03*
X163000000Y-105200000D03*
X172000000Y-109400000D03*
D29*
X180300000Y-77700000D03*
X176600000Y-89800000D03*
X176600000Y-82400000D03*
X183015400Y-81215400D03*
X183000000Y-85000000D03*
D27*
X161000000Y-103800000D03*
X161000000Y-106400000D03*
D29*
X214110000Y-95190000D03*
X195262500Y-87137500D03*
X214110000Y-87160000D03*
X234650000Y-87160000D03*
D30*
X178143900Y-87620600D02*
X178160500Y-87604000D01*
X178160500Y-84627800D02*
X179032900Y-83755400D01*
X178160500Y-87604000D02*
X178160500Y-84627800D01*
X184708800Y-70739000D02*
X184708800Y-74750000D01*
X200342500Y-74682500D02*
X200410000Y-74750000D01*
X200342500Y-70739000D02*
X200342500Y-74682500D01*
X216010000Y-70747400D02*
X216001600Y-70739000D01*
X216010000Y-74750000D02*
X216010000Y-70747400D01*
X236750000Y-70755100D02*
X236766100Y-70739000D01*
X236750000Y-74750000D02*
X236750000Y-70755100D01*
X211795000Y-81185000D02*
X211795000Y-74770000D01*
X201635000Y-75975000D02*
X200410000Y-74750000D01*
X201635000Y-81185000D02*
X201635000Y-75975000D01*
X214335000Y-111225011D02*
X214340000Y-111230011D01*
X214335000Y-109125000D02*
X214335000Y-111225011D01*
X232110000Y-109130000D02*
X232115000Y-109125000D01*
X232110000Y-111240000D02*
X232110000Y-109130000D01*
X201635000Y-106585000D02*
X201635000Y-98390000D01*
X232000000Y-109010000D02*
X232115000Y-109125000D01*
X232000000Y-98400000D02*
X232000000Y-109010000D01*
X211795000Y-81185000D02*
X213084990Y-82474990D01*
X213084990Y-100115010D02*
X213000000Y-100200000D01*
X213084990Y-82474990D02*
X213084990Y-100115010D01*
X177711100Y-88053400D02*
X178160500Y-87604000D01*
X177711100Y-95173800D02*
X177711100Y-88053400D01*
X177711100Y-101028700D02*
X176200000Y-102539800D01*
X177711100Y-95173800D02*
X177711100Y-101028700D01*
X170903900Y-100223900D02*
X170940000Y-100260000D01*
X170903900Y-95046800D02*
X170903900Y-100223900D01*
X157841370Y-105720000D02*
X158600000Y-104961370D01*
X156710000Y-105720000D02*
X157841370Y-105720000D01*
X158600000Y-104961370D02*
X158600000Y-100400000D01*
X176200000Y-107480000D02*
X176260000Y-107540000D01*
X176200000Y-102539800D02*
X176200000Y-107480000D01*
X169062400Y-74662400D02*
X169200000Y-74800000D01*
X169062400Y-70739000D02*
X169062400Y-74662400D01*
X181844600Y-74844600D02*
X181800000Y-74800000D01*
X181844600Y-83755400D02*
X181844600Y-74844600D01*
X179711100Y-95173800D02*
X179711100Y-95408900D01*
X199054199Y-81144199D02*
X199095000Y-81185000D01*
X199200000Y-106480000D02*
X199095000Y-106585000D01*
X199200000Y-102600000D02*
X199200000Y-106480000D01*
X179711100Y-101568700D02*
X178740000Y-102539800D01*
X179711100Y-95173800D02*
X179711100Y-101568700D01*
X190800000Y-102679600D02*
X190939800Y-102539800D01*
X190800000Y-109400000D02*
X190800000Y-102679600D01*
X197844990Y-101244990D02*
X199200000Y-102600000D01*
X197844990Y-82435010D02*
X197844990Y-101244990D01*
X199095000Y-81185000D02*
X197844990Y-82435010D01*
X163982400Y-73382400D02*
X164000000Y-73400000D01*
X163982400Y-70739000D02*
X163982400Y-73382400D01*
X171000000Y-77832000D02*
X170936100Y-77895900D01*
X171000000Y-73400000D02*
X171000000Y-77832000D01*
X199000000Y-81090000D02*
X199095000Y-81185000D01*
X199000000Y-73400000D02*
X199000000Y-81090000D01*
D31*
X209190000Y-89990000D02*
X209190000Y-83725000D01*
X216875000Y-109125000D02*
X215600000Y-107850000D01*
X215600000Y-107850000D02*
X215600000Y-90000000D01*
X179628800Y-74021200D02*
X179600000Y-74050000D01*
X179628800Y-70739000D02*
X179628800Y-74021200D01*
X207800000Y-74000000D02*
X208000000Y-74200000D01*
X208000000Y-82470000D02*
X209255000Y-83725000D01*
X208000000Y-74200000D02*
X208000000Y-82470000D01*
X220800000Y-71020600D02*
X220800000Y-104000000D01*
X221081600Y-70739000D02*
X220800000Y-71020600D01*
X209200000Y-106530000D02*
X209255000Y-106585000D01*
X209200000Y-104000000D02*
X209200000Y-106530000D01*
X204175000Y-109125000D02*
X205400000Y-107900000D01*
X205400000Y-107900000D02*
X205400000Y-104000000D01*
X201635000Y-109125000D02*
X203000000Y-107760000D01*
X203000000Y-107760000D02*
X203000000Y-103200000D01*
X211800000Y-106580000D02*
X211795000Y-106585000D01*
X211800000Y-103200000D02*
X211800000Y-106580000D01*
X210600000Y-71060600D02*
X210600000Y-103200000D01*
X210921600Y-70739000D02*
X210600000Y-71060600D01*
D30*
X226606100Y-75993900D02*
X226600000Y-76000000D01*
X226606100Y-70739000D02*
X226606100Y-75993900D01*
X205840000Y-70740600D02*
X205841600Y-70739000D01*
X205840000Y-75980000D02*
X205840000Y-70740600D01*
X209255000Y-76005000D02*
X209260000Y-76000000D01*
X209255000Y-81185000D02*
X209255000Y-76005000D01*
X200350000Y-82470000D02*
X200350000Y-76030000D01*
X199095000Y-83725000D02*
X200350000Y-82470000D01*
X190180000Y-70741500D02*
X190182500Y-70739000D01*
X234655000Y-112005000D02*
X234650000Y-112010000D01*
X234655000Y-109125000D02*
X234655000Y-112005000D01*
X211810000Y-109140000D02*
X211795000Y-109125000D01*
X211810000Y-111980000D02*
X211810000Y-109140000D01*
X234655000Y-109125000D02*
X238530000Y-105250000D01*
X238530000Y-105250000D02*
X238530000Y-76060000D01*
X190182500Y-75982500D02*
X190200000Y-76000000D01*
X190182500Y-70739000D02*
X190182500Y-75982500D01*
X204175000Y-83725000D02*
X204175000Y-88660000D01*
X219415000Y-88685000D02*
X219410000Y-88680000D01*
X219415000Y-109125000D02*
X219415000Y-88685000D01*
X188750000Y-81550000D02*
X188778810Y-88578810D01*
X188750000Y-75850000D02*
X188800000Y-75800000D01*
X188750000Y-81550000D02*
X188750000Y-75850000D01*
X174200000Y-70796600D02*
X174142400Y-70739000D01*
X174200000Y-75850000D02*
X174200000Y-70796600D01*
X166617500Y-105217500D02*
X166600000Y-105200000D01*
X166617500Y-109382500D02*
X166617500Y-105217500D01*
X163000000Y-102573400D02*
X162966400Y-102539800D01*
X163000000Y-105200000D02*
X163000000Y-102573400D01*
X173660000Y-102539800D02*
X173460200Y-102539800D01*
X172000000Y-104000000D02*
X172000000Y-109400000D01*
X173460200Y-102539800D02*
X172000000Y-104000000D01*
X180302900Y-79787100D02*
X180302900Y-82485400D01*
X180300000Y-77700000D02*
X180302900Y-79787100D01*
X176600000Y-89800000D02*
X176600000Y-82400000D01*
X183015400Y-84984600D02*
X183000000Y-85000000D01*
X183015400Y-81215400D02*
X183015400Y-84984600D01*
X149360000Y-95850000D02*
X149380000Y-95830000D01*
X149360000Y-100672900D02*
X149360000Y-95850000D01*
X157000000Y-103430000D02*
X156710000Y-103720000D01*
X157000000Y-95830000D02*
X157000000Y-103430000D01*
X161000000Y-103800000D02*
X161000000Y-106400000D01*
D31*
X195262500Y-70739000D02*
X195262500Y-87137500D01*
X214110000Y-87160000D02*
X214110000Y-83725000D01*
X214110000Y-95190000D02*
X214110000Y-87160000D01*
X234655000Y-87095000D02*
X234655000Y-81185000D01*
X234650000Y-87160000D02*
X234655000Y-87095000D01*
D32*
X243873000Y-70053346D02*
X243738112Y-69727698D01*
X243504463Y-69378017D01*
X243207083Y-69080637D01*
X242857402Y-68846988D01*
X242468856Y-68686047D01*
X242056379Y-68604000D01*
X241635821Y-68604000D01*
X241223344Y-68686047D01*
X240834798Y-68846988D01*
X240485117Y-69080637D01*
X240187737Y-69378017D01*
X239954088Y-69727698D01*
X239793147Y-70116244D01*
X239711100Y-70528721D01*
X239711100Y-70949279D01*
X239793147Y-71361756D01*
X239954088Y-71750302D01*
X240187737Y-72099983D01*
X240485117Y-72397363D01*
X240834798Y-72631012D01*
X241223344Y-72791953D01*
X241635821Y-72874000D01*
X242056379Y-72874000D01*
X242468856Y-72791953D01*
X242857402Y-72631012D01*
X243207083Y-72397363D01*
X243504463Y-72099983D01*
X243738112Y-71750302D01*
X243873000Y-71424654D01*
X243873000Y-78692903D01*
X243856654Y-78653440D01*
X243540926Y-78180920D01*
X243139080Y-77779074D01*
X242666560Y-77463346D01*
X242141523Y-77245869D01*
X241584148Y-77135000D01*
X241015852Y-77135000D01*
X240458477Y-77245869D01*
X239933440Y-77463346D01*
X239460920Y-77779074D01*
X239315000Y-77924994D01*
X239315000Y-76477460D01*
X239380990Y-76318145D01*
X239415000Y-76147165D01*
X239415000Y-75972835D01*
X239380990Y-75801855D01*
X239314277Y-75640795D01*
X239217424Y-75495845D01*
X239094155Y-75372576D01*
X238949205Y-75275723D01*
X238788145Y-75209010D01*
X238617165Y-75175000D01*
X238442835Y-75175000D01*
X238271855Y-75209010D01*
X238110795Y-75275723D01*
X237965845Y-75372576D01*
X237842576Y-75495845D01*
X237745723Y-75640795D01*
X237679010Y-75801855D01*
X237645000Y-75972835D01*
X237645000Y-76147165D01*
X237679010Y-76318145D01*
X237745001Y-76477462D01*
X237745000Y-104924843D01*
X234917081Y-107752762D01*
X234792592Y-107728000D01*
X234517408Y-107728000D01*
X234247510Y-107781686D01*
X233993273Y-107886995D01*
X233764465Y-108039880D01*
X233569880Y-108234465D01*
X233416995Y-108463273D01*
X233387308Y-108534943D01*
X233382636Y-108521977D01*
X233320656Y-108406020D01*
X233080565Y-108339040D01*
X232294605Y-109125000D01*
X233080565Y-109910960D01*
X233320656Y-109843980D01*
X233384485Y-109708240D01*
X233416995Y-109786727D01*
X233569880Y-110015535D01*
X233764465Y-110210120D01*
X233870000Y-110280637D01*
X233870001Y-111584393D01*
X233865723Y-111590795D01*
X233799010Y-111751855D01*
X233765000Y-111922835D01*
X233765000Y-112097165D01*
X233799010Y-112268145D01*
X233865723Y-112429205D01*
X233962576Y-112574155D01*
X234085845Y-112697424D01*
X234230795Y-112794277D01*
X234391855Y-112860990D01*
X234562835Y-112895000D01*
X234737165Y-112895000D01*
X234908145Y-112860990D01*
X235069205Y-112794277D01*
X235214155Y-112697424D01*
X235337424Y-112574155D01*
X235434277Y-112429205D01*
X235500990Y-112268145D01*
X235535000Y-112097165D01*
X235535000Y-111922835D01*
X235500990Y-111751855D01*
X235440000Y-111604612D01*
X235440000Y-110280636D01*
X235545535Y-110210120D01*
X235740120Y-110015535D01*
X235893005Y-109786727D01*
X235998314Y-109532490D01*
X236052000Y-109262592D01*
X236052000Y-108987408D01*
X236027238Y-108862919D01*
X239057811Y-105832346D01*
X239087764Y-105807764D01*
X239185862Y-105688233D01*
X239258754Y-105551860D01*
X239268613Y-105519359D01*
X239303642Y-105403887D01*
X239314617Y-105292449D01*
X239315000Y-105288561D01*
X239315000Y-105288556D01*
X239318797Y-105250000D01*
X239315000Y-105211444D01*
X239315000Y-82115006D01*
X239460920Y-82260926D01*
X239933440Y-82576654D01*
X240458477Y-82794131D01*
X241015852Y-82905000D01*
X241584148Y-82905000D01*
X242141523Y-82794131D01*
X242666560Y-82576654D01*
X243139080Y-82260926D01*
X243540926Y-81859080D01*
X243856654Y-81386560D01*
X243873000Y-81347097D01*
X243873000Y-110362903D01*
X243856654Y-110323440D01*
X243540926Y-109850920D01*
X243139080Y-109449074D01*
X242666560Y-109133346D01*
X242141523Y-108915869D01*
X241584148Y-108805000D01*
X241015852Y-108805000D01*
X240458477Y-108915869D01*
X239933440Y-109133346D01*
X239460920Y-109449074D01*
X239059074Y-109850920D01*
X238743346Y-110323440D01*
X238525869Y-110848477D01*
X238415000Y-111405852D01*
X238415000Y-111974148D01*
X238525869Y-112531523D01*
X238743346Y-113056560D01*
X239059074Y-113529080D01*
X239460920Y-113930926D01*
X239673549Y-114073000D01*
X150421485Y-114073000D01*
X150649080Y-113920926D01*
X151050926Y-113519080D01*
X151366654Y-113046560D01*
X151584131Y-112521523D01*
X151695000Y-111964148D01*
X151695000Y-111395852D01*
X151584131Y-110838477D01*
X151366654Y-110313440D01*
X151050926Y-109840920D01*
X150649080Y-109439074D01*
X150176560Y-109123346D01*
X149651523Y-108905869D01*
X149094148Y-108795000D01*
X148525852Y-108795000D01*
X147968477Y-108905869D01*
X147443440Y-109123346D01*
X146970920Y-109439074D01*
X146569074Y-109840920D01*
X146253346Y-110313440D01*
X146127000Y-110618467D01*
X146127000Y-107244553D01*
X148047952Y-107244553D01*
X148203962Y-107560114D01*
X148578745Y-107750920D01*
X148983551Y-107864944D01*
X149402824Y-107897802D01*
X149820451Y-107848234D01*
X150220383Y-107718143D01*
X150516038Y-107560114D01*
X150672048Y-107244553D01*
X149360000Y-105932505D01*
X148047952Y-107244553D01*
X146127000Y-107244553D01*
X146127000Y-105795724D01*
X147215098Y-105795724D01*
X147264666Y-106213351D01*
X147394757Y-106613283D01*
X147552786Y-106908938D01*
X147868347Y-107064948D01*
X149180395Y-105752900D01*
X149539605Y-105752900D01*
X150851653Y-107064948D01*
X151167214Y-106908938D01*
X151267119Y-106712702D01*
X155896903Y-106712702D01*
X155968486Y-106956671D01*
X156223996Y-107077571D01*
X156498184Y-107146300D01*
X156780512Y-107160217D01*
X157060130Y-107118787D01*
X157326292Y-107023603D01*
X157451514Y-106956671D01*
X157523097Y-106712702D01*
X156710000Y-105899605D01*
X155896903Y-106712702D01*
X151267119Y-106712702D01*
X151358020Y-106534155D01*
X151472044Y-106129349D01*
X151504902Y-105710076D01*
X151455334Y-105292449D01*
X151325243Y-104892517D01*
X151167214Y-104596862D01*
X150851653Y-104440852D01*
X149539605Y-105752900D01*
X149180395Y-105752900D01*
X147868347Y-104440852D01*
X147552786Y-104596862D01*
X147361980Y-104971645D01*
X147247956Y-105376451D01*
X147215098Y-105795724D01*
X146127000Y-105795724D01*
X146127000Y-104261247D01*
X148047952Y-104261247D01*
X149360000Y-105573295D01*
X150672048Y-104261247D01*
X150516038Y-103945686D01*
X150141255Y-103754880D01*
X149736449Y-103640856D01*
X149317176Y-103607998D01*
X148899549Y-103657566D01*
X148499617Y-103787657D01*
X148203962Y-103945686D01*
X148047952Y-104261247D01*
X146127000Y-104261247D01*
X146127000Y-99172900D01*
X147221928Y-99172900D01*
X147221928Y-102172900D01*
X147234188Y-102297382D01*
X147270498Y-102417080D01*
X147329463Y-102527394D01*
X147408815Y-102624085D01*
X147505506Y-102703437D01*
X147615820Y-102762402D01*
X147735518Y-102798712D01*
X147860000Y-102810972D01*
X150860000Y-102810972D01*
X150984482Y-102798712D01*
X151104180Y-102762402D01*
X151214494Y-102703437D01*
X151311185Y-102624085D01*
X151390537Y-102527394D01*
X151449502Y-102417080D01*
X151485812Y-102297382D01*
X151498072Y-102172900D01*
X151498072Y-99172900D01*
X151485812Y-99048418D01*
X151449502Y-98928720D01*
X151390537Y-98818406D01*
X151311185Y-98721715D01*
X151214494Y-98642363D01*
X151104180Y-98583398D01*
X150984482Y-98547088D01*
X150860000Y-98534828D01*
X150145000Y-98534828D01*
X150145000Y-97391077D01*
X150201831Y-97367537D01*
X150485998Y-97177663D01*
X150727663Y-96935998D01*
X150917537Y-96651831D01*
X151048325Y-96336081D01*
X151115000Y-96000883D01*
X151115000Y-95659117D01*
X151048325Y-95323919D01*
X150917537Y-95008169D01*
X150731671Y-94730000D01*
X155261928Y-94730000D01*
X155261928Y-96930000D01*
X155274188Y-97054482D01*
X155310498Y-97174180D01*
X155369463Y-97284494D01*
X155448815Y-97381185D01*
X155545506Y-97460537D01*
X155655820Y-97519502D01*
X155775518Y-97555812D01*
X155900000Y-97568072D01*
X156215000Y-97568072D01*
X156215001Y-102281928D01*
X155910000Y-102281928D01*
X155785518Y-102294188D01*
X155665820Y-102330498D01*
X155555506Y-102389463D01*
X155458815Y-102468815D01*
X155379463Y-102565506D01*
X155320498Y-102675820D01*
X155284188Y-102795518D01*
X155271928Y-102920000D01*
X155271928Y-104520000D01*
X155284188Y-104644482D01*
X155320498Y-104764180D01*
X155379463Y-104874494D01*
X155458815Y-104971185D01*
X155471758Y-104981807D01*
X155352429Y-105233996D01*
X155283700Y-105508184D01*
X155269783Y-105790512D01*
X155311213Y-106070130D01*
X155406397Y-106336292D01*
X155473329Y-106461514D01*
X155717298Y-106533097D01*
X156530395Y-105720000D01*
X156516253Y-105705858D01*
X156695858Y-105526253D01*
X156710000Y-105540395D01*
X156724143Y-105526253D01*
X156903748Y-105705858D01*
X156889605Y-105720000D01*
X157702702Y-106533097D01*
X157946671Y-106461514D01*
X158067571Y-106206004D01*
X158136300Y-105931816D01*
X158150217Y-105649488D01*
X158108787Y-105369870D01*
X158013603Y-105103708D01*
X157948384Y-104981691D01*
X157961185Y-104971185D01*
X158040537Y-104874494D01*
X158099502Y-104764180D01*
X158135812Y-104644482D01*
X158148072Y-104520000D01*
X158148072Y-103712835D01*
X160115000Y-103712835D01*
X160115000Y-103887165D01*
X160149010Y-104058145D01*
X160215000Y-104217460D01*
X160215001Y-105982538D01*
X160149010Y-106141855D01*
X160115000Y-106312835D01*
X160115000Y-106487165D01*
X160149010Y-106658145D01*
X160215723Y-106819205D01*
X160312576Y-106964155D01*
X160435845Y-107087424D01*
X160580795Y-107184277D01*
X160741855Y-107250990D01*
X160912835Y-107285000D01*
X161087165Y-107285000D01*
X161258145Y-107250990D01*
X161419205Y-107184277D01*
X161564155Y-107087424D01*
X161687424Y-106964155D01*
X161784277Y-106819205D01*
X161850990Y-106658145D01*
X161885000Y-106487165D01*
X161885000Y-106312835D01*
X161850990Y-106141855D01*
X161785000Y-105982540D01*
X161785000Y-104217460D01*
X161815734Y-104143260D01*
X161889418Y-104165612D01*
X162013900Y-104177872D01*
X162215000Y-104177872D01*
X162215000Y-104782540D01*
X162149010Y-104941855D01*
X162115000Y-105112835D01*
X162115000Y-105287165D01*
X162149010Y-105458145D01*
X162215723Y-105619205D01*
X162312576Y-105764155D01*
X162435845Y-105887424D01*
X162580795Y-105984277D01*
X162741855Y-106050990D01*
X162912835Y-106085000D01*
X163087165Y-106085000D01*
X163258145Y-106050990D01*
X163419205Y-105984277D01*
X163564155Y-105887424D01*
X163687424Y-105764155D01*
X163784277Y-105619205D01*
X163850990Y-105458145D01*
X163885000Y-105287165D01*
X163885000Y-105112835D01*
X165715000Y-105112835D01*
X165715000Y-105287165D01*
X165749010Y-105458145D01*
X165815723Y-105619205D01*
X165832501Y-105644315D01*
X165832500Y-108965040D01*
X165766510Y-109124355D01*
X165732500Y-109295335D01*
X165732500Y-109469665D01*
X165766510Y-109640645D01*
X165833223Y-109801705D01*
X165930076Y-109946655D01*
X166053345Y-110069924D01*
X166198295Y-110166777D01*
X166359355Y-110233490D01*
X166530335Y-110267500D01*
X166704665Y-110267500D01*
X166875645Y-110233490D01*
X167036705Y-110166777D01*
X167181655Y-110069924D01*
X167304924Y-109946655D01*
X167401777Y-109801705D01*
X167468490Y-109640645D01*
X167502500Y-109469665D01*
X167502500Y-109312835D01*
X171115000Y-109312835D01*
X171115000Y-109487165D01*
X171149010Y-109658145D01*
X171215723Y-109819205D01*
X171312576Y-109964155D01*
X171435845Y-110087424D01*
X171580795Y-110184277D01*
X171741855Y-110250990D01*
X171912835Y-110285000D01*
X172087165Y-110285000D01*
X172258145Y-110250990D01*
X172419205Y-110184277D01*
X172564155Y-110087424D01*
X172687424Y-109964155D01*
X172784277Y-109819205D01*
X172850990Y-109658145D01*
X172885000Y-109487165D01*
X172885000Y-109312835D01*
X189915000Y-109312835D01*
X189915000Y-109487165D01*
X189949010Y-109658145D01*
X190015723Y-109819205D01*
X190112576Y-109964155D01*
X190235845Y-110087424D01*
X190380795Y-110184277D01*
X190541855Y-110250990D01*
X190712835Y-110285000D01*
X190887165Y-110285000D01*
X191058145Y-110250990D01*
X191219205Y-110184277D01*
X191364155Y-110087424D01*
X191487424Y-109964155D01*
X191584277Y-109819205D01*
X191650990Y-109658145D01*
X191685000Y-109487165D01*
X191685000Y-109312835D01*
X191650990Y-109141855D01*
X191585000Y-108982540D01*
X191585000Y-103146179D01*
X191627224Y-103103955D01*
X191724077Y-102959005D01*
X191790790Y-102797945D01*
X191824800Y-102626965D01*
X191824800Y-102452635D01*
X191790790Y-102281655D01*
X191724077Y-102120595D01*
X191627224Y-101975645D01*
X191503955Y-101852376D01*
X191359005Y-101755523D01*
X191197945Y-101688810D01*
X191026965Y-101654800D01*
X190852635Y-101654800D01*
X190681655Y-101688810D01*
X190520595Y-101755523D01*
X190375645Y-101852376D01*
X190252376Y-101975645D01*
X190155523Y-102120595D01*
X190088810Y-102281655D01*
X190066748Y-102392570D01*
X190026359Y-102525714D01*
X190011203Y-102679600D01*
X190015001Y-102718163D01*
X190015000Y-108982540D01*
X189949010Y-109141855D01*
X189915000Y-109312835D01*
X172885000Y-109312835D01*
X172850990Y-109141855D01*
X172785000Y-108982540D01*
X172785000Y-104325157D01*
X172932285Y-104177872D01*
X174612500Y-104177872D01*
X174736982Y-104165612D01*
X174856680Y-104129302D01*
X174966994Y-104070337D01*
X175063685Y-103990985D01*
X175143037Y-103894294D01*
X175192059Y-103802581D01*
X175333077Y-103915769D01*
X175608906Y-104059371D01*
X175827020Y-104130363D01*
X176073000Y-104010394D01*
X176073000Y-102666800D01*
X176053000Y-102666800D01*
X176053000Y-102412800D01*
X176073000Y-102412800D01*
X176073000Y-101069206D01*
X176327000Y-101069206D01*
X176327000Y-102412800D01*
X176347000Y-102412800D01*
X176347000Y-102666800D01*
X176327000Y-102666800D01*
X176327000Y-104010394D01*
X176572980Y-104130363D01*
X176791094Y-104059371D01*
X177066923Y-103915769D01*
X177309437Y-103721115D01*
X177464837Y-103535901D01*
X177612037Y-103715263D01*
X177853766Y-103913645D01*
X178129552Y-104061055D01*
X178428797Y-104151830D01*
X178740000Y-104182481D01*
X179051204Y-104151830D01*
X179350449Y-104061055D01*
X179626235Y-103913645D01*
X179867963Y-103715263D01*
X180066345Y-103473534D01*
X180213755Y-103197748D01*
X180304530Y-102898503D01*
X180327500Y-102665285D01*
X180327500Y-102414314D01*
X180304530Y-102181096D01*
X180282805Y-102109477D01*
X180366962Y-102006933D01*
X180439854Y-101870560D01*
X180457860Y-101811202D01*
X180484742Y-101722587D01*
X180492120Y-101647674D01*
X180496100Y-101607261D01*
X180496100Y-101607256D01*
X180499897Y-101568700D01*
X180496100Y-101530144D01*
X180496100Y-96611872D01*
X180511100Y-96611872D01*
X180635582Y-96599612D01*
X180755280Y-96563302D01*
X180865594Y-96504337D01*
X180962285Y-96424985D01*
X181041637Y-96328294D01*
X181100602Y-96217980D01*
X181136912Y-96098282D01*
X181149172Y-95973800D01*
X181149172Y-94373800D01*
X181136912Y-94249318D01*
X181100602Y-94129620D01*
X181041637Y-94019306D01*
X180962285Y-93922615D01*
X180865594Y-93843263D01*
X180755280Y-93784298D01*
X180635582Y-93747988D01*
X180511100Y-93735728D01*
X178911100Y-93735728D01*
X178786618Y-93747988D01*
X178666920Y-93784298D01*
X178556606Y-93843263D01*
X178459915Y-93922615D01*
X178449293Y-93935558D01*
X178197104Y-93816229D01*
X177922916Y-93747500D01*
X177640588Y-93733583D01*
X177360970Y-93775013D01*
X177094808Y-93870197D01*
X176969586Y-93937129D01*
X176898003Y-94181098D01*
X177711100Y-94994195D01*
X177725243Y-94980053D01*
X177904848Y-95159658D01*
X177890705Y-95173800D01*
X177904848Y-95187943D01*
X177725243Y-95367548D01*
X177711100Y-95353405D01*
X176898003Y-96166502D01*
X176969586Y-96410471D01*
X177225096Y-96531371D01*
X177499284Y-96600100D01*
X177781612Y-96614017D01*
X178061230Y-96572587D01*
X178327392Y-96477403D01*
X178449409Y-96412184D01*
X178459915Y-96424985D01*
X178556606Y-96504337D01*
X178666920Y-96563302D01*
X178786618Y-96599612D01*
X178911100Y-96611872D01*
X178926100Y-96611872D01*
X178926101Y-100915448D01*
X178740000Y-100897119D01*
X178428796Y-100927770D01*
X178129551Y-101018545D01*
X177853765Y-101165955D01*
X177612037Y-101364337D01*
X177464838Y-101543700D01*
X177309437Y-101358485D01*
X177066923Y-101163831D01*
X176791094Y-101020229D01*
X176572980Y-100949237D01*
X176327000Y-101069206D01*
X176073000Y-101069206D01*
X175827020Y-100949237D01*
X175608906Y-101020229D01*
X175333077Y-101163831D01*
X175192059Y-101277019D01*
X175143037Y-101185306D01*
X175063685Y-101088615D01*
X174966994Y-101009263D01*
X174856680Y-100950298D01*
X174736982Y-100913988D01*
X174612500Y-100901728D01*
X172707500Y-100901728D01*
X172583018Y-100913988D01*
X172463320Y-100950298D01*
X172353006Y-101009263D01*
X172256315Y-101088615D01*
X172176963Y-101185306D01*
X172117998Y-101295620D01*
X172081688Y-101415318D01*
X172069428Y-101539800D01*
X172069428Y-102820415D01*
X171472190Y-103417653D01*
X171442236Y-103442236D01*
X171344138Y-103561768D01*
X171271246Y-103698141D01*
X171226359Y-103846114D01*
X171215000Y-103961440D01*
X171215000Y-103961447D01*
X171211203Y-104000000D01*
X171215000Y-104038553D01*
X171215001Y-108982538D01*
X171149010Y-109141855D01*
X171115000Y-109312835D01*
X167502500Y-109312835D01*
X167502500Y-109295335D01*
X167468490Y-109124355D01*
X167402500Y-108965040D01*
X167402500Y-105575211D01*
X167450990Y-105458145D01*
X167485000Y-105287165D01*
X167485000Y-105112835D01*
X167450990Y-104941855D01*
X167384277Y-104780795D01*
X167287424Y-104635845D01*
X167164155Y-104512576D01*
X167019205Y-104415723D01*
X166858145Y-104349010D01*
X166687165Y-104315000D01*
X166512835Y-104315000D01*
X166341855Y-104349010D01*
X166180795Y-104415723D01*
X166035845Y-104512576D01*
X165912576Y-104635845D01*
X165815723Y-104780795D01*
X165749010Y-104941855D01*
X165715000Y-105112835D01*
X163885000Y-105112835D01*
X163850990Y-104941855D01*
X163785000Y-104782540D01*
X163785000Y-104177872D01*
X163918900Y-104177872D01*
X164043382Y-104165612D01*
X164163080Y-104129302D01*
X164273394Y-104070337D01*
X164370085Y-103990985D01*
X164449437Y-103894294D01*
X164498459Y-103802581D01*
X164639477Y-103915769D01*
X164915306Y-104059371D01*
X165133420Y-104130363D01*
X165379400Y-104010394D01*
X165379400Y-102666800D01*
X165359400Y-102666800D01*
X165359400Y-102412800D01*
X165379400Y-102412800D01*
X165379400Y-101069206D01*
X165633400Y-101069206D01*
X165633400Y-102412800D01*
X165653400Y-102412800D01*
X165653400Y-102666800D01*
X165633400Y-102666800D01*
X165633400Y-104010394D01*
X165879380Y-104130363D01*
X166097494Y-104059371D01*
X166373323Y-103915769D01*
X166615837Y-103721115D01*
X166771237Y-103535901D01*
X166918437Y-103715263D01*
X167160166Y-103913645D01*
X167435952Y-104061055D01*
X167735197Y-104151830D01*
X168046400Y-104182481D01*
X168357604Y-104151830D01*
X168656849Y-104061055D01*
X168932635Y-103913645D01*
X169174363Y-103715263D01*
X169372745Y-103473534D01*
X169520155Y-103197748D01*
X169610930Y-102898503D01*
X169633900Y-102665285D01*
X169633900Y-102414314D01*
X169610930Y-102181096D01*
X169520155Y-101881851D01*
X169372745Y-101606065D01*
X169174363Y-101364337D01*
X168932634Y-101165955D01*
X168656848Y-101018545D01*
X168357603Y-100927770D01*
X168046400Y-100897119D01*
X167735196Y-100927770D01*
X167435951Y-101018545D01*
X167160165Y-101165955D01*
X166918437Y-101364337D01*
X166771238Y-101543700D01*
X166615837Y-101358485D01*
X166373323Y-101163831D01*
X166097494Y-101020229D01*
X165879380Y-100949237D01*
X165633400Y-101069206D01*
X165379400Y-101069206D01*
X165133420Y-100949237D01*
X164915306Y-101020229D01*
X164639477Y-101163831D01*
X164498459Y-101277019D01*
X164449437Y-101185306D01*
X164370085Y-101088615D01*
X164273394Y-101009263D01*
X164163080Y-100950298D01*
X164043382Y-100913988D01*
X163918900Y-100901728D01*
X162013900Y-100901728D01*
X161889418Y-100913988D01*
X161769720Y-100950298D01*
X161659406Y-101009263D01*
X161562715Y-101088615D01*
X161483363Y-101185306D01*
X161424398Y-101295620D01*
X161388088Y-101415318D01*
X161375828Y-101539800D01*
X161375828Y-102997756D01*
X161258145Y-102949010D01*
X161087165Y-102915000D01*
X160912835Y-102915000D01*
X160741855Y-102949010D01*
X160580795Y-103015723D01*
X160435845Y-103112576D01*
X160312576Y-103235845D01*
X160215723Y-103380795D01*
X160149010Y-103541855D01*
X160115000Y-103712835D01*
X158148072Y-103712835D01*
X158148072Y-102920000D01*
X158135812Y-102795518D01*
X158099502Y-102675820D01*
X158040537Y-102565506D01*
X157961185Y-102468815D01*
X157864494Y-102389463D01*
X157785000Y-102346972D01*
X157785000Y-97568072D01*
X158100000Y-97568072D01*
X158224482Y-97555812D01*
X158344180Y-97519502D01*
X158454494Y-97460537D01*
X158551185Y-97381185D01*
X158630537Y-97284494D01*
X158689502Y-97174180D01*
X158725812Y-97054482D01*
X158738072Y-96930000D01*
X158738072Y-95946800D01*
X169365828Y-95946800D01*
X169378088Y-96071282D01*
X169414398Y-96190980D01*
X169473363Y-96301294D01*
X169552715Y-96397985D01*
X169649406Y-96477337D01*
X169759720Y-96536302D01*
X169879418Y-96572612D01*
X170003900Y-96584872D01*
X170618150Y-96581800D01*
X170776900Y-96423050D01*
X170776900Y-95173800D01*
X169527650Y-95173800D01*
X169368900Y-95332550D01*
X169365828Y-95946800D01*
X158738072Y-95946800D01*
X158738072Y-94730000D01*
X158725812Y-94605518D01*
X158689502Y-94485820D01*
X158630537Y-94375506D01*
X158551185Y-94278815D01*
X158454494Y-94199463D01*
X158355971Y-94146800D01*
X169365828Y-94146800D01*
X169368900Y-94761050D01*
X169527650Y-94919800D01*
X170776900Y-94919800D01*
X170776900Y-93670550D01*
X171030900Y-93670550D01*
X171030900Y-94919800D01*
X171050900Y-94919800D01*
X171050900Y-95173800D01*
X171030900Y-95173800D01*
X171030900Y-96423050D01*
X171189650Y-96581800D01*
X171803900Y-96584872D01*
X171928382Y-96572612D01*
X172048080Y-96536302D01*
X172158394Y-96477337D01*
X172255085Y-96397985D01*
X172334437Y-96301294D01*
X172393402Y-96190980D01*
X172398956Y-96172673D01*
X172465395Y-96239112D01*
X172716805Y-96407099D01*
X172996157Y-96522811D01*
X173292716Y-96581800D01*
X173595084Y-96581800D01*
X173891643Y-96522811D01*
X174170995Y-96407099D01*
X174422405Y-96239112D01*
X174636212Y-96025305D01*
X174804199Y-95773895D01*
X174919911Y-95494543D01*
X174969684Y-95244312D01*
X176270883Y-95244312D01*
X176312313Y-95523930D01*
X176407497Y-95790092D01*
X176474429Y-95915314D01*
X176718398Y-95986897D01*
X177531495Y-95173800D01*
X176718398Y-94360703D01*
X176474429Y-94432286D01*
X176353529Y-94687796D01*
X176284800Y-94961984D01*
X176270883Y-95244312D01*
X174969684Y-95244312D01*
X174978900Y-95197984D01*
X174978900Y-94895616D01*
X174919911Y-94599057D01*
X174804199Y-94319705D01*
X174636212Y-94068295D01*
X174422405Y-93854488D01*
X174170995Y-93686501D01*
X173891643Y-93570789D01*
X173595084Y-93511800D01*
X173292716Y-93511800D01*
X172996157Y-93570789D01*
X172716805Y-93686501D01*
X172465395Y-93854488D01*
X172398956Y-93920927D01*
X172393402Y-93902620D01*
X172334437Y-93792306D01*
X172255085Y-93695615D01*
X172158394Y-93616263D01*
X172048080Y-93557298D01*
X171928382Y-93520988D01*
X171803900Y-93508728D01*
X171189650Y-93511800D01*
X171030900Y-93670550D01*
X170776900Y-93670550D01*
X170618150Y-93511800D01*
X170003900Y-93508728D01*
X169879418Y-93520988D01*
X169759720Y-93557298D01*
X169649406Y-93616263D01*
X169552715Y-93695615D01*
X169473363Y-93792306D01*
X169414398Y-93902620D01*
X169378088Y-94022318D01*
X169365828Y-94146800D01*
X158355971Y-94146800D01*
X158344180Y-94140498D01*
X158224482Y-94104188D01*
X158100000Y-94091928D01*
X155900000Y-94091928D01*
X155775518Y-94104188D01*
X155655820Y-94140498D01*
X155545506Y-94199463D01*
X155448815Y-94278815D01*
X155369463Y-94375506D01*
X155310498Y-94485820D01*
X155274188Y-94605518D01*
X155261928Y-94730000D01*
X150731671Y-94730000D01*
X150727663Y-94724002D01*
X150485998Y-94482337D01*
X150201831Y-94292463D01*
X149886081Y-94161675D01*
X149550883Y-94095000D01*
X149209117Y-94095000D01*
X148873919Y-94161675D01*
X148558169Y-94292463D01*
X148274002Y-94482337D01*
X148032337Y-94724002D01*
X147842463Y-95008169D01*
X147711675Y-95323919D01*
X147645000Y-95659117D01*
X147645000Y-96000883D01*
X147711675Y-96336081D01*
X147842463Y-96651831D01*
X148032337Y-96935998D01*
X148274002Y-97177663D01*
X148558169Y-97367537D01*
X148575001Y-97374509D01*
X148575000Y-98534828D01*
X147860000Y-98534828D01*
X147735518Y-98547088D01*
X147615820Y-98583398D01*
X147505506Y-98642363D01*
X147408815Y-98721715D01*
X147329463Y-98818406D01*
X147270498Y-98928720D01*
X147234188Y-99048418D01*
X147221928Y-99172900D01*
X146127000Y-99172900D01*
X146127000Y-92037000D01*
X158255121Y-92037000D01*
X158475821Y-92080900D01*
X158896379Y-92080900D01*
X159117079Y-92037000D01*
X168240000Y-92037000D01*
X168264776Y-92034560D01*
X168288601Y-92027333D01*
X168310557Y-92015597D01*
X168329803Y-91999803D01*
X168345597Y-91980557D01*
X168357333Y-91958601D01*
X168364560Y-91934776D01*
X168367000Y-91910000D01*
X168367000Y-89710244D01*
X169051100Y-89710244D01*
X169051100Y-90081556D01*
X169123539Y-90445734D01*
X169265634Y-90788782D01*
X169471925Y-91097518D01*
X169734482Y-91360075D01*
X170043218Y-91566366D01*
X170386266Y-91708461D01*
X170750444Y-91780900D01*
X171121756Y-91780900D01*
X171485934Y-91708461D01*
X171828982Y-91566366D01*
X172137718Y-91360075D01*
X172400275Y-91097518D01*
X172606566Y-90788782D01*
X172748661Y-90445734D01*
X172821100Y-90081556D01*
X172821100Y-89710244D01*
X172748661Y-89346066D01*
X172606566Y-89003018D01*
X172400275Y-88694282D01*
X172137718Y-88431725D01*
X171828982Y-88225434D01*
X171485934Y-88083339D01*
X171121756Y-88010900D01*
X170750444Y-88010900D01*
X170386266Y-88083339D01*
X170043218Y-88225434D01*
X169734482Y-88431725D01*
X169471925Y-88694282D01*
X169265634Y-89003018D01*
X169123539Y-89346066D01*
X169051100Y-89710244D01*
X168367000Y-89710244D01*
X168367000Y-87162459D01*
X175815000Y-87162459D01*
X175815000Y-89513199D01*
X175797089Y-89556440D01*
X175765000Y-89717760D01*
X175765000Y-89882240D01*
X175797089Y-90043560D01*
X175860033Y-90195521D01*
X175951413Y-90332281D01*
X176067719Y-90448587D01*
X176204479Y-90539967D01*
X176356440Y-90602911D01*
X176517760Y-90635000D01*
X176682240Y-90635000D01*
X176843560Y-90602911D01*
X176995521Y-90539967D01*
X177132281Y-90448587D01*
X177248587Y-90332281D01*
X177339967Y-90195521D01*
X177402911Y-90043560D01*
X177435000Y-89882240D01*
X177435000Y-89717760D01*
X177402911Y-89556440D01*
X177385000Y-89513199D01*
X177385000Y-89141449D01*
X177874750Y-89139000D01*
X178033500Y-88980250D01*
X178033500Y-87731000D01*
X178013500Y-87731000D01*
X178013500Y-87477000D01*
X178033500Y-87477000D01*
X178033500Y-86227750D01*
X178287500Y-86227750D01*
X178287500Y-87477000D01*
X178307500Y-87477000D01*
X178307500Y-87731000D01*
X178287500Y-87731000D01*
X178287500Y-88980250D01*
X178446250Y-89139000D01*
X179060500Y-89142072D01*
X179184982Y-89129812D01*
X179304680Y-89093502D01*
X179414994Y-89034537D01*
X179511685Y-88955185D01*
X179591037Y-88858494D01*
X179650002Y-88748180D01*
X179655556Y-88729873D01*
X179721995Y-88796312D01*
X179973405Y-88964299D01*
X180252757Y-89080011D01*
X180549316Y-89139000D01*
X180851684Y-89139000D01*
X181148243Y-89080011D01*
X181427595Y-88964299D01*
X181679005Y-88796312D01*
X181892812Y-88582505D01*
X182060799Y-88331095D01*
X182176511Y-88051743D01*
X182235500Y-87755184D01*
X182235500Y-87452816D01*
X182176511Y-87156257D01*
X182060799Y-86876905D01*
X181892812Y-86625495D01*
X181679005Y-86411688D01*
X181427595Y-86243701D01*
X181148243Y-86127989D01*
X180851684Y-86069000D01*
X180549316Y-86069000D01*
X180252757Y-86127989D01*
X179973405Y-86243701D01*
X179721995Y-86411688D01*
X179655556Y-86478127D01*
X179650002Y-86459820D01*
X179591037Y-86349506D01*
X179511685Y-86252815D01*
X179414994Y-86173463D01*
X179304680Y-86114498D01*
X179184982Y-86078188D01*
X179060500Y-86065928D01*
X178446250Y-86069000D01*
X178287500Y-86227750D01*
X178033500Y-86227750D01*
X177874750Y-86069000D01*
X177385000Y-86066551D01*
X177385000Y-84640927D01*
X178326978Y-84640927D01*
X178380366Y-84869601D01*
X178610274Y-84975495D01*
X178856424Y-85034502D01*
X179109355Y-85044352D01*
X179359349Y-85004670D01*
X179594678Y-84917760D01*
X182165000Y-84917760D01*
X182165000Y-85082240D01*
X182197089Y-85243560D01*
X182260033Y-85395521D01*
X182351413Y-85532281D01*
X182467719Y-85648587D01*
X182604479Y-85739967D01*
X182756440Y-85802911D01*
X182917760Y-85835000D01*
X183082240Y-85835000D01*
X183243560Y-85802911D01*
X183395521Y-85739967D01*
X183532281Y-85648587D01*
X183648587Y-85532281D01*
X183739967Y-85395521D01*
X183802911Y-85243560D01*
X183835000Y-85082240D01*
X183835000Y-84917760D01*
X183802911Y-84756440D01*
X183800400Y-84750378D01*
X183800400Y-81502201D01*
X183818311Y-81458960D01*
X183820478Y-81448061D01*
X187715000Y-81448061D01*
X187715000Y-81651939D01*
X187754774Y-81851898D01*
X187832795Y-82040256D01*
X187946063Y-82209774D01*
X187967787Y-82231498D01*
X187991033Y-87902876D01*
X187974873Y-87919036D01*
X187861605Y-88088554D01*
X187783584Y-88276912D01*
X187743810Y-88476871D01*
X187743810Y-88680749D01*
X187783584Y-88880708D01*
X187861605Y-89069066D01*
X187974873Y-89238584D01*
X188119036Y-89382747D01*
X188288554Y-89496015D01*
X188476912Y-89574036D01*
X188676871Y-89613810D01*
X188880749Y-89613810D01*
X189080708Y-89574036D01*
X189269066Y-89496015D01*
X189438584Y-89382747D01*
X189582747Y-89238584D01*
X189696015Y-89069066D01*
X189774036Y-88880708D01*
X189813810Y-88680749D01*
X189813810Y-88476871D01*
X189774036Y-88276912D01*
X189696015Y-88088554D01*
X189582747Y-87919036D01*
X189561023Y-87897312D01*
X189537777Y-82225934D01*
X189553937Y-82209774D01*
X189667205Y-82040256D01*
X189745226Y-81851898D01*
X189785000Y-81651939D01*
X189785000Y-81448061D01*
X189745226Y-81248102D01*
X189667205Y-81059744D01*
X189553937Y-80890226D01*
X189535000Y-80871289D01*
X189535000Y-76586579D01*
X189635845Y-76687424D01*
X189780795Y-76784277D01*
X189941855Y-76850990D01*
X190112835Y-76885000D01*
X190287165Y-76885000D01*
X190458145Y-76850990D01*
X190619205Y-76784277D01*
X190764155Y-76687424D01*
X190887424Y-76564155D01*
X190984277Y-76419205D01*
X191050990Y-76258145D01*
X191085000Y-76087165D01*
X191085000Y-75912835D01*
X191050990Y-75741855D01*
X190984277Y-75580795D01*
X190967500Y-75555687D01*
X190967500Y-72877072D01*
X191682500Y-72877072D01*
X191806982Y-72864812D01*
X191926680Y-72828502D01*
X192036994Y-72769537D01*
X192133685Y-72690185D01*
X192213037Y-72593494D01*
X192272002Y-72483180D01*
X192308312Y-72363482D01*
X192320572Y-72239000D01*
X192320572Y-70528721D01*
X193127500Y-70528721D01*
X193127500Y-70949279D01*
X193209547Y-71361756D01*
X193370488Y-71750302D01*
X193604137Y-72099983D01*
X193901517Y-72397363D01*
X194251198Y-72631012D01*
X194527500Y-72745460D01*
X194527501Y-86734544D01*
X194522533Y-86741979D01*
X194459589Y-86893940D01*
X194427500Y-87055260D01*
X194427500Y-87219740D01*
X194459589Y-87381060D01*
X194522533Y-87533021D01*
X194613913Y-87669781D01*
X194730219Y-87786087D01*
X194866979Y-87877467D01*
X195018940Y-87940411D01*
X195180260Y-87972500D01*
X195344740Y-87972500D01*
X195506060Y-87940411D01*
X195658021Y-87877467D01*
X195794781Y-87786087D01*
X195911087Y-87669781D01*
X196002467Y-87533021D01*
X196065411Y-87381060D01*
X196097500Y-87219740D01*
X196097500Y-87055260D01*
X196065411Y-86893940D01*
X196002467Y-86741979D01*
X195997500Y-86734545D01*
X195997500Y-82435010D01*
X197056193Y-82435010D01*
X197059990Y-82473563D01*
X197059991Y-101206427D01*
X197056193Y-101244990D01*
X197071349Y-101398876D01*
X197116236Y-101546849D01*
X197116237Y-101546850D01*
X197189129Y-101683223D01*
X197215208Y-101715000D01*
X197262645Y-101772802D01*
X197262649Y-101772806D01*
X197287227Y-101802754D01*
X197317175Y-101827332D01*
X198349733Y-102859890D01*
X198415000Y-103017460D01*
X198415001Y-105121338D01*
X198293900Y-105186068D01*
X198075393Y-105365392D01*
X197896068Y-105583899D01*
X197762818Y-105833192D01*
X197680764Y-106103691D01*
X197660000Y-106314508D01*
X197660000Y-106855491D01*
X197680764Y-107066308D01*
X197762818Y-107336807D01*
X197896068Y-107586100D01*
X198075392Y-107804607D01*
X198291340Y-107981832D01*
X198204465Y-108039880D01*
X198009880Y-108234465D01*
X197856995Y-108463273D01*
X197751686Y-108717510D01*
X197698000Y-108987408D01*
X197698000Y-109262592D01*
X197751686Y-109532490D01*
X197856995Y-109786727D01*
X198009880Y-110015535D01*
X198204465Y-110210120D01*
X198433273Y-110363005D01*
X198687510Y-110468314D01*
X198957408Y-110522000D01*
X199232592Y-110522000D01*
X199502490Y-110468314D01*
X199756727Y-110363005D01*
X199985535Y-110210120D01*
X200180120Y-110015535D01*
X200333005Y-109786727D01*
X200365000Y-109709485D01*
X200396995Y-109786727D01*
X200549880Y-110015535D01*
X200744465Y-110210120D01*
X200973273Y-110363005D01*
X201227510Y-110468314D01*
X201497408Y-110522000D01*
X201772592Y-110522000D01*
X202042490Y-110468314D01*
X202296727Y-110363005D01*
X202525535Y-110210120D01*
X202720120Y-110015535D01*
X202873005Y-109786727D01*
X202905000Y-109709485D01*
X202936995Y-109786727D01*
X203089880Y-110015535D01*
X203284465Y-110210120D01*
X203513273Y-110363005D01*
X203767510Y-110468314D01*
X204037408Y-110522000D01*
X204312592Y-110522000D01*
X204582490Y-110468314D01*
X204836727Y-110363005D01*
X205065535Y-110210120D01*
X205260120Y-110015535D01*
X205413005Y-109786727D01*
X205445000Y-109709485D01*
X205476995Y-109786727D01*
X205629880Y-110015535D01*
X205824465Y-110210120D01*
X206053273Y-110363005D01*
X206307510Y-110468314D01*
X206577408Y-110522000D01*
X206852592Y-110522000D01*
X207122490Y-110468314D01*
X207376727Y-110363005D01*
X207605535Y-110210120D01*
X207800120Y-110015535D01*
X207953005Y-109786727D01*
X207985000Y-109709485D01*
X208016995Y-109786727D01*
X208169880Y-110015535D01*
X208364465Y-110210120D01*
X208593273Y-110363005D01*
X208847510Y-110468314D01*
X209117408Y-110522000D01*
X209392592Y-110522000D01*
X209662490Y-110468314D01*
X209916727Y-110363005D01*
X210145535Y-110210120D01*
X210340120Y-110015535D01*
X210493005Y-109786727D01*
X210525000Y-109709485D01*
X210556995Y-109786727D01*
X210709880Y-110015535D01*
X210904465Y-110210120D01*
X211025001Y-110290660D01*
X211025000Y-111562540D01*
X210959010Y-111721855D01*
X210925000Y-111892835D01*
X210925000Y-112067165D01*
X210959010Y-112238145D01*
X211025723Y-112399205D01*
X211122576Y-112544155D01*
X211245845Y-112667424D01*
X211390795Y-112764277D01*
X211551855Y-112830990D01*
X211722835Y-112865000D01*
X211897165Y-112865000D01*
X212068145Y-112830990D01*
X212229205Y-112764277D01*
X212374155Y-112667424D01*
X212497424Y-112544155D01*
X212594277Y-112399205D01*
X212660990Y-112238145D01*
X212695000Y-112067165D01*
X212695000Y-111892835D01*
X212660990Y-111721855D01*
X212595000Y-111562540D01*
X212595000Y-110270614D01*
X212685535Y-110210120D01*
X212805090Y-110090565D01*
X213549040Y-110090565D01*
X213616020Y-110330656D01*
X213865048Y-110447756D01*
X214132135Y-110514023D01*
X214407017Y-110526910D01*
X214679133Y-110485922D01*
X214938023Y-110392636D01*
X215053980Y-110330656D01*
X215120960Y-110090565D01*
X214335000Y-109304605D01*
X213549040Y-110090565D01*
X212805090Y-110090565D01*
X212880120Y-110015535D01*
X213033005Y-109786727D01*
X213062692Y-109715057D01*
X213067364Y-109728023D01*
X213129344Y-109843980D01*
X213369435Y-109910960D01*
X214155395Y-109125000D01*
X213369435Y-108339040D01*
X213129344Y-108406020D01*
X213065515Y-108541760D01*
X213033005Y-108463273D01*
X212880120Y-108234465D01*
X212685535Y-108039880D01*
X212598659Y-107981831D01*
X212814607Y-107804608D01*
X212993932Y-107586101D01*
X213065000Y-107453142D01*
X213136068Y-107586100D01*
X213315392Y-107804607D01*
X213533899Y-107983932D01*
X213589683Y-108013749D01*
X213549040Y-108159435D01*
X214335000Y-108945395D01*
X214349143Y-108931253D01*
X214528748Y-109110858D01*
X214514605Y-109125000D01*
X215300565Y-109910960D01*
X215540656Y-109843980D01*
X215604485Y-109708240D01*
X215636995Y-109786727D01*
X215789880Y-110015535D01*
X215984465Y-110210120D01*
X216213273Y-110363005D01*
X216467510Y-110468314D01*
X216737408Y-110522000D01*
X217012592Y-110522000D01*
X217282490Y-110468314D01*
X217536727Y-110363005D01*
X217765535Y-110210120D01*
X217960120Y-110015535D01*
X218113005Y-109786727D01*
X218145000Y-109709485D01*
X218176995Y-109786727D01*
X218329880Y-110015535D01*
X218524465Y-110210120D01*
X218753273Y-110363005D01*
X219007510Y-110468314D01*
X219277408Y-110522000D01*
X219552592Y-110522000D01*
X219822490Y-110468314D01*
X220076727Y-110363005D01*
X220305535Y-110210120D01*
X220500120Y-110015535D01*
X220653005Y-109786727D01*
X220685000Y-109709485D01*
X220716995Y-109786727D01*
X220869880Y-110015535D01*
X221064465Y-110210120D01*
X221293273Y-110363005D01*
X221547510Y-110468314D01*
X221817408Y-110522000D01*
X222092592Y-110522000D01*
X222362490Y-110468314D01*
X222616727Y-110363005D01*
X222845535Y-110210120D01*
X223040120Y-110015535D01*
X223193005Y-109786727D01*
X223225000Y-109709485D01*
X223256995Y-109786727D01*
X223409880Y-110015535D01*
X223604465Y-110210120D01*
X223833273Y-110363005D01*
X224087510Y-110468314D01*
X224357408Y-110522000D01*
X224632592Y-110522000D01*
X224902490Y-110468314D01*
X225156727Y-110363005D01*
X225385535Y-110210120D01*
X225580120Y-110015535D01*
X225733005Y-109786727D01*
X225765000Y-109709485D01*
X225796995Y-109786727D01*
X225949880Y-110015535D01*
X226144465Y-110210120D01*
X226373273Y-110363005D01*
X226627510Y-110468314D01*
X226897408Y-110522000D01*
X227172592Y-110522000D01*
X227442490Y-110468314D01*
X227696727Y-110363005D01*
X227925535Y-110210120D01*
X228120120Y-110015535D01*
X228273005Y-109786727D01*
X228305000Y-109709485D01*
X228336995Y-109786727D01*
X228489880Y-110015535D01*
X228684465Y-110210120D01*
X228913273Y-110363005D01*
X229167510Y-110468314D01*
X229437408Y-110522000D01*
X229712592Y-110522000D01*
X229982490Y-110468314D01*
X230236727Y-110363005D01*
X230465535Y-110210120D01*
X230585090Y-110090565D01*
X231329040Y-110090565D01*
X231396020Y-110330656D01*
X231645048Y-110447756D01*
X231912135Y-110514023D01*
X232187017Y-110526910D01*
X232459133Y-110485922D01*
X232718023Y-110392636D01*
X232833980Y-110330656D01*
X232900960Y-110090565D01*
X232115000Y-109304605D01*
X231329040Y-110090565D01*
X230585090Y-110090565D01*
X230660120Y-110015535D01*
X230813005Y-109786727D01*
X230842692Y-109715057D01*
X230847364Y-109728023D01*
X230909344Y-109843980D01*
X231149435Y-109910960D01*
X231935395Y-109125000D01*
X231149435Y-108339040D01*
X230909344Y-108406020D01*
X230845515Y-108541760D01*
X230813005Y-108463273D01*
X230660120Y-108234465D01*
X230585090Y-108159435D01*
X231329040Y-108159435D01*
X232115000Y-108945395D01*
X232900960Y-108159435D01*
X232833980Y-107919344D01*
X232584952Y-107802244D01*
X232317865Y-107735977D01*
X232042983Y-107723090D01*
X231770867Y-107764078D01*
X231511977Y-107857364D01*
X231396020Y-107919344D01*
X231329040Y-108159435D01*
X230585090Y-108159435D01*
X230465535Y-108039880D01*
X230236727Y-107886995D01*
X229982490Y-107781686D01*
X229712592Y-107728000D01*
X229437408Y-107728000D01*
X229167510Y-107781686D01*
X228913273Y-107886995D01*
X228684465Y-108039880D01*
X228489880Y-108234465D01*
X228336995Y-108463273D01*
X228305000Y-108540515D01*
X228273005Y-108463273D01*
X228120120Y-108234465D01*
X227925535Y-108039880D01*
X227696727Y-107886995D01*
X227442490Y-107781686D01*
X227172592Y-107728000D01*
X226897408Y-107728000D01*
X226627510Y-107781686D01*
X226373273Y-107886995D01*
X226144465Y-108039880D01*
X225949880Y-108234465D01*
X225796995Y-108463273D01*
X225765000Y-108540515D01*
X225733005Y-108463273D01*
X225580120Y-108234465D01*
X225385535Y-108039880D01*
X225156727Y-107886995D01*
X224902490Y-107781686D01*
X224632592Y-107728000D01*
X224357408Y-107728000D01*
X224087510Y-107781686D01*
X223833273Y-107886995D01*
X223604465Y-108039880D01*
X223409880Y-108234465D01*
X223256995Y-108463273D01*
X223225000Y-108540515D01*
X223193005Y-108463273D01*
X223040120Y-108234465D01*
X222845535Y-108039880D01*
X222616727Y-107886995D01*
X222362490Y-107781686D01*
X222092592Y-107728000D01*
X221817408Y-107728000D01*
X221547510Y-107781686D01*
X221293273Y-107886995D01*
X221064465Y-108039880D01*
X220869880Y-108234465D01*
X220716995Y-108463273D01*
X220685000Y-108540515D01*
X220653005Y-108463273D01*
X220500120Y-108234465D01*
X220305535Y-108039880D01*
X220200000Y-107969364D01*
X220200000Y-104580868D01*
X220267719Y-104648587D01*
X220404479Y-104739967D01*
X220556440Y-104802911D01*
X220717760Y-104835000D01*
X220882240Y-104835000D01*
X221043560Y-104802911D01*
X221195521Y-104739967D01*
X221332281Y-104648587D01*
X221448587Y-104532281D01*
X221539967Y-104395521D01*
X221602911Y-104243560D01*
X221635000Y-104082240D01*
X221635000Y-103917760D01*
X221602911Y-103756440D01*
X221539967Y-103604479D01*
X221535000Y-103597045D01*
X221535000Y-82523132D01*
X221547510Y-82528314D01*
X221817408Y-82582000D01*
X222092592Y-82582000D01*
X222362490Y-82528314D01*
X222616727Y-82423005D01*
X222845535Y-82270120D01*
X223040120Y-82075535D01*
X223193005Y-81846727D01*
X223225000Y-81769485D01*
X223256995Y-81846727D01*
X223409880Y-82075535D01*
X223604465Y-82270120D01*
X223833273Y-82423005D01*
X224087510Y-82528314D01*
X224357408Y-82582000D01*
X224632592Y-82582000D01*
X224902490Y-82528314D01*
X225156727Y-82423005D01*
X225385535Y-82270120D01*
X225580120Y-82075535D01*
X225733005Y-81846727D01*
X225765000Y-81769485D01*
X225796995Y-81846727D01*
X225949880Y-82075535D01*
X226144465Y-82270120D01*
X226373273Y-82423005D01*
X226627510Y-82528314D01*
X226897408Y-82582000D01*
X227172592Y-82582000D01*
X227442490Y-82528314D01*
X227696727Y-82423005D01*
X227925535Y-82270120D01*
X228120120Y-82075535D01*
X228273005Y-81846727D01*
X228305000Y-81769485D01*
X228336995Y-81846727D01*
X228489880Y-82075535D01*
X228684465Y-82270120D01*
X228913273Y-82423005D01*
X229167510Y-82528314D01*
X229437408Y-82582000D01*
X229712592Y-82582000D01*
X229982490Y-82528314D01*
X230236727Y-82423005D01*
X230465535Y-82270120D01*
X230660120Y-82075535D01*
X230813005Y-81846727D01*
X230845000Y-81769485D01*
X230876995Y-81846727D01*
X231029880Y-82075535D01*
X231224465Y-82270120D01*
X231453273Y-82423005D01*
X231707510Y-82528314D01*
X231977408Y-82582000D01*
X232252592Y-82582000D01*
X232522490Y-82528314D01*
X232776727Y-82423005D01*
X233005535Y-82270120D01*
X233200120Y-82075535D01*
X233353005Y-81846727D01*
X233385000Y-81769485D01*
X233416995Y-81846727D01*
X233569880Y-82075535D01*
X233764465Y-82270120D01*
X233920001Y-82374046D01*
X233920000Y-86749562D01*
X233910033Y-86764479D01*
X233847089Y-86916440D01*
X233815000Y-87077760D01*
X233815000Y-87242240D01*
X233847089Y-87403560D01*
X233910033Y-87555521D01*
X234001413Y-87692281D01*
X234117719Y-87808587D01*
X234254479Y-87899967D01*
X234406440Y-87962911D01*
X234567760Y-87995000D01*
X234732240Y-87995000D01*
X234893560Y-87962911D01*
X235045521Y-87899967D01*
X235182281Y-87808587D01*
X235298587Y-87692281D01*
X235389967Y-87555521D01*
X235452911Y-87403560D01*
X235485000Y-87242240D01*
X235485000Y-87077760D01*
X235452911Y-86916440D01*
X235390000Y-86764559D01*
X235390000Y-82374045D01*
X235545535Y-82270120D01*
X235740120Y-82075535D01*
X235893005Y-81846727D01*
X235998314Y-81592490D01*
X236052000Y-81322592D01*
X236052000Y-81047408D01*
X235998314Y-80777510D01*
X235893005Y-80523273D01*
X235740120Y-80294465D01*
X235545535Y-80099880D01*
X235316727Y-79946995D01*
X235062490Y-79841686D01*
X234792592Y-79788000D01*
X234517408Y-79788000D01*
X234247510Y-79841686D01*
X233993273Y-79946995D01*
X233764465Y-80099880D01*
X233569880Y-80294465D01*
X233416995Y-80523273D01*
X233385000Y-80600515D01*
X233353005Y-80523273D01*
X233200120Y-80294465D01*
X233005535Y-80099880D01*
X232776727Y-79946995D01*
X232522490Y-79841686D01*
X232252592Y-79788000D01*
X231977408Y-79788000D01*
X231707510Y-79841686D01*
X231453273Y-79946995D01*
X231224465Y-80099880D01*
X231029880Y-80294465D01*
X230876995Y-80523273D01*
X230845000Y-80600515D01*
X230813005Y-80523273D01*
X230660120Y-80294465D01*
X230465535Y-80099880D01*
X230236727Y-79946995D01*
X229982490Y-79841686D01*
X229712592Y-79788000D01*
X229437408Y-79788000D01*
X229167510Y-79841686D01*
X228913273Y-79946995D01*
X228684465Y-80099880D01*
X228489880Y-80294465D01*
X228336995Y-80523273D01*
X228305000Y-80600515D01*
X228273005Y-80523273D01*
X228120120Y-80294465D01*
X227925535Y-80099880D01*
X227696727Y-79946995D01*
X227442490Y-79841686D01*
X227172592Y-79788000D01*
X226897408Y-79788000D01*
X226627510Y-79841686D01*
X226373273Y-79946995D01*
X226144465Y-80099880D01*
X225949880Y-80294465D01*
X225796995Y-80523273D01*
X225765000Y-80600515D01*
X225733005Y-80523273D01*
X225580120Y-80294465D01*
X225385535Y-80099880D01*
X225156727Y-79946995D01*
X224902490Y-79841686D01*
X224632592Y-79788000D01*
X224357408Y-79788000D01*
X224087510Y-79841686D01*
X223833273Y-79946995D01*
X223604465Y-80099880D01*
X223409880Y-80294465D01*
X223256995Y-80523273D01*
X223225000Y-80600515D01*
X223193005Y-80523273D01*
X223040120Y-80294465D01*
X222845535Y-80099880D01*
X222616727Y-79946995D01*
X222362490Y-79841686D01*
X222092592Y-79788000D01*
X221817408Y-79788000D01*
X221547510Y-79841686D01*
X221535000Y-79846868D01*
X221535000Y-72825640D01*
X221704356Y-72791953D01*
X222092902Y-72631012D01*
X222442583Y-72397363D01*
X222739963Y-72099983D01*
X222973612Y-71750302D01*
X223134553Y-71361756D01*
X223216600Y-70949279D01*
X223216600Y-70528721D01*
X223134553Y-70116244D01*
X222973612Y-69727698D01*
X222739963Y-69378017D01*
X222600946Y-69239000D01*
X224468028Y-69239000D01*
X224468028Y-72239000D01*
X224480288Y-72363482D01*
X224516598Y-72483180D01*
X224575563Y-72593494D01*
X224654915Y-72690185D01*
X224751606Y-72769537D01*
X224861920Y-72828502D01*
X224981618Y-72864812D01*
X225106100Y-72877072D01*
X225821100Y-72877072D01*
X225821101Y-75572746D01*
X225815723Y-75580795D01*
X225749010Y-75741855D01*
X225715000Y-75912835D01*
X225715000Y-76087165D01*
X225749010Y-76258145D01*
X225815723Y-76419205D01*
X225912576Y-76564155D01*
X226035845Y-76687424D01*
X226180795Y-76784277D01*
X226341855Y-76850990D01*
X226512835Y-76885000D01*
X226687165Y-76885000D01*
X226858145Y-76850990D01*
X227019205Y-76784277D01*
X227164155Y-76687424D01*
X227287424Y-76564155D01*
X227384277Y-76419205D01*
X227450990Y-76258145D01*
X227485000Y-76087165D01*
X227485000Y-75912835D01*
X227450990Y-75741855D01*
X227391100Y-75597267D01*
X227391100Y-72877072D01*
X228106100Y-72877072D01*
X228230582Y-72864812D01*
X228350280Y-72828502D01*
X228460594Y-72769537D01*
X228557285Y-72690185D01*
X228636637Y-72593494D01*
X228695602Y-72483180D01*
X228731912Y-72363482D01*
X228744172Y-72239000D01*
X228744172Y-70528721D01*
X229551100Y-70528721D01*
X229551100Y-70949279D01*
X229633147Y-71361756D01*
X229794088Y-71750302D01*
X230027737Y-72099983D01*
X230325117Y-72397363D01*
X230674798Y-72631012D01*
X231063344Y-72791953D01*
X231475821Y-72874000D01*
X231896379Y-72874000D01*
X232308856Y-72791953D01*
X232697402Y-72631012D01*
X233047083Y-72397363D01*
X233213793Y-72230653D01*
X235454052Y-72230653D01*
X235610062Y-72546214D01*
X235984845Y-72737020D01*
X236389651Y-72851044D01*
X236808924Y-72883902D01*
X237226551Y-72834334D01*
X237626483Y-72704243D01*
X237922138Y-72546214D01*
X238078148Y-72230653D01*
X236766100Y-70918605D01*
X235454052Y-72230653D01*
X233213793Y-72230653D01*
X233344463Y-72099983D01*
X233578112Y-71750302D01*
X233739053Y-71361756D01*
X233821100Y-70949279D01*
X233821100Y-70781824D01*
X234621198Y-70781824D01*
X234670766Y-71199451D01*
X234800857Y-71599383D01*
X234958886Y-71895038D01*
X235274447Y-72051048D01*
X236586495Y-70739000D01*
X236945705Y-70739000D01*
X238257753Y-72051048D01*
X238573314Y-71895038D01*
X238764120Y-71520255D01*
X238878144Y-71115449D01*
X238911002Y-70696176D01*
X238861434Y-70278549D01*
X238731343Y-69878617D01*
X238573314Y-69582962D01*
X238257753Y-69426952D01*
X236945705Y-70739000D01*
X236586495Y-70739000D01*
X235274447Y-69426952D01*
X234958886Y-69582962D01*
X234768080Y-69957745D01*
X234654056Y-70362551D01*
X234621198Y-70781824D01*
X233821100Y-70781824D01*
X233821100Y-70528721D01*
X233739053Y-70116244D01*
X233578112Y-69727698D01*
X233344463Y-69378017D01*
X233213793Y-69247347D01*
X235454052Y-69247347D01*
X236766100Y-70559395D01*
X238078148Y-69247347D01*
X237922138Y-68931786D01*
X237547355Y-68740980D01*
X237142549Y-68626956D01*
X236723276Y-68594098D01*
X236305649Y-68643666D01*
X235905717Y-68773757D01*
X235610062Y-68931786D01*
X235454052Y-69247347D01*
X233213793Y-69247347D01*
X233047083Y-69080637D01*
X232697402Y-68846988D01*
X232308856Y-68686047D01*
X231896379Y-68604000D01*
X231475821Y-68604000D01*
X231063344Y-68686047D01*
X230674798Y-68846988D01*
X230325117Y-69080637D01*
X230027737Y-69378017D01*
X229794088Y-69727698D01*
X229633147Y-70116244D01*
X229551100Y-70528721D01*
X228744172Y-70528721D01*
X228744172Y-69239000D01*
X228731912Y-69114518D01*
X228695602Y-68994820D01*
X228636637Y-68884506D01*
X228557285Y-68787815D01*
X228460594Y-68708463D01*
X228350280Y-68649498D01*
X228230582Y-68613188D01*
X228106100Y-68600928D01*
X225106100Y-68600928D01*
X224981618Y-68613188D01*
X224861920Y-68649498D01*
X224751606Y-68708463D01*
X224654915Y-68787815D01*
X224575563Y-68884506D01*
X224516598Y-68994820D01*
X224480288Y-69114518D01*
X224468028Y-69239000D01*
X222600946Y-69239000D01*
X222442583Y-69080637D01*
X222092902Y-68846988D01*
X221704356Y-68686047D01*
X221291879Y-68604000D01*
X220871321Y-68604000D01*
X220458844Y-68686047D01*
X220070298Y-68846988D01*
X219720617Y-69080637D01*
X219423237Y-69378017D01*
X219189588Y-69727698D01*
X219028647Y-70116244D01*
X218946600Y-70528721D01*
X218946600Y-70949279D01*
X219028647Y-71361756D01*
X219189588Y-71750302D01*
X219423237Y-72099983D01*
X219720617Y-72397363D01*
X220065000Y-72627472D01*
X220065000Y-79942138D01*
X219822490Y-79841686D01*
X219552592Y-79788000D01*
X219277408Y-79788000D01*
X219007510Y-79841686D01*
X218753273Y-79946995D01*
X218524465Y-80099880D01*
X218329880Y-80294465D01*
X218176995Y-80523273D01*
X218145000Y-80600515D01*
X218113005Y-80523273D01*
X217960120Y-80294465D01*
X217765535Y-80099880D01*
X217536727Y-79946995D01*
X217282490Y-79841686D01*
X217012592Y-79788000D01*
X216737408Y-79788000D01*
X216467510Y-79841686D01*
X216213273Y-79946995D01*
X215984465Y-80099880D01*
X215789880Y-80294465D01*
X215636995Y-80523273D01*
X215605000Y-80600515D01*
X215573005Y-80523273D01*
X215420120Y-80294465D01*
X215225535Y-80099880D01*
X214996727Y-79946995D01*
X214742490Y-79841686D01*
X214472592Y-79788000D01*
X214197408Y-79788000D01*
X213927510Y-79841686D01*
X213673273Y-79946995D01*
X213444465Y-80099880D01*
X213249880Y-80294465D01*
X213096995Y-80523273D01*
X213067308Y-80594943D01*
X213062636Y-80581977D01*
X213000656Y-80466020D01*
X212760565Y-80399040D01*
X211974605Y-81185000D01*
X212760565Y-81970960D01*
X213000656Y-81903980D01*
X213064485Y-81768240D01*
X213096995Y-81846727D01*
X213249880Y-82075535D01*
X213444465Y-82270120D01*
X213531341Y-82328169D01*
X213315393Y-82505392D01*
X213136068Y-82723899D01*
X213065000Y-82856858D01*
X212993932Y-82723899D01*
X212814608Y-82505392D01*
X212596101Y-82326068D01*
X212540317Y-82296251D01*
X212580960Y-82150565D01*
X211795000Y-81364605D01*
X211780858Y-81378748D01*
X211601253Y-81199143D01*
X211615395Y-81185000D01*
X211601253Y-81170858D01*
X211780858Y-80991253D01*
X211795000Y-81005395D01*
X212580960Y-80219435D01*
X212513980Y-79979344D01*
X212264952Y-79862244D01*
X211997865Y-79795977D01*
X211722983Y-79783090D01*
X211450867Y-79824078D01*
X211335000Y-79865828D01*
X211335000Y-72833597D01*
X211544356Y-72791953D01*
X211932902Y-72631012D01*
X212282583Y-72397363D01*
X212449293Y-72230653D01*
X214689552Y-72230653D01*
X214845562Y-72546214D01*
X215220345Y-72737020D01*
X215625151Y-72851044D01*
X216044424Y-72883902D01*
X216462051Y-72834334D01*
X216861983Y-72704243D01*
X217157638Y-72546214D01*
X217313648Y-72230653D01*
X216001600Y-70918605D01*
X214689552Y-72230653D01*
X212449293Y-72230653D01*
X212579963Y-72099983D01*
X212813612Y-71750302D01*
X212974553Y-71361756D01*
X213056600Y-70949279D01*
X213056600Y-70781824D01*
X213856698Y-70781824D01*
X213906266Y-71199451D01*
X214036357Y-71599383D01*
X214194386Y-71895038D01*
X214509947Y-72051048D01*
X215821995Y-70739000D01*
X216181205Y-70739000D01*
X217493253Y-72051048D01*
X217808814Y-71895038D01*
X217999620Y-71520255D01*
X218113644Y-71115449D01*
X218146502Y-70696176D01*
X218096934Y-70278549D01*
X217966843Y-69878617D01*
X217808814Y-69582962D01*
X217493253Y-69426952D01*
X216181205Y-70739000D01*
X215821995Y-70739000D01*
X214509947Y-69426952D01*
X214194386Y-69582962D01*
X214003580Y-69957745D01*
X213889556Y-70362551D01*
X213856698Y-70781824D01*
X213056600Y-70781824D01*
X213056600Y-70528721D01*
X212974553Y-70116244D01*
X212813612Y-69727698D01*
X212579963Y-69378017D01*
X212449293Y-69247347D01*
X214689552Y-69247347D01*
X216001600Y-70559395D01*
X217313648Y-69247347D01*
X217157638Y-68931786D01*
X216782855Y-68740980D01*
X216378049Y-68626956D01*
X215958776Y-68594098D01*
X215541149Y-68643666D01*
X215141217Y-68773757D01*
X214845562Y-68931786D01*
X214689552Y-69247347D01*
X212449293Y-69247347D01*
X212282583Y-69080637D01*
X211932902Y-68846988D01*
X211544356Y-68686047D01*
X211131879Y-68604000D01*
X210711321Y-68604000D01*
X210298844Y-68686047D01*
X209910298Y-68846988D01*
X209560617Y-69080637D01*
X209263237Y-69378017D01*
X209029588Y-69727698D01*
X208868647Y-70116244D01*
X208786600Y-70528721D01*
X208786600Y-70949279D01*
X208868647Y-71361756D01*
X209029588Y-71750302D01*
X209263237Y-72099983D01*
X209560617Y-72397363D01*
X209865000Y-72600745D01*
X209865000Y-75353421D01*
X209824155Y-75312576D01*
X209679205Y-75215723D01*
X209518145Y-75149010D01*
X209347165Y-75115000D01*
X209172835Y-75115000D01*
X209001855Y-75149010D01*
X208840795Y-75215723D01*
X208735000Y-75286413D01*
X208735000Y-74236105D01*
X208738556Y-74200000D01*
X208724365Y-74055915D01*
X208682337Y-73917367D01*
X208649490Y-73855915D01*
X208614087Y-73789680D01*
X208608063Y-73782340D01*
X208602911Y-73756440D01*
X208539967Y-73604479D01*
X208448587Y-73467719D01*
X208332281Y-73351413D01*
X208195521Y-73260033D01*
X208043560Y-73197089D01*
X207882240Y-73165000D01*
X207717760Y-73165000D01*
X207556440Y-73197089D01*
X207404479Y-73260033D01*
X207267719Y-73351413D01*
X207151413Y-73467719D01*
X207060033Y-73604479D01*
X206997089Y-73756440D01*
X206965000Y-73917760D01*
X206965000Y-74082240D01*
X206997089Y-74243560D01*
X207060033Y-74395521D01*
X207151413Y-74532281D01*
X207265000Y-74645868D01*
X207265001Y-79900716D01*
X207122490Y-79841686D01*
X206852592Y-79788000D01*
X206577408Y-79788000D01*
X206307510Y-79841686D01*
X206053273Y-79946995D01*
X205824465Y-80099880D01*
X205629880Y-80294465D01*
X205476995Y-80523273D01*
X205445000Y-80600515D01*
X205413005Y-80523273D01*
X205260120Y-80294465D01*
X205065535Y-80099880D01*
X204836727Y-79946995D01*
X204582490Y-79841686D01*
X204312592Y-79788000D01*
X204037408Y-79788000D01*
X203767510Y-79841686D01*
X203513273Y-79946995D01*
X203284465Y-80099880D01*
X203089880Y-80294465D01*
X202936995Y-80523273D01*
X202907308Y-80594943D01*
X202902636Y-80581977D01*
X202840656Y-80466020D01*
X202600565Y-80399040D01*
X201814605Y-81185000D01*
X202600565Y-81970960D01*
X202840656Y-81903980D01*
X202904485Y-81768240D01*
X202936995Y-81846727D01*
X203089880Y-82075535D01*
X203284465Y-82270120D01*
X203371341Y-82328169D01*
X203155393Y-82505392D01*
X202976068Y-82723899D01*
X202905000Y-82856858D01*
X202833932Y-82723899D01*
X202654608Y-82505392D01*
X202436101Y-82326068D01*
X202380317Y-82296251D01*
X202420960Y-82150565D01*
X201635000Y-81364605D01*
X201620858Y-81378748D01*
X201441253Y-81199143D01*
X201455395Y-81185000D01*
X201441253Y-81170858D01*
X201620858Y-80991253D01*
X201635000Y-81005395D01*
X202420960Y-80219435D01*
X202353980Y-79979344D01*
X202104952Y-79862244D01*
X201837865Y-79795977D01*
X201562983Y-79783090D01*
X201290867Y-79824078D01*
X201135000Y-79880242D01*
X201135000Y-76447460D01*
X201200990Y-76288145D01*
X201235000Y-76117165D01*
X201235000Y-75942835D01*
X201200990Y-75771855D01*
X201134277Y-75610795D01*
X201037424Y-75465845D01*
X200914155Y-75342576D01*
X200769205Y-75245723D01*
X200608145Y-75179010D01*
X200437165Y-75145000D01*
X200262835Y-75145000D01*
X200091855Y-75179010D01*
X199930795Y-75245723D01*
X199785845Y-75342576D01*
X199785000Y-75343421D01*
X199785000Y-73817460D01*
X199850990Y-73658145D01*
X199885000Y-73487165D01*
X199885000Y-73312835D01*
X199850990Y-73141855D01*
X199784277Y-72980795D01*
X199687424Y-72835845D01*
X199599325Y-72747746D01*
X199966051Y-72851044D01*
X200385324Y-72883902D01*
X200802951Y-72834334D01*
X201202883Y-72704243D01*
X201498538Y-72546214D01*
X201654548Y-72230653D01*
X200342500Y-70918605D01*
X199030452Y-72230653D01*
X199180177Y-72533501D01*
X199087165Y-72515000D01*
X198912835Y-72515000D01*
X198741855Y-72549010D01*
X198580795Y-72615723D01*
X198435845Y-72712576D01*
X198312576Y-72835845D01*
X198215723Y-72980795D01*
X198149010Y-73141855D01*
X198115000Y-73312835D01*
X198115000Y-73487165D01*
X198149010Y-73658145D01*
X198215000Y-73817460D01*
X198215001Y-80092840D01*
X198204465Y-80099880D01*
X198009880Y-80294465D01*
X197856995Y-80523273D01*
X197751686Y-80777510D01*
X197698000Y-81047408D01*
X197698000Y-81322592D01*
X197722762Y-81447080D01*
X197317180Y-81852663D01*
X197287226Y-81877246D01*
X197189128Y-81996778D01*
X197116236Y-82133151D01*
X197071349Y-82281124D01*
X197059990Y-82396450D01*
X197059990Y-82396457D01*
X197056193Y-82435010D01*
X195997500Y-82435010D01*
X195997500Y-72745460D01*
X196273802Y-72631012D01*
X196623483Y-72397363D01*
X196920863Y-72099983D01*
X197154512Y-71750302D01*
X197315453Y-71361756D01*
X197397500Y-70949279D01*
X197397500Y-70781824D01*
X198197598Y-70781824D01*
X198247166Y-71199451D01*
X198377257Y-71599383D01*
X198535286Y-71895038D01*
X198850847Y-72051048D01*
X200162895Y-70739000D01*
X200522105Y-70739000D01*
X201834153Y-72051048D01*
X202149714Y-71895038D01*
X202340520Y-71520255D01*
X202454544Y-71115449D01*
X202487402Y-70696176D01*
X202437834Y-70278549D01*
X202307743Y-69878617D01*
X202149714Y-69582962D01*
X201834153Y-69426952D01*
X200522105Y-70739000D01*
X200162895Y-70739000D01*
X198850847Y-69426952D01*
X198535286Y-69582962D01*
X198344480Y-69957745D01*
X198230456Y-70362551D01*
X198197598Y-70781824D01*
X197397500Y-70781824D01*
X197397500Y-70528721D01*
X197315453Y-70116244D01*
X197154512Y-69727698D01*
X196920863Y-69378017D01*
X196790193Y-69247347D01*
X199030452Y-69247347D01*
X200342500Y-70559395D01*
X201654548Y-69247347D01*
X201650422Y-69239000D01*
X203703528Y-69239000D01*
X203703528Y-72239000D01*
X203715788Y-72363482D01*
X203752098Y-72483180D01*
X203811063Y-72593494D01*
X203890415Y-72690185D01*
X203987106Y-72769537D01*
X204097420Y-72828502D01*
X204217118Y-72864812D01*
X204341600Y-72877072D01*
X205055001Y-72877072D01*
X205055000Y-75562540D01*
X204989010Y-75721855D01*
X204955000Y-75892835D01*
X204955000Y-76067165D01*
X204989010Y-76238145D01*
X205055723Y-76399205D01*
X205152576Y-76544155D01*
X205275845Y-76667424D01*
X205420795Y-76764277D01*
X205581855Y-76830990D01*
X205752835Y-76865000D01*
X205927165Y-76865000D01*
X206098145Y-76830990D01*
X206259205Y-76764277D01*
X206404155Y-76667424D01*
X206527424Y-76544155D01*
X206624277Y-76399205D01*
X206690990Y-76238145D01*
X206725000Y-76067165D01*
X206725000Y-75892835D01*
X206690990Y-75721855D01*
X206625000Y-75562540D01*
X206625000Y-72877072D01*
X207341600Y-72877072D01*
X207466082Y-72864812D01*
X207585780Y-72828502D01*
X207696094Y-72769537D01*
X207792785Y-72690185D01*
X207872137Y-72593494D01*
X207931102Y-72483180D01*
X207967412Y-72363482D01*
X207979672Y-72239000D01*
X207979672Y-69239000D01*
X207967412Y-69114518D01*
X207931102Y-68994820D01*
X207872137Y-68884506D01*
X207792785Y-68787815D01*
X207696094Y-68708463D01*
X207585780Y-68649498D01*
X207466082Y-68613188D01*
X207341600Y-68600928D01*
X204341600Y-68600928D01*
X204217118Y-68613188D01*
X204097420Y-68649498D01*
X203987106Y-68708463D01*
X203890415Y-68787815D01*
X203811063Y-68884506D01*
X203752098Y-68994820D01*
X203715788Y-69114518D01*
X203703528Y-69239000D01*
X201650422Y-69239000D01*
X201498538Y-68931786D01*
X201123755Y-68740980D01*
X200718949Y-68626956D01*
X200299676Y-68594098D01*
X199882049Y-68643666D01*
X199482117Y-68773757D01*
X199186462Y-68931786D01*
X199030452Y-69247347D01*
X196790193Y-69247347D01*
X196623483Y-69080637D01*
X196273802Y-68846988D01*
X195885256Y-68686047D01*
X195472779Y-68604000D01*
X195052221Y-68604000D01*
X194639744Y-68686047D01*
X194251198Y-68846988D01*
X193901517Y-69080637D01*
X193604137Y-69378017D01*
X193370488Y-69727698D01*
X193209547Y-70116244D01*
X193127500Y-70528721D01*
X192320572Y-70528721D01*
X192320572Y-69239000D01*
X192308312Y-69114518D01*
X192272002Y-68994820D01*
X192213037Y-68884506D01*
X192133685Y-68787815D01*
X192036994Y-68708463D01*
X191926680Y-68649498D01*
X191806982Y-68613188D01*
X191682500Y-68600928D01*
X188682500Y-68600928D01*
X188558018Y-68613188D01*
X188438320Y-68649498D01*
X188328006Y-68708463D01*
X188231315Y-68787815D01*
X188151963Y-68884506D01*
X188092998Y-68994820D01*
X188056688Y-69114518D01*
X188044428Y-69239000D01*
X188044428Y-72239000D01*
X188056688Y-72363482D01*
X188092998Y-72483180D01*
X188151963Y-72593494D01*
X188231315Y-72690185D01*
X188328006Y-72769537D01*
X188438320Y-72828502D01*
X188558018Y-72864812D01*
X188682500Y-72877072D01*
X189397500Y-72877072D01*
X189397501Y-74954453D01*
X189290256Y-74882795D01*
X189101898Y-74804774D01*
X188901939Y-74765000D01*
X188698061Y-74765000D01*
X188498102Y-74804774D01*
X188309744Y-74882795D01*
X188140226Y-74996063D01*
X187996063Y-75140226D01*
X187882795Y-75309744D01*
X187804774Y-75498102D01*
X187765000Y-75698061D01*
X187765000Y-75901939D01*
X187804774Y-76101898D01*
X187882795Y-76290256D01*
X187965001Y-76413286D01*
X187965000Y-80871289D01*
X187946063Y-80890226D01*
X187832795Y-81059744D01*
X187754774Y-81248102D01*
X187715000Y-81448061D01*
X183820478Y-81448061D01*
X183850400Y-81297640D01*
X183850400Y-81133160D01*
X183818311Y-80971840D01*
X183755367Y-80819879D01*
X183663987Y-80683119D01*
X183547681Y-80566813D01*
X183410921Y-80475433D01*
X183258960Y-80412489D01*
X183097640Y-80380400D01*
X182933160Y-80380400D01*
X182771840Y-80412489D01*
X182619879Y-80475433D01*
X182483119Y-80566813D01*
X182366813Y-80683119D01*
X182275433Y-80819879D01*
X182212489Y-80971840D01*
X182180400Y-81133160D01*
X182180400Y-81297640D01*
X182212489Y-81458960D01*
X182230400Y-81502201D01*
X182230401Y-84676018D01*
X182197089Y-84756440D01*
X182165000Y-84917760D01*
X179594678Y-84917760D01*
X179596796Y-84916978D01*
X179685434Y-84869601D01*
X179738822Y-84640927D01*
X179032900Y-83935005D01*
X178326978Y-84640927D01*
X177385000Y-84640927D01*
X177385000Y-83831855D01*
X177743948Y-83831855D01*
X177783630Y-84081849D01*
X177871322Y-84319296D01*
X177918699Y-84407934D01*
X178147373Y-84461322D01*
X178853295Y-83755400D01*
X178147373Y-83049478D01*
X177918699Y-83102866D01*
X177812805Y-83332774D01*
X177753798Y-83578924D01*
X177743948Y-83831855D01*
X177385000Y-83831855D01*
X177385000Y-82686801D01*
X177402911Y-82643560D01*
X177435000Y-82482240D01*
X177435000Y-82317760D01*
X177402911Y-82156440D01*
X177339967Y-82004479D01*
X177248587Y-81867719D01*
X177132281Y-81751413D01*
X176995521Y-81660033D01*
X176843560Y-81597089D01*
X176682240Y-81565000D01*
X176517760Y-81565000D01*
X176356440Y-81597089D01*
X176337000Y-81605141D01*
X176337000Y-80865459D01*
X176334560Y-80840683D01*
X176327333Y-80816858D01*
X176315597Y-80794902D01*
X176299803Y-80775656D01*
X176280557Y-80759862D01*
X176258601Y-80748126D01*
X176234776Y-80740899D01*
X176210000Y-80738459D01*
X168367000Y-80738459D01*
X168367000Y-77710244D01*
X169051100Y-77710244D01*
X169051100Y-78081556D01*
X169123539Y-78445734D01*
X169265634Y-78788782D01*
X169471925Y-79097518D01*
X169734482Y-79360075D01*
X170043218Y-79566366D01*
X170386266Y-79708461D01*
X170750444Y-79780900D01*
X171121756Y-79780900D01*
X171485934Y-79708461D01*
X171828982Y-79566366D01*
X172137718Y-79360075D01*
X172400275Y-79097518D01*
X172606566Y-78788782D01*
X172748661Y-78445734D01*
X172821100Y-78081556D01*
X172821100Y-77710244D01*
X172748661Y-77346066D01*
X172606566Y-77003018D01*
X172400275Y-76694282D01*
X172137718Y-76431725D01*
X171828982Y-76225434D01*
X171785000Y-76207216D01*
X171785000Y-73817460D01*
X171850990Y-73658145D01*
X171885000Y-73487165D01*
X171885000Y-73312835D01*
X171850990Y-73141855D01*
X171784277Y-72980795D01*
X171687424Y-72835845D01*
X171564155Y-72712576D01*
X171419205Y-72615723D01*
X171258145Y-72549010D01*
X171087165Y-72515000D01*
X170912835Y-72515000D01*
X170741855Y-72549010D01*
X170580795Y-72615723D01*
X170435845Y-72712576D01*
X170312576Y-72835845D01*
X170215723Y-72980795D01*
X170149010Y-73141855D01*
X170115000Y-73312835D01*
X170115000Y-73487165D01*
X170149010Y-73658145D01*
X170215000Y-73817460D01*
X170215001Y-76154279D01*
X170043218Y-76225434D01*
X169734482Y-76431725D01*
X169471925Y-76694282D01*
X169265634Y-77003018D01*
X169123539Y-77346066D01*
X169051100Y-77710244D01*
X168367000Y-77710244D01*
X168367000Y-75990000D01*
X168364560Y-75965224D01*
X168357333Y-75941399D01*
X168345597Y-75919443D01*
X168329803Y-75900197D01*
X168310557Y-75884403D01*
X168288601Y-75872667D01*
X168264776Y-75865440D01*
X168240000Y-75863000D01*
X159407268Y-75863000D01*
X159358856Y-75842947D01*
X158946379Y-75760900D01*
X158525821Y-75760900D01*
X158113344Y-75842947D01*
X158064932Y-75863000D01*
X146127000Y-75863000D01*
X146127000Y-71285675D01*
X146243346Y-71566560D01*
X146559074Y-72039080D01*
X146960920Y-72440926D01*
X147433440Y-72756654D01*
X147958477Y-72974131D01*
X148515852Y-73085000D01*
X149084148Y-73085000D01*
X149641523Y-72974131D01*
X150166560Y-72756654D01*
X150639080Y-72440926D01*
X151040926Y-72039080D01*
X151356654Y-71566560D01*
X151574131Y-71041523D01*
X151685000Y-70484148D01*
X151685000Y-69915852D01*
X151574131Y-69358477D01*
X151524643Y-69239000D01*
X161844328Y-69239000D01*
X161844328Y-72239000D01*
X161856588Y-72363482D01*
X161892898Y-72483180D01*
X161951863Y-72593494D01*
X162031215Y-72690185D01*
X162127906Y-72769537D01*
X162238220Y-72828502D01*
X162357918Y-72864812D01*
X162482400Y-72877072D01*
X163197401Y-72877072D01*
X163197401Y-73025029D01*
X163149010Y-73141855D01*
X163115000Y-73312835D01*
X163115000Y-73487165D01*
X163149010Y-73658145D01*
X163215723Y-73819205D01*
X163312576Y-73964155D01*
X163435845Y-74087424D01*
X163580795Y-74184277D01*
X163741855Y-74250990D01*
X163912835Y-74285000D01*
X164087165Y-74285000D01*
X164258145Y-74250990D01*
X164419205Y-74184277D01*
X164564155Y-74087424D01*
X164687424Y-73964155D01*
X164784277Y-73819205D01*
X164850990Y-73658145D01*
X164885000Y-73487165D01*
X164885000Y-73312835D01*
X164850990Y-73141855D01*
X164784277Y-72980795D01*
X164767400Y-72955537D01*
X164767400Y-72877072D01*
X165482400Y-72877072D01*
X165606882Y-72864812D01*
X165726580Y-72828502D01*
X165836894Y-72769537D01*
X165933585Y-72690185D01*
X166012937Y-72593494D01*
X166071902Y-72483180D01*
X166108212Y-72363482D01*
X166120472Y-72239000D01*
X166120472Y-72230653D01*
X167750352Y-72230653D01*
X167906362Y-72546214D01*
X168281145Y-72737020D01*
X168685951Y-72851044D01*
X169105224Y-72883902D01*
X169522851Y-72834334D01*
X169922783Y-72704243D01*
X170218438Y-72546214D01*
X170374448Y-72230653D01*
X169062400Y-70918605D01*
X167750352Y-72230653D01*
X166120472Y-72230653D01*
X166120472Y-70781824D01*
X166917498Y-70781824D01*
X166967066Y-71199451D01*
X167097157Y-71599383D01*
X167255186Y-71895038D01*
X167570747Y-72051048D01*
X168882795Y-70739000D01*
X169242005Y-70739000D01*
X170554053Y-72051048D01*
X170869614Y-71895038D01*
X171060420Y-71520255D01*
X171174444Y-71115449D01*
X171207302Y-70696176D01*
X171187427Y-70528721D01*
X172007400Y-70528721D01*
X172007400Y-70949279D01*
X172089447Y-71361756D01*
X172250388Y-71750302D01*
X172484037Y-72099983D01*
X172781417Y-72397363D01*
X173131098Y-72631012D01*
X173415001Y-72748608D01*
X173415000Y-75171289D01*
X173396063Y-75190226D01*
X173282795Y-75359744D01*
X173204774Y-75548102D01*
X173165000Y-75748061D01*
X173165000Y-75951939D01*
X173204774Y-76151898D01*
X173282795Y-76340256D01*
X173396063Y-76509774D01*
X173540226Y-76653937D01*
X173709744Y-76767205D01*
X173898102Y-76845226D01*
X174098061Y-76885000D01*
X174301939Y-76885000D01*
X174406508Y-76864200D01*
X176634428Y-76864200D01*
X176634428Y-79064200D01*
X176646688Y-79188682D01*
X176682998Y-79308380D01*
X176741963Y-79418694D01*
X176821315Y-79515385D01*
X176918006Y-79594737D01*
X177028320Y-79653702D01*
X177148018Y-79690012D01*
X177272500Y-79702272D01*
X179472500Y-79702272D01*
X179517776Y-79697813D01*
X179517900Y-79787176D01*
X179517900Y-79927328D01*
X178382900Y-79927328D01*
X178258418Y-79939588D01*
X178138720Y-79975898D01*
X178028406Y-80034863D01*
X177931715Y-80114215D01*
X177852363Y-80210906D01*
X177793398Y-80321220D01*
X177757088Y-80440918D01*
X177744828Y-80565400D01*
X177744828Y-81865400D01*
X177757088Y-81989882D01*
X177793398Y-82109580D01*
X177852363Y-82219894D01*
X177931715Y-82316585D01*
X178028406Y-82395937D01*
X178138720Y-82454902D01*
X178258418Y-82491212D01*
X178382900Y-82503472D01*
X178723196Y-82503472D01*
X178706451Y-82506130D01*
X178469004Y-82593822D01*
X178380366Y-82641199D01*
X178326978Y-82869873D01*
X179032900Y-83575795D01*
X179047043Y-83561653D01*
X179226648Y-83741258D01*
X179212505Y-83755400D01*
X179918427Y-84461322D01*
X180147101Y-84407934D01*
X180252995Y-84178026D01*
X180312002Y-83931876D01*
X180318290Y-83770400D01*
X180429461Y-83770400D01*
X180677721Y-83721019D01*
X180911576Y-83624153D01*
X181122040Y-83483525D01*
X181301025Y-83304540D01*
X181441653Y-83094076D01*
X181538519Y-82860221D01*
X181587900Y-82611961D01*
X181587900Y-82358839D01*
X181538519Y-82110579D01*
X181441653Y-81876724D01*
X181301025Y-81666260D01*
X181122040Y-81487275D01*
X181087900Y-81464463D01*
X181087900Y-79825106D01*
X181087952Y-79824570D01*
X181087900Y-79787144D01*
X181087900Y-79748539D01*
X181087846Y-79747987D01*
X181085397Y-77985842D01*
X181102911Y-77943560D01*
X181132796Y-77793317D01*
X184257500Y-77793317D01*
X184257500Y-78135083D01*
X184324175Y-78470281D01*
X184454963Y-78786031D01*
X184644837Y-79070198D01*
X184886502Y-79311863D01*
X185170669Y-79501737D01*
X185486419Y-79632525D01*
X185821617Y-79699200D01*
X186163383Y-79699200D01*
X186498581Y-79632525D01*
X186814331Y-79501737D01*
X187098498Y-79311863D01*
X187340163Y-79070198D01*
X187530037Y-78786031D01*
X187660825Y-78470281D01*
X187727500Y-78135083D01*
X187727500Y-77793317D01*
X187660825Y-77458119D01*
X187530037Y-77142369D01*
X187340163Y-76858202D01*
X187098498Y-76616537D01*
X186814331Y-76426663D01*
X186498581Y-76295875D01*
X186163383Y-76229200D01*
X185821617Y-76229200D01*
X185486419Y-76295875D01*
X185170669Y-76426663D01*
X184886502Y-76616537D01*
X184644837Y-76858202D01*
X184454963Y-77142369D01*
X184324175Y-77458119D01*
X184257500Y-77793317D01*
X181132796Y-77793317D01*
X181135000Y-77782240D01*
X181135000Y-77617760D01*
X181102911Y-77456440D01*
X181039967Y-77304479D01*
X180948587Y-77167719D01*
X180832281Y-77051413D01*
X180695521Y-76960033D01*
X180543560Y-76897089D01*
X180382240Y-76865000D01*
X180217760Y-76865000D01*
X180110572Y-76886321D01*
X180110572Y-76864200D01*
X180098312Y-76739718D01*
X180062002Y-76620020D01*
X180003037Y-76509706D01*
X179923685Y-76413015D01*
X179826994Y-76333663D01*
X179716680Y-76274698D01*
X179596982Y-76238388D01*
X179472500Y-76226128D01*
X177272500Y-76226128D01*
X177148018Y-76238388D01*
X177028320Y-76274698D01*
X176918006Y-76333663D01*
X176821315Y-76413015D01*
X176741963Y-76509706D01*
X176682998Y-76620020D01*
X176646688Y-76739718D01*
X176634428Y-76864200D01*
X174406508Y-76864200D01*
X174501898Y-76845226D01*
X174690256Y-76767205D01*
X174859774Y-76653937D01*
X175003937Y-76509774D01*
X175117205Y-76340256D01*
X175195226Y-76151898D01*
X175235000Y-75951939D01*
X175235000Y-75748061D01*
X175195226Y-75548102D01*
X175117205Y-75359744D01*
X175003937Y-75190226D01*
X174985000Y-75171289D01*
X174985000Y-72700891D01*
X175153702Y-72631012D01*
X175503383Y-72397363D01*
X175800763Y-72099983D01*
X176034412Y-71750302D01*
X176195353Y-71361756D01*
X176277400Y-70949279D01*
X176277400Y-70528721D01*
X176195353Y-70116244D01*
X176034412Y-69727698D01*
X175800763Y-69378017D01*
X175661746Y-69239000D01*
X177490728Y-69239000D01*
X177490728Y-72239000D01*
X177502988Y-72363482D01*
X177539298Y-72483180D01*
X177598263Y-72593494D01*
X177677615Y-72690185D01*
X177774306Y-72769537D01*
X177884620Y-72828502D01*
X178004318Y-72864812D01*
X178128800Y-72877072D01*
X178893801Y-72877072D01*
X178893801Y-73603942D01*
X178860033Y-73654479D01*
X178797089Y-73806440D01*
X178765000Y-73967760D01*
X178765000Y-74132240D01*
X178797089Y-74293560D01*
X178860033Y-74445521D01*
X178951413Y-74582281D01*
X179067719Y-74698587D01*
X179204479Y-74789967D01*
X179356440Y-74852911D01*
X179517760Y-74885000D01*
X179682240Y-74885000D01*
X179843560Y-74852911D01*
X179995521Y-74789967D01*
X180132281Y-74698587D01*
X180248587Y-74582281D01*
X180339967Y-74445521D01*
X180402911Y-74293560D01*
X180435000Y-74132240D01*
X180435000Y-73967760D01*
X180402911Y-73806440D01*
X180363800Y-73712017D01*
X180363800Y-72877072D01*
X181128800Y-72877072D01*
X181253282Y-72864812D01*
X181372980Y-72828502D01*
X181483294Y-72769537D01*
X181579985Y-72690185D01*
X181659337Y-72593494D01*
X181718302Y-72483180D01*
X181754612Y-72363482D01*
X181766872Y-72239000D01*
X181766872Y-72230653D01*
X183396752Y-72230653D01*
X183552762Y-72546214D01*
X183927545Y-72737020D01*
X184332351Y-72851044D01*
X184751624Y-72883902D01*
X185169251Y-72834334D01*
X185569183Y-72704243D01*
X185864838Y-72546214D01*
X186020848Y-72230653D01*
X184708800Y-70918605D01*
X183396752Y-72230653D01*
X181766872Y-72230653D01*
X181766872Y-70781824D01*
X182563898Y-70781824D01*
X182613466Y-71199451D01*
X182743557Y-71599383D01*
X182901586Y-71895038D01*
X183217147Y-72051048D01*
X184529195Y-70739000D01*
X184888405Y-70739000D01*
X186200453Y-72051048D01*
X186516014Y-71895038D01*
X186706820Y-71520255D01*
X186820844Y-71115449D01*
X186853702Y-70696176D01*
X186804134Y-70278549D01*
X186674043Y-69878617D01*
X186516014Y-69582962D01*
X186200453Y-69426952D01*
X184888405Y-70739000D01*
X184529195Y-70739000D01*
X183217147Y-69426952D01*
X182901586Y-69582962D01*
X182710780Y-69957745D01*
X182596756Y-70362551D01*
X182563898Y-70781824D01*
X181766872Y-70781824D01*
X181766872Y-69247347D01*
X183396752Y-69247347D01*
X184708800Y-70559395D01*
X186020848Y-69247347D01*
X185864838Y-68931786D01*
X185490055Y-68740980D01*
X185085249Y-68626956D01*
X184665976Y-68594098D01*
X184248349Y-68643666D01*
X183848417Y-68773757D01*
X183552762Y-68931786D01*
X183396752Y-69247347D01*
X181766872Y-69247347D01*
X181766872Y-69239000D01*
X181754612Y-69114518D01*
X181718302Y-68994820D01*
X181659337Y-68884506D01*
X181579985Y-68787815D01*
X181483294Y-68708463D01*
X181372980Y-68649498D01*
X181253282Y-68613188D01*
X181128800Y-68600928D01*
X178128800Y-68600928D01*
X178004318Y-68613188D01*
X177884620Y-68649498D01*
X177774306Y-68708463D01*
X177677615Y-68787815D01*
X177598263Y-68884506D01*
X177539298Y-68994820D01*
X177502988Y-69114518D01*
X177490728Y-69239000D01*
X175661746Y-69239000D01*
X175503383Y-69080637D01*
X175153702Y-68846988D01*
X174765156Y-68686047D01*
X174352679Y-68604000D01*
X173932121Y-68604000D01*
X173519644Y-68686047D01*
X173131098Y-68846988D01*
X172781417Y-69080637D01*
X172484037Y-69378017D01*
X172250388Y-69727698D01*
X172089447Y-70116244D01*
X172007400Y-70528721D01*
X171187427Y-70528721D01*
X171157734Y-70278549D01*
X171027643Y-69878617D01*
X170869614Y-69582962D01*
X170554053Y-69426952D01*
X169242005Y-70739000D01*
X168882795Y-70739000D01*
X167570747Y-69426952D01*
X167255186Y-69582962D01*
X167064380Y-69957745D01*
X166950356Y-70362551D01*
X166917498Y-70781824D01*
X166120472Y-70781824D01*
X166120472Y-69247347D01*
X167750352Y-69247347D01*
X169062400Y-70559395D01*
X170374448Y-69247347D01*
X170218438Y-68931786D01*
X169843655Y-68740980D01*
X169438849Y-68626956D01*
X169019576Y-68594098D01*
X168601949Y-68643666D01*
X168202017Y-68773757D01*
X167906362Y-68931786D01*
X167750352Y-69247347D01*
X166120472Y-69247347D01*
X166120472Y-69239000D01*
X166108212Y-69114518D01*
X166071902Y-68994820D01*
X166012937Y-68884506D01*
X165933585Y-68787815D01*
X165836894Y-68708463D01*
X165726580Y-68649498D01*
X165606882Y-68613188D01*
X165482400Y-68600928D01*
X162482400Y-68600928D01*
X162357918Y-68613188D01*
X162238220Y-68649498D01*
X162127906Y-68708463D01*
X162031215Y-68787815D01*
X161951863Y-68884506D01*
X161892898Y-68994820D01*
X161856588Y-69114518D01*
X161844328Y-69239000D01*
X151524643Y-69239000D01*
X151356654Y-68833440D01*
X151040926Y-68360920D01*
X150807006Y-68127000D01*
X243873000Y-68127000D01*
X243873000Y-70053346D01*
%TA.AperFunction,Conductor*%
D33*
G36*
X243873000Y-70053346D02*
G01*
X243738112Y-69727698D01*
X243504463Y-69378017D01*
X243207083Y-69080637D01*
X242857402Y-68846988D01*
X242468856Y-68686047D01*
X242056379Y-68604000D01*
X241635821Y-68604000D01*
X241223344Y-68686047D01*
X240834798Y-68846988D01*
X240485117Y-69080637D01*
X240187737Y-69378017D01*
X239954088Y-69727698D01*
X239793147Y-70116244D01*
X239711100Y-70528721D01*
X239711100Y-70949279D01*
X239793147Y-71361756D01*
X239954088Y-71750302D01*
X240187737Y-72099983D01*
X240485117Y-72397363D01*
X240834798Y-72631012D01*
X241223344Y-72791953D01*
X241635821Y-72874000D01*
X242056379Y-72874000D01*
X242468856Y-72791953D01*
X242857402Y-72631012D01*
X243207083Y-72397363D01*
X243504463Y-72099983D01*
X243738112Y-71750302D01*
X243873000Y-71424654D01*
X243873000Y-78692903D01*
X243856654Y-78653440D01*
X243540926Y-78180920D01*
X243139080Y-77779074D01*
X242666560Y-77463346D01*
X242141523Y-77245869D01*
X241584148Y-77135000D01*
X241015852Y-77135000D01*
X240458477Y-77245869D01*
X239933440Y-77463346D01*
X239460920Y-77779074D01*
X239315000Y-77924994D01*
X239315000Y-76477460D01*
X239380990Y-76318145D01*
X239415000Y-76147165D01*
X239415000Y-75972835D01*
X239380990Y-75801855D01*
X239314277Y-75640795D01*
X239217424Y-75495845D01*
X239094155Y-75372576D01*
X238949205Y-75275723D01*
X238788145Y-75209010D01*
X238617165Y-75175000D01*
X238442835Y-75175000D01*
X238271855Y-75209010D01*
X238110795Y-75275723D01*
X237965845Y-75372576D01*
X237842576Y-75495845D01*
X237745723Y-75640795D01*
X237679010Y-75801855D01*
X237645000Y-75972835D01*
X237645000Y-76147165D01*
X237679010Y-76318145D01*
X237745001Y-76477462D01*
X237745000Y-104924843D01*
X234917081Y-107752762D01*
X234792592Y-107728000D01*
X234517408Y-107728000D01*
X234247510Y-107781686D01*
X233993273Y-107886995D01*
X233764465Y-108039880D01*
X233569880Y-108234465D01*
X233416995Y-108463273D01*
X233387308Y-108534943D01*
X233382636Y-108521977D01*
X233320656Y-108406020D01*
X233080565Y-108339040D01*
X232294605Y-109125000D01*
X233080565Y-109910960D01*
X233320656Y-109843980D01*
X233384485Y-109708240D01*
X233416995Y-109786727D01*
X233569880Y-110015535D01*
X233764465Y-110210120D01*
X233870000Y-110280637D01*
X233870001Y-111584393D01*
X233865723Y-111590795D01*
X233799010Y-111751855D01*
X233765000Y-111922835D01*
X233765000Y-112097165D01*
X233799010Y-112268145D01*
X233865723Y-112429205D01*
X233962576Y-112574155D01*
X234085845Y-112697424D01*
X234230795Y-112794277D01*
X234391855Y-112860990D01*
X234562835Y-112895000D01*
X234737165Y-112895000D01*
X234908145Y-112860990D01*
X235069205Y-112794277D01*
X235214155Y-112697424D01*
X235337424Y-112574155D01*
X235434277Y-112429205D01*
X235500990Y-112268145D01*
X235535000Y-112097165D01*
X235535000Y-111922835D01*
X235500990Y-111751855D01*
X235440000Y-111604612D01*
X235440000Y-110280636D01*
X235545535Y-110210120D01*
X235740120Y-110015535D01*
X235893005Y-109786727D01*
X235998314Y-109532490D01*
X236052000Y-109262592D01*
X236052000Y-108987408D01*
X236027238Y-108862919D01*
X239057811Y-105832346D01*
X239087764Y-105807764D01*
X239185862Y-105688233D01*
X239258754Y-105551860D01*
X239268613Y-105519359D01*
X239303642Y-105403887D01*
X239314617Y-105292449D01*
X239315000Y-105288561D01*
X239315000Y-105288556D01*
X239318797Y-105250000D01*
X239315000Y-105211444D01*
X239315000Y-82115006D01*
X239460920Y-82260926D01*
X239933440Y-82576654D01*
X240458477Y-82794131D01*
X241015852Y-82905000D01*
X241584148Y-82905000D01*
X242141523Y-82794131D01*
X242666560Y-82576654D01*
X243139080Y-82260926D01*
X243540926Y-81859080D01*
X243856654Y-81386560D01*
X243873000Y-81347097D01*
X243873000Y-110362903D01*
X243856654Y-110323440D01*
X243540926Y-109850920D01*
X243139080Y-109449074D01*
X242666560Y-109133346D01*
X242141523Y-108915869D01*
X241584148Y-108805000D01*
X241015852Y-108805000D01*
X240458477Y-108915869D01*
X239933440Y-109133346D01*
X239460920Y-109449074D01*
X239059074Y-109850920D01*
X238743346Y-110323440D01*
X238525869Y-110848477D01*
X238415000Y-111405852D01*
X238415000Y-111974148D01*
X238525869Y-112531523D01*
X238743346Y-113056560D01*
X239059074Y-113529080D01*
X239460920Y-113930926D01*
X239673549Y-114073000D01*
X150421485Y-114073000D01*
X150649080Y-113920926D01*
X151050926Y-113519080D01*
X151366654Y-113046560D01*
X151584131Y-112521523D01*
X151695000Y-111964148D01*
X151695000Y-111395852D01*
X151584131Y-110838477D01*
X151366654Y-110313440D01*
X151050926Y-109840920D01*
X150649080Y-109439074D01*
X150176560Y-109123346D01*
X149651523Y-108905869D01*
X149094148Y-108795000D01*
X148525852Y-108795000D01*
X147968477Y-108905869D01*
X147443440Y-109123346D01*
X146970920Y-109439074D01*
X146569074Y-109840920D01*
X146253346Y-110313440D01*
X146127000Y-110618467D01*
X146127000Y-107244553D01*
X148047952Y-107244553D01*
X148203962Y-107560114D01*
X148578745Y-107750920D01*
X148983551Y-107864944D01*
X149402824Y-107897802D01*
X149820451Y-107848234D01*
X150220383Y-107718143D01*
X150516038Y-107560114D01*
X150672048Y-107244553D01*
X149360000Y-105932505D01*
X148047952Y-107244553D01*
X146127000Y-107244553D01*
X146127000Y-105795724D01*
X147215098Y-105795724D01*
X147264666Y-106213351D01*
X147394757Y-106613283D01*
X147552786Y-106908938D01*
X147868347Y-107064948D01*
X149180395Y-105752900D01*
X149539605Y-105752900D01*
X150851653Y-107064948D01*
X151167214Y-106908938D01*
X151267119Y-106712702D01*
X155896903Y-106712702D01*
X155968486Y-106956671D01*
X156223996Y-107077571D01*
X156498184Y-107146300D01*
X156780512Y-107160217D01*
X157060130Y-107118787D01*
X157326292Y-107023603D01*
X157451514Y-106956671D01*
X157523097Y-106712702D01*
X156710000Y-105899605D01*
X155896903Y-106712702D01*
X151267119Y-106712702D01*
X151358020Y-106534155D01*
X151472044Y-106129349D01*
X151504902Y-105710076D01*
X151455334Y-105292449D01*
X151325243Y-104892517D01*
X151167214Y-104596862D01*
X150851653Y-104440852D01*
X149539605Y-105752900D01*
X149180395Y-105752900D01*
X147868347Y-104440852D01*
X147552786Y-104596862D01*
X147361980Y-104971645D01*
X147247956Y-105376451D01*
X147215098Y-105795724D01*
X146127000Y-105795724D01*
X146127000Y-104261247D01*
X148047952Y-104261247D01*
X149360000Y-105573295D01*
X150672048Y-104261247D01*
X150516038Y-103945686D01*
X150141255Y-103754880D01*
X149736449Y-103640856D01*
X149317176Y-103607998D01*
X148899549Y-103657566D01*
X148499617Y-103787657D01*
X148203962Y-103945686D01*
X148047952Y-104261247D01*
X146127000Y-104261247D01*
X146127000Y-99172900D01*
X147221928Y-99172900D01*
X147221928Y-102172900D01*
X147234188Y-102297382D01*
X147270498Y-102417080D01*
X147329463Y-102527394D01*
X147408815Y-102624085D01*
X147505506Y-102703437D01*
X147615820Y-102762402D01*
X147735518Y-102798712D01*
X147860000Y-102810972D01*
X150860000Y-102810972D01*
X150984482Y-102798712D01*
X151104180Y-102762402D01*
X151214494Y-102703437D01*
X151311185Y-102624085D01*
X151390537Y-102527394D01*
X151449502Y-102417080D01*
X151485812Y-102297382D01*
X151498072Y-102172900D01*
X151498072Y-99172900D01*
X151485812Y-99048418D01*
X151449502Y-98928720D01*
X151390537Y-98818406D01*
X151311185Y-98721715D01*
X151214494Y-98642363D01*
X151104180Y-98583398D01*
X150984482Y-98547088D01*
X150860000Y-98534828D01*
X150145000Y-98534828D01*
X150145000Y-97391077D01*
X150201831Y-97367537D01*
X150485998Y-97177663D01*
X150727663Y-96935998D01*
X150917537Y-96651831D01*
X151048325Y-96336081D01*
X151115000Y-96000883D01*
X151115000Y-95659117D01*
X151048325Y-95323919D01*
X150917537Y-95008169D01*
X150731671Y-94730000D01*
X155261928Y-94730000D01*
X155261928Y-96930000D01*
X155274188Y-97054482D01*
X155310498Y-97174180D01*
X155369463Y-97284494D01*
X155448815Y-97381185D01*
X155545506Y-97460537D01*
X155655820Y-97519502D01*
X155775518Y-97555812D01*
X155900000Y-97568072D01*
X156215000Y-97568072D01*
X156215001Y-102281928D01*
X155910000Y-102281928D01*
X155785518Y-102294188D01*
X155665820Y-102330498D01*
X155555506Y-102389463D01*
X155458815Y-102468815D01*
X155379463Y-102565506D01*
X155320498Y-102675820D01*
X155284188Y-102795518D01*
X155271928Y-102920000D01*
X155271928Y-104520000D01*
X155284188Y-104644482D01*
X155320498Y-104764180D01*
X155379463Y-104874494D01*
X155458815Y-104971185D01*
X155471758Y-104981807D01*
X155352429Y-105233996D01*
X155283700Y-105508184D01*
X155269783Y-105790512D01*
X155311213Y-106070130D01*
X155406397Y-106336292D01*
X155473329Y-106461514D01*
X155717298Y-106533097D01*
X156530395Y-105720000D01*
X156516253Y-105705858D01*
X156695858Y-105526253D01*
X156710000Y-105540395D01*
X156724143Y-105526253D01*
X156903748Y-105705858D01*
X156889605Y-105720000D01*
X157702702Y-106533097D01*
X157946671Y-106461514D01*
X158067571Y-106206004D01*
X158136300Y-105931816D01*
X158150217Y-105649488D01*
X158108787Y-105369870D01*
X158013603Y-105103708D01*
X157948384Y-104981691D01*
X157961185Y-104971185D01*
X158040537Y-104874494D01*
X158099502Y-104764180D01*
X158135812Y-104644482D01*
X158148072Y-104520000D01*
X158148072Y-103712835D01*
X160115000Y-103712835D01*
X160115000Y-103887165D01*
X160149010Y-104058145D01*
X160215000Y-104217460D01*
X160215001Y-105982538D01*
X160149010Y-106141855D01*
X160115000Y-106312835D01*
X160115000Y-106487165D01*
X160149010Y-106658145D01*
X160215723Y-106819205D01*
X160312576Y-106964155D01*
X160435845Y-107087424D01*
X160580795Y-107184277D01*
X160741855Y-107250990D01*
X160912835Y-107285000D01*
X161087165Y-107285000D01*
X161258145Y-107250990D01*
X161419205Y-107184277D01*
X161564155Y-107087424D01*
X161687424Y-106964155D01*
X161784277Y-106819205D01*
X161850990Y-106658145D01*
X161885000Y-106487165D01*
X161885000Y-106312835D01*
X161850990Y-106141855D01*
X161785000Y-105982540D01*
X161785000Y-104217460D01*
X161815734Y-104143260D01*
X161889418Y-104165612D01*
X162013900Y-104177872D01*
X162215000Y-104177872D01*
X162215000Y-104782540D01*
X162149010Y-104941855D01*
X162115000Y-105112835D01*
X162115000Y-105287165D01*
X162149010Y-105458145D01*
X162215723Y-105619205D01*
X162312576Y-105764155D01*
X162435845Y-105887424D01*
X162580795Y-105984277D01*
X162741855Y-106050990D01*
X162912835Y-106085000D01*
X163087165Y-106085000D01*
X163258145Y-106050990D01*
X163419205Y-105984277D01*
X163564155Y-105887424D01*
X163687424Y-105764155D01*
X163784277Y-105619205D01*
X163850990Y-105458145D01*
X163885000Y-105287165D01*
X163885000Y-105112835D01*
X165715000Y-105112835D01*
X165715000Y-105287165D01*
X165749010Y-105458145D01*
X165815723Y-105619205D01*
X165832501Y-105644315D01*
X165832500Y-108965040D01*
X165766510Y-109124355D01*
X165732500Y-109295335D01*
X165732500Y-109469665D01*
X165766510Y-109640645D01*
X165833223Y-109801705D01*
X165930076Y-109946655D01*
X166053345Y-110069924D01*
X166198295Y-110166777D01*
X166359355Y-110233490D01*
X166530335Y-110267500D01*
X166704665Y-110267500D01*
X166875645Y-110233490D01*
X167036705Y-110166777D01*
X167181655Y-110069924D01*
X167304924Y-109946655D01*
X167401777Y-109801705D01*
X167468490Y-109640645D01*
X167502500Y-109469665D01*
X167502500Y-109312835D01*
X171115000Y-109312835D01*
X171115000Y-109487165D01*
X171149010Y-109658145D01*
X171215723Y-109819205D01*
X171312576Y-109964155D01*
X171435845Y-110087424D01*
X171580795Y-110184277D01*
X171741855Y-110250990D01*
X171912835Y-110285000D01*
X172087165Y-110285000D01*
X172258145Y-110250990D01*
X172419205Y-110184277D01*
X172564155Y-110087424D01*
X172687424Y-109964155D01*
X172784277Y-109819205D01*
X172850990Y-109658145D01*
X172885000Y-109487165D01*
X172885000Y-109312835D01*
X189915000Y-109312835D01*
X189915000Y-109487165D01*
X189949010Y-109658145D01*
X190015723Y-109819205D01*
X190112576Y-109964155D01*
X190235845Y-110087424D01*
X190380795Y-110184277D01*
X190541855Y-110250990D01*
X190712835Y-110285000D01*
X190887165Y-110285000D01*
X191058145Y-110250990D01*
X191219205Y-110184277D01*
X191364155Y-110087424D01*
X191487424Y-109964155D01*
X191584277Y-109819205D01*
X191650990Y-109658145D01*
X191685000Y-109487165D01*
X191685000Y-109312835D01*
X191650990Y-109141855D01*
X191585000Y-108982540D01*
X191585000Y-103146179D01*
X191627224Y-103103955D01*
X191724077Y-102959005D01*
X191790790Y-102797945D01*
X191824800Y-102626965D01*
X191824800Y-102452635D01*
X191790790Y-102281655D01*
X191724077Y-102120595D01*
X191627224Y-101975645D01*
X191503955Y-101852376D01*
X191359005Y-101755523D01*
X191197945Y-101688810D01*
X191026965Y-101654800D01*
X190852635Y-101654800D01*
X190681655Y-101688810D01*
X190520595Y-101755523D01*
X190375645Y-101852376D01*
X190252376Y-101975645D01*
X190155523Y-102120595D01*
X190088810Y-102281655D01*
X190066748Y-102392570D01*
X190026359Y-102525714D01*
X190011203Y-102679600D01*
X190015001Y-102718163D01*
X190015000Y-108982540D01*
X189949010Y-109141855D01*
X189915000Y-109312835D01*
X172885000Y-109312835D01*
X172850990Y-109141855D01*
X172785000Y-108982540D01*
X172785000Y-104325157D01*
X172932285Y-104177872D01*
X174612500Y-104177872D01*
X174736982Y-104165612D01*
X174856680Y-104129302D01*
X174966994Y-104070337D01*
X175063685Y-103990985D01*
X175143037Y-103894294D01*
X175192059Y-103802581D01*
X175333077Y-103915769D01*
X175608906Y-104059371D01*
X175827020Y-104130363D01*
X176073000Y-104010394D01*
X176073000Y-102666800D01*
X176053000Y-102666800D01*
X176053000Y-102412800D01*
X176073000Y-102412800D01*
X176073000Y-101069206D01*
X176327000Y-101069206D01*
X176327000Y-102412800D01*
X176347000Y-102412800D01*
X176347000Y-102666800D01*
X176327000Y-102666800D01*
X176327000Y-104010394D01*
X176572980Y-104130363D01*
X176791094Y-104059371D01*
X177066923Y-103915769D01*
X177309437Y-103721115D01*
X177464837Y-103535901D01*
X177612037Y-103715263D01*
X177853766Y-103913645D01*
X178129552Y-104061055D01*
X178428797Y-104151830D01*
X178740000Y-104182481D01*
X179051204Y-104151830D01*
X179350449Y-104061055D01*
X179626235Y-103913645D01*
X179867963Y-103715263D01*
X180066345Y-103473534D01*
X180213755Y-103197748D01*
X180304530Y-102898503D01*
X180327500Y-102665285D01*
X180327500Y-102414314D01*
X180304530Y-102181096D01*
X180282805Y-102109477D01*
X180366962Y-102006933D01*
X180439854Y-101870560D01*
X180457860Y-101811202D01*
X180484742Y-101722587D01*
X180492120Y-101647674D01*
X180496100Y-101607261D01*
X180496100Y-101607256D01*
X180499897Y-101568700D01*
X180496100Y-101530144D01*
X180496100Y-96611872D01*
X180511100Y-96611872D01*
X180635582Y-96599612D01*
X180755280Y-96563302D01*
X180865594Y-96504337D01*
X180962285Y-96424985D01*
X181041637Y-96328294D01*
X181100602Y-96217980D01*
X181136912Y-96098282D01*
X181149172Y-95973800D01*
X181149172Y-94373800D01*
X181136912Y-94249318D01*
X181100602Y-94129620D01*
X181041637Y-94019306D01*
X180962285Y-93922615D01*
X180865594Y-93843263D01*
X180755280Y-93784298D01*
X180635582Y-93747988D01*
X180511100Y-93735728D01*
X178911100Y-93735728D01*
X178786618Y-93747988D01*
X178666920Y-93784298D01*
X178556606Y-93843263D01*
X178459915Y-93922615D01*
X178449293Y-93935558D01*
X178197104Y-93816229D01*
X177922916Y-93747500D01*
X177640588Y-93733583D01*
X177360970Y-93775013D01*
X177094808Y-93870197D01*
X176969586Y-93937129D01*
X176898003Y-94181098D01*
X177711100Y-94994195D01*
X177725243Y-94980053D01*
X177904848Y-95159658D01*
X177890705Y-95173800D01*
X177904848Y-95187943D01*
X177725243Y-95367548D01*
X177711100Y-95353405D01*
X176898003Y-96166502D01*
X176969586Y-96410471D01*
X177225096Y-96531371D01*
X177499284Y-96600100D01*
X177781612Y-96614017D01*
X178061230Y-96572587D01*
X178327392Y-96477403D01*
X178449409Y-96412184D01*
X178459915Y-96424985D01*
X178556606Y-96504337D01*
X178666920Y-96563302D01*
X178786618Y-96599612D01*
X178911100Y-96611872D01*
X178926100Y-96611872D01*
X178926101Y-100915448D01*
X178740000Y-100897119D01*
X178428796Y-100927770D01*
X178129551Y-101018545D01*
X177853765Y-101165955D01*
X177612037Y-101364337D01*
X177464838Y-101543700D01*
X177309437Y-101358485D01*
X177066923Y-101163831D01*
X176791094Y-101020229D01*
X176572980Y-100949237D01*
X176327000Y-101069206D01*
X176073000Y-101069206D01*
X175827020Y-100949237D01*
X175608906Y-101020229D01*
X175333077Y-101163831D01*
X175192059Y-101277019D01*
X175143037Y-101185306D01*
X175063685Y-101088615D01*
X174966994Y-101009263D01*
X174856680Y-100950298D01*
X174736982Y-100913988D01*
X174612500Y-100901728D01*
X172707500Y-100901728D01*
X172583018Y-100913988D01*
X172463320Y-100950298D01*
X172353006Y-101009263D01*
X172256315Y-101088615D01*
X172176963Y-101185306D01*
X172117998Y-101295620D01*
X172081688Y-101415318D01*
X172069428Y-101539800D01*
X172069428Y-102820415D01*
X171472190Y-103417653D01*
X171442236Y-103442236D01*
X171344138Y-103561768D01*
X171271246Y-103698141D01*
X171226359Y-103846114D01*
X171215000Y-103961440D01*
X171215000Y-103961447D01*
X171211203Y-104000000D01*
X171215000Y-104038553D01*
X171215001Y-108982538D01*
X171149010Y-109141855D01*
X171115000Y-109312835D01*
X167502500Y-109312835D01*
X167502500Y-109295335D01*
X167468490Y-109124355D01*
X167402500Y-108965040D01*
X167402500Y-105575211D01*
X167450990Y-105458145D01*
X167485000Y-105287165D01*
X167485000Y-105112835D01*
X167450990Y-104941855D01*
X167384277Y-104780795D01*
X167287424Y-104635845D01*
X167164155Y-104512576D01*
X167019205Y-104415723D01*
X166858145Y-104349010D01*
X166687165Y-104315000D01*
X166512835Y-104315000D01*
X166341855Y-104349010D01*
X166180795Y-104415723D01*
X166035845Y-104512576D01*
X165912576Y-104635845D01*
X165815723Y-104780795D01*
X165749010Y-104941855D01*
X165715000Y-105112835D01*
X163885000Y-105112835D01*
X163850990Y-104941855D01*
X163785000Y-104782540D01*
X163785000Y-104177872D01*
X163918900Y-104177872D01*
X164043382Y-104165612D01*
X164163080Y-104129302D01*
X164273394Y-104070337D01*
X164370085Y-103990985D01*
X164449437Y-103894294D01*
X164498459Y-103802581D01*
X164639477Y-103915769D01*
X164915306Y-104059371D01*
X165133420Y-104130363D01*
X165379400Y-104010394D01*
X165379400Y-102666800D01*
X165359400Y-102666800D01*
X165359400Y-102412800D01*
X165379400Y-102412800D01*
X165379400Y-101069206D01*
X165633400Y-101069206D01*
X165633400Y-102412800D01*
X165653400Y-102412800D01*
X165653400Y-102666800D01*
X165633400Y-102666800D01*
X165633400Y-104010394D01*
X165879380Y-104130363D01*
X166097494Y-104059371D01*
X166373323Y-103915769D01*
X166615837Y-103721115D01*
X166771237Y-103535901D01*
X166918437Y-103715263D01*
X167160166Y-103913645D01*
X167435952Y-104061055D01*
X167735197Y-104151830D01*
X168046400Y-104182481D01*
X168357604Y-104151830D01*
X168656849Y-104061055D01*
X168932635Y-103913645D01*
X169174363Y-103715263D01*
X169372745Y-103473534D01*
X169520155Y-103197748D01*
X169610930Y-102898503D01*
X169633900Y-102665285D01*
X169633900Y-102414314D01*
X169610930Y-102181096D01*
X169520155Y-101881851D01*
X169372745Y-101606065D01*
X169174363Y-101364337D01*
X168932634Y-101165955D01*
X168656848Y-101018545D01*
X168357603Y-100927770D01*
X168046400Y-100897119D01*
X167735196Y-100927770D01*
X167435951Y-101018545D01*
X167160165Y-101165955D01*
X166918437Y-101364337D01*
X166771238Y-101543700D01*
X166615837Y-101358485D01*
X166373323Y-101163831D01*
X166097494Y-101020229D01*
X165879380Y-100949237D01*
X165633400Y-101069206D01*
X165379400Y-101069206D01*
X165133420Y-100949237D01*
X164915306Y-101020229D01*
X164639477Y-101163831D01*
X164498459Y-101277019D01*
X164449437Y-101185306D01*
X164370085Y-101088615D01*
X164273394Y-101009263D01*
X164163080Y-100950298D01*
X164043382Y-100913988D01*
X163918900Y-100901728D01*
X162013900Y-100901728D01*
X161889418Y-100913988D01*
X161769720Y-100950298D01*
X161659406Y-101009263D01*
X161562715Y-101088615D01*
X161483363Y-101185306D01*
X161424398Y-101295620D01*
X161388088Y-101415318D01*
X161375828Y-101539800D01*
X161375828Y-102997756D01*
X161258145Y-102949010D01*
X161087165Y-102915000D01*
X160912835Y-102915000D01*
X160741855Y-102949010D01*
X160580795Y-103015723D01*
X160435845Y-103112576D01*
X160312576Y-103235845D01*
X160215723Y-103380795D01*
X160149010Y-103541855D01*
X160115000Y-103712835D01*
X158148072Y-103712835D01*
X158148072Y-102920000D01*
X158135812Y-102795518D01*
X158099502Y-102675820D01*
X158040537Y-102565506D01*
X157961185Y-102468815D01*
X157864494Y-102389463D01*
X157785000Y-102346972D01*
X157785000Y-97568072D01*
X158100000Y-97568072D01*
X158224482Y-97555812D01*
X158344180Y-97519502D01*
X158454494Y-97460537D01*
X158551185Y-97381185D01*
X158630537Y-97284494D01*
X158689502Y-97174180D01*
X158725812Y-97054482D01*
X158738072Y-96930000D01*
X158738072Y-95946800D01*
X169365828Y-95946800D01*
X169378088Y-96071282D01*
X169414398Y-96190980D01*
X169473363Y-96301294D01*
X169552715Y-96397985D01*
X169649406Y-96477337D01*
X169759720Y-96536302D01*
X169879418Y-96572612D01*
X170003900Y-96584872D01*
X170618150Y-96581800D01*
X170776900Y-96423050D01*
X170776900Y-95173800D01*
X169527650Y-95173800D01*
X169368900Y-95332550D01*
X169365828Y-95946800D01*
X158738072Y-95946800D01*
X158738072Y-94730000D01*
X158725812Y-94605518D01*
X158689502Y-94485820D01*
X158630537Y-94375506D01*
X158551185Y-94278815D01*
X158454494Y-94199463D01*
X158355971Y-94146800D01*
X169365828Y-94146800D01*
X169368900Y-94761050D01*
X169527650Y-94919800D01*
X170776900Y-94919800D01*
X170776900Y-93670550D01*
X171030900Y-93670550D01*
X171030900Y-94919800D01*
X171050900Y-94919800D01*
X171050900Y-95173800D01*
X171030900Y-95173800D01*
X171030900Y-96423050D01*
X171189650Y-96581800D01*
X171803900Y-96584872D01*
X171928382Y-96572612D01*
X172048080Y-96536302D01*
X172158394Y-96477337D01*
X172255085Y-96397985D01*
X172334437Y-96301294D01*
X172393402Y-96190980D01*
X172398956Y-96172673D01*
X172465395Y-96239112D01*
X172716805Y-96407099D01*
X172996157Y-96522811D01*
X173292716Y-96581800D01*
X173595084Y-96581800D01*
X173891643Y-96522811D01*
X174170995Y-96407099D01*
X174422405Y-96239112D01*
X174636212Y-96025305D01*
X174804199Y-95773895D01*
X174919911Y-95494543D01*
X174969684Y-95244312D01*
X176270883Y-95244312D01*
X176312313Y-95523930D01*
X176407497Y-95790092D01*
X176474429Y-95915314D01*
X176718398Y-95986897D01*
X177531495Y-95173800D01*
X176718398Y-94360703D01*
X176474429Y-94432286D01*
X176353529Y-94687796D01*
X176284800Y-94961984D01*
X176270883Y-95244312D01*
X174969684Y-95244312D01*
X174978900Y-95197984D01*
X174978900Y-94895616D01*
X174919911Y-94599057D01*
X174804199Y-94319705D01*
X174636212Y-94068295D01*
X174422405Y-93854488D01*
X174170995Y-93686501D01*
X173891643Y-93570789D01*
X173595084Y-93511800D01*
X173292716Y-93511800D01*
X172996157Y-93570789D01*
X172716805Y-93686501D01*
X172465395Y-93854488D01*
X172398956Y-93920927D01*
X172393402Y-93902620D01*
X172334437Y-93792306D01*
X172255085Y-93695615D01*
X172158394Y-93616263D01*
X172048080Y-93557298D01*
X171928382Y-93520988D01*
X171803900Y-93508728D01*
X171189650Y-93511800D01*
X171030900Y-93670550D01*
X170776900Y-93670550D01*
X170618150Y-93511800D01*
X170003900Y-93508728D01*
X169879418Y-93520988D01*
X169759720Y-93557298D01*
X169649406Y-93616263D01*
X169552715Y-93695615D01*
X169473363Y-93792306D01*
X169414398Y-93902620D01*
X169378088Y-94022318D01*
X169365828Y-94146800D01*
X158355971Y-94146800D01*
X158344180Y-94140498D01*
X158224482Y-94104188D01*
X158100000Y-94091928D01*
X155900000Y-94091928D01*
X155775518Y-94104188D01*
X155655820Y-94140498D01*
X155545506Y-94199463D01*
X155448815Y-94278815D01*
X155369463Y-94375506D01*
X155310498Y-94485820D01*
X155274188Y-94605518D01*
X155261928Y-94730000D01*
X150731671Y-94730000D01*
X150727663Y-94724002D01*
X150485998Y-94482337D01*
X150201831Y-94292463D01*
X149886081Y-94161675D01*
X149550883Y-94095000D01*
X149209117Y-94095000D01*
X148873919Y-94161675D01*
X148558169Y-94292463D01*
X148274002Y-94482337D01*
X148032337Y-94724002D01*
X147842463Y-95008169D01*
X147711675Y-95323919D01*
X147645000Y-95659117D01*
X147645000Y-96000883D01*
X147711675Y-96336081D01*
X147842463Y-96651831D01*
X148032337Y-96935998D01*
X148274002Y-97177663D01*
X148558169Y-97367537D01*
X148575001Y-97374509D01*
X148575000Y-98534828D01*
X147860000Y-98534828D01*
X147735518Y-98547088D01*
X147615820Y-98583398D01*
X147505506Y-98642363D01*
X147408815Y-98721715D01*
X147329463Y-98818406D01*
X147270498Y-98928720D01*
X147234188Y-99048418D01*
X147221928Y-99172900D01*
X146127000Y-99172900D01*
X146127000Y-92037000D01*
X158255121Y-92037000D01*
X158475821Y-92080900D01*
X158896379Y-92080900D01*
X159117079Y-92037000D01*
X168240000Y-92037000D01*
X168264776Y-92034560D01*
X168288601Y-92027333D01*
X168310557Y-92015597D01*
X168329803Y-91999803D01*
X168345597Y-91980557D01*
X168357333Y-91958601D01*
X168364560Y-91934776D01*
X168367000Y-91910000D01*
X168367000Y-89710244D01*
X169051100Y-89710244D01*
X169051100Y-90081556D01*
X169123539Y-90445734D01*
X169265634Y-90788782D01*
X169471925Y-91097518D01*
X169734482Y-91360075D01*
X170043218Y-91566366D01*
X170386266Y-91708461D01*
X170750444Y-91780900D01*
X171121756Y-91780900D01*
X171485934Y-91708461D01*
X171828982Y-91566366D01*
X172137718Y-91360075D01*
X172400275Y-91097518D01*
X172606566Y-90788782D01*
X172748661Y-90445734D01*
X172821100Y-90081556D01*
X172821100Y-89710244D01*
X172748661Y-89346066D01*
X172606566Y-89003018D01*
X172400275Y-88694282D01*
X172137718Y-88431725D01*
X171828982Y-88225434D01*
X171485934Y-88083339D01*
X171121756Y-88010900D01*
X170750444Y-88010900D01*
X170386266Y-88083339D01*
X170043218Y-88225434D01*
X169734482Y-88431725D01*
X169471925Y-88694282D01*
X169265634Y-89003018D01*
X169123539Y-89346066D01*
X169051100Y-89710244D01*
X168367000Y-89710244D01*
X168367000Y-87162459D01*
X175815000Y-87162459D01*
X175815000Y-89513199D01*
X175797089Y-89556440D01*
X175765000Y-89717760D01*
X175765000Y-89882240D01*
X175797089Y-90043560D01*
X175860033Y-90195521D01*
X175951413Y-90332281D01*
X176067719Y-90448587D01*
X176204479Y-90539967D01*
X176356440Y-90602911D01*
X176517760Y-90635000D01*
X176682240Y-90635000D01*
X176843560Y-90602911D01*
X176995521Y-90539967D01*
X177132281Y-90448587D01*
X177248587Y-90332281D01*
X177339967Y-90195521D01*
X177402911Y-90043560D01*
X177435000Y-89882240D01*
X177435000Y-89717760D01*
X177402911Y-89556440D01*
X177385000Y-89513199D01*
X177385000Y-89141449D01*
X177874750Y-89139000D01*
X178033500Y-88980250D01*
X178033500Y-87731000D01*
X178013500Y-87731000D01*
X178013500Y-87477000D01*
X178033500Y-87477000D01*
X178033500Y-86227750D01*
X178287500Y-86227750D01*
X178287500Y-87477000D01*
X178307500Y-87477000D01*
X178307500Y-87731000D01*
X178287500Y-87731000D01*
X178287500Y-88980250D01*
X178446250Y-89139000D01*
X179060500Y-89142072D01*
X179184982Y-89129812D01*
X179304680Y-89093502D01*
X179414994Y-89034537D01*
X179511685Y-88955185D01*
X179591037Y-88858494D01*
X179650002Y-88748180D01*
X179655556Y-88729873D01*
X179721995Y-88796312D01*
X179973405Y-88964299D01*
X180252757Y-89080011D01*
X180549316Y-89139000D01*
X180851684Y-89139000D01*
X181148243Y-89080011D01*
X181427595Y-88964299D01*
X181679005Y-88796312D01*
X181892812Y-88582505D01*
X182060799Y-88331095D01*
X182176511Y-88051743D01*
X182235500Y-87755184D01*
X182235500Y-87452816D01*
X182176511Y-87156257D01*
X182060799Y-86876905D01*
X181892812Y-86625495D01*
X181679005Y-86411688D01*
X181427595Y-86243701D01*
X181148243Y-86127989D01*
X180851684Y-86069000D01*
X180549316Y-86069000D01*
X180252757Y-86127989D01*
X179973405Y-86243701D01*
X179721995Y-86411688D01*
X179655556Y-86478127D01*
X179650002Y-86459820D01*
X179591037Y-86349506D01*
X179511685Y-86252815D01*
X179414994Y-86173463D01*
X179304680Y-86114498D01*
X179184982Y-86078188D01*
X179060500Y-86065928D01*
X178446250Y-86069000D01*
X178287500Y-86227750D01*
X178033500Y-86227750D01*
X177874750Y-86069000D01*
X177385000Y-86066551D01*
X177385000Y-84640927D01*
X178326978Y-84640927D01*
X178380366Y-84869601D01*
X178610274Y-84975495D01*
X178856424Y-85034502D01*
X179109355Y-85044352D01*
X179359349Y-85004670D01*
X179594678Y-84917760D01*
X182165000Y-84917760D01*
X182165000Y-85082240D01*
X182197089Y-85243560D01*
X182260033Y-85395521D01*
X182351413Y-85532281D01*
X182467719Y-85648587D01*
X182604479Y-85739967D01*
X182756440Y-85802911D01*
X182917760Y-85835000D01*
X183082240Y-85835000D01*
X183243560Y-85802911D01*
X183395521Y-85739967D01*
X183532281Y-85648587D01*
X183648587Y-85532281D01*
X183739967Y-85395521D01*
X183802911Y-85243560D01*
X183835000Y-85082240D01*
X183835000Y-84917760D01*
X183802911Y-84756440D01*
X183800400Y-84750378D01*
X183800400Y-81502201D01*
X183818311Y-81458960D01*
X183820478Y-81448061D01*
X187715000Y-81448061D01*
X187715000Y-81651939D01*
X187754774Y-81851898D01*
X187832795Y-82040256D01*
X187946063Y-82209774D01*
X187967787Y-82231498D01*
X187991033Y-87902876D01*
X187974873Y-87919036D01*
X187861605Y-88088554D01*
X187783584Y-88276912D01*
X187743810Y-88476871D01*
X187743810Y-88680749D01*
X187783584Y-88880708D01*
X187861605Y-89069066D01*
X187974873Y-89238584D01*
X188119036Y-89382747D01*
X188288554Y-89496015D01*
X188476912Y-89574036D01*
X188676871Y-89613810D01*
X188880749Y-89613810D01*
X189080708Y-89574036D01*
X189269066Y-89496015D01*
X189438584Y-89382747D01*
X189582747Y-89238584D01*
X189696015Y-89069066D01*
X189774036Y-88880708D01*
X189813810Y-88680749D01*
X189813810Y-88476871D01*
X189774036Y-88276912D01*
X189696015Y-88088554D01*
X189582747Y-87919036D01*
X189561023Y-87897312D01*
X189537777Y-82225934D01*
X189553937Y-82209774D01*
X189667205Y-82040256D01*
X189745226Y-81851898D01*
X189785000Y-81651939D01*
X189785000Y-81448061D01*
X189745226Y-81248102D01*
X189667205Y-81059744D01*
X189553937Y-80890226D01*
X189535000Y-80871289D01*
X189535000Y-76586579D01*
X189635845Y-76687424D01*
X189780795Y-76784277D01*
X189941855Y-76850990D01*
X190112835Y-76885000D01*
X190287165Y-76885000D01*
X190458145Y-76850990D01*
X190619205Y-76784277D01*
X190764155Y-76687424D01*
X190887424Y-76564155D01*
X190984277Y-76419205D01*
X191050990Y-76258145D01*
X191085000Y-76087165D01*
X191085000Y-75912835D01*
X191050990Y-75741855D01*
X190984277Y-75580795D01*
X190967500Y-75555687D01*
X190967500Y-72877072D01*
X191682500Y-72877072D01*
X191806982Y-72864812D01*
X191926680Y-72828502D01*
X192036994Y-72769537D01*
X192133685Y-72690185D01*
X192213037Y-72593494D01*
X192272002Y-72483180D01*
X192308312Y-72363482D01*
X192320572Y-72239000D01*
X192320572Y-70528721D01*
X193127500Y-70528721D01*
X193127500Y-70949279D01*
X193209547Y-71361756D01*
X193370488Y-71750302D01*
X193604137Y-72099983D01*
X193901517Y-72397363D01*
X194251198Y-72631012D01*
X194527500Y-72745460D01*
X194527501Y-86734544D01*
X194522533Y-86741979D01*
X194459589Y-86893940D01*
X194427500Y-87055260D01*
X194427500Y-87219740D01*
X194459589Y-87381060D01*
X194522533Y-87533021D01*
X194613913Y-87669781D01*
X194730219Y-87786087D01*
X194866979Y-87877467D01*
X195018940Y-87940411D01*
X195180260Y-87972500D01*
X195344740Y-87972500D01*
X195506060Y-87940411D01*
X195658021Y-87877467D01*
X195794781Y-87786087D01*
X195911087Y-87669781D01*
X196002467Y-87533021D01*
X196065411Y-87381060D01*
X196097500Y-87219740D01*
X196097500Y-87055260D01*
X196065411Y-86893940D01*
X196002467Y-86741979D01*
X195997500Y-86734545D01*
X195997500Y-82435010D01*
X197056193Y-82435010D01*
X197059990Y-82473563D01*
X197059991Y-101206427D01*
X197056193Y-101244990D01*
X197071349Y-101398876D01*
X197116236Y-101546849D01*
X197116237Y-101546850D01*
X197189129Y-101683223D01*
X197215208Y-101715000D01*
X197262645Y-101772802D01*
X197262649Y-101772806D01*
X197287227Y-101802754D01*
X197317175Y-101827332D01*
X198349733Y-102859890D01*
X198415000Y-103017460D01*
X198415001Y-105121338D01*
X198293900Y-105186068D01*
X198075393Y-105365392D01*
X197896068Y-105583899D01*
X197762818Y-105833192D01*
X197680764Y-106103691D01*
X197660000Y-106314508D01*
X197660000Y-106855491D01*
X197680764Y-107066308D01*
X197762818Y-107336807D01*
X197896068Y-107586100D01*
X198075392Y-107804607D01*
X198291340Y-107981832D01*
X198204465Y-108039880D01*
X198009880Y-108234465D01*
X197856995Y-108463273D01*
X197751686Y-108717510D01*
X197698000Y-108987408D01*
X197698000Y-109262592D01*
X197751686Y-109532490D01*
X197856995Y-109786727D01*
X198009880Y-110015535D01*
X198204465Y-110210120D01*
X198433273Y-110363005D01*
X198687510Y-110468314D01*
X198957408Y-110522000D01*
X199232592Y-110522000D01*
X199502490Y-110468314D01*
X199756727Y-110363005D01*
X199985535Y-110210120D01*
X200180120Y-110015535D01*
X200333005Y-109786727D01*
X200365000Y-109709485D01*
X200396995Y-109786727D01*
X200549880Y-110015535D01*
X200744465Y-110210120D01*
X200973273Y-110363005D01*
X201227510Y-110468314D01*
X201497408Y-110522000D01*
X201772592Y-110522000D01*
X202042490Y-110468314D01*
X202296727Y-110363005D01*
X202525535Y-110210120D01*
X202720120Y-110015535D01*
X202873005Y-109786727D01*
X202905000Y-109709485D01*
X202936995Y-109786727D01*
X203089880Y-110015535D01*
X203284465Y-110210120D01*
X203513273Y-110363005D01*
X203767510Y-110468314D01*
X204037408Y-110522000D01*
X204312592Y-110522000D01*
X204582490Y-110468314D01*
X204836727Y-110363005D01*
X205065535Y-110210120D01*
X205260120Y-110015535D01*
X205413005Y-109786727D01*
X205445000Y-109709485D01*
X205476995Y-109786727D01*
X205629880Y-110015535D01*
X205824465Y-110210120D01*
X206053273Y-110363005D01*
X206307510Y-110468314D01*
X206577408Y-110522000D01*
X206852592Y-110522000D01*
X207122490Y-110468314D01*
X207376727Y-110363005D01*
X207605535Y-110210120D01*
X207800120Y-110015535D01*
X207953005Y-109786727D01*
X207985000Y-109709485D01*
X208016995Y-109786727D01*
X208169880Y-110015535D01*
X208364465Y-110210120D01*
X208593273Y-110363005D01*
X208847510Y-110468314D01*
X209117408Y-110522000D01*
X209392592Y-110522000D01*
X209662490Y-110468314D01*
X209916727Y-110363005D01*
X210145535Y-110210120D01*
X210340120Y-110015535D01*
X210493005Y-109786727D01*
X210525000Y-109709485D01*
X210556995Y-109786727D01*
X210709880Y-110015535D01*
X210904465Y-110210120D01*
X211025001Y-110290660D01*
X211025000Y-111562540D01*
X210959010Y-111721855D01*
X210925000Y-111892835D01*
X210925000Y-112067165D01*
X210959010Y-112238145D01*
X211025723Y-112399205D01*
X211122576Y-112544155D01*
X211245845Y-112667424D01*
X211390795Y-112764277D01*
X211551855Y-112830990D01*
X211722835Y-112865000D01*
X211897165Y-112865000D01*
X212068145Y-112830990D01*
X212229205Y-112764277D01*
X212374155Y-112667424D01*
X212497424Y-112544155D01*
X212594277Y-112399205D01*
X212660990Y-112238145D01*
X212695000Y-112067165D01*
X212695000Y-111892835D01*
X212660990Y-111721855D01*
X212595000Y-111562540D01*
X212595000Y-110270614D01*
X212685535Y-110210120D01*
X212805090Y-110090565D01*
X213549040Y-110090565D01*
X213616020Y-110330656D01*
X213865048Y-110447756D01*
X214132135Y-110514023D01*
X214407017Y-110526910D01*
X214679133Y-110485922D01*
X214938023Y-110392636D01*
X215053980Y-110330656D01*
X215120960Y-110090565D01*
X214335000Y-109304605D01*
X213549040Y-110090565D01*
X212805090Y-110090565D01*
X212880120Y-110015535D01*
X213033005Y-109786727D01*
X213062692Y-109715057D01*
X213067364Y-109728023D01*
X213129344Y-109843980D01*
X213369435Y-109910960D01*
X214155395Y-109125000D01*
X213369435Y-108339040D01*
X213129344Y-108406020D01*
X213065515Y-108541760D01*
X213033005Y-108463273D01*
X212880120Y-108234465D01*
X212685535Y-108039880D01*
X212598659Y-107981831D01*
X212814607Y-107804608D01*
X212993932Y-107586101D01*
X213065000Y-107453142D01*
X213136068Y-107586100D01*
X213315392Y-107804607D01*
X213533899Y-107983932D01*
X213589683Y-108013749D01*
X213549040Y-108159435D01*
X214335000Y-108945395D01*
X214349143Y-108931253D01*
X214528748Y-109110858D01*
X214514605Y-109125000D01*
X215300565Y-109910960D01*
X215540656Y-109843980D01*
X215604485Y-109708240D01*
X215636995Y-109786727D01*
X215789880Y-110015535D01*
X215984465Y-110210120D01*
X216213273Y-110363005D01*
X216467510Y-110468314D01*
X216737408Y-110522000D01*
X217012592Y-110522000D01*
X217282490Y-110468314D01*
X217536727Y-110363005D01*
X217765535Y-110210120D01*
X217960120Y-110015535D01*
X218113005Y-109786727D01*
X218145000Y-109709485D01*
X218176995Y-109786727D01*
X218329880Y-110015535D01*
X218524465Y-110210120D01*
X218753273Y-110363005D01*
X219007510Y-110468314D01*
X219277408Y-110522000D01*
X219552592Y-110522000D01*
X219822490Y-110468314D01*
X220076727Y-110363005D01*
X220305535Y-110210120D01*
X220500120Y-110015535D01*
X220653005Y-109786727D01*
X220685000Y-109709485D01*
X220716995Y-109786727D01*
X220869880Y-110015535D01*
X221064465Y-110210120D01*
X221293273Y-110363005D01*
X221547510Y-110468314D01*
X221817408Y-110522000D01*
X222092592Y-110522000D01*
X222362490Y-110468314D01*
X222616727Y-110363005D01*
X222845535Y-110210120D01*
X223040120Y-110015535D01*
X223193005Y-109786727D01*
X223225000Y-109709485D01*
X223256995Y-109786727D01*
X223409880Y-110015535D01*
X223604465Y-110210120D01*
X223833273Y-110363005D01*
X224087510Y-110468314D01*
X224357408Y-110522000D01*
X224632592Y-110522000D01*
X224902490Y-110468314D01*
X225156727Y-110363005D01*
X225385535Y-110210120D01*
X225580120Y-110015535D01*
X225733005Y-109786727D01*
X225765000Y-109709485D01*
X225796995Y-109786727D01*
X225949880Y-110015535D01*
X226144465Y-110210120D01*
X226373273Y-110363005D01*
X226627510Y-110468314D01*
X226897408Y-110522000D01*
X227172592Y-110522000D01*
X227442490Y-110468314D01*
X227696727Y-110363005D01*
X227925535Y-110210120D01*
X228120120Y-110015535D01*
X228273005Y-109786727D01*
X228305000Y-109709485D01*
X228336995Y-109786727D01*
X228489880Y-110015535D01*
X228684465Y-110210120D01*
X228913273Y-110363005D01*
X229167510Y-110468314D01*
X229437408Y-110522000D01*
X229712592Y-110522000D01*
X229982490Y-110468314D01*
X230236727Y-110363005D01*
X230465535Y-110210120D01*
X230585090Y-110090565D01*
X231329040Y-110090565D01*
X231396020Y-110330656D01*
X231645048Y-110447756D01*
X231912135Y-110514023D01*
X232187017Y-110526910D01*
X232459133Y-110485922D01*
X232718023Y-110392636D01*
X232833980Y-110330656D01*
X232900960Y-110090565D01*
X232115000Y-109304605D01*
X231329040Y-110090565D01*
X230585090Y-110090565D01*
X230660120Y-110015535D01*
X230813005Y-109786727D01*
X230842692Y-109715057D01*
X230847364Y-109728023D01*
X230909344Y-109843980D01*
X231149435Y-109910960D01*
X231935395Y-109125000D01*
X231149435Y-108339040D01*
X230909344Y-108406020D01*
X230845515Y-108541760D01*
X230813005Y-108463273D01*
X230660120Y-108234465D01*
X230585090Y-108159435D01*
X231329040Y-108159435D01*
X232115000Y-108945395D01*
X232900960Y-108159435D01*
X232833980Y-107919344D01*
X232584952Y-107802244D01*
X232317865Y-107735977D01*
X232042983Y-107723090D01*
X231770867Y-107764078D01*
X231511977Y-107857364D01*
X231396020Y-107919344D01*
X231329040Y-108159435D01*
X230585090Y-108159435D01*
X230465535Y-108039880D01*
X230236727Y-107886995D01*
X229982490Y-107781686D01*
X229712592Y-107728000D01*
X229437408Y-107728000D01*
X229167510Y-107781686D01*
X228913273Y-107886995D01*
X228684465Y-108039880D01*
X228489880Y-108234465D01*
X228336995Y-108463273D01*
X228305000Y-108540515D01*
X228273005Y-108463273D01*
X228120120Y-108234465D01*
X227925535Y-108039880D01*
X227696727Y-107886995D01*
X227442490Y-107781686D01*
X227172592Y-107728000D01*
X226897408Y-107728000D01*
X226627510Y-107781686D01*
X226373273Y-107886995D01*
X226144465Y-108039880D01*
X225949880Y-108234465D01*
X225796995Y-108463273D01*
X225765000Y-108540515D01*
X225733005Y-108463273D01*
X225580120Y-108234465D01*
X225385535Y-108039880D01*
X225156727Y-107886995D01*
X224902490Y-107781686D01*
X224632592Y-107728000D01*
X224357408Y-107728000D01*
X224087510Y-107781686D01*
X223833273Y-107886995D01*
X223604465Y-108039880D01*
X223409880Y-108234465D01*
X223256995Y-108463273D01*
X223225000Y-108540515D01*
X223193005Y-108463273D01*
X223040120Y-108234465D01*
X222845535Y-108039880D01*
X222616727Y-107886995D01*
X222362490Y-107781686D01*
X222092592Y-107728000D01*
X221817408Y-107728000D01*
X221547510Y-107781686D01*
X221293273Y-107886995D01*
X221064465Y-108039880D01*
X220869880Y-108234465D01*
X220716995Y-108463273D01*
X220685000Y-108540515D01*
X220653005Y-108463273D01*
X220500120Y-108234465D01*
X220305535Y-108039880D01*
X220200000Y-107969364D01*
X220200000Y-104580868D01*
X220267719Y-104648587D01*
X220404479Y-104739967D01*
X220556440Y-104802911D01*
X220717760Y-104835000D01*
X220882240Y-104835000D01*
X221043560Y-104802911D01*
X221195521Y-104739967D01*
X221332281Y-104648587D01*
X221448587Y-104532281D01*
X221539967Y-104395521D01*
X221602911Y-104243560D01*
X221635000Y-104082240D01*
X221635000Y-103917760D01*
X221602911Y-103756440D01*
X221539967Y-103604479D01*
X221535000Y-103597045D01*
X221535000Y-82523132D01*
X221547510Y-82528314D01*
X221817408Y-82582000D01*
X222092592Y-82582000D01*
X222362490Y-82528314D01*
X222616727Y-82423005D01*
X222845535Y-82270120D01*
X223040120Y-82075535D01*
X223193005Y-81846727D01*
X223225000Y-81769485D01*
X223256995Y-81846727D01*
X223409880Y-82075535D01*
X223604465Y-82270120D01*
X223833273Y-82423005D01*
X224087510Y-82528314D01*
X224357408Y-82582000D01*
X224632592Y-82582000D01*
X224902490Y-82528314D01*
X225156727Y-82423005D01*
X225385535Y-82270120D01*
X225580120Y-82075535D01*
X225733005Y-81846727D01*
X225765000Y-81769485D01*
X225796995Y-81846727D01*
X225949880Y-82075535D01*
X226144465Y-82270120D01*
X226373273Y-82423005D01*
X226627510Y-82528314D01*
X226897408Y-82582000D01*
X227172592Y-82582000D01*
X227442490Y-82528314D01*
X227696727Y-82423005D01*
X227925535Y-82270120D01*
X228120120Y-82075535D01*
X228273005Y-81846727D01*
X228305000Y-81769485D01*
X228336995Y-81846727D01*
X228489880Y-82075535D01*
X228684465Y-82270120D01*
X228913273Y-82423005D01*
X229167510Y-82528314D01*
X229437408Y-82582000D01*
X229712592Y-82582000D01*
X229982490Y-82528314D01*
X230236727Y-82423005D01*
X230465535Y-82270120D01*
X230660120Y-82075535D01*
X230813005Y-81846727D01*
X230845000Y-81769485D01*
X230876995Y-81846727D01*
X231029880Y-82075535D01*
X231224465Y-82270120D01*
X231453273Y-82423005D01*
X231707510Y-82528314D01*
X231977408Y-82582000D01*
X232252592Y-82582000D01*
X232522490Y-82528314D01*
X232776727Y-82423005D01*
X233005535Y-82270120D01*
X233200120Y-82075535D01*
X233353005Y-81846727D01*
X233385000Y-81769485D01*
X233416995Y-81846727D01*
X233569880Y-82075535D01*
X233764465Y-82270120D01*
X233920001Y-82374046D01*
X233920000Y-86749562D01*
X233910033Y-86764479D01*
X233847089Y-86916440D01*
X233815000Y-87077760D01*
X233815000Y-87242240D01*
X233847089Y-87403560D01*
X233910033Y-87555521D01*
X234001413Y-87692281D01*
X234117719Y-87808587D01*
X234254479Y-87899967D01*
X234406440Y-87962911D01*
X234567760Y-87995000D01*
X234732240Y-87995000D01*
X234893560Y-87962911D01*
X235045521Y-87899967D01*
X235182281Y-87808587D01*
X235298587Y-87692281D01*
X235389967Y-87555521D01*
X235452911Y-87403560D01*
X235485000Y-87242240D01*
X235485000Y-87077760D01*
X235452911Y-86916440D01*
X235390000Y-86764559D01*
X235390000Y-82374045D01*
X235545535Y-82270120D01*
X235740120Y-82075535D01*
X235893005Y-81846727D01*
X235998314Y-81592490D01*
X236052000Y-81322592D01*
X236052000Y-81047408D01*
X235998314Y-80777510D01*
X235893005Y-80523273D01*
X235740120Y-80294465D01*
X235545535Y-80099880D01*
X235316727Y-79946995D01*
X235062490Y-79841686D01*
X234792592Y-79788000D01*
X234517408Y-79788000D01*
X234247510Y-79841686D01*
X233993273Y-79946995D01*
X233764465Y-80099880D01*
X233569880Y-80294465D01*
X233416995Y-80523273D01*
X233385000Y-80600515D01*
X233353005Y-80523273D01*
X233200120Y-80294465D01*
X233005535Y-80099880D01*
X232776727Y-79946995D01*
X232522490Y-79841686D01*
X232252592Y-79788000D01*
X231977408Y-79788000D01*
X231707510Y-79841686D01*
X231453273Y-79946995D01*
X231224465Y-80099880D01*
X231029880Y-80294465D01*
X230876995Y-80523273D01*
X230845000Y-80600515D01*
X230813005Y-80523273D01*
X230660120Y-80294465D01*
X230465535Y-80099880D01*
X230236727Y-79946995D01*
X229982490Y-79841686D01*
X229712592Y-79788000D01*
X229437408Y-79788000D01*
X229167510Y-79841686D01*
X228913273Y-79946995D01*
X228684465Y-80099880D01*
X228489880Y-80294465D01*
X228336995Y-80523273D01*
X228305000Y-80600515D01*
X228273005Y-80523273D01*
X228120120Y-80294465D01*
X227925535Y-80099880D01*
X227696727Y-79946995D01*
X227442490Y-79841686D01*
X227172592Y-79788000D01*
X226897408Y-79788000D01*
X226627510Y-79841686D01*
X226373273Y-79946995D01*
X226144465Y-80099880D01*
X225949880Y-80294465D01*
X225796995Y-80523273D01*
X225765000Y-80600515D01*
X225733005Y-80523273D01*
X225580120Y-80294465D01*
X225385535Y-80099880D01*
X225156727Y-79946995D01*
X224902490Y-79841686D01*
X224632592Y-79788000D01*
X224357408Y-79788000D01*
X224087510Y-79841686D01*
X223833273Y-79946995D01*
X223604465Y-80099880D01*
X223409880Y-80294465D01*
X223256995Y-80523273D01*
X223225000Y-80600515D01*
X223193005Y-80523273D01*
X223040120Y-80294465D01*
X222845535Y-80099880D01*
X222616727Y-79946995D01*
X222362490Y-79841686D01*
X222092592Y-79788000D01*
X221817408Y-79788000D01*
X221547510Y-79841686D01*
X221535000Y-79846868D01*
X221535000Y-72825640D01*
X221704356Y-72791953D01*
X222092902Y-72631012D01*
X222442583Y-72397363D01*
X222739963Y-72099983D01*
X222973612Y-71750302D01*
X223134553Y-71361756D01*
X223216600Y-70949279D01*
X223216600Y-70528721D01*
X223134553Y-70116244D01*
X222973612Y-69727698D01*
X222739963Y-69378017D01*
X222600946Y-69239000D01*
X224468028Y-69239000D01*
X224468028Y-72239000D01*
X224480288Y-72363482D01*
X224516598Y-72483180D01*
X224575563Y-72593494D01*
X224654915Y-72690185D01*
X224751606Y-72769537D01*
X224861920Y-72828502D01*
X224981618Y-72864812D01*
X225106100Y-72877072D01*
X225821100Y-72877072D01*
X225821101Y-75572746D01*
X225815723Y-75580795D01*
X225749010Y-75741855D01*
X225715000Y-75912835D01*
X225715000Y-76087165D01*
X225749010Y-76258145D01*
X225815723Y-76419205D01*
X225912576Y-76564155D01*
X226035845Y-76687424D01*
X226180795Y-76784277D01*
X226341855Y-76850990D01*
X226512835Y-76885000D01*
X226687165Y-76885000D01*
X226858145Y-76850990D01*
X227019205Y-76784277D01*
X227164155Y-76687424D01*
X227287424Y-76564155D01*
X227384277Y-76419205D01*
X227450990Y-76258145D01*
X227485000Y-76087165D01*
X227485000Y-75912835D01*
X227450990Y-75741855D01*
X227391100Y-75597267D01*
X227391100Y-72877072D01*
X228106100Y-72877072D01*
X228230582Y-72864812D01*
X228350280Y-72828502D01*
X228460594Y-72769537D01*
X228557285Y-72690185D01*
X228636637Y-72593494D01*
X228695602Y-72483180D01*
X228731912Y-72363482D01*
X228744172Y-72239000D01*
X228744172Y-70528721D01*
X229551100Y-70528721D01*
X229551100Y-70949279D01*
X229633147Y-71361756D01*
X229794088Y-71750302D01*
X230027737Y-72099983D01*
X230325117Y-72397363D01*
X230674798Y-72631012D01*
X231063344Y-72791953D01*
X231475821Y-72874000D01*
X231896379Y-72874000D01*
X232308856Y-72791953D01*
X232697402Y-72631012D01*
X233047083Y-72397363D01*
X233213793Y-72230653D01*
X235454052Y-72230653D01*
X235610062Y-72546214D01*
X235984845Y-72737020D01*
X236389651Y-72851044D01*
X236808924Y-72883902D01*
X237226551Y-72834334D01*
X237626483Y-72704243D01*
X237922138Y-72546214D01*
X238078148Y-72230653D01*
X236766100Y-70918605D01*
X235454052Y-72230653D01*
X233213793Y-72230653D01*
X233344463Y-72099983D01*
X233578112Y-71750302D01*
X233739053Y-71361756D01*
X233821100Y-70949279D01*
X233821100Y-70781824D01*
X234621198Y-70781824D01*
X234670766Y-71199451D01*
X234800857Y-71599383D01*
X234958886Y-71895038D01*
X235274447Y-72051048D01*
X236586495Y-70739000D01*
X236945705Y-70739000D01*
X238257753Y-72051048D01*
X238573314Y-71895038D01*
X238764120Y-71520255D01*
X238878144Y-71115449D01*
X238911002Y-70696176D01*
X238861434Y-70278549D01*
X238731343Y-69878617D01*
X238573314Y-69582962D01*
X238257753Y-69426952D01*
X236945705Y-70739000D01*
X236586495Y-70739000D01*
X235274447Y-69426952D01*
X234958886Y-69582962D01*
X234768080Y-69957745D01*
X234654056Y-70362551D01*
X234621198Y-70781824D01*
X233821100Y-70781824D01*
X233821100Y-70528721D01*
X233739053Y-70116244D01*
X233578112Y-69727698D01*
X233344463Y-69378017D01*
X233213793Y-69247347D01*
X235454052Y-69247347D01*
X236766100Y-70559395D01*
X238078148Y-69247347D01*
X237922138Y-68931786D01*
X237547355Y-68740980D01*
X237142549Y-68626956D01*
X236723276Y-68594098D01*
X236305649Y-68643666D01*
X235905717Y-68773757D01*
X235610062Y-68931786D01*
X235454052Y-69247347D01*
X233213793Y-69247347D01*
X233047083Y-69080637D01*
X232697402Y-68846988D01*
X232308856Y-68686047D01*
X231896379Y-68604000D01*
X231475821Y-68604000D01*
X231063344Y-68686047D01*
X230674798Y-68846988D01*
X230325117Y-69080637D01*
X230027737Y-69378017D01*
X229794088Y-69727698D01*
X229633147Y-70116244D01*
X229551100Y-70528721D01*
X228744172Y-70528721D01*
X228744172Y-69239000D01*
X228731912Y-69114518D01*
X228695602Y-68994820D01*
X228636637Y-68884506D01*
X228557285Y-68787815D01*
X228460594Y-68708463D01*
X228350280Y-68649498D01*
X228230582Y-68613188D01*
X228106100Y-68600928D01*
X225106100Y-68600928D01*
X224981618Y-68613188D01*
X224861920Y-68649498D01*
X224751606Y-68708463D01*
X224654915Y-68787815D01*
X224575563Y-68884506D01*
X224516598Y-68994820D01*
X224480288Y-69114518D01*
X224468028Y-69239000D01*
X222600946Y-69239000D01*
X222442583Y-69080637D01*
X222092902Y-68846988D01*
X221704356Y-68686047D01*
X221291879Y-68604000D01*
X220871321Y-68604000D01*
X220458844Y-68686047D01*
X220070298Y-68846988D01*
X219720617Y-69080637D01*
X219423237Y-69378017D01*
X219189588Y-69727698D01*
X219028647Y-70116244D01*
X218946600Y-70528721D01*
X218946600Y-70949279D01*
X219028647Y-71361756D01*
X219189588Y-71750302D01*
X219423237Y-72099983D01*
X219720617Y-72397363D01*
X220065000Y-72627472D01*
X220065000Y-79942138D01*
X219822490Y-79841686D01*
X219552592Y-79788000D01*
X219277408Y-79788000D01*
X219007510Y-79841686D01*
X218753273Y-79946995D01*
X218524465Y-80099880D01*
X218329880Y-80294465D01*
X218176995Y-80523273D01*
X218145000Y-80600515D01*
X218113005Y-80523273D01*
X217960120Y-80294465D01*
X217765535Y-80099880D01*
X217536727Y-79946995D01*
X217282490Y-79841686D01*
X217012592Y-79788000D01*
X216737408Y-79788000D01*
X216467510Y-79841686D01*
X216213273Y-79946995D01*
X215984465Y-80099880D01*
X215789880Y-80294465D01*
X215636995Y-80523273D01*
X215605000Y-80600515D01*
X215573005Y-80523273D01*
X215420120Y-80294465D01*
X215225535Y-80099880D01*
X214996727Y-79946995D01*
X214742490Y-79841686D01*
X214472592Y-79788000D01*
X214197408Y-79788000D01*
X213927510Y-79841686D01*
X213673273Y-79946995D01*
X213444465Y-80099880D01*
X213249880Y-80294465D01*
X213096995Y-80523273D01*
X213067308Y-80594943D01*
X213062636Y-80581977D01*
X213000656Y-80466020D01*
X212760565Y-80399040D01*
X211974605Y-81185000D01*
X212760565Y-81970960D01*
X213000656Y-81903980D01*
X213064485Y-81768240D01*
X213096995Y-81846727D01*
X213249880Y-82075535D01*
X213444465Y-82270120D01*
X213531341Y-82328169D01*
X213315393Y-82505392D01*
X213136068Y-82723899D01*
X213065000Y-82856858D01*
X212993932Y-82723899D01*
X212814608Y-82505392D01*
X212596101Y-82326068D01*
X212540317Y-82296251D01*
X212580960Y-82150565D01*
X211795000Y-81364605D01*
X211780858Y-81378748D01*
X211601253Y-81199143D01*
X211615395Y-81185000D01*
X211601253Y-81170858D01*
X211780858Y-80991253D01*
X211795000Y-81005395D01*
X212580960Y-80219435D01*
X212513980Y-79979344D01*
X212264952Y-79862244D01*
X211997865Y-79795977D01*
X211722983Y-79783090D01*
X211450867Y-79824078D01*
X211335000Y-79865828D01*
X211335000Y-72833597D01*
X211544356Y-72791953D01*
X211932902Y-72631012D01*
X212282583Y-72397363D01*
X212449293Y-72230653D01*
X214689552Y-72230653D01*
X214845562Y-72546214D01*
X215220345Y-72737020D01*
X215625151Y-72851044D01*
X216044424Y-72883902D01*
X216462051Y-72834334D01*
X216861983Y-72704243D01*
X217157638Y-72546214D01*
X217313648Y-72230653D01*
X216001600Y-70918605D01*
X214689552Y-72230653D01*
X212449293Y-72230653D01*
X212579963Y-72099983D01*
X212813612Y-71750302D01*
X212974553Y-71361756D01*
X213056600Y-70949279D01*
X213056600Y-70781824D01*
X213856698Y-70781824D01*
X213906266Y-71199451D01*
X214036357Y-71599383D01*
X214194386Y-71895038D01*
X214509947Y-72051048D01*
X215821995Y-70739000D01*
X216181205Y-70739000D01*
X217493253Y-72051048D01*
X217808814Y-71895038D01*
X217999620Y-71520255D01*
X218113644Y-71115449D01*
X218146502Y-70696176D01*
X218096934Y-70278549D01*
X217966843Y-69878617D01*
X217808814Y-69582962D01*
X217493253Y-69426952D01*
X216181205Y-70739000D01*
X215821995Y-70739000D01*
X214509947Y-69426952D01*
X214194386Y-69582962D01*
X214003580Y-69957745D01*
X213889556Y-70362551D01*
X213856698Y-70781824D01*
X213056600Y-70781824D01*
X213056600Y-70528721D01*
X212974553Y-70116244D01*
X212813612Y-69727698D01*
X212579963Y-69378017D01*
X212449293Y-69247347D01*
X214689552Y-69247347D01*
X216001600Y-70559395D01*
X217313648Y-69247347D01*
X217157638Y-68931786D01*
X216782855Y-68740980D01*
X216378049Y-68626956D01*
X215958776Y-68594098D01*
X215541149Y-68643666D01*
X215141217Y-68773757D01*
X214845562Y-68931786D01*
X214689552Y-69247347D01*
X212449293Y-69247347D01*
X212282583Y-69080637D01*
X211932902Y-68846988D01*
X211544356Y-68686047D01*
X211131879Y-68604000D01*
X210711321Y-68604000D01*
X210298844Y-68686047D01*
X209910298Y-68846988D01*
X209560617Y-69080637D01*
X209263237Y-69378017D01*
X209029588Y-69727698D01*
X208868647Y-70116244D01*
X208786600Y-70528721D01*
X208786600Y-70949279D01*
X208868647Y-71361756D01*
X209029588Y-71750302D01*
X209263237Y-72099983D01*
X209560617Y-72397363D01*
X209865000Y-72600745D01*
X209865000Y-75353421D01*
X209824155Y-75312576D01*
X209679205Y-75215723D01*
X209518145Y-75149010D01*
X209347165Y-75115000D01*
X209172835Y-75115000D01*
X209001855Y-75149010D01*
X208840795Y-75215723D01*
X208735000Y-75286413D01*
X208735000Y-74236105D01*
X208738556Y-74200000D01*
X208724365Y-74055915D01*
X208682337Y-73917367D01*
X208649490Y-73855915D01*
X208614087Y-73789680D01*
X208608063Y-73782340D01*
X208602911Y-73756440D01*
X208539967Y-73604479D01*
X208448587Y-73467719D01*
X208332281Y-73351413D01*
X208195521Y-73260033D01*
X208043560Y-73197089D01*
X207882240Y-73165000D01*
X207717760Y-73165000D01*
X207556440Y-73197089D01*
X207404479Y-73260033D01*
X207267719Y-73351413D01*
X207151413Y-73467719D01*
X207060033Y-73604479D01*
X206997089Y-73756440D01*
X206965000Y-73917760D01*
X206965000Y-74082240D01*
X206997089Y-74243560D01*
X207060033Y-74395521D01*
X207151413Y-74532281D01*
X207265000Y-74645868D01*
X207265001Y-79900716D01*
X207122490Y-79841686D01*
X206852592Y-79788000D01*
X206577408Y-79788000D01*
X206307510Y-79841686D01*
X206053273Y-79946995D01*
X205824465Y-80099880D01*
X205629880Y-80294465D01*
X205476995Y-80523273D01*
X205445000Y-80600515D01*
X205413005Y-80523273D01*
X205260120Y-80294465D01*
X205065535Y-80099880D01*
X204836727Y-79946995D01*
X204582490Y-79841686D01*
X204312592Y-79788000D01*
X204037408Y-79788000D01*
X203767510Y-79841686D01*
X203513273Y-79946995D01*
X203284465Y-80099880D01*
X203089880Y-80294465D01*
X202936995Y-80523273D01*
X202907308Y-80594943D01*
X202902636Y-80581977D01*
X202840656Y-80466020D01*
X202600565Y-80399040D01*
X201814605Y-81185000D01*
X202600565Y-81970960D01*
X202840656Y-81903980D01*
X202904485Y-81768240D01*
X202936995Y-81846727D01*
X203089880Y-82075535D01*
X203284465Y-82270120D01*
X203371341Y-82328169D01*
X203155393Y-82505392D01*
X202976068Y-82723899D01*
X202905000Y-82856858D01*
X202833932Y-82723899D01*
X202654608Y-82505392D01*
X202436101Y-82326068D01*
X202380317Y-82296251D01*
X202420960Y-82150565D01*
X201635000Y-81364605D01*
X201620858Y-81378748D01*
X201441253Y-81199143D01*
X201455395Y-81185000D01*
X201441253Y-81170858D01*
X201620858Y-80991253D01*
X201635000Y-81005395D01*
X202420960Y-80219435D01*
X202353980Y-79979344D01*
X202104952Y-79862244D01*
X201837865Y-79795977D01*
X201562983Y-79783090D01*
X201290867Y-79824078D01*
X201135000Y-79880242D01*
X201135000Y-76447460D01*
X201200990Y-76288145D01*
X201235000Y-76117165D01*
X201235000Y-75942835D01*
X201200990Y-75771855D01*
X201134277Y-75610795D01*
X201037424Y-75465845D01*
X200914155Y-75342576D01*
X200769205Y-75245723D01*
X200608145Y-75179010D01*
X200437165Y-75145000D01*
X200262835Y-75145000D01*
X200091855Y-75179010D01*
X199930795Y-75245723D01*
X199785845Y-75342576D01*
X199785000Y-75343421D01*
X199785000Y-73817460D01*
X199850990Y-73658145D01*
X199885000Y-73487165D01*
X199885000Y-73312835D01*
X199850990Y-73141855D01*
X199784277Y-72980795D01*
X199687424Y-72835845D01*
X199599325Y-72747746D01*
X199966051Y-72851044D01*
X200385324Y-72883902D01*
X200802951Y-72834334D01*
X201202883Y-72704243D01*
X201498538Y-72546214D01*
X201654548Y-72230653D01*
X200342500Y-70918605D01*
X199030452Y-72230653D01*
X199180177Y-72533501D01*
X199087165Y-72515000D01*
X198912835Y-72515000D01*
X198741855Y-72549010D01*
X198580795Y-72615723D01*
X198435845Y-72712576D01*
X198312576Y-72835845D01*
X198215723Y-72980795D01*
X198149010Y-73141855D01*
X198115000Y-73312835D01*
X198115000Y-73487165D01*
X198149010Y-73658145D01*
X198215000Y-73817460D01*
X198215001Y-80092840D01*
X198204465Y-80099880D01*
X198009880Y-80294465D01*
X197856995Y-80523273D01*
X197751686Y-80777510D01*
X197698000Y-81047408D01*
X197698000Y-81322592D01*
X197722762Y-81447080D01*
X197317180Y-81852663D01*
X197287226Y-81877246D01*
X197189128Y-81996778D01*
X197116236Y-82133151D01*
X197071349Y-82281124D01*
X197059990Y-82396450D01*
X197059990Y-82396457D01*
X197056193Y-82435010D01*
X195997500Y-82435010D01*
X195997500Y-72745460D01*
X196273802Y-72631012D01*
X196623483Y-72397363D01*
X196920863Y-72099983D01*
X197154512Y-71750302D01*
X197315453Y-71361756D01*
X197397500Y-70949279D01*
X197397500Y-70781824D01*
X198197598Y-70781824D01*
X198247166Y-71199451D01*
X198377257Y-71599383D01*
X198535286Y-71895038D01*
X198850847Y-72051048D01*
X200162895Y-70739000D01*
X200522105Y-70739000D01*
X201834153Y-72051048D01*
X202149714Y-71895038D01*
X202340520Y-71520255D01*
X202454544Y-71115449D01*
X202487402Y-70696176D01*
X202437834Y-70278549D01*
X202307743Y-69878617D01*
X202149714Y-69582962D01*
X201834153Y-69426952D01*
X200522105Y-70739000D01*
X200162895Y-70739000D01*
X198850847Y-69426952D01*
X198535286Y-69582962D01*
X198344480Y-69957745D01*
X198230456Y-70362551D01*
X198197598Y-70781824D01*
X197397500Y-70781824D01*
X197397500Y-70528721D01*
X197315453Y-70116244D01*
X197154512Y-69727698D01*
X196920863Y-69378017D01*
X196790193Y-69247347D01*
X199030452Y-69247347D01*
X200342500Y-70559395D01*
X201654548Y-69247347D01*
X201650422Y-69239000D01*
X203703528Y-69239000D01*
X203703528Y-72239000D01*
X203715788Y-72363482D01*
X203752098Y-72483180D01*
X203811063Y-72593494D01*
X203890415Y-72690185D01*
X203987106Y-72769537D01*
X204097420Y-72828502D01*
X204217118Y-72864812D01*
X204341600Y-72877072D01*
X205055001Y-72877072D01*
X205055000Y-75562540D01*
X204989010Y-75721855D01*
X204955000Y-75892835D01*
X204955000Y-76067165D01*
X204989010Y-76238145D01*
X205055723Y-76399205D01*
X205152576Y-76544155D01*
X205275845Y-76667424D01*
X205420795Y-76764277D01*
X205581855Y-76830990D01*
X205752835Y-76865000D01*
X205927165Y-76865000D01*
X206098145Y-76830990D01*
X206259205Y-76764277D01*
X206404155Y-76667424D01*
X206527424Y-76544155D01*
X206624277Y-76399205D01*
X206690990Y-76238145D01*
X206725000Y-76067165D01*
X206725000Y-75892835D01*
X206690990Y-75721855D01*
X206625000Y-75562540D01*
X206625000Y-72877072D01*
X207341600Y-72877072D01*
X207466082Y-72864812D01*
X207585780Y-72828502D01*
X207696094Y-72769537D01*
X207792785Y-72690185D01*
X207872137Y-72593494D01*
X207931102Y-72483180D01*
X207967412Y-72363482D01*
X207979672Y-72239000D01*
X207979672Y-69239000D01*
X207967412Y-69114518D01*
X207931102Y-68994820D01*
X207872137Y-68884506D01*
X207792785Y-68787815D01*
X207696094Y-68708463D01*
X207585780Y-68649498D01*
X207466082Y-68613188D01*
X207341600Y-68600928D01*
X204341600Y-68600928D01*
X204217118Y-68613188D01*
X204097420Y-68649498D01*
X203987106Y-68708463D01*
X203890415Y-68787815D01*
X203811063Y-68884506D01*
X203752098Y-68994820D01*
X203715788Y-69114518D01*
X203703528Y-69239000D01*
X201650422Y-69239000D01*
X201498538Y-68931786D01*
X201123755Y-68740980D01*
X200718949Y-68626956D01*
X200299676Y-68594098D01*
X199882049Y-68643666D01*
X199482117Y-68773757D01*
X199186462Y-68931786D01*
X199030452Y-69247347D01*
X196790193Y-69247347D01*
X196623483Y-69080637D01*
X196273802Y-68846988D01*
X195885256Y-68686047D01*
X195472779Y-68604000D01*
X195052221Y-68604000D01*
X194639744Y-68686047D01*
X194251198Y-68846988D01*
X193901517Y-69080637D01*
X193604137Y-69378017D01*
X193370488Y-69727698D01*
X193209547Y-70116244D01*
X193127500Y-70528721D01*
X192320572Y-70528721D01*
X192320572Y-69239000D01*
X192308312Y-69114518D01*
X192272002Y-68994820D01*
X192213037Y-68884506D01*
X192133685Y-68787815D01*
X192036994Y-68708463D01*
X191926680Y-68649498D01*
X191806982Y-68613188D01*
X191682500Y-68600928D01*
X188682500Y-68600928D01*
X188558018Y-68613188D01*
X188438320Y-68649498D01*
X188328006Y-68708463D01*
X188231315Y-68787815D01*
X188151963Y-68884506D01*
X188092998Y-68994820D01*
X188056688Y-69114518D01*
X188044428Y-69239000D01*
X188044428Y-72239000D01*
X188056688Y-72363482D01*
X188092998Y-72483180D01*
X188151963Y-72593494D01*
X188231315Y-72690185D01*
X188328006Y-72769537D01*
X188438320Y-72828502D01*
X188558018Y-72864812D01*
X188682500Y-72877072D01*
X189397500Y-72877072D01*
X189397501Y-74954453D01*
X189290256Y-74882795D01*
X189101898Y-74804774D01*
X188901939Y-74765000D01*
X188698061Y-74765000D01*
X188498102Y-74804774D01*
X188309744Y-74882795D01*
X188140226Y-74996063D01*
X187996063Y-75140226D01*
X187882795Y-75309744D01*
X187804774Y-75498102D01*
X187765000Y-75698061D01*
X187765000Y-75901939D01*
X187804774Y-76101898D01*
X187882795Y-76290256D01*
X187965001Y-76413286D01*
X187965000Y-80871289D01*
X187946063Y-80890226D01*
X187832795Y-81059744D01*
X187754774Y-81248102D01*
X187715000Y-81448061D01*
X183820478Y-81448061D01*
X183850400Y-81297640D01*
X183850400Y-81133160D01*
X183818311Y-80971840D01*
X183755367Y-80819879D01*
X183663987Y-80683119D01*
X183547681Y-80566813D01*
X183410921Y-80475433D01*
X183258960Y-80412489D01*
X183097640Y-80380400D01*
X182933160Y-80380400D01*
X182771840Y-80412489D01*
X182619879Y-80475433D01*
X182483119Y-80566813D01*
X182366813Y-80683119D01*
X182275433Y-80819879D01*
X182212489Y-80971840D01*
X182180400Y-81133160D01*
X182180400Y-81297640D01*
X182212489Y-81458960D01*
X182230400Y-81502201D01*
X182230401Y-84676018D01*
X182197089Y-84756440D01*
X182165000Y-84917760D01*
X179594678Y-84917760D01*
X179596796Y-84916978D01*
X179685434Y-84869601D01*
X179738822Y-84640927D01*
X179032900Y-83935005D01*
X178326978Y-84640927D01*
X177385000Y-84640927D01*
X177385000Y-83831855D01*
X177743948Y-83831855D01*
X177783630Y-84081849D01*
X177871322Y-84319296D01*
X177918699Y-84407934D01*
X178147373Y-84461322D01*
X178853295Y-83755400D01*
X178147373Y-83049478D01*
X177918699Y-83102866D01*
X177812805Y-83332774D01*
X177753798Y-83578924D01*
X177743948Y-83831855D01*
X177385000Y-83831855D01*
X177385000Y-82686801D01*
X177402911Y-82643560D01*
X177435000Y-82482240D01*
X177435000Y-82317760D01*
X177402911Y-82156440D01*
X177339967Y-82004479D01*
X177248587Y-81867719D01*
X177132281Y-81751413D01*
X176995521Y-81660033D01*
X176843560Y-81597089D01*
X176682240Y-81565000D01*
X176517760Y-81565000D01*
X176356440Y-81597089D01*
X176337000Y-81605141D01*
X176337000Y-80865459D01*
X176334560Y-80840683D01*
X176327333Y-80816858D01*
X176315597Y-80794902D01*
X176299803Y-80775656D01*
X176280557Y-80759862D01*
X176258601Y-80748126D01*
X176234776Y-80740899D01*
X176210000Y-80738459D01*
X168367000Y-80738459D01*
X168367000Y-77710244D01*
X169051100Y-77710244D01*
X169051100Y-78081556D01*
X169123539Y-78445734D01*
X169265634Y-78788782D01*
X169471925Y-79097518D01*
X169734482Y-79360075D01*
X170043218Y-79566366D01*
X170386266Y-79708461D01*
X170750444Y-79780900D01*
X171121756Y-79780900D01*
X171485934Y-79708461D01*
X171828982Y-79566366D01*
X172137718Y-79360075D01*
X172400275Y-79097518D01*
X172606566Y-78788782D01*
X172748661Y-78445734D01*
X172821100Y-78081556D01*
X172821100Y-77710244D01*
X172748661Y-77346066D01*
X172606566Y-77003018D01*
X172400275Y-76694282D01*
X172137718Y-76431725D01*
X171828982Y-76225434D01*
X171785000Y-76207216D01*
X171785000Y-73817460D01*
X171850990Y-73658145D01*
X171885000Y-73487165D01*
X171885000Y-73312835D01*
X171850990Y-73141855D01*
X171784277Y-72980795D01*
X171687424Y-72835845D01*
X171564155Y-72712576D01*
X171419205Y-72615723D01*
X171258145Y-72549010D01*
X171087165Y-72515000D01*
X170912835Y-72515000D01*
X170741855Y-72549010D01*
X170580795Y-72615723D01*
X170435845Y-72712576D01*
X170312576Y-72835845D01*
X170215723Y-72980795D01*
X170149010Y-73141855D01*
X170115000Y-73312835D01*
X170115000Y-73487165D01*
X170149010Y-73658145D01*
X170215000Y-73817460D01*
X170215001Y-76154279D01*
X170043218Y-76225434D01*
X169734482Y-76431725D01*
X169471925Y-76694282D01*
X169265634Y-77003018D01*
X169123539Y-77346066D01*
X169051100Y-77710244D01*
X168367000Y-77710244D01*
X168367000Y-75990000D01*
X168364560Y-75965224D01*
X168357333Y-75941399D01*
X168345597Y-75919443D01*
X168329803Y-75900197D01*
X168310557Y-75884403D01*
X168288601Y-75872667D01*
X168264776Y-75865440D01*
X168240000Y-75863000D01*
X159407268Y-75863000D01*
X159358856Y-75842947D01*
X158946379Y-75760900D01*
X158525821Y-75760900D01*
X158113344Y-75842947D01*
X158064932Y-75863000D01*
X146127000Y-75863000D01*
X146127000Y-71285675D01*
X146243346Y-71566560D01*
X146559074Y-72039080D01*
X146960920Y-72440926D01*
X147433440Y-72756654D01*
X147958477Y-72974131D01*
X148515852Y-73085000D01*
X149084148Y-73085000D01*
X149641523Y-72974131D01*
X150166560Y-72756654D01*
X150639080Y-72440926D01*
X151040926Y-72039080D01*
X151356654Y-71566560D01*
X151574131Y-71041523D01*
X151685000Y-70484148D01*
X151685000Y-69915852D01*
X151574131Y-69358477D01*
X151524643Y-69239000D01*
X161844328Y-69239000D01*
X161844328Y-72239000D01*
X161856588Y-72363482D01*
X161892898Y-72483180D01*
X161951863Y-72593494D01*
X162031215Y-72690185D01*
X162127906Y-72769537D01*
X162238220Y-72828502D01*
X162357918Y-72864812D01*
X162482400Y-72877072D01*
X163197401Y-72877072D01*
X163197401Y-73025029D01*
X163149010Y-73141855D01*
X163115000Y-73312835D01*
X163115000Y-73487165D01*
X163149010Y-73658145D01*
X163215723Y-73819205D01*
X163312576Y-73964155D01*
X163435845Y-74087424D01*
X163580795Y-74184277D01*
X163741855Y-74250990D01*
X163912835Y-74285000D01*
X164087165Y-74285000D01*
X164258145Y-74250990D01*
X164419205Y-74184277D01*
X164564155Y-74087424D01*
X164687424Y-73964155D01*
X164784277Y-73819205D01*
X164850990Y-73658145D01*
X164885000Y-73487165D01*
X164885000Y-73312835D01*
X164850990Y-73141855D01*
X164784277Y-72980795D01*
X164767400Y-72955537D01*
X164767400Y-72877072D01*
X165482400Y-72877072D01*
X165606882Y-72864812D01*
X165726580Y-72828502D01*
X165836894Y-72769537D01*
X165933585Y-72690185D01*
X166012937Y-72593494D01*
X166071902Y-72483180D01*
X166108212Y-72363482D01*
X166120472Y-72239000D01*
X166120472Y-72230653D01*
X167750352Y-72230653D01*
X167906362Y-72546214D01*
X168281145Y-72737020D01*
X168685951Y-72851044D01*
X169105224Y-72883902D01*
X169522851Y-72834334D01*
X169922783Y-72704243D01*
X170218438Y-72546214D01*
X170374448Y-72230653D01*
X169062400Y-70918605D01*
X167750352Y-72230653D01*
X166120472Y-72230653D01*
X166120472Y-70781824D01*
X166917498Y-70781824D01*
X166967066Y-71199451D01*
X167097157Y-71599383D01*
X167255186Y-71895038D01*
X167570747Y-72051048D01*
X168882795Y-70739000D01*
X169242005Y-70739000D01*
X170554053Y-72051048D01*
X170869614Y-71895038D01*
X171060420Y-71520255D01*
X171174444Y-71115449D01*
X171207302Y-70696176D01*
X171187427Y-70528721D01*
X172007400Y-70528721D01*
X172007400Y-70949279D01*
X172089447Y-71361756D01*
X172250388Y-71750302D01*
X172484037Y-72099983D01*
X172781417Y-72397363D01*
X173131098Y-72631012D01*
X173415001Y-72748608D01*
X173415000Y-75171289D01*
X173396063Y-75190226D01*
X173282795Y-75359744D01*
X173204774Y-75548102D01*
X173165000Y-75748061D01*
X173165000Y-75951939D01*
X173204774Y-76151898D01*
X173282795Y-76340256D01*
X173396063Y-76509774D01*
X173540226Y-76653937D01*
X173709744Y-76767205D01*
X173898102Y-76845226D01*
X174098061Y-76885000D01*
X174301939Y-76885000D01*
X174406508Y-76864200D01*
X176634428Y-76864200D01*
X176634428Y-79064200D01*
X176646688Y-79188682D01*
X176682998Y-79308380D01*
X176741963Y-79418694D01*
X176821315Y-79515385D01*
X176918006Y-79594737D01*
X177028320Y-79653702D01*
X177148018Y-79690012D01*
X177272500Y-79702272D01*
X179472500Y-79702272D01*
X179517776Y-79697813D01*
X179517900Y-79787176D01*
X179517900Y-79927328D01*
X178382900Y-79927328D01*
X178258418Y-79939588D01*
X178138720Y-79975898D01*
X178028406Y-80034863D01*
X177931715Y-80114215D01*
X177852363Y-80210906D01*
X177793398Y-80321220D01*
X177757088Y-80440918D01*
X177744828Y-80565400D01*
X177744828Y-81865400D01*
X177757088Y-81989882D01*
X177793398Y-82109580D01*
X177852363Y-82219894D01*
X177931715Y-82316585D01*
X178028406Y-82395937D01*
X178138720Y-82454902D01*
X178258418Y-82491212D01*
X178382900Y-82503472D01*
X178723196Y-82503472D01*
X178706451Y-82506130D01*
X178469004Y-82593822D01*
X178380366Y-82641199D01*
X178326978Y-82869873D01*
X179032900Y-83575795D01*
X179047043Y-83561653D01*
X179226648Y-83741258D01*
X179212505Y-83755400D01*
X179918427Y-84461322D01*
X180147101Y-84407934D01*
X180252995Y-84178026D01*
X180312002Y-83931876D01*
X180318290Y-83770400D01*
X180429461Y-83770400D01*
X180677721Y-83721019D01*
X180911576Y-83624153D01*
X181122040Y-83483525D01*
X181301025Y-83304540D01*
X181441653Y-83094076D01*
X181538519Y-82860221D01*
X181587900Y-82611961D01*
X181587900Y-82358839D01*
X181538519Y-82110579D01*
X181441653Y-81876724D01*
X181301025Y-81666260D01*
X181122040Y-81487275D01*
X181087900Y-81464463D01*
X181087900Y-79825106D01*
X181087952Y-79824570D01*
X181087900Y-79787144D01*
X181087900Y-79748539D01*
X181087846Y-79747987D01*
X181085397Y-77985842D01*
X181102911Y-77943560D01*
X181132796Y-77793317D01*
X184257500Y-77793317D01*
X184257500Y-78135083D01*
X184324175Y-78470281D01*
X184454963Y-78786031D01*
X184644837Y-79070198D01*
X184886502Y-79311863D01*
X185170669Y-79501737D01*
X185486419Y-79632525D01*
X185821617Y-79699200D01*
X186163383Y-79699200D01*
X186498581Y-79632525D01*
X186814331Y-79501737D01*
X187098498Y-79311863D01*
X187340163Y-79070198D01*
X187530037Y-78786031D01*
X187660825Y-78470281D01*
X187727500Y-78135083D01*
X187727500Y-77793317D01*
X187660825Y-77458119D01*
X187530037Y-77142369D01*
X187340163Y-76858202D01*
X187098498Y-76616537D01*
X186814331Y-76426663D01*
X186498581Y-76295875D01*
X186163383Y-76229200D01*
X185821617Y-76229200D01*
X185486419Y-76295875D01*
X185170669Y-76426663D01*
X184886502Y-76616537D01*
X184644837Y-76858202D01*
X184454963Y-77142369D01*
X184324175Y-77458119D01*
X184257500Y-77793317D01*
X181132796Y-77793317D01*
X181135000Y-77782240D01*
X181135000Y-77617760D01*
X181102911Y-77456440D01*
X181039967Y-77304479D01*
X180948587Y-77167719D01*
X180832281Y-77051413D01*
X180695521Y-76960033D01*
X180543560Y-76897089D01*
X180382240Y-76865000D01*
X180217760Y-76865000D01*
X180110572Y-76886321D01*
X180110572Y-76864200D01*
X180098312Y-76739718D01*
X180062002Y-76620020D01*
X180003037Y-76509706D01*
X179923685Y-76413015D01*
X179826994Y-76333663D01*
X179716680Y-76274698D01*
X179596982Y-76238388D01*
X179472500Y-76226128D01*
X177272500Y-76226128D01*
X177148018Y-76238388D01*
X177028320Y-76274698D01*
X176918006Y-76333663D01*
X176821315Y-76413015D01*
X176741963Y-76509706D01*
X176682998Y-76620020D01*
X176646688Y-76739718D01*
X176634428Y-76864200D01*
X174406508Y-76864200D01*
X174501898Y-76845226D01*
X174690256Y-76767205D01*
X174859774Y-76653937D01*
X175003937Y-76509774D01*
X175117205Y-76340256D01*
X175195226Y-76151898D01*
X175235000Y-75951939D01*
X175235000Y-75748061D01*
X175195226Y-75548102D01*
X175117205Y-75359744D01*
X175003937Y-75190226D01*
X174985000Y-75171289D01*
X174985000Y-72700891D01*
X175153702Y-72631012D01*
X175503383Y-72397363D01*
X175800763Y-72099983D01*
X176034412Y-71750302D01*
X176195353Y-71361756D01*
X176277400Y-70949279D01*
X176277400Y-70528721D01*
X176195353Y-70116244D01*
X176034412Y-69727698D01*
X175800763Y-69378017D01*
X175661746Y-69239000D01*
X177490728Y-69239000D01*
X177490728Y-72239000D01*
X177502988Y-72363482D01*
X177539298Y-72483180D01*
X177598263Y-72593494D01*
X177677615Y-72690185D01*
X177774306Y-72769537D01*
X177884620Y-72828502D01*
X178004318Y-72864812D01*
X178128800Y-72877072D01*
X178893801Y-72877072D01*
X178893801Y-73603942D01*
X178860033Y-73654479D01*
X178797089Y-73806440D01*
X178765000Y-73967760D01*
X178765000Y-74132240D01*
X178797089Y-74293560D01*
X178860033Y-74445521D01*
X178951413Y-74582281D01*
X179067719Y-74698587D01*
X179204479Y-74789967D01*
X179356440Y-74852911D01*
X179517760Y-74885000D01*
X179682240Y-74885000D01*
X179843560Y-74852911D01*
X179995521Y-74789967D01*
X180132281Y-74698587D01*
X180248587Y-74582281D01*
X180339967Y-74445521D01*
X180402911Y-74293560D01*
X180435000Y-74132240D01*
X180435000Y-73967760D01*
X180402911Y-73806440D01*
X180363800Y-73712017D01*
X180363800Y-72877072D01*
X181128800Y-72877072D01*
X181253282Y-72864812D01*
X181372980Y-72828502D01*
X181483294Y-72769537D01*
X181579985Y-72690185D01*
X181659337Y-72593494D01*
X181718302Y-72483180D01*
X181754612Y-72363482D01*
X181766872Y-72239000D01*
X181766872Y-72230653D01*
X183396752Y-72230653D01*
X183552762Y-72546214D01*
X183927545Y-72737020D01*
X184332351Y-72851044D01*
X184751624Y-72883902D01*
X185169251Y-72834334D01*
X185569183Y-72704243D01*
X185864838Y-72546214D01*
X186020848Y-72230653D01*
X184708800Y-70918605D01*
X183396752Y-72230653D01*
X181766872Y-72230653D01*
X181766872Y-70781824D01*
X182563898Y-70781824D01*
X182613466Y-71199451D01*
X182743557Y-71599383D01*
X182901586Y-71895038D01*
X183217147Y-72051048D01*
X184529195Y-70739000D01*
X184888405Y-70739000D01*
X186200453Y-72051048D01*
X186516014Y-71895038D01*
X186706820Y-71520255D01*
X186820844Y-71115449D01*
X186853702Y-70696176D01*
X186804134Y-70278549D01*
X186674043Y-69878617D01*
X186516014Y-69582962D01*
X186200453Y-69426952D01*
X184888405Y-70739000D01*
X184529195Y-70739000D01*
X183217147Y-69426952D01*
X182901586Y-69582962D01*
X182710780Y-69957745D01*
X182596756Y-70362551D01*
X182563898Y-70781824D01*
X181766872Y-70781824D01*
X181766872Y-69247347D01*
X183396752Y-69247347D01*
X184708800Y-70559395D01*
X186020848Y-69247347D01*
X185864838Y-68931786D01*
X185490055Y-68740980D01*
X185085249Y-68626956D01*
X184665976Y-68594098D01*
X184248349Y-68643666D01*
X183848417Y-68773757D01*
X183552762Y-68931786D01*
X183396752Y-69247347D01*
X181766872Y-69247347D01*
X181766872Y-69239000D01*
X181754612Y-69114518D01*
X181718302Y-68994820D01*
X181659337Y-68884506D01*
X181579985Y-68787815D01*
X181483294Y-68708463D01*
X181372980Y-68649498D01*
X181253282Y-68613188D01*
X181128800Y-68600928D01*
X178128800Y-68600928D01*
X178004318Y-68613188D01*
X177884620Y-68649498D01*
X177774306Y-68708463D01*
X177677615Y-68787815D01*
X177598263Y-68884506D01*
X177539298Y-68994820D01*
X177502988Y-69114518D01*
X177490728Y-69239000D01*
X175661746Y-69239000D01*
X175503383Y-69080637D01*
X175153702Y-68846988D01*
X174765156Y-68686047D01*
X174352679Y-68604000D01*
X173932121Y-68604000D01*
X173519644Y-68686047D01*
X173131098Y-68846988D01*
X172781417Y-69080637D01*
X172484037Y-69378017D01*
X172250388Y-69727698D01*
X172089447Y-70116244D01*
X172007400Y-70528721D01*
X171187427Y-70528721D01*
X171157734Y-70278549D01*
X171027643Y-69878617D01*
X170869614Y-69582962D01*
X170554053Y-69426952D01*
X169242005Y-70739000D01*
X168882795Y-70739000D01*
X167570747Y-69426952D01*
X167255186Y-69582962D01*
X167064380Y-69957745D01*
X166950356Y-70362551D01*
X166917498Y-70781824D01*
X166120472Y-70781824D01*
X166120472Y-69247347D01*
X167750352Y-69247347D01*
X169062400Y-70559395D01*
X170374448Y-69247347D01*
X170218438Y-68931786D01*
X169843655Y-68740980D01*
X169438849Y-68626956D01*
X169019576Y-68594098D01*
X168601949Y-68643666D01*
X168202017Y-68773757D01*
X167906362Y-68931786D01*
X167750352Y-69247347D01*
X166120472Y-69247347D01*
X166120472Y-69239000D01*
X166108212Y-69114518D01*
X166071902Y-68994820D01*
X166012937Y-68884506D01*
X165933585Y-68787815D01*
X165836894Y-68708463D01*
X165726580Y-68649498D01*
X165606882Y-68613188D01*
X165482400Y-68600928D01*
X162482400Y-68600928D01*
X162357918Y-68613188D01*
X162238220Y-68649498D01*
X162127906Y-68708463D01*
X162031215Y-68787815D01*
X161951863Y-68884506D01*
X161892898Y-68994820D01*
X161856588Y-69114518D01*
X161844328Y-69239000D01*
X151524643Y-69239000D01*
X151356654Y-68833440D01*
X151040926Y-68360920D01*
X150807006Y-68127000D01*
X243873000Y-68127000D01*
X243873000Y-70053346D01*
G37*
%TD.AperFunction*%
D32*
X218176995Y-81846727D02*
X218329880Y-82075535D01*
X218524465Y-82270120D01*
X218753273Y-82423005D01*
X219007510Y-82528314D01*
X219277408Y-82582000D01*
X219552592Y-82582000D01*
X219822490Y-82528314D01*
X220065000Y-82427862D01*
X220065001Y-87872873D01*
X219900256Y-87762795D01*
X219711898Y-87684774D01*
X219511939Y-87645000D01*
X219308061Y-87645000D01*
X219108102Y-87684774D01*
X218919744Y-87762795D01*
X218750226Y-87876063D01*
X218606063Y-88020226D01*
X218492795Y-88189744D01*
X218414774Y-88378102D01*
X218375000Y-88578061D01*
X218375000Y-88781939D01*
X218414774Y-88981898D01*
X218492795Y-89170256D01*
X218606063Y-89339774D01*
X218630001Y-89363712D01*
X218630000Y-107969364D01*
X218524465Y-108039880D01*
X218329880Y-108234465D01*
X218176995Y-108463273D01*
X218145000Y-108540515D01*
X218113005Y-108463273D01*
X217960120Y-108234465D01*
X217765535Y-108039880D01*
X217678659Y-107981831D01*
X217894607Y-107804608D01*
X218073932Y-107586101D01*
X218207182Y-107336808D01*
X218289236Y-107066309D01*
X218310000Y-106855492D01*
X218310000Y-106314509D01*
X218289236Y-106103692D01*
X218207182Y-105833193D01*
X218073932Y-105583899D01*
X217894608Y-105365392D01*
X217676101Y-105186068D01*
X217426808Y-105052818D01*
X217156309Y-104970764D01*
X216875000Y-104943057D01*
X216593692Y-104970764D01*
X216335000Y-105049236D01*
X216335000Y-90402955D01*
X216339967Y-90395521D01*
X216402911Y-90243560D01*
X216435000Y-90082240D01*
X216435000Y-89917760D01*
X216402911Y-89756440D01*
X216339967Y-89604479D01*
X216248587Y-89467719D01*
X216132281Y-89351413D01*
X215995521Y-89260033D01*
X215843560Y-89197089D01*
X215682240Y-89165000D01*
X215517760Y-89165000D01*
X215356440Y-89197089D01*
X215204479Y-89260033D01*
X215067719Y-89351413D01*
X214951413Y-89467719D01*
X214860033Y-89604479D01*
X214845000Y-89640772D01*
X214845000Y-87562955D01*
X214849967Y-87555521D01*
X214912911Y-87403560D01*
X214945000Y-87242240D01*
X214945000Y-87077760D01*
X214912911Y-86916440D01*
X214849967Y-86764479D01*
X214845000Y-86757045D01*
X214845000Y-85269864D01*
X214886807Y-85257182D01*
X215136100Y-85123932D01*
X215297441Y-84991523D01*
X215344463Y-85079494D01*
X215423815Y-85176185D01*
X215520506Y-85255537D01*
X215630820Y-85314502D01*
X215750518Y-85350812D01*
X215875000Y-85363072D01*
X217875000Y-85363072D01*
X217999482Y-85350812D01*
X218119180Y-85314502D01*
X218229494Y-85255537D01*
X218326185Y-85176185D01*
X218405537Y-85079494D01*
X218464502Y-84969180D01*
X218500812Y-84849482D01*
X218513072Y-84725000D01*
X218513072Y-82725000D01*
X218500812Y-82600518D01*
X218464502Y-82480820D01*
X218405537Y-82370506D01*
X218326185Y-82273815D01*
X218229494Y-82194463D01*
X218119180Y-82135498D01*
X217999482Y-82099188D01*
X217942117Y-82093538D01*
X217960120Y-82075535D01*
X218113005Y-81846727D01*
X218145000Y-81769485D01*
X218176995Y-81846727D01*
%TA.AperFunction,Conductor*%
D33*
G36*
X218176995Y-81846727D02*
G01*
X218329880Y-82075535D01*
X218524465Y-82270120D01*
X218753273Y-82423005D01*
X219007510Y-82528314D01*
X219277408Y-82582000D01*
X219552592Y-82582000D01*
X219822490Y-82528314D01*
X220065000Y-82427862D01*
X220065001Y-87872873D01*
X219900256Y-87762795D01*
X219711898Y-87684774D01*
X219511939Y-87645000D01*
X219308061Y-87645000D01*
X219108102Y-87684774D01*
X218919744Y-87762795D01*
X218750226Y-87876063D01*
X218606063Y-88020226D01*
X218492795Y-88189744D01*
X218414774Y-88378102D01*
X218375000Y-88578061D01*
X218375000Y-88781939D01*
X218414774Y-88981898D01*
X218492795Y-89170256D01*
X218606063Y-89339774D01*
X218630001Y-89363712D01*
X218630000Y-107969364D01*
X218524465Y-108039880D01*
X218329880Y-108234465D01*
X218176995Y-108463273D01*
X218145000Y-108540515D01*
X218113005Y-108463273D01*
X217960120Y-108234465D01*
X217765535Y-108039880D01*
X217678659Y-107981831D01*
X217894607Y-107804608D01*
X218073932Y-107586101D01*
X218207182Y-107336808D01*
X218289236Y-107066309D01*
X218310000Y-106855492D01*
X218310000Y-106314509D01*
X218289236Y-106103692D01*
X218207182Y-105833193D01*
X218073932Y-105583899D01*
X217894608Y-105365392D01*
X217676101Y-105186068D01*
X217426808Y-105052818D01*
X217156309Y-104970764D01*
X216875000Y-104943057D01*
X216593692Y-104970764D01*
X216335000Y-105049236D01*
X216335000Y-90402955D01*
X216339967Y-90395521D01*
X216402911Y-90243560D01*
X216435000Y-90082240D01*
X216435000Y-89917760D01*
X216402911Y-89756440D01*
X216339967Y-89604479D01*
X216248587Y-89467719D01*
X216132281Y-89351413D01*
X215995521Y-89260033D01*
X215843560Y-89197089D01*
X215682240Y-89165000D01*
X215517760Y-89165000D01*
X215356440Y-89197089D01*
X215204479Y-89260033D01*
X215067719Y-89351413D01*
X214951413Y-89467719D01*
X214860033Y-89604479D01*
X214845000Y-89640772D01*
X214845000Y-87562955D01*
X214849967Y-87555521D01*
X214912911Y-87403560D01*
X214945000Y-87242240D01*
X214945000Y-87077760D01*
X214912911Y-86916440D01*
X214849967Y-86764479D01*
X214845000Y-86757045D01*
X214845000Y-85269864D01*
X214886807Y-85257182D01*
X215136100Y-85123932D01*
X215297441Y-84991523D01*
X215344463Y-85079494D01*
X215423815Y-85176185D01*
X215520506Y-85255537D01*
X215630820Y-85314502D01*
X215750518Y-85350812D01*
X215875000Y-85363072D01*
X217875000Y-85363072D01*
X217999482Y-85350812D01*
X218119180Y-85314502D01*
X218229494Y-85255537D01*
X218326185Y-85176185D01*
X218405537Y-85079494D01*
X218464502Y-84969180D01*
X218500812Y-84849482D01*
X218513072Y-84725000D01*
X218513072Y-82725000D01*
X218500812Y-82600518D01*
X218464502Y-82480820D01*
X218405537Y-82370506D01*
X218326185Y-82273815D01*
X218229494Y-82194463D01*
X218119180Y-82135498D01*
X217999482Y-82099188D01*
X217942117Y-82093538D01*
X217960120Y-82075535D01*
X218113005Y-81846727D01*
X218145000Y-81769485D01*
X218176995Y-81846727D01*
G37*
%TD.AperFunction*%
D32*
X208056068Y-84726100D02*
X208235392Y-84944607D01*
X208453899Y-85123932D01*
X208455001Y-85124521D01*
X208455000Y-89587045D01*
X208450033Y-89594479D01*
X208387089Y-89746440D01*
X208355000Y-89907760D01*
X208355000Y-90072240D01*
X208387089Y-90233560D01*
X208450033Y-90385521D01*
X208541413Y-90522281D01*
X208657719Y-90638587D01*
X208794479Y-90729967D01*
X208946440Y-90792911D01*
X209107760Y-90825000D01*
X209272240Y-90825000D01*
X209433560Y-90792911D01*
X209585521Y-90729967D01*
X209722281Y-90638587D01*
X209838587Y-90522281D01*
X209865001Y-90482750D01*
X209865001Y-102797044D01*
X209860033Y-102804479D01*
X209797089Y-102956440D01*
X209765000Y-103117760D01*
X209765000Y-103282240D01*
X209790301Y-103409433D01*
X209732281Y-103351413D01*
X209595521Y-103260033D01*
X209443560Y-103197089D01*
X209282240Y-103165000D01*
X209117760Y-103165000D01*
X208956440Y-103197089D01*
X208804479Y-103260033D01*
X208667719Y-103351413D01*
X208551413Y-103467719D01*
X208460033Y-103604479D01*
X208397089Y-103756440D01*
X208365000Y-103917760D01*
X208365000Y-104082240D01*
X208397089Y-104243560D01*
X208460033Y-104395521D01*
X208465000Y-104402955D01*
X208465000Y-105180135D01*
X208453900Y-105186068D01*
X208235393Y-105365392D01*
X208056068Y-105583899D01*
X207985000Y-105716858D01*
X207913932Y-105583899D01*
X207734608Y-105365392D01*
X207516101Y-105186068D01*
X207266808Y-105052818D01*
X206996309Y-104970764D01*
X206715000Y-104943057D01*
X206433692Y-104970764D01*
X206163193Y-105052818D01*
X206135000Y-105067887D01*
X206135000Y-104402955D01*
X206139967Y-104395521D01*
X206202911Y-104243560D01*
X206235000Y-104082240D01*
X206235000Y-103917760D01*
X206202911Y-103756440D01*
X206139967Y-103604479D01*
X206048587Y-103467719D01*
X205932281Y-103351413D01*
X205795521Y-103260033D01*
X205643560Y-103197089D01*
X205482240Y-103165000D01*
X205317760Y-103165000D01*
X205156440Y-103197089D01*
X205004479Y-103260033D01*
X204867719Y-103351413D01*
X204751413Y-103467719D01*
X204660033Y-103604479D01*
X204597089Y-103756440D01*
X204565000Y-103917760D01*
X204565000Y-104082240D01*
X204597089Y-104243560D01*
X204660033Y-104395521D01*
X204665001Y-104402956D01*
X204665001Y-105034069D01*
X204456309Y-104970764D01*
X204175000Y-104943057D01*
X203893692Y-104970764D01*
X203735000Y-105018902D01*
X203735000Y-103602955D01*
X203739967Y-103595521D01*
X203802911Y-103443560D01*
X203835000Y-103282240D01*
X203835000Y-103117760D01*
X203802911Y-102956440D01*
X203739967Y-102804479D01*
X203648587Y-102667719D01*
X203532281Y-102551413D01*
X203395521Y-102460033D01*
X203243560Y-102397089D01*
X203082240Y-102365000D01*
X202917760Y-102365000D01*
X202756440Y-102397089D01*
X202604479Y-102460033D01*
X202467719Y-102551413D01*
X202351413Y-102667719D01*
X202260033Y-102804479D01*
X202197089Y-102956440D01*
X202165000Y-103117760D01*
X202165000Y-103282240D01*
X202197089Y-103443560D01*
X202260033Y-103595521D01*
X202265001Y-103602956D01*
X202265001Y-105093902D01*
X202041730Y-105003556D01*
X201984039Y-104993096D01*
X201762000Y-105115085D01*
X201762000Y-106458000D01*
X201782000Y-106458000D01*
X201782000Y-106712000D01*
X201762000Y-106712000D01*
X201762000Y-106732000D01*
X201508000Y-106732000D01*
X201508000Y-106712000D01*
X201488000Y-106712000D01*
X201488000Y-106458000D01*
X201508000Y-106458000D01*
X201508000Y-105115085D01*
X201285961Y-104993096D01*
X201228270Y-105003556D01*
X200966579Y-105109449D01*
X200730575Y-105264361D01*
X200529327Y-105462338D01*
X200370570Y-105695773D01*
X200363122Y-105713345D01*
X200293932Y-105583899D01*
X200114608Y-105365392D01*
X199985000Y-105259025D01*
X199985000Y-103017460D01*
X200050990Y-102858145D01*
X200085000Y-102687165D01*
X200085000Y-102512835D01*
X200050990Y-102341855D01*
X199984277Y-102180795D01*
X199887424Y-102035845D01*
X199764155Y-101912576D01*
X199619205Y-101815723D01*
X199459890Y-101749733D01*
X198629990Y-100919833D01*
X198629990Y-85283512D01*
X198813691Y-85339236D01*
X199095000Y-85366943D01*
X199376308Y-85339236D01*
X199646807Y-85257182D01*
X199896100Y-85123932D01*
X200114607Y-84944608D01*
X200293932Y-84726101D01*
X200365000Y-84593142D01*
X200436068Y-84726100D01*
X200615392Y-84944607D01*
X200833899Y-85123932D01*
X201083192Y-85257182D01*
X201353691Y-85339236D01*
X201635000Y-85366943D01*
X201916308Y-85339236D01*
X202186807Y-85257182D01*
X202436100Y-85123932D01*
X202654607Y-84944608D01*
X202833932Y-84726101D01*
X202905000Y-84593142D01*
X202976068Y-84726100D01*
X203155392Y-84944607D01*
X203373899Y-85123932D01*
X203390000Y-85132538D01*
X203390001Y-87981288D01*
X203371063Y-88000226D01*
X203257795Y-88169744D01*
X203179774Y-88358102D01*
X203140000Y-88558061D01*
X203140000Y-88761939D01*
X203179774Y-88961898D01*
X203257795Y-89150256D01*
X203371063Y-89319774D01*
X203515226Y-89463937D01*
X203684744Y-89577205D01*
X203873102Y-89655226D01*
X204073061Y-89695000D01*
X204276939Y-89695000D01*
X204476898Y-89655226D01*
X204665256Y-89577205D01*
X204834774Y-89463937D01*
X204978937Y-89319774D01*
X205092205Y-89150256D01*
X205170226Y-88961898D01*
X205210000Y-88761939D01*
X205210000Y-88558061D01*
X205170226Y-88358102D01*
X205092205Y-88169744D01*
X204978937Y-88000226D01*
X204960000Y-87981289D01*
X204960000Y-85132538D01*
X204976100Y-85123932D01*
X205194607Y-84944608D01*
X205373932Y-84726101D01*
X205445000Y-84593142D01*
X205516068Y-84726100D01*
X205695392Y-84944607D01*
X205913899Y-85123932D01*
X206163192Y-85257182D01*
X206433691Y-85339236D01*
X206715000Y-85366943D01*
X206996308Y-85339236D01*
X207266807Y-85257182D01*
X207516100Y-85123932D01*
X207734607Y-84944608D01*
X207913932Y-84726101D01*
X207985000Y-84593142D01*
X208056068Y-84726100D01*
%TA.AperFunction,Conductor*%
D33*
G36*
X208056068Y-84726100D02*
G01*
X208235392Y-84944607D01*
X208453899Y-85123932D01*
X208455001Y-85124521D01*
X208455000Y-89587045D01*
X208450033Y-89594479D01*
X208387089Y-89746440D01*
X208355000Y-89907760D01*
X208355000Y-90072240D01*
X208387089Y-90233560D01*
X208450033Y-90385521D01*
X208541413Y-90522281D01*
X208657719Y-90638587D01*
X208794479Y-90729967D01*
X208946440Y-90792911D01*
X209107760Y-90825000D01*
X209272240Y-90825000D01*
X209433560Y-90792911D01*
X209585521Y-90729967D01*
X209722281Y-90638587D01*
X209838587Y-90522281D01*
X209865001Y-90482750D01*
X209865001Y-102797044D01*
X209860033Y-102804479D01*
X209797089Y-102956440D01*
X209765000Y-103117760D01*
X209765000Y-103282240D01*
X209790301Y-103409433D01*
X209732281Y-103351413D01*
X209595521Y-103260033D01*
X209443560Y-103197089D01*
X209282240Y-103165000D01*
X209117760Y-103165000D01*
X208956440Y-103197089D01*
X208804479Y-103260033D01*
X208667719Y-103351413D01*
X208551413Y-103467719D01*
X208460033Y-103604479D01*
X208397089Y-103756440D01*
X208365000Y-103917760D01*
X208365000Y-104082240D01*
X208397089Y-104243560D01*
X208460033Y-104395521D01*
X208465000Y-104402955D01*
X208465000Y-105180135D01*
X208453900Y-105186068D01*
X208235393Y-105365392D01*
X208056068Y-105583899D01*
X207985000Y-105716858D01*
X207913932Y-105583899D01*
X207734608Y-105365392D01*
X207516101Y-105186068D01*
X207266808Y-105052818D01*
X206996309Y-104970764D01*
X206715000Y-104943057D01*
X206433692Y-104970764D01*
X206163193Y-105052818D01*
X206135000Y-105067887D01*
X206135000Y-104402955D01*
X206139967Y-104395521D01*
X206202911Y-104243560D01*
X206235000Y-104082240D01*
X206235000Y-103917760D01*
X206202911Y-103756440D01*
X206139967Y-103604479D01*
X206048587Y-103467719D01*
X205932281Y-103351413D01*
X205795521Y-103260033D01*
X205643560Y-103197089D01*
X205482240Y-103165000D01*
X205317760Y-103165000D01*
X205156440Y-103197089D01*
X205004479Y-103260033D01*
X204867719Y-103351413D01*
X204751413Y-103467719D01*
X204660033Y-103604479D01*
X204597089Y-103756440D01*
X204565000Y-103917760D01*
X204565000Y-104082240D01*
X204597089Y-104243560D01*
X204660033Y-104395521D01*
X204665001Y-104402956D01*
X204665001Y-105034069D01*
X204456309Y-104970764D01*
X204175000Y-104943057D01*
X203893692Y-104970764D01*
X203735000Y-105018902D01*
X203735000Y-103602955D01*
X203739967Y-103595521D01*
X203802911Y-103443560D01*
X203835000Y-103282240D01*
X203835000Y-103117760D01*
X203802911Y-102956440D01*
X203739967Y-102804479D01*
X203648587Y-102667719D01*
X203532281Y-102551413D01*
X203395521Y-102460033D01*
X203243560Y-102397089D01*
X203082240Y-102365000D01*
X202917760Y-102365000D01*
X202756440Y-102397089D01*
X202604479Y-102460033D01*
X202467719Y-102551413D01*
X202351413Y-102667719D01*
X202260033Y-102804479D01*
X202197089Y-102956440D01*
X202165000Y-103117760D01*
X202165000Y-103282240D01*
X202197089Y-103443560D01*
X202260033Y-103595521D01*
X202265001Y-103602956D01*
X202265001Y-105093902D01*
X202041730Y-105003556D01*
X201984039Y-104993096D01*
X201762000Y-105115085D01*
X201762000Y-106458000D01*
X201782000Y-106458000D01*
X201782000Y-106712000D01*
X201762000Y-106712000D01*
X201762000Y-106732000D01*
X201508000Y-106732000D01*
X201508000Y-106712000D01*
X201488000Y-106712000D01*
X201488000Y-106458000D01*
X201508000Y-106458000D01*
X201508000Y-105115085D01*
X201285961Y-104993096D01*
X201228270Y-105003556D01*
X200966579Y-105109449D01*
X200730575Y-105264361D01*
X200529327Y-105462338D01*
X200370570Y-105695773D01*
X200363122Y-105713345D01*
X200293932Y-105583899D01*
X200114608Y-105365392D01*
X199985000Y-105259025D01*
X199985000Y-103017460D01*
X200050990Y-102858145D01*
X200085000Y-102687165D01*
X200085000Y-102512835D01*
X200050990Y-102341855D01*
X199984277Y-102180795D01*
X199887424Y-102035845D01*
X199764155Y-101912576D01*
X199619205Y-101815723D01*
X199459890Y-101749733D01*
X198629990Y-100919833D01*
X198629990Y-85283512D01*
X198813691Y-85339236D01*
X199095000Y-85366943D01*
X199376308Y-85339236D01*
X199646807Y-85257182D01*
X199896100Y-85123932D01*
X200114607Y-84944608D01*
X200293932Y-84726101D01*
X200365000Y-84593142D01*
X200436068Y-84726100D01*
X200615392Y-84944607D01*
X200833899Y-85123932D01*
X201083192Y-85257182D01*
X201353691Y-85339236D01*
X201635000Y-85366943D01*
X201916308Y-85339236D01*
X202186807Y-85257182D01*
X202436100Y-85123932D01*
X202654607Y-84944608D01*
X202833932Y-84726101D01*
X202905000Y-84593142D01*
X202976068Y-84726100D01*
X203155392Y-84944607D01*
X203373899Y-85123932D01*
X203390000Y-85132538D01*
X203390001Y-87981288D01*
X203371063Y-88000226D01*
X203257795Y-88169744D01*
X203179774Y-88358102D01*
X203140000Y-88558061D01*
X203140000Y-88761939D01*
X203179774Y-88961898D01*
X203257795Y-89150256D01*
X203371063Y-89319774D01*
X203515226Y-89463937D01*
X203684744Y-89577205D01*
X203873102Y-89655226D01*
X204073061Y-89695000D01*
X204276939Y-89695000D01*
X204476898Y-89655226D01*
X204665256Y-89577205D01*
X204834774Y-89463937D01*
X204978937Y-89319774D01*
X205092205Y-89150256D01*
X205170226Y-88961898D01*
X205210000Y-88761939D01*
X205210000Y-88558061D01*
X205170226Y-88358102D01*
X205092205Y-88169744D01*
X204978937Y-88000226D01*
X204960000Y-87981289D01*
X204960000Y-85132538D01*
X204976100Y-85123932D01*
X205194607Y-84944608D01*
X205373932Y-84726101D01*
X205445000Y-84593142D01*
X205516068Y-84726100D01*
X205695392Y-84944607D01*
X205913899Y-85123932D01*
X206163192Y-85257182D01*
X206433691Y-85339236D01*
X206715000Y-85366943D01*
X206996308Y-85339236D01*
X207266807Y-85257182D01*
X207516100Y-85123932D01*
X207734607Y-84944608D01*
X207913932Y-84726101D01*
X207985000Y-84593142D01*
X208056068Y-84726100D01*
G37*
%TD.AperFunction*%
D32*
X213136068Y-84726100D02*
X213315392Y-84944607D01*
X213375001Y-84993527D01*
X213375000Y-86757045D01*
X213370033Y-86764479D01*
X213307089Y-86916440D01*
X213275000Y-87077760D01*
X213275000Y-87242240D01*
X213307089Y-87403560D01*
X213370033Y-87555521D01*
X213375001Y-87562956D01*
X213375000Y-94787045D01*
X213370033Y-94794479D01*
X213307089Y-94946440D01*
X213275000Y-95107760D01*
X213275000Y-95272240D01*
X213307089Y-95433560D01*
X213370033Y-95585521D01*
X213461413Y-95722281D01*
X213577719Y-95838587D01*
X213714479Y-95929967D01*
X213866440Y-95992911D01*
X214027760Y-96025000D01*
X214192240Y-96025000D01*
X214353560Y-95992911D01*
X214505521Y-95929967D01*
X214642281Y-95838587D01*
X214758587Y-95722281D01*
X214849967Y-95585521D01*
X214865001Y-95549226D01*
X214865000Y-105046203D01*
X214616309Y-104970764D01*
X214335000Y-104943057D01*
X214053692Y-104970764D01*
X213783193Y-105052818D01*
X213533900Y-105186068D01*
X213315393Y-105365392D01*
X213136068Y-105583899D01*
X213065000Y-105716858D01*
X212993932Y-105583899D01*
X212814608Y-105365392D01*
X212596101Y-105186068D01*
X212535000Y-105153409D01*
X212535000Y-103602955D01*
X212539967Y-103595521D01*
X212602911Y-103443560D01*
X212635000Y-103282240D01*
X212635000Y-103117760D01*
X212602911Y-102956440D01*
X212539967Y-102804479D01*
X212448587Y-102667719D01*
X212332281Y-102551413D01*
X212195521Y-102460033D01*
X212043560Y-102397089D01*
X211882240Y-102365000D01*
X211717760Y-102365000D01*
X211556440Y-102397089D01*
X211404479Y-102460033D01*
X211335000Y-102506457D01*
X211335000Y-85285031D01*
X211513691Y-85339236D01*
X211795000Y-85366943D01*
X212076308Y-85339236D01*
X212346807Y-85257182D01*
X212596100Y-85123932D01*
X212814607Y-84944608D01*
X212993932Y-84726101D01*
X213065000Y-84593142D01*
X213136068Y-84726100D01*
%TA.AperFunction,Conductor*%
D33*
G36*
X213136068Y-84726100D02*
G01*
X213315392Y-84944607D01*
X213375001Y-84993527D01*
X213375000Y-86757045D01*
X213370033Y-86764479D01*
X213307089Y-86916440D01*
X213275000Y-87077760D01*
X213275000Y-87242240D01*
X213307089Y-87403560D01*
X213370033Y-87555521D01*
X213375001Y-87562956D01*
X213375000Y-94787045D01*
X213370033Y-94794479D01*
X213307089Y-94946440D01*
X213275000Y-95107760D01*
X213275000Y-95272240D01*
X213307089Y-95433560D01*
X213370033Y-95585521D01*
X213461413Y-95722281D01*
X213577719Y-95838587D01*
X213714479Y-95929967D01*
X213866440Y-95992911D01*
X214027760Y-96025000D01*
X214192240Y-96025000D01*
X214353560Y-95992911D01*
X214505521Y-95929967D01*
X214642281Y-95838587D01*
X214758587Y-95722281D01*
X214849967Y-95585521D01*
X214865001Y-95549226D01*
X214865000Y-105046203D01*
X214616309Y-104970764D01*
X214335000Y-104943057D01*
X214053692Y-104970764D01*
X213783193Y-105052818D01*
X213533900Y-105186068D01*
X213315393Y-105365392D01*
X213136068Y-105583899D01*
X213065000Y-105716858D01*
X212993932Y-105583899D01*
X212814608Y-105365392D01*
X212596101Y-105186068D01*
X212535000Y-105153409D01*
X212535000Y-103602955D01*
X212539967Y-103595521D01*
X212602911Y-103443560D01*
X212635000Y-103282240D01*
X212635000Y-103117760D01*
X212602911Y-102956440D01*
X212539967Y-102804479D01*
X212448587Y-102667719D01*
X212332281Y-102551413D01*
X212195521Y-102460033D01*
X212043560Y-102397089D01*
X211882240Y-102365000D01*
X211717760Y-102365000D01*
X211556440Y-102397089D01*
X211404479Y-102460033D01*
X211335000Y-102506457D01*
X211335000Y-85285031D01*
X211513691Y-85339236D01*
X211795000Y-85366943D01*
X212076308Y-85339236D01*
X212346807Y-85257182D01*
X212596100Y-85123932D01*
X212814607Y-84944608D01*
X212993932Y-84726101D01*
X213065000Y-84593142D01*
X213136068Y-84726100D01*
G37*
%TD.AperFunction*%
M02*
